{"note":"Real B-1 cohort phrases + exact MCQ questions + note events for the MIDI-inspector tools.","phrases":[{"id":"clair-de-lune:m001-004:piano:mcp-session:v1","song_id":"clair-de-lune","title":"Clair de Lune","composer":"Claude Debussy","year":1905,"key":"Db major","time_signature":"9/8","tempo_bpm":100,"phrase_window":"measures 1-4","split":"test","annotation":{"structure":"Opening atmospheric introduction — 9/8 ripple, floating long melody notes","key_moments":["m1 opening chord with sustained melody","m3 harmonic color shift","m4 transitional chord — expectation"],"teaching_goals":["9/8 triplet pulse must feel like three big beats, not nine","tone color: muted and distant, as if through fog","half-pedal technique for shimmer without muddiness"],"style_tips":["ppp — barely touching the keys","slow and floating — resist the urge to rush","pedal creates the atmospheric shimmer"],"teaching_notes":[{"measure":1,"note":"Think of each 9/8 measure as one slow wave, not nine beats.","technique":["arm follows the phrase arc","half-pedal for clarity"]}]},"events":[{"hand":"right","measure":1,"beat":0.5,"note":65,"name":"F4","t":0.3,"d":2.4,"v":36},{"hand":"right","measure":1,"beat":0.5,"note":68,"name":"G#4","t":0.3,"d":2.4,"v":43},{"hand":"right","measure":1,"beat":1,"note":77,"name":"F5","t":0.6,"d":1.2,"v":36},{"hand":"right","measure":1,"beat":1,"note":80,"name":"G#5","t":0.6,"d":1.2,"v":43},{"hand":"right","measure":1,"beat":3,"note":73,"name":"C#5","t":1.8,"d":1.2,"v":33},{"hand":"right","measure":1,"beat":3,"note":77,"name":"F5","t":1.8,"d":1.2,"v":39},{"hand":"right","measure":2,"beat":0,"note":66,"name":"F#4","t":2.7,"d":2.7,"v":30},{"hand":"right","measure":2,"beat":0,"note":69,"name":"A4","t":2.7,"d":2.7,"v":36},{"hand":"right","measure":2,"beat":0.5,"note":72,"name":"C5","t":3,"d":0.3,"v":31},{"hand":"right","measure":2,"beat":0.5,"note":75,"name":"D#5","t":3,"d":0.3,"v":37},{"hand":"right","measure":2,"beat":1,"note":73,"name":"C#5","t":3.3,"d":0.3,"v":27},{"hand":"right","measure":2,"beat":1,"note":77,"name":"F5","t":3.3,"d":0.3,"v":32},{"hand":"right","measure":2,"beat":1.5,"note":72,"name":"C5","t":3.6,"d":2.1,"v":25},{"hand":"right","measure":2,"beat":1.5,"note":75,"name":"D#5","t":3.6,"d":2.1,"v":30},{"hand":"right","measure":3,"beat":0,"note":65,"name":"F4","t":5.4,"d":2.7,"v":33},{"hand":"right","measure":3,"beat":0,"note":68,"name":"G#4","t":5.4,"d":2.7,"v":39},{"hand":"right","measure":3,"beat":0.5,"note":70,"name":"A#4","t":5.7,"d":0.3,"v":34},{"hand":"right","measure":3,"beat":0.5,"note":73,"name":"C#5","t":5.7,"d":0.3,"v":40},{"hand":"right","measure":3,"beat":1,"note":72,"name":"C5","t":6,"d":0.3,"v":28},{"hand":"right","measure":3,"beat":1,"note":75,"name":"D#5","t":6,"d":0.3,"v":34},{"hand":"right","measure":3,"beat":1.5,"note":70,"name":"A#4","t":6.3,"d":2.1,"v":27},{"hand":"right","measure":3,"beat":1.5,"note":73,"name":"C#5","t":6.3,"d":0.45,"v":32},{"hand":"right","measure":3,"beat":2.25,"note":77,"name":"F5","t":6.75,"d":0.9,"v":46},{"hand":"right","measure":3,"beat":3.75,"note":73,"name":"C#5","t":7.65,"d":0.75,"v":45},{"hand":"right","measure":4,"beat":0,"note":63,"name":"D#4","t":8.1,"d":2.7,"v":32},{"hand":"right","measure":4,"beat":0,"note":66,"name":"F#4","t":8.1,"d":2.695,"v":38},{"hand":"right","measure":4,"beat":0.5,"note":68,"name":"G#4","t":8.4,"d":0.3,"v":28},{"hand":"right","measure":4,"beat":0.5,"note":72,"name":"C5","t":8.4,"d":0.3,"v":34},{"hand":"right","measure":4,"beat":1,"note":70,"name":"A#4","t":8.7,"d":0.3,"v":26},{"hand":"right","measure":4,"beat":1,"note":73,"name":"C#5","t":8.7,"d":0.3,"v":31},{"hand":"right","measure":4,"beat":1.5,"note":68,"name":"G#4","t":9,"d":2.1,"v":22},{"hand":"right","measure":4,"beat":1.5,"note":72,"name":"C5","t":9,"d":2.1,"v":27}],"questions":[{"type":"pitch_class_count","text":"How many notes with pitch class C# appear in this phrase?","options":["6","3","4","8"],"correct":0},{"type":"hand_register","text":"Which hand plays more notes in this phrase?","options":["Left hand (36 notes)","Equal (16 notes each)","Right hand (31 notes)","Right hand (32 notes)"],"correct":3},{"type":"rhythm_onset","text":"How many notes start on beat 1 (downbeat) across all bars in this phrase?","options":["4","5","6","8"],"correct":2},{"type":"annotation_grounding","text":"In measure 3, which pitch does the right hand play on beat 2.25?","options":["F5","F#5","E5","G5"],"correct":0}]},{"id":"fur-elise:m013-016:piano:mcp-session:v1","song_id":"fur-elise","title":"Fur Elise","composer":"Ludwig van Beethoven","year":1810,"key":"A minor","time_signature":"3/8","tempo_bpm":69,"phrase_window":"measures 13-16","split":"train","annotation":{"structure":"B section continuation — fuller LH, half cadence on G","key_moments":["m13 phrase continues in C major","m15 LH grows fuller","m16 dominant G half cadence"],"teaching_goals":["fuller LH support in mm. 13–16","feel the half cadence as preparation for A theme return"],"style_tips":["the half cadence should feel expectant — not finished","slight ritardando before A theme return"],"teaching_notes":[{"measure":16,"note":"The dominant G cadence is a door back to the A theme — leave it open.","technique":["slight tenuto on G","prepare for A theme return"]}]},"events":[{"hand":"left","measure":13,"beat":0,"note":45,"name":"A2","t":0.003,"d":0.217,"v":38},{"hand":"right","measure":13,"beat":0,"note":72,"name":"C5","t":0.003,"d":0.434,"v":45},{"hand":"left","measure":13,"beat":0.25,"note":52,"name":"E3","t":0.22,"d":0.217,"v":35},{"hand":"left","measure":13,"beat":0.5,"note":57,"name":"A3","t":0.436,"d":0.217,"v":35},{"hand":"right","measure":13,"beat":0.75,"note":64,"name":"E4","t":0.653,"d":0.217,"v":35},{"hand":"right","measure":13,"beat":1,"note":76,"name":"E5","t":0.87,"d":0.217,"v":38},{"hand":"right","measure":13,"beat":1.25,"note":75,"name":"D#5","t":1.087,"d":0.217,"v":34},{"hand":"right","measure":14,"beat":0,"note":76,"name":"E5","t":1.304,"d":0.217,"v":41},{"hand":"right","measure":14,"beat":0.25,"note":75,"name":"D#5","t":1.521,"d":0.217,"v":37},{"hand":"right","measure":14,"beat":0.5,"note":76,"name":"E5","t":1.737,"d":0.217,"v":46},{"hand":"right","measure":14,"beat":0.75,"note":71,"name":"B4","t":1.954,"d":0.217,"v":39},{"hand":"right","measure":14,"beat":1,"note":74,"name":"D5","t":2.171,"d":0.217,"v":48},{"hand":"right","measure":14,"beat":1.25,"note":72,"name":"C5","t":2.388,"d":0.217,"v":39},{"hand":"left","measure":15,"beat":0,"note":45,"name":"A2","t":2.605,"d":0.217,"v":38},{"hand":"right","measure":15,"beat":0,"note":69,"name":"A4","t":2.605,"d":0.434,"v":48},{"hand":"left","measure":15,"beat":0.25,"note":52,"name":"E3","t":2.822,"d":0.217,"v":35},{"hand":"left","measure":15,"beat":0.5,"note":57,"name":"A3","t":3.038,"d":0.217,"v":34},{"hand":"right","measure":15,"beat":0.75,"note":60,"name":"C4","t":3.255,"d":0.217,"v":34},{"hand":"right","measure":15,"beat":1,"note":64,"name":"E4","t":3.472,"d":0.217,"v":37},{"hand":"right","measure":15,"beat":1.25,"note":69,"name":"A4","t":3.689,"d":0.217,"v":41},{"hand":"left","measure":16,"beat":0,"note":40,"name":"E2","t":3.906,"d":0.217,"v":38},{"hand":"right","measure":16,"beat":0,"note":71,"name":"B4","t":3.906,"d":0.434,"v":45},{"hand":"left","measure":16,"beat":0.25,"note":52,"name":"E3","t":4.123,"d":0.217,"v":37},{"hand":"left","measure":16,"beat":0.5,"note":56,"name":"G#3","t":4.339,"d":0.217,"v":37},{"hand":"right","measure":16,"beat":0.75,"note":64,"name":"E4","t":4.556,"d":0.217,"v":37},{"hand":"right","measure":16,"beat":1,"note":72,"name":"C5","t":4.773,"d":0.217,"v":40},{"hand":"right","measure":16,"beat":1.25,"note":71,"name":"B4","t":4.99,"d":0.217,"v":38}],"questions":[{"type":"pitch_class_count","text":"How many notes with pitch class E appear in this phrase?","options":["7","8","12","10"],"correct":3},{"type":"hand_register","text":"Which hand plays more notes in this phrase?","options":["Left hand (20 notes)","Equal (14 notes each)","Right hand (18 notes)","Right hand (15 notes)"],"correct":2},{"type":"rhythm_onset","text":"How many notes start on beat 1 (downbeat) across all bars in this phrase?","options":["11","9","10","13"],"correct":0},{"type":"annotation_grounding","text":"In measure 13, which pitch does the right hand play on beat 1?","options":["E5","F5","D#5","F#5"],"correct":0}]},{"id":"bach-prelude-c-major-bwv846:m009-012:piano:mcp-session:v1","song_id":"bach-prelude-c-major-bwv846","title":"Prelude in C Major, BWV 846","composer":"Johann Sebastian Bach","year":1722,"key":"C major","time_signature":"4/4","tempo_bpm":74,"phrase_window":"measures 9-12","split":"train","annotation":{"structure":"Second cycle — ii–V–I into the dominant key (Am7 – D7 – G) with a diminished-seventh shade at m12","key_moments":["m9 A minor seventh — pivot away from C","m10 D7 — dominant of G, the strongest pull away from home so far","m11 G major — arrival in the dominant key","m12 diminished-seventh color over the G bass"],"teaching_goals":["identify a ii–V–I even when it is spread across whole measures of arpeggio","maintain the even texture while the harmony travels"],"style_tips":["m10's F# wants to rise to G — let the harmony do the leaning","harmonic rhythm is still one chord per measure — count carefully"],"teaching_notes":[{"measure":10,"note":"D7 (D-F#-A-C) is the dominant of G — its F# pulls the whole phrase toward m.11.","technique":["feel the F# in the arpeggio as the leaning tone"]}]},"events":[{"hand":"left","measure":9,"beat":0.0021,"note":57,"name":"A3","t":0.002,"d":1.622,"v":61},{"hand":"right","measure":9,"beat":0.2521,"note":60,"name":"C4","t":0.204,"d":1.419,"v":57},{"hand":"right","measure":9,"beat":0.5021,"note":64,"name":"E4","t":0.407,"d":0.203,"v":56},{"hand":"right","measure":9,"beat":0.7521,"note":67,"name":"G4","t":0.61,"d":0.203,"v":60},{"hand":"right","measure":9,"beat":1.0021,"note":72,"name":"C5","t":0.813,"d":0.182,"v":63},{"hand":"right","measure":9,"beat":1.2521,"note":64,"name":"E4","t":1.015,"d":0.203,"v":50},{"hand":"right","measure":9,"beat":1.5021,"note":67,"name":"G4","t":1.218,"d":0.203,"v":47},{"hand":"right","measure":9,"beat":1.7521,"note":72,"name":"C5","t":1.421,"d":0.203,"v":47},{"hand":"left","measure":9,"beat":2.0021,"note":57,"name":"A3","t":1.623,"d":1.622,"v":62},{"hand":"right","measure":9,"beat":2.2521,"note":60,"name":"C4","t":1.826,"d":1.419,"v":57},{"hand":"right","measure":9,"beat":2.5021,"note":64,"name":"E4","t":2.029,"d":0.203,"v":56},{"hand":"right","measure":9,"beat":2.7521,"note":67,"name":"G4","t":2.231,"d":0.203,"v":60},{"hand":"right","measure":9,"beat":3.0021,"note":72,"name":"C5","t":2.434,"d":0.182,"v":62},{"hand":"right","measure":9,"beat":3.2521,"note":64,"name":"E4","t":2.637,"d":0.203,"v":50},{"hand":"right","measure":9,"beat":3.5021,"note":67,"name":"G4","t":2.84,"d":0.203,"v":48},{"hand":"right","measure":9,"beat":3.7521,"note":72,"name":"C5","t":3.042,"d":0.203,"v":48},{"hand":"left","measure":10,"beat":0.0021,"note":50,"name":"D3","t":3.245,"d":1.622,"v":61},{"hand":"left","measure":10,"beat":0.2521,"note":57,"name":"A3","t":3.448,"d":1.419,"v":57},{"hand":"right","measure":10,"beat":0.5021,"note":62,"name":"D4","t":3.65,"d":0.203,"v":56},{"hand":"right","measure":10,"beat":0.7521,"note":66,"name":"F#4","t":3.853,"d":0.203,"v":60},{"hand":"right","measure":10,"beat":1.0021,"note":72,"name":"C5","t":4.056,"d":0.182,"v":63},{"hand":"right","measure":10,"beat":1.2521,"note":62,"name":"D4","t":4.258,"d":0.203,"v":50},{"hand":"right","measure":10,"beat":1.5021,"note":66,"name":"F#4","t":4.461,"d":0.203,"v":47},{"hand":"right","measure":10,"beat":1.7521,"note":72,"name":"C5","t":4.664,"d":0.203,"v":47},{"hand":"left","measure":10,"beat":2.0021,"note":50,"name":"D3","t":4.867,"d":1.622,"v":62},{"hand":"left","measure":10,"beat":2.2521,"note":57,"name":"A3","t":5.069,"d":1.419,"v":57},{"hand":"right","measure":10,"beat":2.5021,"note":62,"name":"D4","t":5.272,"d":0.203,"v":56},{"hand":"right","measure":10,"beat":2.7521,"note":66,"name":"F#4","t":5.475,"d":0.203,"v":60},{"hand":"right","measure":10,"beat":3.0021,"note":72,"name":"C5","t":5.677,"d":0.182,"v":62},{"hand":"right","measure":10,"beat":3.2521,"note":62,"name":"D4","t":5.88,"d":0.203,"v":50},{"hand":"right","measure":10,"beat":3.5021,"note":66,"name":"F#4","t":6.083,"d":0.203,"v":48},{"hand":"right","measure":10,"beat":3.7521,"note":72,"name":"C5","t":6.285,"d":0.203,"v":48},{"hand":"left","measure":11,"beat":0.0021,"note":55,"name":"G3","t":6.488,"d":1.622,"v":57},{"hand":"left","measure":11,"beat":0.2521,"note":59,"name":"B3","t":6.691,"d":1.419,"v":55},{"hand":"right","measure":11,"beat":0.5021,"note":62,"name":"D4","t":6.894,"d":0.203,"v":53},{"hand":"right","measure":11,"beat":0.7521,"note":67,"name":"G4","t":7.096,"d":0.203,"v":56},{"hand":"right","measure":11,"beat":1.0021,"note":71,"name":"B4","t":7.299,"d":0.182,"v":60},{"hand":"right","measure":11,"beat":1.2521,"note":62,"name":"D4","t":7.502,"d":0.203,"v":46},{"hand":"right","measure":11,"beat":1.5021,"note":67,"name":"G4","t":7.704,"d":0.203,"v":45},{"hand":"right","measure":11,"beat":1.7521,"note":71,"name":"B4","t":7.907,"d":0.203,"v":45},{"hand":"left","measure":11,"beat":2.0021,"note":55,"name":"G3","t":8.11,"d":1.622,"v":58},{"hand":"left","measure":11,"beat":2.2521,"note":59,"name":"B3","t":8.313,"d":1.419,"v":55},{"hand":"right","measure":11,"beat":2.5021,"note":62,"name":"D4","t":8.515,"d":0.203,"v":53},{"hand":"right","measure":11,"beat":2.7521,"note":67,"name":"G4","t":8.718,"d":0.203,"v":56},{"hand":"right","measure":11,"beat":3.0021,"note":71,"name":"B4","t":8.921,"d":0.182,"v":58},{"hand":"right","measure":11,"beat":3.2521,"note":62,"name":"D4","t":9.123,"d":0.203,"v":47},{"hand":"right","measure":11,"beat":3.5021,"note":67,"name":"G4","t":9.326,"d":0.203,"v":45},{"hand":"right","measure":11,"beat":3.7521,"note":71,"name":"B4","t":9.529,"d":0.203,"v":45},{"hand":"left","measure":12,"beat":0.0021,"note":55,"name":"G3","t":9.731,"d":1.622,"v":57},{"hand":"left","measure":12,"beat":0.2521,"note":58,"name":"A#3","t":9.934,"d":1.419,"v":55},{"hand":"right","measure":12,"beat":0.5021,"note":64,"name":"E4","t":10.137,"d":0.203,"v":53},{"hand":"right","measure":12,"beat":0.7521,"note":67,"name":"G4","t":10.34,"d":0.203,"v":56},{"hand":"right","measure":12,"beat":1.0021,"note":73,"name":"C#5","t":10.542,"d":0.182,"v":60},{"hand":"right","measure":12,"beat":1.2521,"note":64,"name":"E4","t":10.745,"d":0.203,"v":46},{"hand":"right","measure":12,"beat":1.5021,"note":67,"name":"G4","t":10.948,"d":0.203,"v":45},{"hand":"right","measure":12,"beat":1.7521,"note":73,"name":"C#5","t":11.15,"d":0.203,"v":45},{"hand":"left","measure":12,"beat":2.0021,"note":55,"name":"G3","t":11.353,"d":1.622,"v":58},{"hand":"left","measure":12,"beat":2.2521,"note":58,"name":"A#3","t":11.556,"d":1.419,"v":55},{"hand":"right","measure":12,"beat":2.5021,"note":64,"name":"E4","t":11.758,"d":0.203,"v":53},{"hand":"right","measure":12,"beat":2.7521,"note":67,"name":"G4","t":11.961,"d":0.203,"v":56},{"hand":"right","measure":12,"beat":3.0021,"note":73,"name":"C#5","t":12.164,"d":0.182,"v":58},{"hand":"right","measure":12,"beat":3.2521,"note":64,"name":"E4","t":12.367,"d":0.203,"v":47},{"hand":"right","measure":12,"beat":3.5021,"note":67,"name":"G4","t":12.569,"d":0.203,"v":45},{"hand":"right","measure":12,"beat":3.7521,"note":73,"name":"C#5","t":12.772,"d":0.203,"v":45}],"questions":[{"type":"pitch_class_count","text":"How many notes with pitch class G appear in this phrase?","options":["13","14","18","16"],"correct":3},{"type":"hand_register","text":"Which hand plays more notes in this phrase?","options":["Left hand (56 notes)","Equal (32 notes each)","Right hand (48 notes)","Right hand (50 notes)"],"correct":3},{"type":"rhythm_onset","text":"How many notes start on beat 1 (downbeat) across all bars in this phrase?","options":["6","7","10","8"],"correct":3},{"type":"annotation_grounding","text":"In measure 11, which pitch does the right hand play on beat 3.5021?","options":["G4","G#4","F#4","A4"],"correct":0}]},{"id":"mozart-k545-mvt1:m009-012:piano:mcp-session:v1","song_id":"mozart-k545-mvt1","title":"Piano Sonata No. 16 in C Major, K. 545, I. Allegro","composer":"Wolfgang Amadeus Mozart","year":1788,"key":"C major","time_signature":"4/4","tempo_bpm":137,"phrase_window":"measures 9-12","split":"train","annotation":{"structure":"Transition — sequential motion from C toward dominant G","key_moments":["m9 transition begins","m11 sequential scale passages","m12 dominant preparation"],"teaching_goals":["feel the modulation — notice when G major becomes more prominent","even scales in RH for the sequential passages"],"style_tips":["slight acceleration of energy but not tempo","these transitions are exciting — let them move"],"teaching_notes":[{"measure":11,"note":"Sequential passages: equal weight on every note for clarity.","technique":["finger independence for clean scales"]}]},"events":[{"hand":"left","measure":9,"beat":0,"note":53,"name":"F3","t":0,"d":1.758,"v":40},{"hand":"left","measure":9,"beat":0,"note":57,"name":"A3","t":0,"d":1.758,"v":40},{"hand":"right","measure":9,"beat":0,"note":62,"name":"D4","t":0,"d":0.22,"v":60},{"hand":"right","measure":9,"beat":0.5,"note":64,"name":"E4","t":0.22,"d":0.121,"v":53},{"hand":"right","measure":9,"beat":0.75,"note":65,"name":"F4","t":0.33,"d":0.121,"v":54},{"hand":"right","measure":9,"beat":1,"note":67,"name":"G4","t":0.439,"d":0.121,"v":55},{"hand":"right","measure":9,"beat":1.25,"note":69,"name":"A4","t":0.549,"d":0.121,"v":57},{"hand":"right","measure":9,"beat":1.5,"note":71,"name":"B4","t":0.659,"d":0.121,"v":58},{"hand":"right","measure":9,"beat":1.75,"note":73,"name":"C#5","t":0.769,"d":0.121,"v":59},{"hand":"right","measure":9,"beat":2,"note":74,"name":"D5","t":0.879,"d":0.11,"v":62},{"hand":"right","measure":9,"beat":2.25,"note":69,"name":"A4","t":0.989,"d":0.121,"v":58},{"hand":"right","measure":9,"beat":2.5,"note":71,"name":"B4","t":1.099,"d":0.121,"v":61},{"hand":"right","measure":9,"beat":2.75,"note":73,"name":"C#5","t":1.208,"d":0.121,"v":64},{"hand":"right","measure":9,"beat":3,"note":74,"name":"D5","t":1.318,"d":0.121,"v":66},{"hand":"right","measure":9,"beat":3.25,"note":76,"name":"E5","t":1.428,"d":0.121,"v":67},{"hand":"right","measure":9,"beat":3.5,"note":77,"name":"F5","t":1.538,"d":0.121,"v":68},{"hand":"right","measure":9,"beat":3.75,"note":79,"name":"G5","t":1.648,"d":0.121,"v":69},{"hand":"left","measure":10,"beat":0,"note":53,"name":"F3","t":1.758,"d":0.659,"v":60},{"hand":"right","measure":10,"beat":0,"note":81,"name":"A5","t":1.758,"d":0.121,"v":70},{"hand":"right","measure":10,"beat":0.25,"note":83,"name":"B5","t":1.868,"d":0.121,"v":69},{"hand":"right","measure":10,"beat":0.5,"note":84,"name":"C6","t":1.977,"d":0.121,"v":71},{"hand":"right","measure":10,"beat":0.75,"note":83,"name":"B5","t":2.087,"d":0.121,"v":69},{"hand":"right","measure":10,"beat":1,"note":81,"name":"A5","t":2.197,"d":0.121,"v":67},{"hand":"right","measure":10,"beat":1.25,"note":79,"name":"G5","t":2.307,"d":0.121,"v":65},{"hand":"left","measure":10,"beat":1.5,"note":55,"name":"G3","t":2.417,"d":0.22,"v":55},{"hand":"right","measure":10,"beat":1.5,"note":77,"name":"F5","t":2.417,"d":0.121,"v":63},{"hand":"right","measure":10,"beat":1.75,"note":76,"name":"E5","t":2.527,"d":0.11,"v":66},{"hand":"left","measure":10,"beat":2,"note":57,"name":"A3","t":2.637,"d":0.659,"v":60},{"hand":"right","measure":10,"beat":2,"note":77,"name":"F5","t":2.637,"d":0.121,"v":65},{"hand":"right","measure":10,"beat":2.25,"note":79,"name":"G5","t":2.746,"d":0.121,"v":66},{"hand":"right","measure":10,"beat":2.5,"note":81,"name":"A5","t":2.856,"d":0.121,"v":67},{"hand":"right","measure":10,"beat":2.75,"note":79,"name":"G5","t":2.966,"d":0.121,"v":67},{"hand":"right","measure":10,"beat":3,"note":77,"name":"F5","t":3.076,"d":0.121,"v":68},{"hand":"right","measure":10,"beat":3.25,"note":76,"name":"E5","t":3.186,"d":0.121,"v":71},{"hand":"left","measure":10,"beat":3.5,"note":54,"name":"F#3","t":3.296,"d":0.22,"v":54},{"hand":"right","measure":10,"beat":3.5,"note":74,"name":"D5","t":3.296,"d":0.121,"v":73},{"hand":"right","measure":10,"beat":3.75,"note":72,"name":"C5","t":3.406,"d":0.121,"v":76},{"hand":"left","measure":11,"beat":0,"note":43,"name":"G2","t":3.515,"d":0.11,"v":65},{"hand":"right","measure":11,"beat":0,"note":71,"name":"B4","t":3.515,"d":0.11,"v":78},{"hand":"left","measure":11,"beat":0.25,"note":47,"name":"B2","t":3.625,"d":0.11,"v":56},{"hand":"left","measure":11,"beat":0.5,"note":50,"name":"D3","t":3.735,"d":0.11,"v":56},{"hand":"right","measure":11,"beat":0.5,"note":79,"name":"G5","t":3.735,"d":0.11,"v":71},{"hand":"left","measure":11,"beat":0.75,"note":55,"name":"G3","t":3.845,"d":0.11,"v":50},{"hand":"left","measure":11,"beat":1,"note":43,"name":"G2","t":3.955,"d":0.11,"v":65},{"hand":"right","measure":11,"beat":1,"note":76,"name":"E5","t":3.955,"d":0.11,"v":71},{"hand":"left","measure":11,"beat":1.25,"note":48,"name":"C3","t":4.065,"d":0.11,"v":55},{"hand":"left","measure":11,"beat":1.5,"note":52,"name":"E3","t":4.175,"d":0.11,"v":55},{"hand":"right","measure":11,"beat":1.5,"note":72,"name":"C5","t":4.175,"d":0.11,"v":71},{"hand":"left","measure":11,"beat":1.75,"note":55,"name":"G3","t":4.284,"d":0.11,"v":50},{"hand":"left","measure":11,"beat":2,"note":43,"name":"G2","t":4.394,"d":0.11,"v":65},{"hand":"right","measure":11,"beat":2,"note":74,"name":"D5","t":4.394,"d":0.11,"v":78},{"hand":"left","measure":11,"beat":2.25,"note":47,"name":"B2","t":4.504,"d":0.11,"v":55},{"hand":"left","measure":11,"beat":2.5,"note":50,"name":"D3","t":4.614,"d":0.11,"v":55},{"hand":"right","measure":11,"beat":2.5,"note":79,"name":"G5","t":4.614,"d":0.11,"v":71},{"hand":"left","measure":11,"beat":2.75,"note":55,"name":"G3","t":4.724,"d":0.11,"v":54},{"hand":"left","measure":11,"beat":3,"note":43,"name":"G2","t":4.834,"d":0.11,"v":65},{"hand":"right","measure":11,"beat":3,"note":76,"name":"E5","t":4.834,"d":0.11,"v":71},{"hand":"left","measure":11,"beat":3.25,"note":48,"name":"C3","t":4.944,"d":0.11,"v":57},{"hand":"left","measure":11,"beat":3.5,"note":52,"name":"E3","t":5.053,"d":0.11,"v":56},{"hand":"right","measure":11,"beat":3.5,"note":72,"name":"C5","t":5.053,"d":0.11,"v":71},{"hand":"left","measure":11,"beat":3.75,"note":55,"name":"G3","t":5.163,"d":0.11,"v":53},{"hand":"left","measure":12,"beat":0,"note":43,"name":"G2","t":5.273,"d":0.11,"v":65},{"hand":"right","measure":12,"beat":0,"note":74,"name":"D5","t":5.273,"d":0.11,"v":81},{"hand":"left","measure":12,"beat":1,"note":55,"name":"G3","t":5.713,"d":0.11,"v":59},{"hand":"right","measure":12,"beat":1,"note":71,"name":"B4","t":5.713,"d":0.11,"v":71},{"hand":"right","measure":12,"beat":1,"note":74,"name":"D5","t":5.713,"d":0.11,"v":71},{"hand":"right","measure":12,"beat":1,"note":79,"name":"G5","t":5.713,"d":0.11,"v":71},{"hand":"left","measure":12,"beat":2,"note":43,"name":"G2","t":6.152,"d":0.439,"v":61},{"hand":"right","measure":12,"beat":2,"note":67,"name":"G4","t":6.152,"d":0.439,"v":83}],"questions":[{"type":"pitch_class_count","text":"How many notes with pitch class G appear in this phrase?","options":["21","18","19","23"],"correct":0},{"type":"hand_register","text":"Which hand plays more notes in this phrase?","options":["Right hand (44 notes)","Left hand (48 notes)","Equal (35 notes each)","Right hand (42 notes)"],"correct":0},{"type":"rhythm_onset","text":"How many notes start on beat 1 (downbeat) across all bars in this phrase?","options":["9","11","10","13"],"correct":1},{"type":"annotation_grounding","text":"In measure 10, which pitch does the right hand play on beat 3?","options":["F#5","F5","E5","G5"],"correct":1}]},{"id":"chopin-nocturne-op9-no2:m001-004:piano:mcp-session:v1","song_id":"chopin-nocturne-op9-no2","title":"Nocturne in Eb Major, Op. 9 No. 2","composer":"Frederic Chopin","year":1832,"key":"Eb major","time_signature":"4/4","tempo_bpm":120,"phrase_window":"measures 1-4","split":"train","annotation":{"structure":"Antecedent phrase — Eb major opening theme, ends on dominant","key_moments":["m1 Eb cantabile theme entrance","m2 ascending melodic peak","m4 half cadence on Bb dominant"],"teaching_goals":["singing cantabile RH touch","LH-RH independence — LH always quieter","phrase shape: rise and fall"],"style_tips":["RH melody sings as if a soprano voice","LH broken chords are breath, not beats","no hurrying the ascent"],"teaching_notes":[{"measure":1,"note":"Cantabile: imagine the melody as a human voice, never mechanical.","technique":["arm weight into RH melody","LH pp throughout"]},{"measure":4,"note":"The dominant Bb landing creates expectation — don't resolve early.","technique":["hold the Bb with slight tenuto"]}]},"events":[{"hand":"right","measure":1,"beat":0,"note":70,"name":"A#4","t":0,"d":0.831,"v":46},{"hand":"right","measure":1,"beat":1.5458,"note":79,"name":"G5","t":0.773,"d":2.531,"v":81},{"hand":"left","measure":1,"beat":1.575,"note":39,"name":"D#2","t":0.788,"d":0.285,"v":24},{"hand":"left","measure":1,"beat":3.0042,"note":55,"name":"G3","t":1.502,"d":0.158,"v":31},{"hand":"right","measure":1,"beat":3.0083,"note":63,"name":"D#4","t":1.504,"d":0.2,"v":25},{"hand":"right","measure":2,"beat":0.0333,"note":67,"name":"G4","t":2.017,"d":0.15,"v":29},{"hand":"left","measure":2,"beat":0.0417,"note":58,"name":"A#3","t":2.021,"d":0.317,"v":19},{"hand":"right","measure":2,"beat":0.0542,"note":63,"name":"D#4","t":2.027,"d":0.171,"v":34},{"hand":"left","measure":2,"beat":1.1667,"note":51,"name":"D#3","t":2.583,"d":0.26,"v":40},{"hand":"right","measure":2,"beat":2.3417,"note":77,"name":"F5","t":3.171,"d":0.596,"v":78},{"hand":"left","measure":2,"beat":2.4083,"note":56,"name":"G#3","t":3.204,"d":0.138,"v":23},{"hand":"right","measure":2,"beat":2.45,"note":62,"name":"D4","t":3.225,"d":0.104,"v":27},{"hand":"right","measure":2,"beat":3.2958,"note":79,"name":"G5","t":3.648,"d":0.723,"v":94},{"hand":"right","measure":2,"beat":3.3375,"note":68,"name":"G#4","t":3.669,"d":0.092,"v":33},{"hand":"left","measure":2,"beat":3.3563,"note":59,"name":"B3","t":3.678,"d":0.09,"v":24},{"hand":"right","measure":2,"beat":3.3688,"note":62,"name":"D4","t":3.684,"d":0.079,"v":9},{"hand":"right","measure":3,"beat":0.475,"note":77,"name":"F5","t":4.238,"d":1.825,"v":79},{"hand":"left","measure":3,"beat":0.5333,"note":39,"name":"D#2","t":4.267,"d":0.233,"v":36},{"hand":"right","measure":3,"beat":1.7875,"note":63,"name":"D#4","t":4.894,"d":0.14,"v":33},{"hand":"left","measure":3,"beat":1.8417,"note":55,"name":"G3","t":4.921,"d":0.113,"v":22},{"hand":"left","measure":3,"beat":2.8292,"note":58,"name":"A#3","t":5.415,"d":0.198,"v":20},{"hand":"right","measure":3,"beat":2.8542,"note":67,"name":"G4","t":5.427,"d":0.1,"v":28},{"hand":"right","measure":3,"beat":2.875,"note":63,"name":"D#4","t":5.438,"d":0.079,"v":24},{"hand":"right","measure":3,"beat":3.7833,"note":75,"name":"D#5","t":5.892,"d":0.719,"v":42},{"hand":"left","measure":3,"beat":3.8375,"note":38,"name":"D2","t":5.919,"d":0.265,"v":50},{"hand":"right","measure":4,"beat":1.0583,"note":63,"name":"D#4","t":6.529,"d":0.154,"v":35},{"hand":"left","measure":4,"beat":1.0667,"note":55,"name":"G3","t":6.533,"d":0.194,"v":31},{"hand":"right","measure":4,"beat":2.0042,"note":70,"name":"A#4","t":7.002,"d":0.635,"v":65},{"hand":"left","measure":4,"beat":2.0583,"note":58,"name":"A#3","t":7.029,"d":0.173,"v":22},{"hand":"right","measure":4,"beat":2.0583,"note":67,"name":"G4","t":7.029,"d":0.065,"v":35},{"hand":"right","measure":4,"beat":2.1,"note":63,"name":"D#4","t":7.05,"d":0.09,"v":39},{"hand":"left","measure":4,"beat":3.0917,"note":36,"name":"C2","t":7.546,"d":0.285,"v":59},{"hand":"right","measure":4,"beat":3.1021,"note":79,"name":"G5","t":7.551,"d":0.957,"v":84}],"questions":[{"type":"pitch_class_count","text":"How many notes with pitch class D# appear in this phrase?","options":["7","10","8","12"],"correct":1},{"type":"hand_register","text":"Which hand plays more notes in this phrase?","options":["Right hand (20 notes)","Left hand (23 notes)","Equal (17 notes each)","Right hand (19 notes)"],"correct":0},{"type":"rhythm_onset","text":"How many notes start on beat 1 (downbeat) across all bars in this phrase?","options":["0","3","1","4"],"correct":2},{"type":"annotation_grounding","text":"In measure 3, which pitch does the right hand play on beat 0.475?","options":["F#5","E5","F5","G5"],"correct":2}]},{"id":"pathetique-mvt2:m001-004:piano:mcp-session:v1","song_id":"pathetique-mvt2","title":"Pathetique Sonata, 2nd Movement","composer":"Ludwig van Beethoven","year":1799,"key":"Ab major","time_signature":"4/4","tempo_bpm":120,"phrase_window":"measures 1-4","split":"train","annotation":{"structure":"Opening antecedent of the Adagio cantabile (paired continuation at m. 5–8). The right hand is exceptionally sparse — only two pitches sound across the four bars (C4 at m. 1 b3.9979 and D#4 at m. 3 b3.9354, both at the very end of their measures as upbeat-pickup leads into the next bar). The harmonic and rhythmic engine lives in the left hand: 16 LH events forming a slow rocking arpeggio that outlines the A♭ major tonic and its V (E♭, MIDI-spelled D#) across mm. 2–4. The LH pattern alternates A♭ (G#2, G#3, MIDI naming) with E♭ (D#3) and brief chromatic-color tones (A#3, C#3, G3, C3). The dominant pitch class throughout is D# (E♭) — it is the V of A♭ major and recurs 7 times across the phrase, anchoring the harmonic field.","key_moments":["m. 1 b3.9979 — C4 entrance in the right hand (MIDI velocity 63, sustained 2.35 seconds across the bar line into m. 2). This is the only right-hand event in measure 1; the entire bar otherwise rests. The C4 pickup leads into the LH arpeggio that begins at m. 2 b0.0188 with G#2 (A♭2) on the bass downbeat","m. 2 — LH rocking arpeggio entry: G#2 (A♭2) bass at b0.0188, G#3 (A♭3) inner voice at b0.1271, then D#3 (E♭3) at b1.2979 marks the first dominant-tone arrival, G#3 again at b2.2979, D#3 again at b3.1896; the surface is six LH attacks across the bar (the densest LH measure of the phrase)","m. 3 — chromatic-color cluster: LH attacks A#3 (B♭3, the seventh) at b0.0771, C#3 (D♭3, lowered ♮IV color) at b0.1438, G3 (the leading tone of A♭) at b0.2146, then D#3 at b1.0438, G3 at b2.0229, D#3 at b2.9771. The right hand re-enters with D#4 (E♭4) at b3.9354 — the second and final RH pickup, sustained 3.01 seconds (longest RH duration of the phrase)","m. 4 — closing LH arpeggio: G#3 at b0.0229, C3 (low tonic) at b0.0604 (sustained 2.04 seconds — the longest single LH bass note), D#3 at b1.0729, G#3 at b2.0271, D#3 at b3.0854. The phrase ends with the LH still rocking, the RH silent — the opening sound is suspension, not arrival","hand balance: the left hand plays 16 notes across the phrase; the right hand plays 2. The LH dominates this opening texture by a wide margin — the cantabile melody is implied by the C4 / D#4 pickup pair, not stated in full"],"teaching_goals":["treat the LH rocking arpeggio as the main musical content of this phrase — it carries the harmony, the rhythm, and the registral motion while the RH is sparse","voice each RH pickup (C4 at m. 1 b3.9979 and D#4 at m. 3 b3.9354) as a singing upbeat that bridges into the next bar — sustain its tone through the LH activity below","feel the recurring D#3 (E♭3) attacks as the dominant pole of A♭ major; the bar-by-bar rocking returns to E♭ as the gravitational center","release the LH C3 in m. 4 b0.0604 only when its 2.04-second sustain naturally ends — it is the harmonic floor for the entire closing bar"],"style_tips":["pp to mp throughout — extremely soft, contemplative; never loud enough to break the dreamlike opening","pedal each LH chord change (m. 2, m. 3, m. 4) — half-pedal through the inner-voice activity to keep the rocking arpeggio clear without smearing the chromatic-color tones","Adagio means very slow — the RH C4 should ring 2+ seconds before the LH bass arrives at m. 2; do not rush the pickup"],"teaching_notes":[{"measure":1,"note":"The right-hand C4 at b3.9979 (display: beat 4 of m. 1) is the phrase's signature opening pickup. It enters alone — no LH event sounds in m. 1 — and sustains 2.35 seconds across the bar line into m. 2. Voice it as the cantabile entry; the entire phrase grows out of this single soft tone.","technique":["voice the C4 entrance as a singing pickup","sustain through the bar line","arm weight, not finger strike"]},{"measure":2,"note":"Six LH attacks: G#2 (A♭2) at b0.0188, G#3 (A♭3) at b0.1271, D#3 (E♭3) at b1.2979, G#3 at b2.2979, D#3 at b3.1896. The pattern outlines A♭ major's I–V rocking — A♭ bass with G3-G#3 inner-voice motion and D#3 (E♭3) as the V tone. The surface rhythm is even and quiet; the inner motion is the musical content.","technique":["even LH attack pattern","quiet inner voices","let the D#3 (E♭3) speak as the dominant tone"]},{"measure":3,"note":"Chromatic-color cluster at the start of the bar: A#3 (B♭3) at b0.0771, C#3 (D♭3) at b0.1438, G3 at b0.2146 — three attacks within the first quarter-beat. The right hand re-enters with D#4 (E♭4) at b3.9354, the longest RH pitch of the phrase (3.01 seconds). Voice D#4 as the answering pickup to C4 — together they sketch the cantabile melody.","technique":["voice the chromatic LH cluster lightly","sustain D#4 (E♭4) pickup","feel the C4/D#4 pair as the implied melody"]},{"measure":4,"note":"The LH C3 at b0.0604 sustains 2.04 seconds — the lowest and longest LH bass note of the phrase. Above it, the rocking arpeggio continues with G#3, D#3, G#3, D#3. The phrase ends with the LH still active, the RH silent. There is no resolution — it is an open suspension that the continuation (m. 5–8) will answer.","technique":["sustain the low C3 floor","keep the rocking arpeggio even","leave the phrase open"]}]},"events":[{"hand":"right","measure":1,"beat":3.9979,"note":60,"name":"C4","t":1.999,"d":2.35,"v":63},{"hand":"left","measure":2,"beat":0.0188,"note":44,"name":"G#2","t":2.009,"d":2.285,"v":25},{"hand":"left","measure":2,"beat":0.1271,"note":56,"name":"G#3","t":2.064,"d":0.671,"v":17},{"hand":"left","measure":2,"beat":1.2979,"note":51,"name":"D#3","t":2.649,"d":0.552,"v":23},{"hand":"left","measure":2,"beat":2.2979,"note":56,"name":"G#3","t":3.149,"d":0.542,"v":19},{"hand":"left","measure":2,"beat":3.1896,"note":51,"name":"D#3","t":3.595,"d":0.537,"v":23},{"hand":"left","measure":3,"beat":0.0771,"note":58,"name":"A#3","t":4.039,"d":2.179,"v":56},{"hand":"left","measure":3,"beat":0.1438,"note":49,"name":"C#3","t":4.072,"d":2.056,"v":27},{"hand":"left","measure":3,"beat":0.2146,"note":55,"name":"G3","t":4.107,"d":0.452,"v":18},{"hand":"left","measure":3,"beat":1.0438,"note":51,"name":"D#3","t":4.522,"d":0.502,"v":21},{"hand":"left","measure":3,"beat":2.0229,"note":55,"name":"G3","t":5.011,"d":0.554,"v":23},{"hand":"left","measure":3,"beat":2.9771,"note":51,"name":"D#3","t":5.489,"d":0.76,"v":26},{"hand":"right","measure":3,"beat":3.9354,"note":63,"name":"D#4","t":5.968,"d":3.015,"v":60},{"hand":"left","measure":4,"beat":0.0229,"note":56,"name":"G#3","t":6.011,"d":0.652,"v":22},{"hand":"left","measure":4,"beat":0.0604,"note":48,"name":"C3","t":6.03,"d":2.042,"v":20},{"hand":"left","measure":4,"beat":1.0729,"note":51,"name":"D#3","t":6.536,"d":0.585,"v":26},{"hand":"left","measure":4,"beat":2.0271,"note":56,"name":"G#3","t":7.014,"d":0.619,"v":28},{"hand":"left","measure":4,"beat":3.0854,"note":51,"name":"D#3","t":7.543,"d":0.592,"v":20}],"questions":[{"type":"pitch_class_count","text":"How many notes with pitch class D# appear in this phrase?","options":["4","7","5","9"],"correct":1},{"type":"hand_register","text":"Which hand plays more notes in this phrase?","options":["Right hand (22 notes)","Equal (9 notes each)","Left hand (16 notes)","Left hand (13 notes)"],"correct":2},{"type":"rhythm_onset","text":"How many notes start on beat 1 (downbeat) across all bars in this phrase?","options":["5","6","7","9"],"correct":2},{"type":"annotation_grounding","text":"In measure 1, which pitch does the right hand play on beat 3.9979?","options":["C#4","B3","D4","C4"],"correct":3}]},{"id":"schumann-traumerei:m001-004:piano:mcp-session:v1","song_id":"schumann-traumerei","title":"Traumerei","composer":"Robert Schumann","year":1838,"key":"F major","time_signature":"4/4","tempo_bpm":120,"phrase_window":"measures 1-4","split":"train","annotation":{"structure":"Opening antecedent of Träumerei (paired continuation at m. 5–8). The phrase begins with a single right-hand C4 pickup at m. 1 b2.25 — the only event in measure 1, the dominant tone of F major sounded as a soft anacrusis. From m. 2 onward, the texture fills out: F4 enters in the right hand on the downbeat (m. 2 b0, the only event in the entire phrase that lands exactly on beat 1), supported by an F2 bass on b0.0521 and a C3+A3+F3 LH chord at b1.95-2.02. The melody rises through m. 3 (E4, F4, A4, C5) and climaxes at F5 in m. 4 b0.6979 — the highest right-hand pitch of the phrase, the famous opening sigh. The window stays in F major throughout with only one chromatic touch (A#2 / B♭2 at m. 4 b1.1042 — the lowered seventh, the subdominant-color tone). Pitch class F dominates the phrase, sounding 8 times across the four bars in alternating registers.","key_moments":["m. 1 b2.25 — C4 right-hand pickup (the only event in measure 1, MIDI velocity 48, sustained 0.36 seconds). This is the dominant tone of F major sounded as the soft anacrusis that gives Träumerei its dreamlike opening character. The entire bar is otherwise silent — no LH, no other RH event","m. 2 b0 — F4 right-hand downbeat (the only event in the phrase whose beat field equals exactly 0). The F4 is sustained 1.83 seconds (longest RH event in m. 2) over a stacked LH chord: F2 at b0.0521, then a three-note inner cluster C3 / A3 / F3 entering at b1.95-2.02 with the second RH C4 at b1.9479","m. 3 — ascending melodic line: E4 at b1.0417, F4 at b2.2083, A4 at b3.0833, C5 at b3.8646 (sustained only 0.21 seconds — the shortest RH note). Each step rises in velocity (56 → 63 → 73 → 82) preparing the F5 climax in m. 4","m. 4 b0.6979 — F5 climax (the highest right-hand pitch of the phrase, MIDI velocity 83, sustained 0.28 seconds). Below it, A#2 (B♭2) appears at b1.1042 — the only chromatic non-F-major pitch in the window, the subdominant-color seventh. A second F5 follows at b2.0729 (the closing F that holds 1.52 seconds, the longest RH event in m. 4) with D4 + F4 stacking below it for the final F-major chord that suspends through the phrase end","hand balance: the right hand plays 11 notes — including both Fs in m. 4 (the climax pair) — and the left hand plays 6, mostly inner-voice cluster support. The melody lives in the RH; the LH provides harmonic anchor"],"teaching_goals":["voice the C4 pickup at m. 1 b2.25 as the dreaming entrance — the whole piece flows out of this single soft tone","shape the m. 3 ascent E4 → F4 → A4 → C5 as one rising breath, not four notes; each step grows in velocity (the MIDI velocities go 56 → 63 → 73 → 82) and prepares the F5 climax","voice the F5 climax at m. 4 b0.6979 as the phrase's high point — the sigh; do not strike it, let it bloom out of the rising line","respect the long F5 sustain at m. 4 b2.0729 (1.52 seconds) as the suspended close — the phrase ends still hanging on F, not resolved","the single chromatic tone A#2 (B♭2) at m. 4 b1.1042 is the only color note in the window; voice it as the subdominant-touch under the F5 climax"],"style_tips":["pp throughout — the entire phrase lives at the dynamic floor; the F5 climax only rises to mp at most","pedal generously through the rising line in m. 3 — the legato connection is the dream's character","no rush on the C4 pickup; let it hang a full beat before the F4 downbeat enters at m. 2 b0"],"teaching_notes":[{"measure":1,"note":"The C4 right-hand pickup at b2.25 is the only sound in measure 1. It is the dominant tone of F major — the V — sounded as a soft anacrusis that opens the entire piece. Voice it gently; the whole phrase grows from this seed. The bar is otherwise empty.","technique":["singing C4 entrance","arm weight for the pickup","let it ring into m. 2"]},{"measure":2,"note":"The F4 at beat 0 (data-beat 0) is the only event in the phrase landing precisely on a downbeat. Voice it as the tonic-arrival after the C4 dominant pickup. Below, the LH F2 (b0.0521) plus the inner C3 + A3 + F3 cluster at b1.95-2.02 forms the F-major tonic chord; the RH C4 at b1.9479 doubles the LH C3 to enrich the inner voicing.","technique":["voice F4 as tonic arrival","support with quiet LH chord","let the inner C4 enrich the texture"]},{"measure":3,"note":"The ascending melodic line E4 → F4 → A4 → C5 (b1.04, b2.21, b3.08, b3.86) outlines the F-major triad rising. MIDI velocities climb 56 → 63 → 73 → 82 — Schumann's signature rising sigh. Voice the four notes as one breath, the crescendo built into the line itself; do not pedal harshly between them.","technique":["unified ascending phrase","velocity matches direction","legato pedal through the climb"]},{"measure":4,"note":"The F5 climax at b0.6979 (MIDI velocity 83) is the high point of the phrase — the famous opening sigh. The A#2 (B♭2) at b1.1042 is the only chromatic note in the window; voice it as a brief subdominant-color touch beneath the F5. The second F5 at b2.0729 (sustained 1.52 seconds) is the closing-suspension F that ends the phrase still hanging on the tonic — the resolution belongs to m. 5–8.","technique":["bloom the F5 climax","respect the long suspension","let the dream stay unresolved"]}]},"events":[{"hand":"right","measure":1,"beat":2.25,"note":60,"name":"C4","t":1.125,"d":0.365,"v":48},{"hand":"right","measure":2,"beat":0,"note":65,"name":"F4","t":2,"d":1.828,"v":57},{"hand":"left","measure":2,"beat":0.0521,"note":41,"name":"F2","t":2.026,"d":0.271,"v":30},{"hand":"left","measure":2,"beat":1.9479,"note":48,"name":"C3","t":2.974,"d":1.75,"v":29},{"hand":"right","measure":2,"beat":1.9479,"note":60,"name":"C4","t":2.974,"d":0.797,"v":30},{"hand":"left","measure":2,"beat":1.9896,"note":57,"name":"A3","t":2.995,"d":1.75,"v":22},{"hand":"left","measure":2,"beat":2.0208,"note":53,"name":"F3","t":3.01,"d":0.635,"v":24},{"hand":"right","measure":3,"beat":1.0417,"note":64,"name":"E4","t":4.521,"d":0.578,"v":56},{"hand":"right","measure":3,"beat":2.2083,"note":65,"name":"F4","t":5.104,"d":0.438,"v":63},{"hand":"right","measure":3,"beat":3.0833,"note":69,"name":"A4","t":5.542,"d":0.359,"v":73},{"hand":"right","measure":3,"beat":3.8646,"note":72,"name":"C5","t":5.932,"d":0.208,"v":82},{"hand":"right","measure":4,"beat":0.6979,"note":77,"name":"F5","t":6.349,"d":0.276,"v":83},{"hand":"left","measure":4,"beat":1.1042,"note":46,"name":"A#2","t":6.552,"d":0.156,"v":52},{"hand":"left","measure":4,"beat":1.4063,"note":53,"name":"F3","t":6.703,"d":0.12,"v":37},{"hand":"right","measure":4,"beat":2.0729,"note":77,"name":"F5","t":7.036,"d":1.521,"v":73},{"hand":"right","measure":4,"beat":2.1146,"note":62,"name":"D4","t":7.057,"d":1.224,"v":57},{"hand":"right","measure":4,"beat":2.1458,"note":65,"name":"F4","t":7.073,"d":2.281,"v":44}],"questions":[{"type":"pitch_class_count","text":"How many notes with pitch class F appear in this phrase?","options":["8","5","6","10"],"correct":0},{"type":"hand_register","text":"Which hand plays more notes in this phrase?","options":["Left hand (13 notes)","Right hand (11 notes)","Equal (9 notes each)","Right hand (8 notes)"],"correct":1},{"type":"rhythm_onset","text":"How many notes start on beat 1 (downbeat) across all bars in this phrase?","options":["0","3","1","4"],"correct":2},{"type":"annotation_grounding","text":"In measure 1, which pitch does the right hand play on beat 2.25?","options":["C#4","B3","D4","C4"],"correct":3}]},{"id":"chopin-prelude-e-minor:m021-024:piano:mcp-session:v1","song_id":"chopin-prelude-e-minor","title":"Prelude in E Minor, Op. 28 No. 4","composer":"Frederic Chopin","year":1839,"key":"E minor","time_signature":"4/4","tempo_bpm":120,"phrase_window":"measures 21-24","split":"train","annotation":{"structure":"Post-climax descent consequent — resignation, bass far from home","key_moments":["m21 bass has traveled far from opening E","m23 RH melody quiets further","m24 deep harmonic area"],"teaching_goals":["the mood is resignation — not sadness, but acceptance","LH continues its patient chromatic descent"],"style_tips":["even softer than the opening — pp to ppp","the descent is now complete emotionally"],"teaching_notes":[{"measure":21,"note":"The bass has traveled far — its distance from the opening is part of the emotional arc.","technique":["listen to the bass journey across the whole piece"]}]},"events":[{"hand":"right","measure":21,"beat":0.875,"note":68,"name":"G#4","t":0.438,"d":2.417,"v":65},{"hand":"left","measure":21,"beat":0.9479,"note":59,"name":"B3","t":0.474,"d":0.318,"v":24},{"hand":"left","measure":21,"beat":0.9948,"note":53,"name":"F3","t":0.497,"d":0.294,"v":27},{"hand":"left","measure":21,"beat":1,"note":50,"name":"D3","t":0.5,"d":0.271,"v":26},{"hand":"left","measure":21,"beat":2.0104,"note":59,"name":"B3","t":1.005,"d":0.339,"v":43},{"hand":"left","measure":21,"beat":2.0417,"note":50,"name":"D3","t":1.021,"d":0.279,"v":38},{"hand":"left","measure":21,"beat":2.0417,"note":53,"name":"F3","t":1.021,"d":0.354,"v":36},{"hand":"left","measure":21,"beat":3.1302,"note":59,"name":"B3","t":1.565,"d":0.352,"v":36},{"hand":"left","measure":21,"beat":3.1771,"note":48,"name":"C3","t":1.589,"d":0.318,"v":29},{"hand":"left","measure":21,"beat":3.1823,"note":52,"name":"E3","t":1.591,"d":0.326,"v":31},{"hand":"left","measure":22,"beat":0.25,"note":59,"name":"B3","t":2.125,"d":0.326,"v":45},{"hand":"left","measure":22,"beat":0.3125,"note":48,"name":"C3","t":2.156,"d":0.24,"v":30},{"hand":"left","measure":22,"beat":0.3542,"note":52,"name":"E3","t":2.177,"d":0.289,"v":25},{"hand":"right","measure":22,"beat":1.3385,"note":69,"name":"A4","t":2.669,"d":0.609,"v":89},{"hand":"left","measure":22,"beat":1.3802,"note":57,"name":"A3","t":2.69,"d":0.232,"v":57},{"hand":"left","measure":22,"beat":1.4479,"note":48,"name":"C3","t":2.724,"d":0.203,"v":26},{"hand":"left","measure":22,"beat":1.4531,"note":52,"name":"E3","t":2.727,"d":0.167,"v":26},{"hand":"right","measure":22,"beat":2.3385,"note":71,"name":"B4","t":3.169,"d":0.654,"v":95},{"hand":"left","measure":22,"beat":2.401,"note":57,"name":"A3","t":3.201,"d":0.331,"v":50},{"hand":"left","measure":22,"beat":2.4167,"note":52,"name":"E3","t":3.208,"d":0.333,"v":45},{"hand":"left","measure":22,"beat":2.4323,"note":48,"name":"C3","t":3.216,"d":0.273,"v":41},{"hand":"right","measure":22,"beat":3.4375,"note":74,"name":"D5","t":3.719,"d":0.724,"v":101},{"hand":"left","measure":22,"beat":3.5,"note":57,"name":"A3","t":3.75,"d":0.375,"v":37},{"hand":"left","measure":22,"beat":3.5417,"note":52,"name":"E3","t":3.771,"d":0.367,"v":42},{"hand":"left","measure":22,"beat":3.5469,"note":48,"name":"C3","t":3.773,"d":0.328,"v":31},{"hand":"right","measure":23,"beat":0.7083,"note":72,"name":"C5","t":4.354,"d":0.625,"v":98},{"hand":"left","measure":23,"beat":0.7708,"note":52,"name":"E3","t":4.385,"d":0.25,"v":25},{"hand":"left","measure":23,"beat":0.776,"note":57,"name":"A3","t":4.388,"d":0.227,"v":27},{"hand":"left","measure":23,"beat":0.8125,"note":48,"name":"C3","t":4.406,"d":0.201,"v":31},{"hand":"right","measure":23,"beat":1.7552,"note":64,"name":"E4","t":4.878,"d":0.633,"v":91},{"hand":"left","measure":23,"beat":1.8125,"note":57,"name":"A3","t":4.906,"d":0.302,"v":40},{"hand":"left","measure":23,"beat":1.849,"note":52,"name":"E3","t":4.924,"d":0.313,"v":34},{"hand":"left","measure":23,"beat":1.8542,"note":48,"name":"C3","t":4.927,"d":0.273,"v":38},{"hand":"right","measure":23,"beat":2.8125,"note":69,"name":"A4","t":5.406,"d":0.841,"v":98},{"hand":"left","measure":23,"beat":2.8594,"note":57,"name":"A3","t":5.43,"d":0.378,"v":36},{"hand":"left","measure":23,"beat":2.9167,"note":52,"name":"E3","t":5.458,"d":0.359,"v":42},{"hand":"left","measure":23,"beat":2.9323,"note":48,"name":"C3","t":5.466,"d":0.37,"v":49},{"hand":"right","measure":24,"beat":0.1979,"note":66,"name":"F#4","t":6.099,"d":3.578,"v":79},{"hand":"left","measure":24,"beat":0.25,"note":57,"name":"A3","t":6.125,"d":0.357,"v":28},{"hand":"left","measure":24,"beat":0.2708,"note":52,"name":"E3","t":6.135,"d":0.352,"v":35},{"hand":"left","measure":24,"beat":0.3021,"note":47,"name":"B2","t":6.151,"d":0.341,"v":25},{"hand":"left","measure":24,"beat":1.4583,"note":47,"name":"B2","t":6.729,"d":0.294,"v":26},{"hand":"left","measure":24,"beat":1.4688,"note":57,"name":"A3","t":6.734,"d":0.273,"v":38},{"hand":"left","measure":24,"beat":1.5,"note":52,"name":"E3","t":6.75,"d":0.247,"v":42},{"hand":"left","measure":24,"beat":2.4792,"note":51,"name":"D#3","t":7.24,"d":0.31,"v":61},{"hand":"left","measure":24,"beat":2.5104,"note":57,"name":"A3","t":7.255,"d":0.286,"v":51},{"hand":"left","measure":24,"beat":2.5208,"note":47,"name":"B2","t":7.26,"d":0.294,"v":34},{"hand":"left","measure":24,"beat":3.4948,"note":57,"name":"A3","t":7.747,"d":0.201,"v":51},{"hand":"left","measure":24,"beat":3.5156,"note":51,"name":"D#3","t":7.758,"d":0.271,"v":54},{"hand":"left","measure":24,"beat":3.5208,"note":47,"name":"B2","t":7.76,"d":0.25,"v":40}],"questions":[{"type":"pitch_class_count","text":"How many notes with pitch class A appear in this phrase?","options":["9","10","14","12"],"correct":3},{"type":"hand_register","text":"Which hand plays more notes in this phrase?","options":["Right hand (47 notes)","Equal (25 notes each)","Left hand (41 notes)","Left hand (42 notes)"],"correct":3},{"type":"rhythm_onset","text":"How many notes start on beat 1 (downbeat) across all bars in this phrase?","options":["1","0","3","4"],"correct":0},{"type":"annotation_grounding","text":"In measure 23, which pitch does the right hand play on beat 0.7083?","options":["C#5","B4","D5","C5"],"correct":3}]}]}