{
  "id": "clair-de-lune:m015-018:piano:mcp-session:v1",
  "schema_version": "jam-actions-v0/1.0.0",
  "provenance": {
    "source_url": "https://piano-midi.de/",
    "source_collected_at": "2026-05-16",
    "source_type": "transcribed-by-author",
    "composition_title": "Clair de Lune (Suite bergamasque, III)",
    "composer": "Claude Debussy",
    "composition_year": 1905,
    "composition_pd_status_us": "public_domain",
    "composition_pd_status_eu": "public_domain",
    "arrangement_creator": "Bernd Krueger",
    "arrangement_license": "CC-BY-SA",
    "arrangement_license_version": null,
    "arrangement_evidence_url": "https://piano-midi.de/",
    "record_verdict": "public_candidate",
    "verdict_reason": "Clair de Lune (Suite bergamasque, III) (1905) by Claude Debussy. Composition: US=public_domain, EU=public_domain. Arrangement by Bernd Krueger. License: CC-BY-SA. Evidence: https://piano-midi.de/. All initial public_candidate rules met. Awaiting Slice 2.5 verification: source URL resolves, license text preserved at source, license version confirmed. Until verified, treat as internal for distribution.",
    "verifier": "auto-rule-engine",
    "verified_at": "2026-05-16",
    "training_use_permitted": true
  },
  "scope": {
    "song_id": "clair-de-lune",
    "phrase_window": "measures 15-18",
    "instrument": "piano",
    "key": "Db major",
    "tempo_bpm": 100,
    "time_signature": "9/8",
    "window_role": "prompt",
    "musical_phrase_label": "cantabile theme — second section antecedent",
    "natural_phrase_boundary": true,
    "continuation_target_window": [
      19,
      22
    ]
  },
  "observation": {
    "midi_sidecar": {
      "midi_sha256": "4dee23c00aed6742905a65f374f231d7a827010400146be7577b1df808a927d0",
      "ticks_per_beat": 480,
      "timed_events": [
        {
          "t_seconds": 37.8,
          "t_ticks": 30240,
          "dur_seconds": 1.8,
          "dur_ticks": 1440,
          "note": 27,
          "name": "D#1",
          "velocity": 30,
          "channel": 0,
          "hand": "left",
          "measure": 15,
          "beat": 0
        },
        {
          "t_seconds": 37.8,
          "t_ticks": 30240,
          "dur_seconds": 1.8,
          "dur_ticks": 1440,
          "note": 39,
          "name": "D#2",
          "velocity": 36,
          "channel": 0,
          "hand": "left",
          "measure": 15,
          "beat": 0
        },
        {
          "t_seconds": 38.25,
          "t_ticks": 30600,
          "dur_seconds": 1.35,
          "dur_ticks": 1080,
          "note": 65,
          "name": "F4",
          "velocity": 32,
          "channel": 0,
          "hand": "right",
          "measure": 15,
          "beat": 0.75
        },
        {
          "t_seconds": 38.25,
          "t_ticks": 30600,
          "dur_seconds": 1.05,
          "dur_ticks": 840,
          "note": 66,
          "name": "F#4",
          "velocity": 32,
          "channel": 0,
          "hand": "right",
          "measure": 15,
          "beat": 0.75
        },
        {
          "t_seconds": 38.25,
          "t_ticks": 30600,
          "dur_seconds": 1.05,
          "dur_ticks": 840,
          "note": 70,
          "name": "A#4",
          "velocity": 32,
          "channel": 0,
          "hand": "right",
          "measure": 15,
          "beat": 0.75
        },
        {
          "t_seconds": 38.25,
          "t_ticks": 30600,
          "dur_seconds": 1.35,
          "dur_ticks": 1080,
          "note": 77,
          "name": "F5",
          "velocity": 37,
          "channel": 0,
          "hand": "right",
          "measure": 15,
          "beat": 0.75
        },
        {
          "t_seconds": 38.25,
          "t_ticks": 30600,
          "dur_seconds": 1.05,
          "dur_ticks": 840,
          "note": 82,
          "name": "A#5",
          "velocity": 37,
          "channel": 0,
          "hand": "right",
          "measure": 15,
          "beat": 0.75
        },
        {
          "t_seconds": 38.25,
          "t_ticks": 30600,
          "dur_seconds": 1.35,
          "dur_ticks": 1080,
          "note": 89,
          "name": "F6",
          "velocity": 40,
          "channel": 0,
          "hand": "right",
          "measure": 15,
          "beat": 0.75
        },
        {
          "t_seconds": 39,
          "t_ticks": 31200,
          "dur_seconds": 0.3,
          "dur_ticks": 240,
          "note": 63,
          "name": "D#4",
          "velocity": 31,
          "channel": 0,
          "hand": "right",
          "measure": 15,
          "beat": 2
        },
        {
          "t_seconds": 39,
          "t_ticks": 31200,
          "dur_seconds": 0.575,
          "dur_ticks": 460,
          "note": 66,
          "name": "F#4",
          "velocity": 31,
          "channel": 0,
          "hand": "right",
          "measure": 15,
          "beat": 2
        },
        {
          "t_seconds": 39,
          "t_ticks": 31200,
          "dur_seconds": 0.575,
          "dur_ticks": 460,
          "note": 70,
          "name": "A#4",
          "velocity": 31,
          "channel": 0,
          "hand": "right",
          "measure": 15,
          "beat": 2
        },
        {
          "t_seconds": 39,
          "t_ticks": 31200,
          "dur_seconds": 0.3,
          "dur_ticks": 240,
          "note": 75,
          "name": "D#5",
          "velocity": 36,
          "channel": 0,
          "hand": "right",
          "measure": 15,
          "beat": 2
        },
        {
          "t_seconds": 39,
          "t_ticks": 31200,
          "dur_seconds": 0.575,
          "dur_ticks": 460,
          "note": 82,
          "name": "A#5",
          "velocity": 36,
          "channel": 0,
          "hand": "right",
          "measure": 15,
          "beat": 2
        },
        {
          "t_seconds": 39,
          "t_ticks": 31200,
          "dur_seconds": 0.3,
          "dur_ticks": 240,
          "note": 87,
          "name": "D#6",
          "velocity": 39,
          "channel": 0,
          "hand": "right",
          "measure": 15,
          "beat": 2
        },
        {
          "t_seconds": 39.3,
          "t_ticks": 31440,
          "dur_seconds": 0.275,
          "dur_ticks": 220,
          "note": 63,
          "name": "D#4",
          "velocity": 31,
          "channel": 0,
          "hand": "right",
          "measure": 15,
          "beat": 2.5
        },
        {
          "t_seconds": 39.3,
          "t_ticks": 31440,
          "dur_seconds": 0.3,
          "dur_ticks": 240,
          "note": 66,
          "name": "F#4",
          "velocity": 31,
          "channel": 0,
          "hand": "right",
          "measure": 15,
          "beat": 2.5
        },
        {
          "t_seconds": 39.3,
          "t_ticks": 31440,
          "dur_seconds": 0.3,
          "dur_ticks": 240,
          "note": 70,
          "name": "A#4",
          "velocity": 31,
          "channel": 0,
          "hand": "right",
          "measure": 15,
          "beat": 2.5
        },
        {
          "t_seconds": 39.3,
          "t_ticks": 31440,
          "dur_seconds": 0.275,
          "dur_ticks": 220,
          "note": 75,
          "name": "D#5",
          "velocity": 36,
          "channel": 0,
          "hand": "right",
          "measure": 15,
          "beat": 2.5
        },
        {
          "t_seconds": 39.3,
          "t_ticks": 31440,
          "dur_seconds": 0.3,
          "dur_ticks": 240,
          "note": 82,
          "name": "A#5",
          "velocity": 36,
          "channel": 0,
          "hand": "right",
          "measure": 15,
          "beat": 2.5
        },
        {
          "t_seconds": 39.3,
          "t_ticks": 31440,
          "dur_seconds": 0.275,
          "dur_ticks": 220,
          "note": 87,
          "name": "D#6",
          "velocity": 39,
          "channel": 0,
          "hand": "right",
          "measure": 15,
          "beat": 2.5
        },
        {
          "t_seconds": 39.6,
          "t_ticks": 31680,
          "dur_seconds": 0.3,
          "dur_ticks": 240,
          "note": 63,
          "name": "D#4",
          "velocity": 32,
          "channel": 0,
          "hand": "right",
          "measure": 15,
          "beat": 3
        },
        {
          "t_seconds": 39.6,
          "t_ticks": 31680,
          "dur_seconds": 0.3,
          "dur_ticks": 240,
          "note": 66,
          "name": "F#4",
          "velocity": 32,
          "channel": 0,
          "hand": "right",
          "measure": 15,
          "beat": 3
        },
        {
          "t_seconds": 39.6,
          "t_ticks": 31680,
          "dur_seconds": 0.3,
          "dur_ticks": 240,
          "note": 70,
          "name": "A#4",
          "velocity": 32,
          "channel": 0,
          "hand": "right",
          "measure": 15,
          "beat": 3
        },
        {
          "t_seconds": 39.6,
          "t_ticks": 31680,
          "dur_seconds": 0.3,
          "dur_ticks": 240,
          "note": 75,
          "name": "D#5",
          "velocity": 38,
          "channel": 0,
          "hand": "right",
          "measure": 15,
          "beat": 3
        },
        {
          "t_seconds": 39.6,
          "t_ticks": 31680,
          "dur_seconds": 0.3,
          "dur_ticks": 240,
          "note": 82,
          "name": "A#5",
          "velocity": 38,
          "channel": 0,
          "hand": "right",
          "measure": 15,
          "beat": 3
        },
        {
          "t_seconds": 39.6,
          "t_ticks": 31680,
          "dur_seconds": 0.3,
          "dur_ticks": 240,
          "note": 87,
          "name": "D#6",
          "velocity": 41,
          "channel": 0,
          "hand": "right",
          "measure": 15,
          "beat": 3
        },
        {
          "t_seconds": 39.9,
          "t_ticks": 31920,
          "dur_seconds": 0.3,
          "dur_ticks": 240,
          "note": 61,
          "name": "C#4",
          "velocity": 31,
          "channel": 0,
          "hand": "right",
          "measure": 15,
          "beat": 3.5
        },
        {
          "t_seconds": 39.9,
          "t_ticks": 31920,
          "dur_seconds": 0.3,
          "dur_ticks": 240,
          "note": 66,
          "name": "F#4",
          "velocity": 31,
          "channel": 0,
          "hand": "right",
          "measure": 15,
          "beat": 3.5
        },
        {
          "t_seconds": 39.9,
          "t_ticks": 31920,
          "dur_seconds": 0.3,
          "dur_ticks": 240,
          "note": 70,
          "name": "A#4",
          "velocity": 31,
          "channel": 0,
          "hand": "right",
          "measure": 15,
          "beat": 3.5
        },
        {
          "t_seconds": 39.9,
          "t_ticks": 31920,
          "dur_seconds": 0.3,
          "dur_ticks": 240,
          "note": 73,
          "name": "C#5",
          "velocity": 37,
          "channel": 0,
          "hand": "right",
          "measure": 15,
          "beat": 3.5
        },
        {
          "t_seconds": 39.9,
          "t_ticks": 31920,
          "dur_seconds": 0.3,
          "dur_ticks": 240,
          "note": 82,
          "name": "A#5",
          "velocity": 37,
          "channel": 0,
          "hand": "right",
          "measure": 15,
          "beat": 3.5
        },
        {
          "t_seconds": 39.9,
          "t_ticks": 31920,
          "dur_seconds": 0.3,
          "dur_ticks": 240,
          "note": 85,
          "name": "C#6",
          "velocity": 40,
          "channel": 0,
          "hand": "right",
          "measure": 15,
          "beat": 3.5
        },
        {
          "t_seconds": 40.2,
          "t_ticks": 32160,
          "dur_seconds": 0.275,
          "dur_ticks": 220,
          "note": 61,
          "name": "C#4",
          "velocity": 31,
          "channel": 0,
          "hand": "right",
          "measure": 15,
          "beat": 4
        },
        {
          "t_seconds": 40.2,
          "t_ticks": 32160,
          "dur_seconds": 0.275,
          "dur_ticks": 220,
          "note": 66,
          "name": "F#4",
          "velocity": 31,
          "channel": 0,
          "hand": "right",
          "measure": 15,
          "beat": 4
        },
        {
          "t_seconds": 40.2,
          "t_ticks": 32160,
          "dur_seconds": 0.275,
          "dur_ticks": 220,
          "note": 70,
          "name": "A#4",
          "velocity": 31,
          "channel": 0,
          "hand": "right",
          "measure": 15,
          "beat": 4
        },
        {
          "t_seconds": 40.2,
          "t_ticks": 32160,
          "dur_seconds": 0.275,
          "dur_ticks": 220,
          "note": 73,
          "name": "C#5",
          "velocity": 37,
          "channel": 0,
          "hand": "right",
          "measure": 15,
          "beat": 4
        },
        {
          "t_seconds": 40.2,
          "t_ticks": 32160,
          "dur_seconds": 0.275,
          "dur_ticks": 220,
          "note": 82,
          "name": "A#5",
          "velocity": 37,
          "channel": 0,
          "hand": "right",
          "measure": 15,
          "beat": 4
        },
        {
          "t_seconds": 40.2,
          "t_ticks": 32160,
          "dur_seconds": 0.275,
          "dur_ticks": 220,
          "note": 85,
          "name": "C#6",
          "velocity": 40,
          "channel": 0,
          "hand": "right",
          "measure": 15,
          "beat": 4
        },
        {
          "t_seconds": 40.5,
          "t_ticks": 32400,
          "dur_seconds": 0.3,
          "dur_ticks": 240,
          "note": 61,
          "name": "C#4",
          "velocity": 34,
          "channel": 0,
          "hand": "right",
          "measure": 16,
          "beat": 0
        },
        {
          "t_seconds": 40.5,
          "t_ticks": 32400,
          "dur_seconds": 0.3,
          "dur_ticks": 240,
          "note": 66,
          "name": "F#4",
          "velocity": 34,
          "channel": 0,
          "hand": "right",
          "measure": 16,
          "beat": 0
        },
        {
          "t_seconds": 40.5,
          "t_ticks": 32400,
          "dur_seconds": 0.3,
          "dur_ticks": 240,
          "note": 70,
          "name": "A#4",
          "velocity": 34,
          "channel": 0,
          "hand": "right",
          "measure": 16,
          "beat": 0
        },
        {
          "t_seconds": 40.5,
          "t_ticks": 32400,
          "dur_seconds": 0.3,
          "dur_ticks": 240,
          "note": 73,
          "name": "C#5",
          "velocity": 38,
          "channel": 0,
          "hand": "right",
          "measure": 16,
          "beat": 0
        },
        {
          "t_seconds": 40.5,
          "t_ticks": 32400,
          "dur_seconds": 0.3,
          "dur_ticks": 240,
          "note": 82,
          "name": "A#5",
          "velocity": 38,
          "channel": 0,
          "hand": "right",
          "measure": 16,
          "beat": 0
        },
        {
          "t_seconds": 40.5,
          "t_ticks": 32400,
          "dur_seconds": 0.3,
          "dur_ticks": 240,
          "note": 85,
          "name": "C#6",
          "velocity": 41,
          "channel": 0,
          "hand": "right",
          "measure": 16,
          "beat": 0
        },
        {
          "t_seconds": 40.8,
          "t_ticks": 32640,
          "dur_seconds": 0.3,
          "dur_ticks": 240,
          "note": 60,
          "name": "C4",
          "velocity": 32,
          "channel": 0,
          "hand": "right",
          "measure": 16,
          "beat": 0.5
        },
        {
          "t_seconds": 40.8,
          "t_ticks": 32640,
          "dur_seconds": 0.3,
          "dur_ticks": 240,
          "note": 66,
          "name": "F#4",
          "velocity": 32,
          "channel": 0,
          "hand": "right",
          "measure": 16,
          "beat": 0.5
        },
        {
          "t_seconds": 40.8,
          "t_ticks": 32640,
          "dur_seconds": 0.3,
          "dur_ticks": 240,
          "note": 70,
          "name": "A#4",
          "velocity": 32,
          "channel": 0,
          "hand": "right",
          "measure": 16,
          "beat": 0.5
        },
        {
          "t_seconds": 40.8,
          "t_ticks": 32640,
          "dur_seconds": 0.3,
          "dur_ticks": 240,
          "note": 72,
          "name": "C5",
          "velocity": 36,
          "channel": 0,
          "hand": "right",
          "measure": 16,
          "beat": 0.5
        },
        {
          "t_seconds": 40.8,
          "t_ticks": 32640,
          "dur_seconds": 0.3,
          "dur_ticks": 240,
          "note": 78,
          "name": "F#5",
          "velocity": 36,
          "channel": 0,
          "hand": "right",
          "measure": 16,
          "beat": 0.5
        },
        {
          "t_seconds": 40.8,
          "t_ticks": 32640,
          "dur_seconds": 0.3,
          "dur_ticks": 240,
          "note": 82,
          "name": "A#5",
          "velocity": 36,
          "channel": 0,
          "hand": "right",
          "measure": 16,
          "beat": 0.5
        },
        {
          "t_seconds": 40.8,
          "t_ticks": 32640,
          "dur_seconds": 0.3,
          "dur_ticks": 240,
          "note": 84,
          "name": "C6",
          "velocity": 39,
          "channel": 0,
          "hand": "right",
          "measure": 16,
          "beat": 0.5
        },
        {
          "t_seconds": 41.1,
          "t_ticks": 32880,
          "dur_seconds": 0.275,
          "dur_ticks": 220,
          "note": 60,
          "name": "C4",
          "velocity": 32,
          "channel": 0,
          "hand": "right",
          "measure": 16,
          "beat": 1
        },
        {
          "t_seconds": 41.1,
          "t_ticks": 32880,
          "dur_seconds": 0.275,
          "dur_ticks": 220,
          "note": 66,
          "name": "F#4",
          "velocity": 32,
          "channel": 0,
          "hand": "right",
          "measure": 16,
          "beat": 1
        },
        {
          "t_seconds": 41.1,
          "t_ticks": 32880,
          "dur_seconds": 0.275,
          "dur_ticks": 220,
          "note": 70,
          "name": "A#4",
          "velocity": 32,
          "channel": 0,
          "hand": "right",
          "measure": 16,
          "beat": 1
        },
        {
          "t_seconds": 41.1,
          "t_ticks": 32880,
          "dur_seconds": 0.275,
          "dur_ticks": 220,
          "note": 72,
          "name": "C5",
          "velocity": 36,
          "channel": 0,
          "hand": "right",
          "measure": 16,
          "beat": 1
        },
        {
          "t_seconds": 41.1,
          "t_ticks": 32880,
          "dur_seconds": 0.275,
          "dur_ticks": 220,
          "note": 78,
          "name": "F#5",
          "velocity": 36,
          "channel": 0,
          "hand": "right",
          "measure": 16,
          "beat": 1
        },
        {
          "t_seconds": 41.1,
          "t_ticks": 32880,
          "dur_seconds": 0.275,
          "dur_ticks": 220,
          "note": 82,
          "name": "A#5",
          "velocity": 36,
          "channel": 0,
          "hand": "right",
          "measure": 16,
          "beat": 1
        },
        {
          "t_seconds": 41.1,
          "t_ticks": 32880,
          "dur_seconds": 0.275,
          "dur_ticks": 220,
          "note": 84,
          "name": "C6",
          "velocity": 39,
          "channel": 0,
          "hand": "right",
          "measure": 16,
          "beat": 1
        },
        {
          "t_seconds": 41.4,
          "t_ticks": 33120,
          "dur_seconds": 0.45,
          "dur_ticks": 360,
          "note": 60,
          "name": "C4",
          "velocity": 31,
          "channel": 0,
          "hand": "right",
          "measure": 16,
          "beat": 1.5
        },
        {
          "t_seconds": 41.4,
          "t_ticks": 33120,
          "dur_seconds": 0.45,
          "dur_ticks": 360,
          "note": 66,
          "name": "F#4",
          "velocity": 31,
          "channel": 0,
          "hand": "right",
          "measure": 16,
          "beat": 1.5
        },
        {
          "t_seconds": 41.4,
          "t_ticks": 33120,
          "dur_seconds": 0.45,
          "dur_ticks": 360,
          "note": 70,
          "name": "A#4",
          "velocity": 31,
          "channel": 0,
          "hand": "right",
          "measure": 16,
          "beat": 1.5
        },
        {
          "t_seconds": 41.4,
          "t_ticks": 33120,
          "dur_seconds": 0.45,
          "dur_ticks": 360,
          "note": 72,
          "name": "C5",
          "velocity": 36,
          "channel": 0,
          "hand": "right",
          "measure": 16,
          "beat": 1.5
        },
        {
          "t_seconds": 41.4,
          "t_ticks": 33120,
          "dur_seconds": 0.45,
          "dur_ticks": 360,
          "note": 78,
          "name": "F#5",
          "velocity": 36,
          "channel": 0,
          "hand": "right",
          "measure": 16,
          "beat": 1.5
        },
        {
          "t_seconds": 41.4,
          "t_ticks": 33120,
          "dur_seconds": 0.45,
          "dur_ticks": 360,
          "note": 82,
          "name": "A#5",
          "velocity": 36,
          "channel": 0,
          "hand": "right",
          "measure": 16,
          "beat": 1.5
        },
        {
          "t_seconds": 41.4,
          "t_ticks": 33120,
          "dur_seconds": 0.45,
          "dur_ticks": 360,
          "note": 84,
          "name": "C6",
          "velocity": 39,
          "channel": 0,
          "hand": "right",
          "measure": 16,
          "beat": 1.5
        },
        {
          "t_seconds": 41.85,
          "t_ticks": 33480,
          "dur_seconds": 0.45,
          "dur_ticks": 360,
          "note": 61,
          "name": "C#4",
          "velocity": 30,
          "channel": 0,
          "hand": "right",
          "measure": 16,
          "beat": 2.25
        },
        {
          "t_seconds": 41.85,
          "t_ticks": 33480,
          "dur_seconds": 0.45,
          "dur_ticks": 360,
          "note": 66,
          "name": "F#4",
          "velocity": 30,
          "channel": 0,
          "hand": "right",
          "measure": 16,
          "beat": 2.25
        },
        {
          "t_seconds": 41.85,
          "t_ticks": 33480,
          "dur_seconds": 0.45,
          "dur_ticks": 360,
          "note": 70,
          "name": "A#4",
          "velocity": 30,
          "channel": 0,
          "hand": "right",
          "measure": 16,
          "beat": 2.25
        },
        {
          "t_seconds": 41.85,
          "t_ticks": 33480,
          "dur_seconds": 0.45,
          "dur_ticks": 360,
          "note": 73,
          "name": "C#5",
          "velocity": 33,
          "channel": 0,
          "hand": "right",
          "measure": 16,
          "beat": 2.25
        },
        {
          "t_seconds": 41.85,
          "t_ticks": 33480,
          "dur_seconds": 0.45,
          "dur_ticks": 360,
          "note": 82,
          "name": "A#5",
          "velocity": 33,
          "channel": 0,
          "hand": "right",
          "measure": 16,
          "beat": 2.25
        },
        {
          "t_seconds": 41.85,
          "t_ticks": 33480,
          "dur_seconds": 0.45,
          "dur_ticks": 360,
          "note": 85,
          "name": "C#6",
          "velocity": 36,
          "channel": 0,
          "hand": "right",
          "measure": 16,
          "beat": 2.25
        },
        {
          "t_seconds": 42.3,
          "t_ticks": 33840,
          "dur_seconds": 0.9,
          "dur_ticks": 720,
          "note": 58,
          "name": "A#3",
          "velocity": 28,
          "channel": 0,
          "hand": "left",
          "measure": 16,
          "beat": 3
        },
        {
          "t_seconds": 42.3,
          "t_ticks": 33840,
          "dur_seconds": 0.9,
          "dur_ticks": 720,
          "note": 61,
          "name": "C#4",
          "velocity": 28,
          "channel": 0,
          "hand": "right",
          "measure": 16,
          "beat": 3
        },
        {
          "t_seconds": 42.3,
          "t_ticks": 33840,
          "dur_seconds": 0.9,
          "dur_ticks": 720,
          "note": 66,
          "name": "F#4",
          "velocity": 28,
          "channel": 0,
          "hand": "right",
          "measure": 16,
          "beat": 3
        },
        {
          "t_seconds": 42.3,
          "t_ticks": 33840,
          "dur_seconds": 0.9,
          "dur_ticks": 720,
          "note": 70,
          "name": "A#4",
          "velocity": 33,
          "channel": 0,
          "hand": "right",
          "measure": 16,
          "beat": 3
        },
        {
          "t_seconds": 42.3,
          "t_ticks": 33840,
          "dur_seconds": 0.9,
          "dur_ticks": 720,
          "note": 78,
          "name": "F#5",
          "velocity": 33,
          "channel": 0,
          "hand": "right",
          "measure": 16,
          "beat": 3
        },
        {
          "t_seconds": 42.3,
          "t_ticks": 33840,
          "dur_seconds": 0.9,
          "dur_ticks": 720,
          "note": 82,
          "name": "A#5",
          "velocity": 36,
          "channel": 0,
          "hand": "right",
          "measure": 16,
          "beat": 3
        },
        {
          "t_seconds": 43.2,
          "t_ticks": 34560,
          "dur_seconds": 1.8,
          "dur_ticks": 1440,
          "note": 27,
          "name": "D#1",
          "velocity": 30,
          "channel": 0,
          "hand": "left",
          "measure": 17,
          "beat": 0
        },
        {
          "t_seconds": 43.2,
          "t_ticks": 34560,
          "dur_seconds": 1.8,
          "dur_ticks": 1440,
          "note": 39,
          "name": "D#2",
          "velocity": 30,
          "channel": 0,
          "hand": "left",
          "measure": 17,
          "beat": 0
        },
        {
          "t_seconds": 43.2,
          "t_ticks": 34560,
          "dur_seconds": 1.8,
          "dur_ticks": 1440,
          "note": 46,
          "name": "A#2",
          "velocity": 36,
          "channel": 0,
          "hand": "left",
          "measure": 17,
          "beat": 0
        },
        {
          "t_seconds": 43.65,
          "t_ticks": 34920,
          "dur_seconds": 1.325,
          "dur_ticks": 1060,
          "note": 65,
          "name": "F4",
          "velocity": 34,
          "channel": 0,
          "hand": "right",
          "measure": 17,
          "beat": 0.75
        },
        {
          "t_seconds": 43.65,
          "t_ticks": 34920,
          "dur_seconds": 1.05,
          "dur_ticks": 840,
          "note": 66,
          "name": "F#4",
          "velocity": 34,
          "channel": 0,
          "hand": "right",
          "measure": 17,
          "beat": 0.75
        },
        {
          "t_seconds": 43.65,
          "t_ticks": 34920,
          "dur_seconds": 1.05,
          "dur_ticks": 840,
          "note": 70,
          "name": "A#4",
          "velocity": 34,
          "channel": 0,
          "hand": "right",
          "measure": 17,
          "beat": 0.75
        },
        {
          "t_seconds": 43.65,
          "t_ticks": 34920,
          "dur_seconds": 1.325,
          "dur_ticks": 1060,
          "note": 77,
          "name": "F5",
          "velocity": 46,
          "channel": 0,
          "hand": "right",
          "measure": 17,
          "beat": 0.75
        },
        {
          "t_seconds": 43.65,
          "t_ticks": 34920,
          "dur_seconds": 1.05,
          "dur_ticks": 840,
          "note": 82,
          "name": "A#5",
          "velocity": 46,
          "channel": 0,
          "hand": "right",
          "measure": 17,
          "beat": 0.75
        },
        {
          "t_seconds": 43.65,
          "t_ticks": 34920,
          "dur_seconds": 1.325,
          "dur_ticks": 1060,
          "note": 89,
          "name": "F6",
          "velocity": 48,
          "channel": 0,
          "hand": "right",
          "measure": 17,
          "beat": 0.75
        },
        {
          "t_seconds": 44.4,
          "t_ticks": 35520,
          "dur_seconds": 0.575,
          "dur_ticks": 460,
          "note": 66,
          "name": "F#4",
          "velocity": 34,
          "channel": 0,
          "hand": "right",
          "measure": 17,
          "beat": 2
        },
        {
          "t_seconds": 44.4,
          "t_ticks": 35520,
          "dur_seconds": 0.575,
          "dur_ticks": 460,
          "note": 70,
          "name": "A#4",
          "velocity": 34,
          "channel": 0,
          "hand": "right",
          "measure": 17,
          "beat": 2
        },
        {
          "t_seconds": 44.4,
          "t_ticks": 35520,
          "dur_seconds": 0.3,
          "dur_ticks": 240,
          "note": 75,
          "name": "D#5",
          "velocity": 34,
          "channel": 0,
          "hand": "right",
          "measure": 17,
          "beat": 2
        },
        {
          "t_seconds": 44.4,
          "t_ticks": 35520,
          "dur_seconds": 0.3,
          "dur_ticks": 240,
          "note": 78,
          "name": "F#5",
          "velocity": 40,
          "channel": 0,
          "hand": "right",
          "measure": 17,
          "beat": 2
        },
        {
          "t_seconds": 44.4,
          "t_ticks": 35520,
          "dur_seconds": 0.575,
          "dur_ticks": 460,
          "note": 82,
          "name": "A#5",
          "velocity": 40,
          "channel": 0,
          "hand": "right",
          "measure": 17,
          "beat": 2
        },
        {
          "t_seconds": 44.4,
          "t_ticks": 35520,
          "dur_seconds": 0.3,
          "dur_ticks": 240,
          "note": 90,
          "name": "F#6",
          "velocity": 42,
          "channel": 0,
          "hand": "right",
          "measure": 17,
          "beat": 2
        },
        {
          "t_seconds": 44.7,
          "t_ticks": 35760,
          "dur_seconds": 0.3,
          "dur_ticks": 240,
          "note": 65,
          "name": "F4",
          "velocity": 32,
          "channel": 0,
          "hand": "right",
          "measure": 17,
          "beat": 2.5
        },
        {
          "t_seconds": 44.7,
          "t_ticks": 35760,
          "dur_seconds": 0.3,
          "dur_ticks": 240,
          "note": 66,
          "name": "F#4",
          "velocity": 32,
          "channel": 0,
          "hand": "right",
          "measure": 17,
          "beat": 2.5
        },
        {
          "t_seconds": 44.7,
          "t_ticks": 35760,
          "dur_seconds": 0.3,
          "dur_ticks": 240,
          "note": 70,
          "name": "A#4",
          "velocity": 32,
          "channel": 0,
          "hand": "right",
          "measure": 17,
          "beat": 2.5
        },
        {
          "t_seconds": 44.7,
          "t_ticks": 35760,
          "dur_seconds": 0.3,
          "dur_ticks": 240,
          "note": 77,
          "name": "F5",
          "velocity": 37,
          "channel": 0,
          "hand": "right",
          "measure": 17,
          "beat": 2.5
        },
        {
          "t_seconds": 44.7,
          "t_ticks": 35760,
          "dur_seconds": 0.3,
          "dur_ticks": 240,
          "note": 82,
          "name": "A#5",
          "velocity": 37,
          "channel": 0,
          "hand": "right",
          "measure": 17,
          "beat": 2.5
        },
        {
          "t_seconds": 44.7,
          "t_ticks": 35760,
          "dur_seconds": 0.3,
          "dur_ticks": 240,
          "note": 89,
          "name": "F6",
          "velocity": 38,
          "channel": 0,
          "hand": "right",
          "measure": 17,
          "beat": 2.5
        },
        {
          "t_seconds": 45,
          "t_ticks": 36000,
          "dur_seconds": 0.275,
          "dur_ticks": 220,
          "note": 63,
          "name": "D#4",
          "velocity": 33,
          "channel": 0,
          "hand": "right",
          "measure": 17,
          "beat": 3
        },
        {
          "t_seconds": 45,
          "t_ticks": 36000,
          "dur_seconds": 0.275,
          "dur_ticks": 220,
          "note": 66,
          "name": "F#4",
          "velocity": 33,
          "channel": 0,
          "hand": "right",
          "measure": 17,
          "beat": 3
        },
        {
          "t_seconds": 45,
          "t_ticks": 36000,
          "dur_seconds": 0.275,
          "dur_ticks": 220,
          "note": 70,
          "name": "A#4",
          "velocity": 33,
          "channel": 0,
          "hand": "right",
          "measure": 17,
          "beat": 3
        },
        {
          "t_seconds": 45,
          "t_ticks": 36000,
          "dur_seconds": 0.275,
          "dur_ticks": 220,
          "note": 75,
          "name": "D#5",
          "velocity": 39,
          "channel": 0,
          "hand": "right",
          "measure": 17,
          "beat": 3
        },
        {
          "t_seconds": 45,
          "t_ticks": 36000,
          "dur_seconds": 0.275,
          "dur_ticks": 220,
          "note": 82,
          "name": "A#5",
          "velocity": 39,
          "channel": 0,
          "hand": "right",
          "measure": 17,
          "beat": 3
        },
        {
          "t_seconds": 45,
          "t_ticks": 36000,
          "dur_seconds": 0.275,
          "dur_ticks": 220,
          "note": 87,
          "name": "D#6",
          "velocity": 40,
          "channel": 0,
          "hand": "right",
          "measure": 17,
          "beat": 3
        },
        {
          "t_seconds": 45.3,
          "t_ticks": 36240,
          "dur_seconds": 0.3,
          "dur_ticks": 240,
          "note": 65,
          "name": "F4",
          "velocity": 32,
          "channel": 0,
          "hand": "right",
          "measure": 17,
          "beat": 3.5
        },
        {
          "t_seconds": 45.3,
          "t_ticks": 36240,
          "dur_seconds": 0.3,
          "dur_ticks": 240,
          "note": 66,
          "name": "F#4",
          "velocity": 32,
          "channel": 0,
          "hand": "right",
          "measure": 17,
          "beat": 3.5
        },
        {
          "t_seconds": 45.3,
          "t_ticks": 36240,
          "dur_seconds": 0.3,
          "dur_ticks": 240,
          "note": 70,
          "name": "A#4",
          "velocity": 32,
          "channel": 0,
          "hand": "right",
          "measure": 17,
          "beat": 3.5
        },
        {
          "t_seconds": 45.3,
          "t_ticks": 36240,
          "dur_seconds": 0.3,
          "dur_ticks": 240,
          "note": 77,
          "name": "F5",
          "velocity": 38,
          "channel": 0,
          "hand": "right",
          "measure": 17,
          "beat": 3.5
        },
        {
          "t_seconds": 45.3,
          "t_ticks": 36240,
          "dur_seconds": 0.3,
          "dur_ticks": 240,
          "note": 82,
          "name": "A#5",
          "velocity": 38,
          "channel": 0,
          "hand": "right",
          "measure": 17,
          "beat": 3.5
        },
        {
          "t_seconds": 45.3,
          "t_ticks": 36240,
          "dur_seconds": 0.3,
          "dur_ticks": 240,
          "note": 89,
          "name": "F6",
          "velocity": 39,
          "channel": 0,
          "hand": "right",
          "measure": 17,
          "beat": 3.5
        },
        {
          "t_seconds": 45.6,
          "t_ticks": 36480,
          "dur_seconds": 0.3,
          "dur_ticks": 240,
          "note": 63,
          "name": "D#4",
          "velocity": 32,
          "channel": 0,
          "hand": "right",
          "measure": 17,
          "beat": 4
        },
        {
          "t_seconds": 45.6,
          "t_ticks": 36480,
          "dur_seconds": 0.3,
          "dur_ticks": 240,
          "note": 66,
          "name": "F#4",
          "velocity": 32,
          "channel": 0,
          "hand": "right",
          "measure": 17,
          "beat": 4
        },
        {
          "t_seconds": 45.6,
          "t_ticks": 36480,
          "dur_seconds": 0.3,
          "dur_ticks": 240,
          "note": 70,
          "name": "A#4",
          "velocity": 32,
          "channel": 0,
          "hand": "right",
          "measure": 17,
          "beat": 4
        },
        {
          "t_seconds": 45.6,
          "t_ticks": 36480,
          "dur_seconds": 0.3,
          "dur_ticks": 240,
          "note": 75,
          "name": "D#5",
          "velocity": 38,
          "channel": 0,
          "hand": "right",
          "measure": 17,
          "beat": 4
        },
        {
          "t_seconds": 45.6,
          "t_ticks": 36480,
          "dur_seconds": 0.3,
          "dur_ticks": 240,
          "note": 82,
          "name": "A#5",
          "velocity": 38,
          "channel": 0,
          "hand": "right",
          "measure": 17,
          "beat": 4
        },
        {
          "t_seconds": 45.6,
          "t_ticks": 36480,
          "dur_seconds": 0.3,
          "dur_ticks": 240,
          "note": 87,
          "name": "D#6",
          "velocity": 39,
          "channel": 0,
          "hand": "right",
          "measure": 17,
          "beat": 4
        },
        {
          "t_seconds": 45.9,
          "t_ticks": 36720,
          "dur_seconds": 0.275,
          "dur_ticks": 220,
          "note": 61,
          "name": "C#4",
          "velocity": 35,
          "channel": 0,
          "hand": "right",
          "measure": 18,
          "beat": 0
        },
        {
          "t_seconds": 45.9,
          "t_ticks": 36720,
          "dur_seconds": 0.275,
          "dur_ticks": 220,
          "note": 66,
          "name": "F#4",
          "velocity": 35,
          "channel": 0,
          "hand": "right",
          "measure": 18,
          "beat": 0
        },
        {
          "t_seconds": 45.9,
          "t_ticks": 36720,
          "dur_seconds": 0.275,
          "dur_ticks": 220,
          "note": 70,
          "name": "A#4",
          "velocity": 35,
          "channel": 0,
          "hand": "right",
          "measure": 18,
          "beat": 0
        },
        {
          "t_seconds": 45.9,
          "t_ticks": 36720,
          "dur_seconds": 0.275,
          "dur_ticks": 220,
          "note": 73,
          "name": "C#5",
          "velocity": 39,
          "channel": 0,
          "hand": "right",
          "measure": 18,
          "beat": 0
        },
        {
          "t_seconds": 45.9,
          "t_ticks": 36720,
          "dur_seconds": 0.275,
          "dur_ticks": 220,
          "note": 82,
          "name": "A#5",
          "velocity": 39,
          "channel": 0,
          "hand": "right",
          "measure": 18,
          "beat": 0
        },
        {
          "t_seconds": 45.9,
          "t_ticks": 36720,
          "dur_seconds": 0.275,
          "dur_ticks": 220,
          "note": 85,
          "name": "C#6",
          "velocity": 40,
          "channel": 0,
          "hand": "right",
          "measure": 18,
          "beat": 0
        },
        {
          "t_seconds": 46.2,
          "t_ticks": 36960,
          "dur_seconds": 0.3,
          "dur_ticks": 240,
          "note": 63,
          "name": "D#4",
          "velocity": 33,
          "channel": 0,
          "hand": "right",
          "measure": 18,
          "beat": 0.5
        },
        {
          "t_seconds": 46.2,
          "t_ticks": 36960,
          "dur_seconds": 0.3,
          "dur_ticks": 240,
          "note": 66,
          "name": "F#4",
          "velocity": 33,
          "channel": 0,
          "hand": "right",
          "measure": 18,
          "beat": 0.5
        },
        {
          "t_seconds": 46.2,
          "t_ticks": 36960,
          "dur_seconds": 0.3,
          "dur_ticks": 240,
          "note": 70,
          "name": "A#4",
          "velocity": 33,
          "channel": 0,
          "hand": "right",
          "measure": 18,
          "beat": 0.5
        },
        {
          "t_seconds": 46.2,
          "t_ticks": 36960,
          "dur_seconds": 0.3,
          "dur_ticks": 240,
          "note": 75,
          "name": "D#5",
          "velocity": 37,
          "channel": 0,
          "hand": "right",
          "measure": 18,
          "beat": 0.5
        },
        {
          "t_seconds": 46.2,
          "t_ticks": 36960,
          "dur_seconds": 0.3,
          "dur_ticks": 240,
          "note": 82,
          "name": "A#5",
          "velocity": 37,
          "channel": 0,
          "hand": "right",
          "measure": 18,
          "beat": 0.5
        },
        {
          "t_seconds": 46.2,
          "t_ticks": 36960,
          "dur_seconds": 0.3,
          "dur_ticks": 240,
          "note": 87,
          "name": "D#6",
          "velocity": 38,
          "channel": 0,
          "hand": "right",
          "measure": 18,
          "beat": 0.5
        },
        {
          "t_seconds": 46.5,
          "t_ticks": 37200,
          "dur_seconds": 0.275,
          "dur_ticks": 220,
          "note": 61,
          "name": "C#4",
          "velocity": 33,
          "channel": 0,
          "hand": "right",
          "measure": 18,
          "beat": 1
        },
        {
          "t_seconds": 46.5,
          "t_ticks": 37200,
          "dur_seconds": 0.275,
          "dur_ticks": 220,
          "note": 66,
          "name": "F#4",
          "velocity": 33,
          "channel": 0,
          "hand": "right",
          "measure": 18,
          "beat": 1
        },
        {
          "t_seconds": 46.5,
          "t_ticks": 37200,
          "dur_seconds": 0.275,
          "dur_ticks": 220,
          "note": 70,
          "name": "A#4",
          "velocity": 33,
          "channel": 0,
          "hand": "right",
          "measure": 18,
          "beat": 1
        },
        {
          "t_seconds": 46.5,
          "t_ticks": 37200,
          "dur_seconds": 0.275,
          "dur_ticks": 220,
          "note": 73,
          "name": "C#5",
          "velocity": 37,
          "channel": 0,
          "hand": "right",
          "measure": 18,
          "beat": 1
        },
        {
          "t_seconds": 46.5,
          "t_ticks": 37200,
          "dur_seconds": 0.275,
          "dur_ticks": 220,
          "note": 82,
          "name": "A#5",
          "velocity": 37,
          "channel": 0,
          "hand": "right",
          "measure": 18,
          "beat": 1
        },
        {
          "t_seconds": 46.5,
          "t_ticks": 37200,
          "dur_seconds": 0.275,
          "dur_ticks": 220,
          "note": 85,
          "name": "C#6",
          "velocity": 38,
          "channel": 0,
          "hand": "right",
          "measure": 18,
          "beat": 1
        },
        {
          "t_seconds": 46.8,
          "t_ticks": 37440,
          "dur_seconds": 0.45,
          "dur_ticks": 360,
          "note": 60,
          "name": "C4",
          "velocity": 32,
          "channel": 0,
          "hand": "right",
          "measure": 18,
          "beat": 1.5
        },
        {
          "t_seconds": 46.8,
          "t_ticks": 37440,
          "dur_seconds": 0.45,
          "dur_ticks": 360,
          "note": 66,
          "name": "F#4",
          "velocity": 32,
          "channel": 0,
          "hand": "right",
          "measure": 18,
          "beat": 1.5
        },
        {
          "t_seconds": 46.8,
          "t_ticks": 37440,
          "dur_seconds": 0.45,
          "dur_ticks": 360,
          "note": 70,
          "name": "A#4",
          "velocity": 32,
          "channel": 0,
          "hand": "right",
          "measure": 18,
          "beat": 1.5
        },
        {
          "t_seconds": 46.8,
          "t_ticks": 37440,
          "dur_seconds": 0.4125,
          "dur_ticks": 330,
          "note": 72,
          "name": "C5",
          "velocity": 37,
          "channel": 0,
          "hand": "right",
          "measure": 18,
          "beat": 1.5
        },
        {
          "t_seconds": 46.8,
          "t_ticks": 37440,
          "dur_seconds": 0.4125,
          "dur_ticks": 330,
          "note": 82,
          "name": "A#5",
          "velocity": 37,
          "channel": 0,
          "hand": "right",
          "measure": 18,
          "beat": 1.5
        },
        {
          "t_seconds": 46.8,
          "t_ticks": 37440,
          "dur_seconds": 0.4125,
          "dur_ticks": 330,
          "note": 84,
          "name": "C6",
          "velocity": 38,
          "channel": 0,
          "hand": "right",
          "measure": 18,
          "beat": 1.5
        },
        {
          "t_seconds": 47.2125,
          "t_ticks": 37770,
          "dur_seconds": 0.0375,
          "dur_ticks": 30,
          "note": 87,
          "name": "D#6",
          "velocity": 43,
          "channel": 0,
          "hand": "right",
          "measure": 18,
          "beat": 2.1875
        },
        {
          "t_seconds": 47.25,
          "t_ticks": 37800,
          "dur_seconds": 0.45,
          "dur_ticks": 360,
          "note": 61,
          "name": "C#4",
          "velocity": 31,
          "channel": 0,
          "hand": "right",
          "measure": 18,
          "beat": 2.25
        },
        {
          "t_seconds": 47.25,
          "t_ticks": 37800,
          "dur_seconds": 0.45,
          "dur_ticks": 360,
          "note": 66,
          "name": "F#4",
          "velocity": 31,
          "channel": 0,
          "hand": "right",
          "measure": 18,
          "beat": 2.25
        },
        {
          "t_seconds": 47.25,
          "t_ticks": 37800,
          "dur_seconds": 0.45,
          "dur_ticks": 360,
          "note": 70,
          "name": "A#4",
          "velocity": 31,
          "channel": 0,
          "hand": "right",
          "measure": 18,
          "beat": 2.25
        },
        {
          "t_seconds": 47.25,
          "t_ticks": 37800,
          "dur_seconds": 0.45,
          "dur_ticks": 360,
          "note": 73,
          "name": "C#5",
          "velocity": 34,
          "channel": 0,
          "hand": "right",
          "measure": 18,
          "beat": 2.25
        },
        {
          "t_seconds": 47.25,
          "t_ticks": 37800,
          "dur_seconds": 0.45,
          "dur_ticks": 360,
          "note": 82,
          "name": "A#5",
          "velocity": 34,
          "channel": 0,
          "hand": "right",
          "measure": 18,
          "beat": 2.25
        },
        {
          "t_seconds": 47.25,
          "t_ticks": 37800,
          "dur_seconds": 0.45,
          "dur_ticks": 360,
          "note": 85,
          "name": "C#6",
          "velocity": 37,
          "channel": 0,
          "hand": "right",
          "measure": 18,
          "beat": 2.25
        },
        {
          "t_seconds": 47.7,
          "t_ticks": 38160,
          "dur_seconds": 0.9,
          "dur_ticks": 720,
          "note": 58,
          "name": "A#3",
          "velocity": 30,
          "channel": 0,
          "hand": "left",
          "measure": 18,
          "beat": 3
        },
        {
          "t_seconds": 47.7,
          "t_ticks": 38160,
          "dur_seconds": 0.9,
          "dur_ticks": 720,
          "note": 63,
          "name": "D#4",
          "velocity": 30,
          "channel": 0,
          "hand": "right",
          "measure": 18,
          "beat": 3
        },
        {
          "t_seconds": 47.7,
          "t_ticks": 38160,
          "dur_seconds": 0.9,
          "dur_ticks": 720,
          "note": 66,
          "name": "F#4",
          "velocity": 30,
          "channel": 0,
          "hand": "right",
          "measure": 18,
          "beat": 3
        },
        {
          "t_seconds": 47.7,
          "t_ticks": 38160,
          "dur_seconds": 1.35,
          "dur_ticks": 1080,
          "note": 70,
          "name": "A#4",
          "velocity": 33,
          "channel": 0,
          "hand": "right",
          "measure": 18,
          "beat": 3
        },
        {
          "t_seconds": 47.7,
          "t_ticks": 38160,
          "dur_seconds": 1.35,
          "dur_ticks": 1080,
          "note": 78,
          "name": "F#5",
          "velocity": 33,
          "channel": 0,
          "hand": "right",
          "measure": 18,
          "beat": 3
        },
        {
          "t_seconds": 47.7,
          "t_ticks": 38160,
          "dur_seconds": 1.35,
          "dur_ticks": 1080,
          "note": 82,
          "name": "A#5",
          "velocity": 35,
          "channel": 0,
          "hand": "right",
          "measure": 18,
          "beat": 3
        }
      ]
    },
    "tokens_remi": [
      "Bar_15",
      "Position_0",
      "Pitch_27",
      "Velocity_28",
      "Duration_12",
      "Pitch_39",
      "Velocity_36",
      "Duration_12",
      "Position_16",
      "Pitch_65",
      "Velocity_32",
      "Duration_9",
      "Pitch_66",
      "Velocity_32",
      "Duration_7",
      "Pitch_70",
      "Velocity_32",
      "Duration_7",
      "Pitch_77",
      "Velocity_36",
      "Duration_9",
      "Pitch_82",
      "Velocity_36",
      "Duration_7",
      "Pitch_89",
      "Velocity_40",
      "Duration_9",
      "Position_43",
      "Pitch_63",
      "Velocity_28",
      "Duration_2",
      "Pitch_66",
      "Velocity_28",
      "Duration_4",
      "Pitch_70",
      "Velocity_28",
      "Duration_4",
      "Pitch_75",
      "Velocity_36",
      "Duration_2",
      "Pitch_82",
      "Velocity_36",
      "Duration_4",
      "Pitch_87",
      "Velocity_36",
      "Duration_2",
      "Position_53",
      "Pitch_63",
      "Velocity_28",
      "Duration_2",
      "Pitch_66",
      "Velocity_28",
      "Duration_2",
      "Pitch_70",
      "Velocity_28",
      "Duration_2",
      "Pitch_75",
      "Velocity_36",
      "Duration_2",
      "Pitch_82",
      "Velocity_36",
      "Duration_2",
      "Pitch_87",
      "Velocity_36",
      "Duration_2",
      "Position_64",
      "Pitch_63",
      "Velocity_32",
      "Duration_2",
      "Pitch_66",
      "Velocity_32",
      "Duration_2",
      "Pitch_70",
      "Velocity_32",
      "Duration_2",
      "Pitch_75",
      "Velocity_36",
      "Duration_2",
      "Pitch_82",
      "Velocity_36",
      "Duration_2",
      "Pitch_87",
      "Velocity_40",
      "Duration_2",
      "Position_75",
      "Pitch_61",
      "Velocity_28",
      "Duration_2",
      "Pitch_66",
      "Velocity_28",
      "Duration_2",
      "Pitch_70",
      "Velocity_28",
      "Duration_2",
      "Pitch_73",
      "Velocity_36",
      "Duration_2",
      "Pitch_82",
      "Velocity_36",
      "Duration_2",
      "Pitch_85",
      "Velocity_40",
      "Duration_2",
      "Position_85",
      "Pitch_61",
      "Velocity_28",
      "Duration_2",
      "Pitch_66",
      "Velocity_28",
      "Duration_2",
      "Pitch_70",
      "Velocity_28",
      "Duration_2",
      "Pitch_73",
      "Velocity_36",
      "Duration_2",
      "Pitch_82",
      "Velocity_36",
      "Duration_2",
      "Pitch_85",
      "Velocity_40",
      "Duration_2",
      "Bar_16",
      "Position_0",
      "Pitch_61",
      "Velocity_32",
      "Duration_2",
      "Pitch_66",
      "Velocity_32",
      "Duration_2",
      "Pitch_70",
      "Velocity_32",
      "Duration_2",
      "Pitch_73",
      "Velocity_36",
      "Duration_2",
      "Pitch_82",
      "Velocity_36",
      "Duration_2",
      "Pitch_85",
      "Velocity_40",
      "Duration_2",
      "Position_11",
      "Pitch_60",
      "Velocity_32",
      "Duration_2",
      "Pitch_66",
      "Velocity_32",
      "Duration_2",
      "Pitch_70",
      "Velocity_32",
      "Duration_2",
      "Pitch_72",
      "Velocity_36",
      "Duration_2",
      "Pitch_78",
      "Velocity_36",
      "Duration_2",
      "Pitch_82",
      "Velocity_36",
      "Duration_2",
      "Pitch_84",
      "Velocity_36",
      "Duration_2",
      "Position_21",
      "Pitch_60",
      "Velocity_32",
      "Duration_2",
      "Pitch_66",
      "Velocity_32",
      "Duration_2",
      "Pitch_70",
      "Velocity_32",
      "Duration_2",
      "Pitch_72",
      "Velocity_36",
      "Duration_2",
      "Pitch_78",
      "Velocity_36",
      "Duration_2",
      "Pitch_82",
      "Velocity_36",
      "Duration_2",
      "Pitch_84",
      "Velocity_36",
      "Duration_2",
      "Position_32",
      "Pitch_60",
      "Velocity_28",
      "Duration_3",
      "Pitch_66",
      "Velocity_28",
      "Duration_3",
      "Pitch_70",
      "Velocity_28",
      "Duration_3",
      "Pitch_72",
      "Velocity_36",
      "Duration_3",
      "Pitch_78",
      "Velocity_36",
      "Duration_3",
      "Pitch_82",
      "Velocity_36",
      "Duration_3",
      "Pitch_84",
      "Velocity_36",
      "Duration_3",
      "Position_48",
      "Pitch_61",
      "Velocity_28",
      "Duration_3",
      "Pitch_66",
      "Velocity_28",
      "Duration_3",
      "Pitch_70",
      "Velocity_28",
      "Duration_3",
      "Pitch_73",
      "Velocity_32",
      "Duration_3",
      "Pitch_82",
      "Velocity_32",
      "Duration_3",
      "Pitch_85",
      "Velocity_36",
      "Duration_3",
      "Position_64",
      "Pitch_58",
      "Velocity_28",
      "Duration_6",
      "Pitch_61",
      "Velocity_28",
      "Duration_6",
      "Pitch_66",
      "Velocity_28",
      "Duration_6",
      "Pitch_70",
      "Velocity_32",
      "Duration_6",
      "Pitch_78",
      "Velocity_32",
      "Duration_6",
      "Pitch_82",
      "Velocity_36",
      "Duration_6",
      "Bar_17",
      "Position_0",
      "Pitch_27",
      "Velocity_28",
      "Duration_12",
      "Pitch_39",
      "Velocity_28",
      "Duration_12",
      "Pitch_46",
      "Velocity_36",
      "Duration_12",
      "Position_16",
      "Pitch_65",
      "Velocity_32",
      "Duration_9",
      "Pitch_66",
      "Velocity_32",
      "Duration_7",
      "Pitch_70",
      "Velocity_32",
      "Duration_7",
      "Pitch_77",
      "Velocity_44",
      "Duration_9",
      "Pitch_82",
      "Velocity_44",
      "Duration_7",
      "Pitch_89",
      "Velocity_48",
      "Duration_9",
      "Position_43",
      "Pitch_66",
      "Velocity_32",
      "Duration_4",
      "Pitch_70",
      "Velocity_32",
      "Duration_4",
      "Pitch_75",
      "Velocity_32",
      "Duration_2",
      "Pitch_78",
      "Velocity_40",
      "Duration_2",
      "Pitch_82",
      "Velocity_40",
      "Duration_4",
      "Pitch_90",
      "Velocity_40",
      "Duration_2",
      "Position_53",
      "Pitch_65",
      "Velocity_32",
      "Duration_2",
      "Pitch_66",
      "Velocity_32",
      "Duration_2",
      "Pitch_70",
      "Velocity_32",
      "Duration_2",
      "Pitch_77",
      "Velocity_36",
      "Duration_2",
      "Pitch_82",
      "Velocity_36",
      "Duration_2",
      "Pitch_89",
      "Velocity_36",
      "Duration_2",
      "Position_64",
      "Pitch_63",
      "Velocity_32",
      "Duration_2",
      "Pitch_66",
      "Velocity_32",
      "Duration_2",
      "Pitch_70",
      "Velocity_32",
      "Duration_2",
      "Pitch_75",
      "Velocity_36",
      "Duration_2",
      "Pitch_82",
      "Velocity_36",
      "Duration_2",
      "Pitch_87",
      "Velocity_40",
      "Duration_2",
      "Position_75",
      "Pitch_65",
      "Velocity_32",
      "Duration_2",
      "Pitch_66",
      "Velocity_32",
      "Duration_2",
      "Pitch_70",
      "Velocity_32",
      "Duration_2",
      "Pitch_77",
      "Velocity_36",
      "Duration_2",
      "Pitch_82",
      "Velocity_36",
      "Duration_2",
      "Pitch_89",
      "Velocity_36",
      "Duration_2",
      "Position_85",
      "Pitch_63",
      "Velocity_32",
      "Duration_2",
      "Pitch_66",
      "Velocity_32",
      "Duration_2",
      "Pitch_70",
      "Velocity_32",
      "Duration_2",
      "Pitch_75",
      "Velocity_36",
      "Duration_2",
      "Pitch_82",
      "Velocity_36",
      "Duration_2",
      "Pitch_87",
      "Velocity_36",
      "Duration_2",
      "Bar_18",
      "Position_0",
      "Pitch_61",
      "Velocity_32",
      "Duration_2",
      "Pitch_66",
      "Velocity_32",
      "Duration_2",
      "Pitch_70",
      "Velocity_32",
      "Duration_2",
      "Pitch_73",
      "Velocity_36",
      "Duration_2",
      "Pitch_82",
      "Velocity_36",
      "Duration_2",
      "Pitch_85",
      "Velocity_40",
      "Duration_2",
      "Position_11",
      "Pitch_63",
      "Velocity_32",
      "Duration_2",
      "Pitch_66",
      "Velocity_32",
      "Duration_2",
      "Pitch_70",
      "Velocity_32",
      "Duration_2",
      "Pitch_75",
      "Velocity_36",
      "Duration_2",
      "Pitch_82",
      "Velocity_36",
      "Duration_2",
      "Pitch_87",
      "Velocity_36",
      "Duration_2",
      "Position_21",
      "Pitch_61",
      "Velocity_32",
      "Duration_2",
      "Pitch_66",
      "Velocity_32",
      "Duration_2",
      "Pitch_70",
      "Velocity_32",
      "Duration_2",
      "Pitch_73",
      "Velocity_36",
      "Duration_2",
      "Pitch_82",
      "Velocity_36",
      "Duration_2",
      "Pitch_85",
      "Velocity_36",
      "Duration_2",
      "Position_32",
      "Pitch_60",
      "Velocity_32",
      "Duration_3",
      "Pitch_66",
      "Velocity_32",
      "Duration_3",
      "Pitch_70",
      "Velocity_32",
      "Duration_3",
      "Pitch_72",
      "Velocity_36",
      "Duration_3",
      "Pitch_82",
      "Velocity_36",
      "Duration_3",
      "Pitch_84",
      "Velocity_36",
      "Duration_3",
      "Position_47",
      "Pitch_87",
      "Velocity_40",
      "Duration_1",
      "Position_48",
      "Pitch_61",
      "Velocity_28",
      "Duration_3",
      "Pitch_66",
      "Velocity_28",
      "Duration_3",
      "Pitch_70",
      "Velocity_28",
      "Duration_3",
      "Pitch_73",
      "Velocity_32",
      "Duration_3",
      "Pitch_82",
      "Velocity_32",
      "Duration_3",
      "Pitch_85",
      "Velocity_36",
      "Duration_3",
      "Position_64",
      "Pitch_58",
      "Velocity_28",
      "Duration_6",
      "Pitch_63",
      "Velocity_28",
      "Duration_6",
      "Pitch_66",
      "Velocity_28",
      "Duration_6",
      "Pitch_70",
      "Velocity_32",
      "Duration_9",
      "Pitch_78",
      "Velocity_32",
      "Duration_9",
      "Pitch_82",
      "Velocity_32",
      "Duration_9"
    ],
    "tokens_abc": "X:1\nT:Clair de Lune (Suite bergamasque, III) (mm. 15–18)\nM:9/8\nL:1/16\nQ:1/4=100\nK:Db\n|z12f'36_e'8_e'7z_e'8_d'8_d'7|z_d'8c'8c'7zc'12_d'12_b24|z12f'35_g'8f'8_e'7zf'8_e'8|_d'7z_e'8_d'7zc'11_e'_d'12_b36|\n",
    "piano_roll_svg_path": "pianoroll/clair-de-lune-m015-018.svg",
    "piano_roll_svg_inline": "<svg xmlns=\"http://www.w3.org/2000/svg\" width=\"1150\" height=\"460\" viewBox=\"0 0 1150 460\">\n<style>\n  text { font-family: 'Consolas', 'SF Mono', 'Fira Code', monospace; }\n  .note-rh { fill: #4a9eff; stroke: #3580cc; stroke-width: 0.5; rx: 2; ry: 2; }\n  .note-lh { fill: #ff6b8a; stroke: #cc5570; stroke-width: 0.5; rx: 2; ry: 2; }\n  .note-rh:hover { opacity: 0.85; }\n  .note-lh:hover { opacity: 0.85; }\n</style>\n<rect width=\"1150\" height=\"460\" fill=\"#1a1a2e\"/>\n<text x=\"60\" y=\"26\" fill=\"#ddddee\" font-size=\"16\" font-weight=\"bold\">Clair de Lune (Suite bergamasque, III) — Claude Debussy</text>\n<text x=\"60\" y=\"42\" fill=\"#8888aa\" font-size=\"11\">Db major | 100 BPM | 9/8 | m.15–18</text>\n<rect x=\"60\" y=\"390\" width=\"1080\" height=\"10\" fill=\"#151526\" opacity=\"0.5\"/>\n<rect x=\"60\" y=\"370\" width=\"1080\" height=\"10\" fill=\"#151526\" opacity=\"0.5\"/>\n<rect x=\"60\" y=\"340\" width=\"1080\" height=\"10\" fill=\"#151526\" opacity=\"0.5\"/>\n<rect x=\"60\" y=\"320\" width=\"1080\" height=\"10\" fill=\"#151526\" opacity=\"0.5\"/>\n<rect x=\"60\" y=\"290\" width=\"1080\" height=\"10\" fill=\"#151526\" opacity=\"0.5\"/>\n<rect x=\"60\" y=\"270\" width=\"1080\" height=\"10\" fill=\"#151526\" opacity=\"0.5\"/>\n<rect x=\"60\" y=\"250\" width=\"1080\" height=\"10\" fill=\"#151526\" opacity=\"0.5\"/>\n<rect x=\"60\" y=\"220\" width=\"1080\" height=\"10\" fill=\"#151526\" opacity=\"0.5\"/>\n<rect x=\"60\" y=\"200\" width=\"1080\" height=\"10\" fill=\"#151526\" opacity=\"0.5\"/>\n<rect x=\"60\" y=\"170\" width=\"1080\" height=\"10\" fill=\"#151526\" opacity=\"0.5\"/>\n<rect x=\"60\" y=\"150\" width=\"1080\" height=\"10\" fill=\"#151526\" opacity=\"0.5\"/>\n<rect x=\"60\" y=\"130\" width=\"1080\" height=\"10\" fill=\"#151526\" opacity=\"0.5\"/>\n<rect x=\"60\" y=\"100\" width=\"1080\" height=\"10\" fill=\"#151526\" opacity=\"0.5\"/>\n<rect x=\"60\" y=\"80\" width=\"1080\" height=\"10\" fill=\"#151526\" opacity=\"0.5\"/>\n<rect x=\"60\" y=\"50\" width=\"1080\" height=\"10\" fill=\"#151526\" opacity=\"0.5\"/>\n<line x1=\"60\" y1=\"400\" x2=\"1140\" y2=\"400\" stroke=\"#2a2a3e\" stroke-width=\"0.3\"/>\n<line x1=\"60\" y1=\"390\" x2=\"1140\" y2=\"390\" stroke=\"#2a2a3e\" stroke-width=\"0.3\"/>\n<line x1=\"60\" y1=\"380\" x2=\"1140\" y2=\"380\" stroke=\"#2a2a3e\" stroke-width=\"0.3\"/>\n<line x1=\"60\" y1=\"370\" x2=\"1140\" y2=\"370\" stroke=\"#2a2a3e\" stroke-width=\"0.3\"/>\n<line x1=\"60\" y1=\"360\" x2=\"1140\" y2=\"360\" stroke=\"#2a2a3e\" stroke-width=\"0.3\"/>\n<line x1=\"60\" y1=\"350\" x2=\"1140\" y2=\"350\" stroke=\"#3a3a5e\" stroke-width=\"1\"/>\n<line x1=\"60\" y1=\"340\" x2=\"1140\" y2=\"340\" stroke=\"#2a2a3e\" stroke-width=\"0.3\"/>\n<line x1=\"60\" y1=\"330\" x2=\"1140\" y2=\"330\" stroke=\"#2a2a3e\" stroke-width=\"0.3\"/>\n<line x1=\"60\" y1=\"320\" x2=\"1140\" y2=\"320\" stroke=\"#2a2a3e\" stroke-width=\"0.3\"/>\n<line x1=\"60\" y1=\"310\" x2=\"1140\" y2=\"310\" stroke=\"#2a2a3e\" stroke-width=\"0.3\"/>\n<line x1=\"60\" y1=\"300\" x2=\"1140\" y2=\"300\" stroke=\"#2a2a3e\" stroke-width=\"0.3\"/>\n<line x1=\"60\" y1=\"290\" x2=\"1140\" y2=\"290\" stroke=\"#2a2a3e\" stroke-width=\"0.3\"/>\n<line x1=\"60\" y1=\"280\" x2=\"1140\" y2=\"280\" stroke=\"#2a2a3e\" stroke-width=\"0.3\"/>\n<line x1=\"60\" y1=\"270\" x2=\"1140\" y2=\"270\" stroke=\"#2a2a3e\" stroke-width=\"0.3\"/>\n<line x1=\"60\" y1=\"260\" x2=\"1140\" y2=\"260\" stroke=\"#2a2a3e\" stroke-width=\"0.3\"/>\n<line x1=\"60\" y1=\"250\" x2=\"1140\" y2=\"250\" stroke=\"#2a2a3e\" stroke-width=\"0.3\"/>\n<line x1=\"60\" y1=\"240\" x2=\"1140\" y2=\"240\" stroke=\"#2a2a3e\" stroke-width=\"0.3\"/>\n<line x1=\"60\" y1=\"230\" x2=\"1140\" y2=\"230\" stroke=\"#3a3a5e\" stroke-width=\"1\"/>\n<line x1=\"60\" y1=\"220\" x2=\"1140\" y2=\"220\" stroke=\"#2a2a3e\" stroke-width=\"0.3\"/>\n<line x1=\"60\" y1=\"210\" x2=\"1140\" y2=\"210\" stroke=\"#2a2a3e\" stroke-width=\"0.3\"/>\n<line x1=\"60\" y1=\"200\" x2=\"1140\" y2=\"200\" stroke=\"#2a2a3e\" stroke-width=\"0.3\"/>\n<line x1=\"60\" y1=\"190\" x2=\"1140\" y2=\"190\" stroke=\"#2a2a3e\" stroke-width=\"0.3\"/>\n<line x1=\"60\" y1=\"180\" x2=\"1140\" y2=\"180\" stroke=\"#2a2a3e\" stroke-width=\"0.3\"/>\n<line x1=\"60\" y1=\"170\" x2=\"1140\" y2=\"170\" stroke=\"#2a2a3e\" stroke-width=\"0.3\"/>\n<line x1=\"60\" y1=\"160\" x2=\"1140\" y2=\"160\" stroke=\"#2a2a3e\" stroke-width=\"0.3\"/>\n<line x1=\"60\" y1=\"150\" x2=\"1140\" y2=\"150\" stroke=\"#2a2a3e\" stroke-width=\"0.3\"/>\n<line x1=\"60\" y1=\"140\" x2=\"1140\" y2=\"140\" stroke=\"#2a2a3e\" stroke-width=\"0.3\"/>\n<line x1=\"60\" y1=\"130\" x2=\"1140\" y2=\"130\" stroke=\"#2a2a3e\" stroke-width=\"0.3\"/>\n<line x1=\"60\" y1=\"120\" x2=\"1140\" y2=\"120\" stroke=\"#2a2a3e\" stroke-width=\"0.3\"/>\n<line x1=\"60\" y1=\"110\" x2=\"1140\" y2=\"110\" stroke=\"#3a3a5e\" stroke-width=\"1\"/>\n<line x1=\"60\" y1=\"100\" x2=\"1140\" y2=\"100\" stroke=\"#2a2a3e\" stroke-width=\"0.3\"/>\n<line x1=\"60\" y1=\"90\" x2=\"1140\" y2=\"90\" stroke=\"#2a2a3e\" stroke-width=\"0.3\"/>\n<line x1=\"60\" y1=\"80\" x2=\"1140\" y2=\"80\" stroke=\"#2a2a3e\" stroke-width=\"0.3\"/>\n<line x1=\"60\" y1=\"70\" x2=\"1140\" y2=\"70\" stroke=\"#2a2a3e\" stroke-width=\"0.3\"/>\n<line x1=\"60\" y1=\"60\" x2=\"1140\" y2=\"60\" stroke=\"#2a2a3e\" stroke-width=\"0.3\"/>\n<line x1=\"60\" y1=\"50\" x2=\"1140\" y2=\"50\" stroke=\"#2a2a3e\" stroke-width=\"0.3\"/>\n<line x1=\"60\" y1=\"50\" x2=\"60\" y2=\"410\" stroke=\"#3a3a5e\" stroke-width=\"1.5\"/>\n<line x1=\"90\" y1=\"50\" x2=\"90\" y2=\"410\" stroke=\"#2a2a3e\" stroke-width=\"0.3\" stroke-dasharray=\"2,3\"/>\n<line x1=\"120\" y1=\"50\" x2=\"120\" y2=\"410\" stroke=\"#2a2a3e\" stroke-width=\"0.3\" stroke-dasharray=\"2,3\"/>\n<line x1=\"150\" y1=\"50\" x2=\"150\" y2=\"410\" stroke=\"#2a2a3e\" stroke-width=\"0.3\" stroke-dasharray=\"2,3\"/>\n<line x1=\"180\" y1=\"50\" x2=\"180\" y2=\"410\" stroke=\"#2a2a3e\" stroke-width=\"0.3\" stroke-dasharray=\"2,3\"/>\n<line x1=\"210\" y1=\"50\" x2=\"210\" y2=\"410\" stroke=\"#2a2a3e\" stroke-width=\"0.3\" stroke-dasharray=\"2,3\"/>\n<line x1=\"240\" y1=\"50\" x2=\"240\" y2=\"410\" stroke=\"#2a2a3e\" stroke-width=\"0.3\" stroke-dasharray=\"2,3\"/>\n<line x1=\"270\" y1=\"50\" x2=\"270\" y2=\"410\" stroke=\"#2a2a3e\" stroke-width=\"0.3\" stroke-dasharray=\"2,3\"/>\n<line x1=\"300\" y1=\"50\" x2=\"300\" y2=\"410\" stroke=\"#2a2a3e\" stroke-width=\"0.3\" stroke-dasharray=\"2,3\"/>\n<line x1=\"330\" y1=\"50\" x2=\"330\" y2=\"410\" stroke=\"#3a3a5e\" stroke-width=\"1.5\"/>\n<line x1=\"360\" y1=\"50\" x2=\"360\" y2=\"410\" stroke=\"#2a2a3e\" stroke-width=\"0.3\" stroke-dasharray=\"2,3\"/>\n<line x1=\"390\" y1=\"50\" x2=\"390\" y2=\"410\" stroke=\"#2a2a3e\" stroke-width=\"0.3\" stroke-dasharray=\"2,3\"/>\n<line x1=\"420\" y1=\"50\" x2=\"420\" y2=\"410\" stroke=\"#2a2a3e\" stroke-width=\"0.3\" stroke-dasharray=\"2,3\"/>\n<line x1=\"450\" y1=\"50\" x2=\"450\" y2=\"410\" stroke=\"#2a2a3e\" stroke-width=\"0.3\" stroke-dasharray=\"2,3\"/>\n<line x1=\"480\" y1=\"50\" x2=\"480\" y2=\"410\" stroke=\"#2a2a3e\" stroke-width=\"0.3\" stroke-dasharray=\"2,3\"/>\n<line x1=\"510\" y1=\"50\" x2=\"510\" y2=\"410\" stroke=\"#2a2a3e\" stroke-width=\"0.3\" stroke-dasharray=\"2,3\"/>\n<line x1=\"540\" y1=\"50\" x2=\"540\" y2=\"410\" stroke=\"#2a2a3e\" stroke-width=\"0.3\" stroke-dasharray=\"2,3\"/>\n<line x1=\"570\" y1=\"50\" x2=\"570\" y2=\"410\" stroke=\"#2a2a3e\" stroke-width=\"0.3\" stroke-dasharray=\"2,3\"/>\n<line x1=\"600\" y1=\"50\" x2=\"600\" y2=\"410\" stroke=\"#3a3a5e\" stroke-width=\"1.5\"/>\n<line x1=\"630\" y1=\"50\" x2=\"630\" y2=\"410\" stroke=\"#2a2a3e\" stroke-width=\"0.3\" stroke-dasharray=\"2,3\"/>\n<line x1=\"660\" y1=\"50\" x2=\"660\" y2=\"410\" stroke=\"#2a2a3e\" stroke-width=\"0.3\" stroke-dasharray=\"2,3\"/>\n<line x1=\"690\" y1=\"50\" x2=\"690\" y2=\"410\" stroke=\"#2a2a3e\" stroke-width=\"0.3\" stroke-dasharray=\"2,3\"/>\n<line x1=\"720\" y1=\"50\" x2=\"720\" y2=\"410\" stroke=\"#2a2a3e\" stroke-width=\"0.3\" stroke-dasharray=\"2,3\"/>\n<line x1=\"750\" y1=\"50\" x2=\"750\" y2=\"410\" stroke=\"#2a2a3e\" stroke-width=\"0.3\" stroke-dasharray=\"2,3\"/>\n<line x1=\"780\" y1=\"50\" x2=\"780\" y2=\"410\" stroke=\"#2a2a3e\" stroke-width=\"0.3\" stroke-dasharray=\"2,3\"/>\n<line x1=\"810\" y1=\"50\" x2=\"810\" y2=\"410\" stroke=\"#2a2a3e\" stroke-width=\"0.3\" stroke-dasharray=\"2,3\"/>\n<line x1=\"840\" y1=\"50\" x2=\"840\" y2=\"410\" stroke=\"#2a2a3e\" stroke-width=\"0.3\" stroke-dasharray=\"2,3\"/>\n<line x1=\"870\" y1=\"50\" x2=\"870\" y2=\"410\" stroke=\"#3a3a5e\" stroke-width=\"1.5\"/>\n<line x1=\"900\" y1=\"50\" x2=\"900\" y2=\"410\" stroke=\"#2a2a3e\" stroke-width=\"0.3\" stroke-dasharray=\"2,3\"/>\n<line x1=\"930\" y1=\"50\" x2=\"930\" y2=\"410\" stroke=\"#2a2a3e\" stroke-width=\"0.3\" stroke-dasharray=\"2,3\"/>\n<line x1=\"960\" y1=\"50\" x2=\"960\" y2=\"410\" stroke=\"#2a2a3e\" stroke-width=\"0.3\" stroke-dasharray=\"2,3\"/>\n<line x1=\"990\" y1=\"50\" x2=\"990\" y2=\"410\" stroke=\"#2a2a3e\" stroke-width=\"0.3\" stroke-dasharray=\"2,3\"/>\n<line x1=\"1020\" y1=\"50\" x2=\"1020\" y2=\"410\" stroke=\"#2a2a3e\" stroke-width=\"0.3\" stroke-dasharray=\"2,3\"/>\n<line x1=\"1050\" y1=\"50\" x2=\"1050\" y2=\"410\" stroke=\"#2a2a3e\" stroke-width=\"0.3\" stroke-dasharray=\"2,3\"/>\n<line x1=\"1080\" y1=\"50\" x2=\"1080\" y2=\"410\" stroke=\"#2a2a3e\" stroke-width=\"0.3\" stroke-dasharray=\"2,3\"/>\n<line x1=\"1110\" y1=\"50\" x2=\"1110\" y2=\"410\" stroke=\"#2a2a3e\" stroke-width=\"0.3\" stroke-dasharray=\"2,3\"/>\n<line x1=\"1140\" y1=\"50\" x2=\"1140\" y2=\"410\" stroke=\"#3a3a5e\" stroke-width=\"1.5\"/>\n<text x=\"56\" y=\"407\" text-anchor=\"end\" fill=\"#666688\" font-size=\"8\" font-weight=\"normal\">G3</text>\n<text x=\"56\" y=\"387\" text-anchor=\"end\" fill=\"#666688\" font-size=\"8\" font-weight=\"normal\">A3</text>\n<text x=\"56\" y=\"367\" text-anchor=\"end\" fill=\"#666688\" font-size=\"8\" font-weight=\"normal\">B3</text>\n<text x=\"56\" y=\"357\" text-anchor=\"end\" fill=\"#aaaacc\" font-size=\"10\" font-weight=\"bold\">C4</text>\n<text x=\"56\" y=\"337\" text-anchor=\"end\" fill=\"#666688\" font-size=\"8\" font-weight=\"normal\">D4</text>\n<text x=\"56\" y=\"317\" text-anchor=\"end\" fill=\"#666688\" font-size=\"8\" font-weight=\"normal\">E4</text>\n<text x=\"56\" y=\"307\" text-anchor=\"end\" fill=\"#666688\" font-size=\"8\" font-weight=\"normal\">F4</text>\n<text x=\"56\" y=\"287\" text-anchor=\"end\" fill=\"#666688\" font-size=\"8\" font-weight=\"normal\">G4</text>\n<text x=\"56\" y=\"267\" text-anchor=\"end\" fill=\"#666688\" font-size=\"8\" font-weight=\"normal\">A4</text>\n<text x=\"56\" y=\"247\" text-anchor=\"end\" fill=\"#666688\" font-size=\"8\" font-weight=\"normal\">B4</text>\n<text x=\"56\" y=\"237\" text-anchor=\"end\" fill=\"#aaaacc\" font-size=\"10\" font-weight=\"bold\">C5</text>\n<text x=\"56\" y=\"217\" text-anchor=\"end\" fill=\"#666688\" font-size=\"8\" font-weight=\"normal\">D5</text>\n<text x=\"56\" y=\"197\" text-anchor=\"end\" fill=\"#666688\" font-size=\"8\" font-weight=\"normal\">E5</text>\n<text x=\"56\" y=\"187\" text-anchor=\"end\" fill=\"#666688\" font-size=\"8\" font-weight=\"normal\">F5</text>\n<text x=\"56\" y=\"167\" text-anchor=\"end\" fill=\"#666688\" font-size=\"8\" font-weight=\"normal\">G5</text>\n<text x=\"56\" y=\"147\" text-anchor=\"end\" fill=\"#666688\" font-size=\"8\" font-weight=\"normal\">A5</text>\n<text x=\"56\" y=\"127\" text-anchor=\"end\" fill=\"#666688\" font-size=\"8\" font-weight=\"normal\">B5</text>\n<text x=\"56\" y=\"117\" text-anchor=\"end\" fill=\"#aaaacc\" font-size=\"10\" font-weight=\"bold\">C6</text>\n<text x=\"56\" y=\"97\" text-anchor=\"end\" fill=\"#666688\" font-size=\"8\" font-weight=\"normal\">D6</text>\n<text x=\"56\" y=\"77\" text-anchor=\"end\" fill=\"#666688\" font-size=\"8\" font-weight=\"normal\">E6</text>\n<text x=\"56\" y=\"67\" text-anchor=\"end\" fill=\"#666688\" font-size=\"8\" font-weight=\"normal\">F6</text>\n<rect x=\"330\" y=\"371\" width=\"89\" height=\"8\" fill=\"#ff6b8a\" stroke=\"#cc5570\" stroke-width=\"0.5\" rx=\"2\" ry=\"2\">\n  <title>LH: A#3 (m.16)</title>\n</rect>\n<rect x=\"1005\" y=\"81\" width=\"14\" height=\"8\" fill=\"#4a9eff\" stroke=\"#3580cc\" stroke-width=\"0.5\" rx=\"2\" ry=\"2\">\n  <title>RH: D#6 (m.18)</title>\n</rect>\n<rect x=\"870\" y=\"371\" width=\"89\" height=\"8\" fill=\"#ff6b8a\" stroke=\"#cc5570\" stroke-width=\"0.5\" rx=\"2\" ry=\"2\">\n  <title>LH: A#3 (m.18)</title>\n</rect>\n<text x=\"195\" y=\"426\" text-anchor=\"middle\" fill=\"#8888aa\" font-size=\"10\">15</text>\n<text x=\"465\" y=\"426\" text-anchor=\"middle\" fill=\"#8888aa\" font-size=\"10\">16</text>\n<text x=\"735\" y=\"426\" text-anchor=\"middle\" fill=\"#8888aa\" font-size=\"10\">17</text>\n<text x=\"1005\" y=\"426\" text-anchor=\"middle\" fill=\"#8888aa\" font-size=\"10\">18</text>\n<circle cx=\"64\" cy=\"438\" r=\"3\" fill=\"#ffaa33\"/>\n<circle cx=\"334\" cy=\"438\" r=\"3\" fill=\"#ffaa33\"/>\n<circle cx=\"604\" cy=\"438\" r=\"3\" fill=\"#ffaa33\"/>\n<circle cx=\"874\" cy=\"438\" r=\"3\" fill=\"#ffaa33\"/>\n<rect x=\"1020\" y=\"418\" width=\"8\" height=\"8\" fill=\"#4a9eff\" rx=\"1\"/>\n<text x=\"1032\" y=\"426\" fill=\"#8888aa\" font-size=\"9\">Right Hand</text>\n<rect x=\"1090\" y=\"418\" width=\"8\" height=\"8\" fill=\"#ff6b8a\" rx=\"1\"/>\n<text x=\"1102\" y=\"426\" fill=\"#8888aa\" font-size=\"9\">Left Hand</text>\n</svg>"
  },
  "annotation_target": {
    "measure_range": [
      15,
      18
    ],
    "structure": "Cantabile second theme — yearning melody arch over lush accompaniment",
    "key_moments": [
      "m15 famous melody entrance",
      "m17 melody reaches toward upper register",
      "m18 suspension before peak"
    ],
    "teaching_goals": [
      "singing cantabile line — RH sings like a cello",
      "LH accompaniment is lush but always under the melody",
      "phrase shape: rise toward mm. 19–22"
    ],
    "style_tips": [
      "mp rising to mf — this phrase needs dynamic shape",
      "rubato appropriate — feel the phrase's weight",
      "pedal is essential here for legato"
    ],
    "teaching_notes": [
      {
        "measure": 15,
        "note": "This is the heart of the piece — every note should feel inevitable.",
        "technique": [
          "arm weight into melody",
          "RH sings over LH texture"
        ]
      }
    ]
  },
  "target_trace": {
    "task_family": "analyze-and-play-phrase",
    "objective": "Read mm. 15–18 of Clair de Lune (Suite bergamasque, III), view the piano roll, analyze the phrase, play in a loop, and predict the continuation.",
    "session": [
      {
        "turn": 1,
        "role": "user",
        "content": "Show me measures 15–18 of Clair de Lune — this is where the famous melody enters. Describe it."
      },
      {
        "turn": 2,
        "role": "assistant",
        "content": "Let me view the piano roll for mm. 15–18.",
        "tool_calls": [
          {
            "tool": "view_piano_roll",
            "arguments": {
              "songId": "clair-de-lune",
              "startMeasure": 15,
              "endMeasure": 18
            }
          }
        ]
      },
      {
        "turn": 3,
        "role": "tool",
        "tool": "view_piano_roll",
        "content": {
          "svg_returned": true,
          "measures": 4,
          "rh_notes": 146,
          "lh_notes": 7
        }
      },
      {
        "turn": 4,
        "role": "assistant",
        "content": "Measures 15–18 bring the famous Clair de Lune cantabile melody — the piece's emotional center. A singing line emerges in the right hand over a lush broken-chord accompaniment. The melody has a yearning quality, arching upward. Let me loop mm. 15–18.",
        "tool_calls": [
          {
            "tool": "play_song",
            "arguments": {
              "id": "clair-de-lune",
              "startMeasure": 15,
              "endMeasure": 18,
              "mode": "loop"
            }
          }
        ]
      },
      {
        "turn": 5,
        "role": "tool",
        "tool": "play_song",
        "content": {
          "playback_started": true,
          "mode": "loop"
        }
      },
      {
        "turn": 6,
        "role": "assistant",
        "content": "Clair de Lune mm. 15–18: famous cantabile melody enters, yearning arch, lush accompaniment. Teaching focus: singing touch, phrase shaping."
      }
    ]
  },
  "eval_metadata": {
    "split": "train",
    "split_strategy": "stratified by (composer, composition_id) with MIDI byte-hash dedup",
    "leakage_check": "pending",
    "eval_eligibility": [
      "E1_tool_use",
      "E2_phrase_continuation",
      "E3_annotation_grounding"
    ],
    "phrase_continuation_eligible": true,
    "phrase_continuation_eligible_reason": "window_role='prompt' — paired with clair-de-lune:m019-022:piano:mcp-session:v1 for E2 eval."
  }
}
