{
  "id": "pathetique-mvt2:m085-088:piano:mcp-session:v1",
  "schema_version": "jam-actions-v0/1.0.0",
  "provenance": {
    "source_url": "http://piano-midi.de/",
    "source_collected_at": "2026-05-16",
    "source_type": "transcribed-by-author",
    "composition_title": "Pathetique Sonata, 2nd Movement (Adagio cantabile)",
    "composer": "Ludwig van Beethoven",
    "composition_year": 1799,
    "composition_pd_status_us": "public_domain",
    "composition_pd_status_eu": "public_domain",
    "arrangement_creator": "Bernd Krueger",
    "arrangement_license": "CC-BY-SA",
    "arrangement_license_version": "3.0",
    "arrangement_evidence_url": "http://piano-midi.de/beeth.htm",
    "record_verdict": "public",
    "verdict_reason": "Pathetique Sonata, 2nd Movement (Adagio cantabile). Slice 2.5 URL verification. License confirmed: CC-BY-SA-3.0. Evidence URL: http://piano-midi.de/beeth.htm. Verdict: public — all site-level + per-song verification conditions passed.",
    "verifier": "auto-rule-engine+slice2.5-url-verifier",
    "verified_at": "2026-05-17",
    "training_use_permitted": true
  },
  "scope": {
    "song_id": "pathetique-mvt2",
    "phrase_window": "measures 85-88",
    "instrument": "piano",
    "key": "Ab major",
    "tempo_bpm": 120,
    "time_signature": "4/4",
    "window_role": "continuation_target",
    "musical_phrase_label": "coda approach — consequent",
    "natural_phrase_boundary": true,
    "paired_prompt_record_id": "pathetique-mvt2:m081-084:piano:mcp-session:v1"
  },
  "observation": {
    "midi_sidecar": {
      "midi_sha256": "86ca5c4927c49686987aaa13ff36f5c562d7b091e509e898dbf9d4c2cdb6a3a4",
      "ticks_per_beat": 480,
      "timed_events": [
        {
          "t_seconds": 168.030208,
          "t_ticks": 161309,
          "dur_seconds": 0.135417,
          "dur_ticks": 130,
          "note": 47,
          "name": "B2",
          "velocity": 57,
          "channel": 0,
          "hand": "left",
          "measure": 85,
          "beat": 0.0604
        },
        {
          "t_seconds": 168.030208,
          "t_ticks": 161309,
          "dur_seconds": 0.11875,
          "dur_ticks": 114,
          "note": 56,
          "name": "G#3",
          "velocity": 61,
          "channel": 0,
          "hand": "left",
          "measure": 85,
          "beat": 0.0604
        },
        {
          "t_seconds": 168.033333,
          "t_ticks": 161312,
          "dur_seconds": 0.121875,
          "dur_ticks": 117,
          "note": 44,
          "name": "G#2",
          "velocity": 70,
          "channel": 0,
          "hand": "left",
          "measure": 85,
          "beat": 0.0667
        },
        {
          "t_seconds": 168.033333,
          "t_ticks": 161312,
          "dur_seconds": 1.032292,
          "dur_ticks": 991,
          "note": 83,
          "name": "B5",
          "velocity": 119,
          "channel": 0,
          "hand": "right",
          "measure": 85,
          "beat": 0.0667
        },
        {
          "t_seconds": 168.0375,
          "t_ticks": 161316,
          "dur_seconds": 1.028125,
          "dur_ticks": 987,
          "note": 71,
          "name": "B4",
          "velocity": 100,
          "channel": 0,
          "hand": "right",
          "measure": 85,
          "beat": 0.075
        },
        {
          "t_seconds": 168.040625,
          "t_ticks": 161319,
          "dur_seconds": 0.122917,
          "dur_ticks": 118,
          "note": 52,
          "name": "E3",
          "velocity": 70,
          "channel": 0,
          "hand": "left",
          "measure": 85,
          "beat": 0.0813
        },
        {
          "t_seconds": 168.255208,
          "t_ticks": 161525,
          "dur_seconds": 0.141667,
          "dur_ticks": 136,
          "note": 47,
          "name": "B2",
          "velocity": 39,
          "channel": 0,
          "hand": "left",
          "measure": 85,
          "beat": 0.5104
        },
        {
          "t_seconds": 168.265625,
          "t_ticks": 161535,
          "dur_seconds": 0.114583,
          "dur_ticks": 110,
          "note": 44,
          "name": "G#2",
          "velocity": 44,
          "channel": 0,
          "hand": "left",
          "measure": 85,
          "beat": 0.5313
        },
        {
          "t_seconds": 168.265625,
          "t_ticks": 161535,
          "dur_seconds": 0.117708,
          "dur_ticks": 113,
          "note": 52,
          "name": "E3",
          "velocity": 55,
          "channel": 0,
          "hand": "left",
          "measure": 85,
          "beat": 0.5313
        },
        {
          "t_seconds": 168.26875,
          "t_ticks": 161538,
          "dur_seconds": 0.090625,
          "dur_ticks": 87,
          "note": 56,
          "name": "G#3",
          "velocity": 46,
          "channel": 0,
          "hand": "left",
          "measure": 85,
          "beat": 0.5375
        },
        {
          "t_seconds": 168.484375,
          "t_ticks": 161745,
          "dur_seconds": 0.13125,
          "dur_ticks": 126,
          "note": 47,
          "name": "B2",
          "velocity": 40,
          "channel": 0,
          "hand": "left",
          "measure": 85,
          "beat": 0.9688
        },
        {
          "t_seconds": 168.494792,
          "t_ticks": 161755,
          "dur_seconds": 0.108333,
          "dur_ticks": 104,
          "note": 44,
          "name": "G#2",
          "velocity": 52,
          "channel": 0,
          "hand": "left",
          "measure": 85,
          "beat": 0.9896
        },
        {
          "t_seconds": 168.496875,
          "t_ticks": 161757,
          "dur_seconds": 0.1,
          "dur_ticks": 96,
          "note": 56,
          "name": "G#3",
          "velocity": 57,
          "channel": 0,
          "hand": "left",
          "measure": 85,
          "beat": 0.9938
        },
        {
          "t_seconds": 168.498958,
          "t_ticks": 161759,
          "dur_seconds": 0.116667,
          "dur_ticks": 112,
          "note": 52,
          "name": "E3",
          "velocity": 48,
          "channel": 0,
          "hand": "left",
          "measure": 85,
          "beat": 0.9979
        },
        {
          "t_seconds": 168.726042,
          "t_ticks": 161977,
          "dur_seconds": 0.120833,
          "dur_ticks": 116,
          "note": 44,
          "name": "G#2",
          "velocity": 65,
          "channel": 0,
          "hand": "left",
          "measure": 85,
          "beat": 1.4521
        },
        {
          "t_seconds": 168.726042,
          "t_ticks": 161977,
          "dur_seconds": 0.127083,
          "dur_ticks": 122,
          "note": 52,
          "name": "E3",
          "velocity": 63,
          "channel": 0,
          "hand": "left",
          "measure": 85,
          "beat": 1.4521
        },
        {
          "t_seconds": 168.726042,
          "t_ticks": 161977,
          "dur_seconds": 0.0875,
          "dur_ticks": 84,
          "note": 56,
          "name": "G#3",
          "velocity": 66,
          "channel": 0,
          "hand": "left",
          "measure": 85,
          "beat": 1.4521
        },
        {
          "t_seconds": 168.740625,
          "t_ticks": 161991,
          "dur_seconds": 0.108333,
          "dur_ticks": 104,
          "note": 47,
          "name": "B2",
          "velocity": 25,
          "channel": 0,
          "hand": "left",
          "measure": 85,
          "beat": 1.4813
        },
        {
          "t_seconds": 169.001042,
          "t_ticks": 162241,
          "dur_seconds": 0.141667,
          "dur_ticks": 136,
          "note": 80,
          "name": "G#5",
          "velocity": 87,
          "channel": 0,
          "hand": "right",
          "measure": 85,
          "beat": 2.0021
        },
        {
          "t_seconds": 169.003125,
          "t_ticks": 162243,
          "dur_seconds": 0.09375,
          "dur_ticks": 90,
          "note": 56,
          "name": "G#3",
          "velocity": 50,
          "channel": 0,
          "hand": "left",
          "measure": 85,
          "beat": 2.0063
        },
        {
          "t_seconds": 169.013542,
          "t_ticks": 162253,
          "dur_seconds": 0.066667,
          "dur_ticks": 64,
          "note": 44,
          "name": "G#2",
          "velocity": 52,
          "channel": 0,
          "hand": "left",
          "measure": 85,
          "beat": 2.0271
        },
        {
          "t_seconds": 169.023958,
          "t_ticks": 162263,
          "dur_seconds": 0.064583,
          "dur_ticks": 62,
          "note": 47,
          "name": "B2",
          "velocity": 45,
          "channel": 0,
          "hand": "left",
          "measure": 85,
          "beat": 2.0479
        },
        {
          "t_seconds": 169.034375,
          "t_ticks": 162273,
          "dur_seconds": 0.05625,
          "dur_ticks": 54,
          "note": 52,
          "name": "E3",
          "velocity": 49,
          "channel": 0,
          "hand": "left",
          "measure": 85,
          "beat": 2.0688
        },
        {
          "t_seconds": 169.223958,
          "t_ticks": 162455,
          "dur_seconds": 0.095833,
          "dur_ticks": 92,
          "note": 76,
          "name": "E5",
          "velocity": 94,
          "channel": 0,
          "hand": "right",
          "measure": 85,
          "beat": 2.4479
        },
        {
          "t_seconds": 169.232292,
          "t_ticks": 162463,
          "dur_seconds": 0.127083,
          "dur_ticks": 122,
          "note": 56,
          "name": "G#3",
          "velocity": 65,
          "channel": 0,
          "hand": "left",
          "measure": 85,
          "beat": 2.4646
        },
        {
          "t_seconds": 169.236458,
          "t_ticks": 162467,
          "dur_seconds": 0.045833,
          "dur_ticks": 44,
          "note": 44,
          "name": "G#2",
          "velocity": 65,
          "channel": 0,
          "hand": "left",
          "measure": 85,
          "beat": 2.4729
        },
        {
          "t_seconds": 169.246875,
          "t_ticks": 162477,
          "dur_seconds": 0.052083,
          "dur_ticks": 50,
          "note": 47,
          "name": "B2",
          "velocity": 44,
          "channel": 0,
          "hand": "left",
          "measure": 85,
          "beat": 2.4938
        },
        {
          "t_seconds": 169.273958,
          "t_ticks": 162503,
          "dur_seconds": 0.058333,
          "dur_ticks": 56,
          "note": 52,
          "name": "E3",
          "velocity": 39,
          "channel": 0,
          "hand": "left",
          "measure": 85,
          "beat": 2.5479
        },
        {
          "t_seconds": 169.561458,
          "t_ticks": 162779,
          "dur_seconds": 0.8375,
          "dur_ticks": 804,
          "note": 88,
          "name": "E6",
          "velocity": 109,
          "channel": 0,
          "hand": "right",
          "measure": 85,
          "beat": 3.1229
        },
        {
          "t_seconds": 169.565625,
          "t_ticks": 162783,
          "dur_seconds": 0.826042,
          "dur_ticks": 793,
          "note": 76,
          "name": "E5",
          "velocity": 102,
          "channel": 0,
          "hand": "right",
          "measure": 85,
          "beat": 3.1313
        },
        {
          "t_seconds": 169.567708,
          "t_ticks": 162785,
          "dur_seconds": 0.1625,
          "dur_ticks": 156,
          "note": 58,
          "name": "A#3",
          "velocity": 60,
          "channel": 0,
          "hand": "left",
          "measure": 85,
          "beat": 3.1354
        },
        {
          "t_seconds": 169.573958,
          "t_ticks": 162791,
          "dur_seconds": 0.175,
          "dur_ticks": 168,
          "note": 49,
          "name": "C#3",
          "velocity": 62,
          "channel": 0,
          "hand": "left",
          "measure": 85,
          "beat": 3.1479
        },
        {
          "t_seconds": 169.584375,
          "t_ticks": 162801,
          "dur_seconds": 0.108333,
          "dur_ticks": 104,
          "note": 52,
          "name": "E3",
          "velocity": 73,
          "channel": 0,
          "hand": "left",
          "measure": 85,
          "beat": 3.1688
        },
        {
          "t_seconds": 169.5875,
          "t_ticks": 162804,
          "dur_seconds": 0.164583,
          "dur_ticks": 158,
          "note": 54,
          "name": "F#3",
          "velocity": 67,
          "channel": 0,
          "hand": "left",
          "measure": 85,
          "beat": 3.175
        },
        {
          "t_seconds": 169.819792,
          "t_ticks": 163027,
          "dur_seconds": 0.122917,
          "dur_ticks": 118,
          "note": 49,
          "name": "C#3",
          "velocity": 60,
          "channel": 0,
          "hand": "left",
          "measure": 85,
          "beat": 3.6396
        },
        {
          "t_seconds": 169.832292,
          "t_ticks": 163039,
          "dur_seconds": 0.129167,
          "dur_ticks": 124,
          "note": 58,
          "name": "A#3",
          "velocity": 45,
          "channel": 0,
          "hand": "left",
          "measure": 85,
          "beat": 3.6646
        },
        {
          "t_seconds": 169.840625,
          "t_ticks": 163047,
          "dur_seconds": 0.135417,
          "dur_ticks": 130,
          "note": 54,
          "name": "F#3",
          "velocity": 50,
          "channel": 0,
          "hand": "left",
          "measure": 85,
          "beat": 3.6813
        },
        {
          "t_seconds": 169.857292,
          "t_ticks": 163063,
          "dur_seconds": 0.054167,
          "dur_ticks": 52,
          "note": 52,
          "name": "E3",
          "velocity": 63,
          "channel": 0,
          "hand": "left",
          "measure": 85,
          "beat": 3.7146
        },
        {
          "t_seconds": 170.071875,
          "t_ticks": 163269,
          "dur_seconds": 0.129167,
          "dur_ticks": 124,
          "note": 58,
          "name": "A#3",
          "velocity": 55,
          "channel": 0,
          "hand": "left",
          "measure": 86,
          "beat": 0.1438
        },
        {
          "t_seconds": 170.082292,
          "t_ticks": 163279,
          "dur_seconds": 0.085417,
          "dur_ticks": 82,
          "note": 49,
          "name": "C#3",
          "velocity": 64,
          "channel": 0,
          "hand": "left",
          "measure": 86,
          "beat": 0.1646
        },
        {
          "t_seconds": 170.084375,
          "t_ticks": 163281,
          "dur_seconds": 0.08125,
          "dur_ticks": 78,
          "note": 52,
          "name": "E3",
          "velocity": 68,
          "channel": 0,
          "hand": "left",
          "measure": 86,
          "beat": 0.1688
        },
        {
          "t_seconds": 170.090625,
          "t_ticks": 163287,
          "dur_seconds": 0.09375,
          "dur_ticks": 90,
          "note": 54,
          "name": "F#3",
          "velocity": 39,
          "channel": 0,
          "hand": "left",
          "measure": 86,
          "beat": 0.1813
        },
        {
          "t_seconds": 170.305208,
          "t_ticks": 163493,
          "dur_seconds": 0.127083,
          "dur_ticks": 122,
          "note": 58,
          "name": "A#3",
          "velocity": 61,
          "channel": 0,
          "hand": "left",
          "measure": 86,
          "beat": 0.6104
        },
        {
          "t_seconds": 170.315625,
          "t_ticks": 163503,
          "dur_seconds": 0.0875,
          "dur_ticks": 84,
          "note": 49,
          "name": "C#3",
          "velocity": 72,
          "channel": 0,
          "hand": "left",
          "measure": 86,
          "beat": 0.6313
        },
        {
          "t_seconds": 170.334375,
          "t_ticks": 163521,
          "dur_seconds": 0.06875,
          "dur_ticks": 66,
          "note": 54,
          "name": "F#3",
          "velocity": 60,
          "channel": 0,
          "hand": "left",
          "measure": 86,
          "beat": 0.6688
        },
        {
          "t_seconds": 170.342708,
          "t_ticks": 163529,
          "dur_seconds": 0.045833,
          "dur_ticks": 44,
          "note": 52,
          "name": "E3",
          "velocity": 66,
          "channel": 0,
          "hand": "left",
          "measure": 86,
          "beat": 0.6854
        },
        {
          "t_seconds": 170.542708,
          "t_ticks": 163721,
          "dur_seconds": 0.1125,
          "dur_ticks": 108,
          "note": 58,
          "name": "A#3",
          "velocity": 53,
          "channel": 0,
          "hand": "left",
          "measure": 86,
          "beat": 1.0854
        },
        {
          "t_seconds": 170.542708,
          "t_ticks": 163721,
          "dur_seconds": 0.135417,
          "dur_ticks": 130,
          "note": 85,
          "name": "C#6",
          "velocity": 93,
          "channel": 0,
          "hand": "right",
          "measure": 86,
          "beat": 1.0854
        },
        {
          "t_seconds": 170.555208,
          "t_ticks": 163733,
          "dur_seconds": 0.077083,
          "dur_ticks": 74,
          "note": 49,
          "name": "C#3",
          "velocity": 63,
          "channel": 0,
          "hand": "left",
          "measure": 86,
          "beat": 1.1104
        },
        {
          "t_seconds": 170.573958,
          "t_ticks": 163751,
          "dur_seconds": 0.05,
          "dur_ticks": 48,
          "note": 52,
          "name": "E3",
          "velocity": 54,
          "channel": 0,
          "hand": "left",
          "measure": 86,
          "beat": 1.1479
        },
        {
          "t_seconds": 170.573958,
          "t_ticks": 163751,
          "dur_seconds": 0.0625,
          "dur_ticks": 60,
          "note": 54,
          "name": "F#3",
          "velocity": 58,
          "channel": 0,
          "hand": "left",
          "measure": 86,
          "beat": 1.1479
        },
        {
          "t_seconds": 170.780208,
          "t_ticks": 163949,
          "dur_seconds": 0.14375,
          "dur_ticks": 138,
          "note": 58,
          "name": "A#3",
          "velocity": 62,
          "channel": 0,
          "hand": "left",
          "measure": 86,
          "beat": 1.5604
        },
        {
          "t_seconds": 170.786458,
          "t_ticks": 163955,
          "dur_seconds": 0.120833,
          "dur_ticks": 116,
          "note": 82,
          "name": "A#5",
          "velocity": 98,
          "channel": 0,
          "hand": "right",
          "measure": 86,
          "beat": 1.5729
        },
        {
          "t_seconds": 170.788542,
          "t_ticks": 163957,
          "dur_seconds": 0.13125,
          "dur_ticks": 126,
          "note": 49,
          "name": "C#3",
          "velocity": 61,
          "channel": 0,
          "hand": "left",
          "measure": 86,
          "beat": 1.5771
        },
        {
          "t_seconds": 170.807292,
          "t_ticks": 163975,
          "dur_seconds": 0.0625,
          "dur_ticks": 60,
          "note": 54,
          "name": "F#3",
          "velocity": 60,
          "channel": 0,
          "hand": "left",
          "measure": 86,
          "beat": 1.6146
        },
        {
          "t_seconds": 170.817708,
          "t_ticks": 163985,
          "dur_seconds": 0.052083,
          "dur_ticks": 50,
          "note": 52,
          "name": "E3",
          "velocity": 51,
          "channel": 0,
          "hand": "left",
          "measure": 86,
          "beat": 1.6354
        },
        {
          "t_seconds": 171.053125,
          "t_ticks": 164211,
          "dur_seconds": 0.102083,
          "dur_ticks": 98,
          "note": 59,
          "name": "B3",
          "velocity": 92,
          "channel": 0,
          "hand": "left",
          "measure": 86,
          "beat": 2.1063
        },
        {
          "t_seconds": 171.053125,
          "t_ticks": 164211,
          "dur_seconds": 0.216667,
          "dur_ticks": 208,
          "note": 83,
          "name": "B5",
          "velocity": 121,
          "channel": 0,
          "hand": "right",
          "measure": 86,
          "beat": 2.1063
        },
        {
          "t_seconds": 171.05625,
          "t_ticks": 164214,
          "dur_seconds": 0.173958,
          "dur_ticks": 167,
          "note": 71,
          "name": "B4",
          "velocity": 107,
          "channel": 0,
          "hand": "right",
          "measure": 86,
          "beat": 2.1125
        },
        {
          "t_seconds": 171.059375,
          "t_ticks": 164217,
          "dur_seconds": 0.120833,
          "dur_ticks": 116,
          "note": 47,
          "name": "B2",
          "velocity": 80,
          "channel": 0,
          "hand": "left",
          "measure": 86,
          "beat": 2.1188
        },
        {
          "t_seconds": 171.059375,
          "t_ticks": 164217,
          "dur_seconds": 0.129167,
          "dur_ticks": 124,
          "note": 52,
          "name": "E3",
          "velocity": 75,
          "channel": 0,
          "hand": "left",
          "measure": 86,
          "beat": 2.1188
        },
        {
          "t_seconds": 171.065625,
          "t_ticks": 164223,
          "dur_seconds": 0.141667,
          "dur_ticks": 136,
          "note": 56,
          "name": "G#3",
          "velocity": 68,
          "channel": 0,
          "hand": "left",
          "measure": 86,
          "beat": 2.1313
        },
        {
          "t_seconds": 171.280208,
          "t_ticks": 164429,
          "dur_seconds": 0.119792,
          "dur_ticks": 115,
          "note": 56,
          "name": "G#3",
          "velocity": 52,
          "channel": 0,
          "hand": "left",
          "measure": 86,
          "beat": 2.5604
        },
        {
          "t_seconds": 171.282292,
          "t_ticks": 164431,
          "dur_seconds": 0.114583,
          "dur_ticks": 110,
          "note": 47,
          "name": "B2",
          "velocity": 51,
          "channel": 0,
          "hand": "left",
          "measure": 86,
          "beat": 2.5646
        },
        {
          "t_seconds": 171.290625,
          "t_ticks": 164439,
          "dur_seconds": 0.091667,
          "dur_ticks": 88,
          "note": 59,
          "name": "B3",
          "velocity": 72,
          "channel": 0,
          "hand": "left",
          "measure": 86,
          "beat": 2.5813
        },
        {
          "t_seconds": 171.29375,
          "t_ticks": 164442,
          "dur_seconds": 0.073958,
          "dur_ticks": 71,
          "note": 52,
          "name": "E3",
          "velocity": 48,
          "channel": 0,
          "hand": "left",
          "measure": 86,
          "beat": 2.5875
        },
        {
          "t_seconds": 171.536458,
          "t_ticks": 164675,
          "dur_seconds": 0.041667,
          "dur_ticks": 40,
          "note": 59,
          "name": "B3",
          "velocity": 72,
          "channel": 0,
          "hand": "left",
          "measure": 86,
          "beat": 3.0729
        },
        {
          "t_seconds": 171.559375,
          "t_ticks": 164697,
          "dur_seconds": 0.083333,
          "dur_ticks": 80,
          "note": 47,
          "name": "B2",
          "velocity": 46,
          "channel": 0,
          "hand": "left",
          "measure": 86,
          "beat": 3.1188
        },
        {
          "t_seconds": 171.559375,
          "t_ticks": 164697,
          "dur_seconds": 0.054167,
          "dur_ticks": 52,
          "note": 56,
          "name": "G#3",
          "velocity": 53,
          "channel": 0,
          "hand": "left",
          "measure": 86,
          "beat": 3.1188
        },
        {
          "t_seconds": 171.58125,
          "t_ticks": 164718,
          "dur_seconds": 0.069792,
          "dur_ticks": 67,
          "note": 52,
          "name": "E3",
          "velocity": 26,
          "channel": 0,
          "hand": "left",
          "measure": 86,
          "beat": 3.1625
        },
        {
          "t_seconds": 171.798958,
          "t_ticks": 164927,
          "dur_seconds": 0.208333,
          "dur_ticks": 200,
          "note": 54,
          "name": "F#3",
          "velocity": 96,
          "channel": 0,
          "hand": "left",
          "measure": 86,
          "beat": 3.5979
        },
        {
          "t_seconds": 171.801042,
          "t_ticks": 164929,
          "dur_seconds": 0.270833,
          "dur_ticks": 260,
          "note": 63,
          "name": "D#4",
          "velocity": 92,
          "channel": 0,
          "hand": "right",
          "measure": 86,
          "beat": 3.6021
        },
        {
          "t_seconds": 171.809375,
          "t_ticks": 164937,
          "dur_seconds": 0.235417,
          "dur_ticks": 226,
          "note": 57,
          "name": "A3",
          "velocity": 79,
          "channel": 0,
          "hand": "left",
          "measure": 86,
          "beat": 3.6188
        },
        {
          "t_seconds": 171.815625,
          "t_ticks": 164943,
          "dur_seconds": 0.060417,
          "dur_ticks": 58,
          "note": 47,
          "name": "B2",
          "velocity": 81,
          "channel": 0,
          "hand": "left",
          "measure": 86,
          "beat": 3.6313
        },
        {
          "t_seconds": 171.817708,
          "t_ticks": 164945,
          "dur_seconds": 0.110417,
          "dur_ticks": 106,
          "note": 35,
          "name": "B1",
          "velocity": 84,
          "channel": 0,
          "hand": "left",
          "measure": 86,
          "beat": 3.6354
        },
        {
          "t_seconds": 171.817708,
          "t_ticks": 164945,
          "dur_seconds": 0.252083,
          "dur_ticks": 242,
          "note": 59,
          "name": "B3",
          "velocity": 78,
          "channel": 0,
          "hand": "left",
          "measure": 86,
          "beat": 3.6354
        },
        {
          "t_seconds": 172.055208,
          "t_ticks": 165173,
          "dur_seconds": 0.079167,
          "dur_ticks": 76,
          "note": 47,
          "name": "B2",
          "velocity": 58,
          "channel": 0,
          "hand": "left",
          "measure": 87,
          "beat": 0.1104
        },
        {
          "t_seconds": 172.057292,
          "t_ticks": 165175,
          "dur_seconds": 0.083333,
          "dur_ticks": 80,
          "note": 35,
          "name": "B1",
          "velocity": 73,
          "channel": 0,
          "hand": "left",
          "measure": 87,
          "beat": 0.1146
        },
        {
          "t_seconds": 172.307292,
          "t_ticks": 165415,
          "dur_seconds": 0.064583,
          "dur_ticks": 62,
          "note": 47,
          "name": "B2",
          "velocity": 66,
          "channel": 0,
          "hand": "left",
          "measure": 87,
          "beat": 0.6146
        },
        {
          "t_seconds": 172.311458,
          "t_ticks": 165419,
          "dur_seconds": 0.05,
          "dur_ticks": 48,
          "note": 35,
          "name": "B1",
          "velocity": 85,
          "channel": 0,
          "hand": "left",
          "measure": 87,
          "beat": 0.6229
        },
        {
          "t_seconds": 172.653125,
          "t_ticks": 165747,
          "dur_seconds": 0.189583,
          "dur_ticks": 182,
          "note": 56,
          "name": "G#3",
          "velocity": 75,
          "channel": 0,
          "hand": "left",
          "measure": 87,
          "beat": 1.3063
        },
        {
          "t_seconds": 172.653125,
          "t_ticks": 165747,
          "dur_seconds": 0.210417,
          "dur_ticks": 202,
          "note": 59,
          "name": "B3",
          "velocity": 73,
          "channel": 0,
          "hand": "left",
          "measure": 87,
          "beat": 1.3063
        },
        {
          "t_seconds": 172.65625,
          "t_ticks": 165750,
          "dur_seconds": 0.478125,
          "dur_ticks": 459,
          "note": 64,
          "name": "E4",
          "velocity": 89,
          "channel": 0,
          "hand": "right",
          "measure": 87,
          "beat": 1.3125
        },
        {
          "t_seconds": 172.663542,
          "t_ticks": 165757,
          "dur_seconds": 0.522917,
          "dur_ticks": 502,
          "note": 40,
          "name": "E2",
          "velocity": 97,
          "channel": 0,
          "hand": "left",
          "measure": 87,
          "beat": 1.3271
        },
        {
          "t_seconds": 172.665625,
          "t_ticks": 165759,
          "dur_seconds": 0.416667,
          "dur_ticks": 400,
          "note": 52,
          "name": "E3",
          "velocity": 89,
          "channel": 0,
          "hand": "left",
          "measure": 87,
          "beat": 1.3313
        },
        {
          "t_seconds": 172.976042,
          "t_ticks": 166057,
          "dur_seconds": 0.1375,
          "dur_ticks": 132,
          "note": 59,
          "name": "B3",
          "velocity": 32,
          "channel": 0,
          "hand": "left",
          "measure": 87,
          "beat": 1.9521
        },
        {
          "t_seconds": 172.980208,
          "t_ticks": 166061,
          "dur_seconds": 0.110417,
          "dur_ticks": 106,
          "note": 56,
          "name": "G#3",
          "velocity": 47,
          "channel": 0,
          "hand": "left",
          "measure": 87,
          "beat": 1.9604
        },
        {
          "t_seconds": 173.236458,
          "t_ticks": 166307,
          "dur_seconds": 0.089583,
          "dur_ticks": 86,
          "note": 59,
          "name": "B3",
          "velocity": 22,
          "channel": 0,
          "hand": "left",
          "measure": 87,
          "beat": 2.4729
        },
        {
          "t_seconds": 173.239583,
          "t_ticks": 166310,
          "dur_seconds": 0.076042,
          "dur_ticks": 73,
          "note": 56,
          "name": "G#3",
          "velocity": 35,
          "channel": 0,
          "hand": "left",
          "measure": 87,
          "beat": 2.4792
        },
        {
          "t_seconds": 173.476042,
          "t_ticks": 166537,
          "dur_seconds": 0.08125,
          "dur_ticks": 78,
          "note": 56,
          "name": "G#3",
          "velocity": 43,
          "channel": 0,
          "hand": "left",
          "measure": 87,
          "beat": 2.9521
        },
        {
          "t_seconds": 173.513542,
          "t_ticks": 166573,
          "dur_seconds": 0.058333,
          "dur_ticks": 56,
          "note": 59,
          "name": "B3",
          "velocity": 39,
          "channel": 0,
          "hand": "left",
          "measure": 87,
          "beat": 3.0271
        },
        {
          "t_seconds": 173.721875,
          "t_ticks": 166773,
          "dur_seconds": 0.066667,
          "dur_ticks": 64,
          "note": 56,
          "name": "G#3",
          "velocity": 41,
          "channel": 0,
          "hand": "left",
          "measure": 87,
          "beat": 3.4438
        },
        {
          "t_seconds": 173.726042,
          "t_ticks": 166777,
          "dur_seconds": 0.072917,
          "dur_ticks": 70,
          "note": 59,
          "name": "B3",
          "velocity": 25,
          "channel": 0,
          "hand": "left",
          "measure": 87,
          "beat": 3.4521
        },
        {
          "t_seconds": 173.948958,
          "t_ticks": 166991,
          "dur_seconds": 0.097917,
          "dur_ticks": 94,
          "note": 56,
          "name": "G#3",
          "velocity": 36,
          "channel": 0,
          "hand": "left",
          "measure": 87,
          "beat": 3.8979
        },
        {
          "t_seconds": 173.951042,
          "t_ticks": 166993,
          "dur_seconds": 0.1125,
          "dur_ticks": 108,
          "note": 59,
          "name": "B3",
          "velocity": 30,
          "channel": 0,
          "hand": "left",
          "measure": 87,
          "beat": 3.9021
        },
        {
          "t_seconds": 174.176042,
          "t_ticks": 167209,
          "dur_seconds": 0.135417,
          "dur_ticks": 130,
          "note": 59,
          "name": "B3",
          "velocity": 30,
          "channel": 0,
          "hand": "left",
          "measure": 88,
          "beat": 0.3521
        },
        {
          "t_seconds": 174.184375,
          "t_ticks": 167217,
          "dur_seconds": 0.085417,
          "dur_ticks": 82,
          "note": 56,
          "name": "G#3",
          "velocity": 34,
          "channel": 0,
          "hand": "left",
          "measure": 88,
          "beat": 0.3688
        },
        {
          "t_seconds": 174.421875,
          "t_ticks": 167445,
          "dur_seconds": 0.097917,
          "dur_ticks": 94,
          "note": 59,
          "name": "B3",
          "velocity": 29,
          "channel": 0,
          "hand": "left",
          "measure": 88,
          "beat": 0.8438
        },
        {
          "t_seconds": 174.432292,
          "t_ticks": 167455,
          "dur_seconds": 0.066667,
          "dur_ticks": 64,
          "note": 56,
          "name": "G#3",
          "velocity": 38,
          "channel": 0,
          "hand": "left",
          "measure": 88,
          "beat": 0.8646
        },
        {
          "t_seconds": 174.651042,
          "t_ticks": 167665,
          "dur_seconds": 0.083333,
          "dur_ticks": 80,
          "note": 59,
          "name": "B3",
          "velocity": 22,
          "channel": 0,
          "hand": "left",
          "measure": 88,
          "beat": 1.3021
        },
        {
          "t_seconds": 174.659375,
          "t_ticks": 167673,
          "dur_seconds": 0.075,
          "dur_ticks": 72,
          "note": 56,
          "name": "G#3",
          "velocity": 23,
          "channel": 0,
          "hand": "left",
          "measure": 88,
          "beat": 1.3188
        },
        {
          "t_seconds": 174.882292,
          "t_ticks": 167887,
          "dur_seconds": 0.083333,
          "dur_ticks": 80,
          "note": 56,
          "name": "G#3",
          "velocity": 16,
          "channel": 0,
          "hand": "left",
          "measure": 88,
          "beat": 1.7646
        },
        {
          "t_seconds": 174.888542,
          "t_ticks": 167893,
          "dur_seconds": 0.072917,
          "dur_ticks": 70,
          "note": 59,
          "name": "B3",
          "velocity": 11,
          "channel": 0,
          "hand": "left",
          "measure": 88,
          "beat": 1.7771
        },
        {
          "t_seconds": 175.115625,
          "t_ticks": 168111,
          "dur_seconds": 0.096875,
          "dur_ticks": 93,
          "note": 59,
          "name": "B3",
          "velocity": 11,
          "channel": 0,
          "hand": "left",
          "measure": 88,
          "beat": 2.2313
        },
        {
          "t_seconds": 175.130208,
          "t_ticks": 168125,
          "dur_seconds": 0.079167,
          "dur_ticks": 76,
          "note": 56,
          "name": "G#3",
          "velocity": 20,
          "channel": 0,
          "hand": "left",
          "measure": 88,
          "beat": 2.2604
        },
        {
          "t_seconds": 175.376042,
          "t_ticks": 168361,
          "dur_seconds": 0.125,
          "dur_ticks": 120,
          "note": 56,
          "name": "G#3",
          "velocity": 14,
          "channel": 0,
          "hand": "left",
          "measure": 88,
          "beat": 2.7521
        },
        {
          "t_seconds": 175.394792,
          "t_ticks": 168379,
          "dur_seconds": 0.066667,
          "dur_ticks": 64,
          "note": 59,
          "name": "B3",
          "velocity": 22,
          "channel": 0,
          "hand": "left",
          "measure": 88,
          "beat": 2.7896
        },
        {
          "t_seconds": 175.694792,
          "t_ticks": 168667,
          "dur_seconds": 0.133333,
          "dur_ticks": 128,
          "note": 56,
          "name": "G#3",
          "velocity": 25,
          "channel": 0,
          "hand": "left",
          "measure": 88,
          "beat": 3.3896
        },
        {
          "t_seconds": 175.698958,
          "t_ticks": 168671,
          "dur_seconds": 0.779167,
          "dur_ticks": 748,
          "note": 64,
          "name": "E4",
          "velocity": 55,
          "channel": 0,
          "hand": "right",
          "measure": 88,
          "beat": 3.3979
        },
        {
          "t_seconds": 175.707292,
          "t_ticks": 168679,
          "dur_seconds": 0.097917,
          "dur_ticks": 94,
          "note": 59,
          "name": "B3",
          "velocity": 22,
          "channel": 0,
          "hand": "left",
          "measure": 88,
          "beat": 3.4146
        },
        {
          "t_seconds": 175.769792,
          "t_ticks": 168739,
          "dur_seconds": 0.310417,
          "dur_ticks": 298,
          "note": 52,
          "name": "E3",
          "velocity": 22,
          "channel": 0,
          "hand": "left",
          "measure": 88,
          "beat": 3.5396
        },
        {
          "t_seconds": 175.776042,
          "t_ticks": 168745,
          "dur_seconds": 0.345833,
          "dur_ticks": 332,
          "note": 40,
          "name": "E2",
          "velocity": 26,
          "channel": 0,
          "hand": "left",
          "measure": 88,
          "beat": 3.5521
        },
        {
          "t_seconds": 175.955208,
          "t_ticks": 168917,
          "dur_seconds": 0.097917,
          "dur_ticks": 94,
          "note": 59,
          "name": "B3",
          "velocity": 22,
          "channel": 0,
          "hand": "left",
          "measure": 88,
          "beat": 3.9104
        },
        {
          "t_seconds": 175.963542,
          "t_ticks": 168925,
          "dur_seconds": 0.085417,
          "dur_ticks": 82,
          "note": 56,
          "name": "G#3",
          "velocity": 30,
          "channel": 0,
          "hand": "left",
          "measure": 88,
          "beat": 3.9271
        }
      ]
    },
    "tokens_remi": [
      "Bar_85",
      "Position_1",
      "Pitch_44",
      "Velocity_68",
      "Duration_1",
      "Pitch_47",
      "Velocity_56",
      "Duration_1",
      "Pitch_56",
      "Velocity_60",
      "Duration_1",
      "Pitch_83",
      "Velocity_116",
      "Duration_8",
      "Position_2",
      "Pitch_52",
      "Velocity_68",
      "Duration_1",
      "Pitch_71",
      "Velocity_100",
      "Duration_8",
      "Position_12",
      "Pitch_47",
      "Velocity_36",
      "Duration_1",
      "Position_13",
      "Pitch_44",
      "Velocity_44",
      "Duration_1",
      "Pitch_52",
      "Velocity_52",
      "Duration_1",
      "Pitch_56",
      "Velocity_44",
      "Duration_1",
      "Position_23",
      "Pitch_47",
      "Velocity_40",
      "Duration_1",
      "Position_24",
      "Pitch_44",
      "Velocity_52",
      "Duration_1",
      "Pitch_52",
      "Velocity_48",
      "Duration_1",
      "Pitch_56",
      "Velocity_56",
      "Duration_1",
      "Position_35",
      "Pitch_44",
      "Velocity_64",
      "Duration_1",
      "Pitch_52",
      "Velocity_60",
      "Duration_1",
      "Pitch_56",
      "Velocity_64",
      "Duration_1",
      "Position_36",
      "Pitch_47",
      "Velocity_24",
      "Duration_1",
      "Position_48",
      "Pitch_56",
      "Velocity_48",
      "Duration_1",
      "Pitch_80",
      "Velocity_84",
      "Duration_1",
      "Position_49",
      "Pitch_44",
      "Velocity_52",
      "Duration_1",
      "Position_49",
      "Pitch_47",
      "Velocity_44",
      "Duration_1",
      "Position_50",
      "Pitch_52",
      "Velocity_48",
      "Duration_1",
      "Position_59",
      "Pitch_76",
      "Velocity_92",
      "Duration_1",
      "Position_59",
      "Pitch_44",
      "Velocity_64",
      "Duration_1",
      "Pitch_56",
      "Velocity_64",
      "Duration_1",
      "Position_60",
      "Pitch_47",
      "Velocity_44",
      "Duration_1",
      "Position_61",
      "Pitch_52",
      "Velocity_36",
      "Duration_1",
      "Position_75",
      "Pitch_76",
      "Velocity_100",
      "Duration_7",
      "Pitch_88",
      "Velocity_108",
      "Duration_7",
      "Position_75",
      "Pitch_58",
      "Velocity_60",
      "Duration_1",
      "Position_76",
      "Pitch_49",
      "Velocity_60",
      "Duration_1",
      "Position_76",
      "Pitch_52",
      "Velocity_72",
      "Duration_1",
      "Pitch_54",
      "Velocity_64",
      "Duration_1",
      "Position_87",
      "Pitch_49",
      "Velocity_60",
      "Duration_1",
      "Position_88",
      "Pitch_58",
      "Velocity_44",
      "Duration_1",
      "Position_88",
      "Pitch_54",
      "Velocity_48",
      "Duration_1",
      "Position_89",
      "Pitch_52",
      "Velocity_60",
      "Duration_1",
      "Bar_86",
      "Position_3",
      "Pitch_58",
      "Velocity_52",
      "Duration_1",
      "Position_4",
      "Pitch_49",
      "Velocity_64",
      "Duration_1",
      "Pitch_52",
      "Velocity_68",
      "Duration_1",
      "Position_4",
      "Pitch_54",
      "Velocity_36",
      "Duration_1",
      "Position_15",
      "Pitch_58",
      "Velocity_60",
      "Duration_1",
      "Position_15",
      "Pitch_49",
      "Velocity_72",
      "Duration_1",
      "Position_16",
      "Pitch_54",
      "Velocity_60",
      "Duration_1",
      "Position_16",
      "Pitch_52",
      "Velocity_64",
      "Duration_1",
      "Position_26",
      "Pitch_58",
      "Velocity_52",
      "Duration_1",
      "Pitch_85",
      "Velocity_92",
      "Duration_1",
      "Position_27",
      "Pitch_49",
      "Velocity_60",
      "Duration_1",
      "Position_28",
      "Pitch_52",
      "Velocity_52",
      "Duration_1",
      "Pitch_54",
      "Velocity_56",
      "Duration_1",
      "Position_37",
      "Pitch_58",
      "Velocity_60",
      "Duration_1",
      "Position_38",
      "Pitch_49",
      "Velocity_60",
      "Duration_1",
      "Pitch_82",
      "Velocity_96",
      "Duration_1",
      "Position_39",
      "Pitch_54",
      "Velocity_60",
      "Duration_1",
      "Position_39",
      "Pitch_52",
      "Velocity_48",
      "Duration_1",
      "Position_51",
      "Pitch_59",
      "Velocity_92",
      "Duration_1",
      "Pitch_71",
      "Velocity_104",
      "Duration_1",
      "Pitch_83",
      "Velocity_120",
      "Duration_2",
      "Position_51",
      "Pitch_47",
      "Velocity_80",
      "Duration_1",
      "Pitch_52",
      "Velocity_72",
      "Duration_1",
      "Position_51",
      "Pitch_56",
      "Velocity_68",
      "Duration_1",
      "Position_61",
      "Pitch_47",
      "Velocity_48",
      "Duration_1",
      "Pitch_56",
      "Velocity_52",
      "Duration_1",
      "Position_62",
      "Pitch_52",
      "Velocity_48",
      "Duration_1",
      "Pitch_59",
      "Velocity_72",
      "Duration_1",
      "Position_74",
      "Pitch_59",
      "Velocity_72",
      "Duration_1",
      "Position_75",
      "Pitch_47",
      "Velocity_44",
      "Duration_1",
      "Pitch_56",
      "Velocity_52",
      "Duration_1",
      "Position_76",
      "Pitch_52",
      "Velocity_24",
      "Duration_1",
      "Position_86",
      "Pitch_54",
      "Velocity_96",
      "Duration_2",
      "Pitch_63",
      "Velocity_92",
      "Duration_2",
      "Position_87",
      "Pitch_57",
      "Velocity_76",
      "Duration_2",
      "Position_87",
      "Pitch_35",
      "Velocity_84",
      "Duration_1",
      "Pitch_47",
      "Velocity_80",
      "Duration_1",
      "Pitch_59",
      "Velocity_76",
      "Duration_2",
      "Bar_87",
      "Position_3",
      "Pitch_35",
      "Velocity_72",
      "Duration_1",
      "Pitch_47",
      "Velocity_56",
      "Duration_1",
      "Position_15",
      "Pitch_35",
      "Velocity_84",
      "Duration_1",
      "Pitch_47",
      "Velocity_64",
      "Duration_1",
      "Position_31",
      "Pitch_56",
      "Velocity_72",
      "Duration_2",
      "Pitch_59",
      "Velocity_72",
      "Duration_2",
      "Pitch_64",
      "Velocity_88",
      "Duration_4",
      "Position_32",
      "Pitch_40",
      "Velocity_96",
      "Duration_4",
      "Pitch_52",
      "Velocity_88",
      "Duration_3",
      "Position_47",
      "Pitch_56",
      "Velocity_44",
      "Duration_1",
      "Pitch_59",
      "Velocity_32",
      "Duration_1",
      "Position_59",
      "Pitch_56",
      "Velocity_32",
      "Duration_1",
      "Pitch_59",
      "Velocity_20",
      "Duration_1",
      "Position_71",
      "Pitch_56",
      "Velocity_40",
      "Duration_1",
      "Position_73",
      "Pitch_59",
      "Velocity_36",
      "Duration_1",
      "Position_83",
      "Pitch_56",
      "Velocity_40",
      "Duration_1",
      "Pitch_59",
      "Velocity_24",
      "Duration_1",
      "Position_94",
      "Pitch_56",
      "Velocity_36",
      "Duration_1",
      "Pitch_59",
      "Velocity_28",
      "Duration_1",
      "Bar_88",
      "Position_8",
      "Pitch_59",
      "Velocity_28",
      "Duration_1",
      "Position_9",
      "Pitch_56",
      "Velocity_32",
      "Duration_1",
      "Position_20",
      "Pitch_59",
      "Velocity_28",
      "Duration_1",
      "Position_21",
      "Pitch_56",
      "Velocity_36",
      "Duration_1",
      "Position_31",
      "Pitch_59",
      "Velocity_20",
      "Duration_1",
      "Position_32",
      "Pitch_56",
      "Velocity_20",
      "Duration_1",
      "Position_42",
      "Pitch_56",
      "Velocity_16",
      "Duration_1",
      "Position_43",
      "Pitch_59",
      "Velocity_8",
      "Duration_1",
      "Position_54",
      "Pitch_59",
      "Velocity_8",
      "Duration_1",
      "Position_54",
      "Pitch_56",
      "Velocity_20",
      "Duration_1",
      "Position_66",
      "Pitch_56",
      "Velocity_12",
      "Duration_1",
      "Position_67",
      "Pitch_59",
      "Velocity_20",
      "Duration_1",
      "Position_81",
      "Pitch_56",
      "Velocity_24",
      "Duration_1",
      "Pitch_64",
      "Velocity_52",
      "Duration_6",
      "Position_82",
      "Pitch_59",
      "Velocity_20",
      "Duration_1",
      "Position_85",
      "Pitch_52",
      "Velocity_20",
      "Duration_2",
      "Position_85",
      "Pitch_40",
      "Velocity_24",
      "Duration_3",
      "Position_94",
      "Pitch_59",
      "Velocity_20",
      "Duration_1",
      "Position_94",
      "Pitch_56",
      "Velocity_28",
      "Duration_1"
    ],
    "tokens_abc": "X:1\nT:Pathetique Sonata, 2nd Movement (Adagio cantabile) (mm. 85–88)\nM:4/4\nL:1/16\nQ:1/4=120\nK:Ab\n|b11B11_azez3e'9e9|z2_d'z_bz2b2B2z6_E3|z6E5|z27E8|\n",
    "piano_roll_svg_path": "pianoroll/pathetique-mvt2-m085-088.svg",
    "piano_roll_svg_inline": "<svg xmlns=\"http://www.w3.org/2000/svg\" width=\"1030\" height=\"550\" viewBox=\"0 0 1030 550\">\n<style>\n  text { font-family: 'Consolas', 'SF Mono', 'Fira Code', monospace; }\n  .note-rh { fill: #4a9eff; stroke: #3580cc; stroke-width: 0.5; rx: 2; ry: 2; }\n  .note-lh { fill: #ff6b8a; stroke: #cc5570; stroke-width: 0.5; rx: 2; ry: 2; }\n  .note-rh:hover { opacity: 0.85; }\n  .note-lh:hover { opacity: 0.85; }\n</style>\n<rect width=\"1030\" height=\"550\" fill=\"#1a1a2e\"/>\n<text x=\"60\" y=\"26\" fill=\"#ddddee\" font-size=\"16\" font-weight=\"bold\">Pathetique Sonata, 2nd Movement (Adagio cantabile) — Ludwig van Beethoven</text>\n<text x=\"60\" y=\"42\" fill=\"#8888aa\" font-size=\"11\">Ab major | 120 BPM | 4/4 | m.85–88</text>\n<rect x=\"60\" y=\"490\" width=\"960\" height=\"10\" fill=\"#151526\" opacity=\"0.5\"/>\n<rect x=\"60\" y=\"470\" width=\"960\" height=\"10\" fill=\"#151526\" opacity=\"0.5\"/>\n<rect x=\"60\" y=\"440\" width=\"960\" height=\"10\" fill=\"#151526\" opacity=\"0.5\"/>\n<rect x=\"60\" y=\"420\" width=\"960\" height=\"10\" fill=\"#151526\" opacity=\"0.5\"/>\n<rect x=\"60\" y=\"390\" width=\"960\" height=\"10\" fill=\"#151526\" opacity=\"0.5\"/>\n<rect x=\"60\" y=\"370\" width=\"960\" height=\"10\" fill=\"#151526\" opacity=\"0.5\"/>\n<rect x=\"60\" y=\"350\" width=\"960\" height=\"10\" fill=\"#151526\" opacity=\"0.5\"/>\n<rect x=\"60\" y=\"320\" width=\"960\" height=\"10\" fill=\"#151526\" opacity=\"0.5\"/>\n<rect x=\"60\" y=\"300\" width=\"960\" height=\"10\" fill=\"#151526\" opacity=\"0.5\"/>\n<rect x=\"60\" y=\"270\" width=\"960\" height=\"10\" fill=\"#151526\" opacity=\"0.5\"/>\n<rect x=\"60\" y=\"250\" width=\"960\" height=\"10\" fill=\"#151526\" opacity=\"0.5\"/>\n<rect x=\"60\" y=\"230\" width=\"960\" height=\"10\" fill=\"#151526\" opacity=\"0.5\"/>\n<rect x=\"60\" y=\"200\" width=\"960\" height=\"10\" fill=\"#151526\" opacity=\"0.5\"/>\n<rect x=\"60\" y=\"180\" width=\"960\" height=\"10\" fill=\"#151526\" opacity=\"0.5\"/>\n<rect x=\"60\" y=\"150\" width=\"960\" height=\"10\" fill=\"#151526\" opacity=\"0.5\"/>\n<rect x=\"60\" y=\"130\" width=\"960\" height=\"10\" fill=\"#151526\" opacity=\"0.5\"/>\n<rect x=\"60\" y=\"110\" width=\"960\" height=\"10\" fill=\"#151526\" opacity=\"0.5\"/>\n<rect x=\"60\" y=\"80\" width=\"960\" height=\"10\" fill=\"#151526\" opacity=\"0.5\"/>\n<rect x=\"60\" y=\"60\" width=\"960\" height=\"10\" fill=\"#151526\" opacity=\"0.5\"/>\n<line x1=\"60\" y1=\"490\" x2=\"1020\" y2=\"490\" stroke=\"#2a2a3e\" stroke-width=\"0.3\"/>\n<line x1=\"60\" y1=\"480\" x2=\"1020\" y2=\"480\" stroke=\"#2a2a3e\" stroke-width=\"0.3\"/>\n<line x1=\"60\" y1=\"470\" x2=\"1020\" y2=\"470\" stroke=\"#2a2a3e\" stroke-width=\"0.3\"/>\n<line x1=\"60\" y1=\"460\" x2=\"1020\" y2=\"460\" stroke=\"#2a2a3e\" stroke-width=\"0.3\"/>\n<line x1=\"60\" y1=\"450\" x2=\"1020\" y2=\"450\" stroke=\"#3a3a5e\" stroke-width=\"1\"/>\n<line x1=\"60\" y1=\"440\" x2=\"1020\" y2=\"440\" stroke=\"#2a2a3e\" stroke-width=\"0.3\"/>\n<line x1=\"60\" y1=\"430\" x2=\"1020\" y2=\"430\" stroke=\"#2a2a3e\" stroke-width=\"0.3\"/>\n<line x1=\"60\" y1=\"420\" x2=\"1020\" y2=\"420\" stroke=\"#2a2a3e\" stroke-width=\"0.3\"/>\n<line x1=\"60\" y1=\"410\" x2=\"1020\" y2=\"410\" stroke=\"#2a2a3e\" stroke-width=\"0.3\"/>\n<line x1=\"60\" y1=\"400\" x2=\"1020\" y2=\"400\" stroke=\"#2a2a3e\" stroke-width=\"0.3\"/>\n<line x1=\"60\" y1=\"390\" x2=\"1020\" y2=\"390\" stroke=\"#2a2a3e\" stroke-width=\"0.3\"/>\n<line x1=\"60\" y1=\"380\" x2=\"1020\" y2=\"380\" stroke=\"#2a2a3e\" stroke-width=\"0.3\"/>\n<line x1=\"60\" y1=\"370\" x2=\"1020\" y2=\"370\" stroke=\"#2a2a3e\" stroke-width=\"0.3\"/>\n<line x1=\"60\" y1=\"360\" x2=\"1020\" y2=\"360\" stroke=\"#2a2a3e\" stroke-width=\"0.3\"/>\n<line x1=\"60\" y1=\"350\" x2=\"1020\" y2=\"350\" stroke=\"#2a2a3e\" stroke-width=\"0.3\"/>\n<line x1=\"60\" y1=\"340\" x2=\"1020\" y2=\"340\" stroke=\"#2a2a3e\" stroke-width=\"0.3\"/>\n<line x1=\"60\" y1=\"330\" x2=\"1020\" y2=\"330\" stroke=\"#3a3a5e\" stroke-width=\"1\"/>\n<line x1=\"60\" y1=\"320\" x2=\"1020\" y2=\"320\" stroke=\"#2a2a3e\" stroke-width=\"0.3\"/>\n<line x1=\"60\" y1=\"310\" x2=\"1020\" y2=\"310\" stroke=\"#2a2a3e\" stroke-width=\"0.3\"/>\n<line x1=\"60\" y1=\"300\" x2=\"1020\" y2=\"300\" stroke=\"#2a2a3e\" stroke-width=\"0.3\"/>\n<line x1=\"60\" y1=\"290\" x2=\"1020\" y2=\"290\" stroke=\"#2a2a3e\" stroke-width=\"0.3\"/>\n<line x1=\"60\" y1=\"280\" x2=\"1020\" y2=\"280\" stroke=\"#2a2a3e\" stroke-width=\"0.3\"/>\n<line x1=\"60\" y1=\"270\" x2=\"1020\" y2=\"270\" stroke=\"#2a2a3e\" stroke-width=\"0.3\"/>\n<line x1=\"60\" y1=\"260\" x2=\"1020\" y2=\"260\" stroke=\"#2a2a3e\" stroke-width=\"0.3\"/>\n<line x1=\"60\" y1=\"250\" x2=\"1020\" y2=\"250\" stroke=\"#2a2a3e\" stroke-width=\"0.3\"/>\n<line x1=\"60\" y1=\"240\" x2=\"1020\" y2=\"240\" stroke=\"#2a2a3e\" stroke-width=\"0.3\"/>\n<line x1=\"60\" y1=\"230\" x2=\"1020\" y2=\"230\" stroke=\"#2a2a3e\" stroke-width=\"0.3\"/>\n<line x1=\"60\" y1=\"220\" x2=\"1020\" y2=\"220\" stroke=\"#2a2a3e\" stroke-width=\"0.3\"/>\n<line x1=\"60\" y1=\"210\" x2=\"1020\" y2=\"210\" stroke=\"#3a3a5e\" stroke-width=\"1\"/>\n<line x1=\"60\" y1=\"200\" x2=\"1020\" y2=\"200\" stroke=\"#2a2a3e\" stroke-width=\"0.3\"/>\n<line x1=\"60\" y1=\"190\" x2=\"1020\" y2=\"190\" stroke=\"#2a2a3e\" stroke-width=\"0.3\"/>\n<line x1=\"60\" y1=\"180\" x2=\"1020\" y2=\"180\" stroke=\"#2a2a3e\" stroke-width=\"0.3\"/>\n<line x1=\"60\" y1=\"170\" x2=\"1020\" y2=\"170\" stroke=\"#2a2a3e\" stroke-width=\"0.3\"/>\n<line x1=\"60\" y1=\"160\" x2=\"1020\" y2=\"160\" stroke=\"#2a2a3e\" stroke-width=\"0.3\"/>\n<line x1=\"60\" y1=\"150\" x2=\"1020\" y2=\"150\" stroke=\"#2a2a3e\" stroke-width=\"0.3\"/>\n<line x1=\"60\" y1=\"140\" x2=\"1020\" y2=\"140\" stroke=\"#2a2a3e\" stroke-width=\"0.3\"/>\n<line x1=\"60\" y1=\"130\" x2=\"1020\" y2=\"130\" stroke=\"#2a2a3e\" stroke-width=\"0.3\"/>\n<line x1=\"60\" y1=\"120\" x2=\"1020\" y2=\"120\" stroke=\"#2a2a3e\" stroke-width=\"0.3\"/>\n<line x1=\"60\" y1=\"110\" x2=\"1020\" y2=\"110\" stroke=\"#2a2a3e\" stroke-width=\"0.3\"/>\n<line x1=\"60\" y1=\"100\" x2=\"1020\" y2=\"100\" stroke=\"#2a2a3e\" stroke-width=\"0.3\"/>\n<line x1=\"60\" y1=\"90\" x2=\"1020\" y2=\"90\" stroke=\"#3a3a5e\" stroke-width=\"1\"/>\n<line x1=\"60\" y1=\"80\" x2=\"1020\" y2=\"80\" stroke=\"#2a2a3e\" stroke-width=\"0.3\"/>\n<line x1=\"60\" y1=\"70\" x2=\"1020\" y2=\"70\" stroke=\"#2a2a3e\" stroke-width=\"0.3\"/>\n<line x1=\"60\" y1=\"60\" x2=\"1020\" y2=\"60\" stroke=\"#2a2a3e\" stroke-width=\"0.3\"/>\n<line x1=\"60\" y1=\"50\" x2=\"1020\" y2=\"50\" stroke=\"#2a2a3e\" stroke-width=\"0.3\"/>\n<line x1=\"60\" y1=\"50\" x2=\"60\" y2=\"500\" stroke=\"#3a3a5e\" stroke-width=\"1.5\"/>\n<line x1=\"120\" y1=\"50\" x2=\"120\" y2=\"500\" stroke=\"#2a2a3e\" stroke-width=\"0.3\" stroke-dasharray=\"2,3\"/>\n<line x1=\"180\" y1=\"50\" x2=\"180\" y2=\"500\" stroke=\"#2a2a3e\" stroke-width=\"0.3\" stroke-dasharray=\"2,3\"/>\n<line x1=\"240\" y1=\"50\" x2=\"240\" y2=\"500\" stroke=\"#2a2a3e\" stroke-width=\"0.3\" stroke-dasharray=\"2,3\"/>\n<line x1=\"300\" y1=\"50\" x2=\"300\" y2=\"500\" stroke=\"#3a3a5e\" stroke-width=\"1.5\"/>\n<line x1=\"360\" y1=\"50\" x2=\"360\" y2=\"500\" stroke=\"#2a2a3e\" stroke-width=\"0.3\" stroke-dasharray=\"2,3\"/>\n<line x1=\"420\" y1=\"50\" x2=\"420\" y2=\"500\" stroke=\"#2a2a3e\" stroke-width=\"0.3\" stroke-dasharray=\"2,3\"/>\n<line x1=\"480\" y1=\"50\" x2=\"480\" y2=\"500\" stroke=\"#2a2a3e\" stroke-width=\"0.3\" stroke-dasharray=\"2,3\"/>\n<line x1=\"540\" y1=\"50\" x2=\"540\" y2=\"500\" stroke=\"#3a3a5e\" stroke-width=\"1.5\"/>\n<line x1=\"600\" y1=\"50\" x2=\"600\" y2=\"500\" stroke=\"#2a2a3e\" stroke-width=\"0.3\" stroke-dasharray=\"2,3\"/>\n<line x1=\"660\" y1=\"50\" x2=\"660\" y2=\"500\" stroke=\"#2a2a3e\" stroke-width=\"0.3\" stroke-dasharray=\"2,3\"/>\n<line x1=\"720\" y1=\"50\" x2=\"720\" y2=\"500\" stroke=\"#2a2a3e\" stroke-width=\"0.3\" stroke-dasharray=\"2,3\"/>\n<line x1=\"780\" y1=\"50\" x2=\"780\" y2=\"500\" stroke=\"#3a3a5e\" stroke-width=\"1.5\"/>\n<line x1=\"840\" y1=\"50\" x2=\"840\" y2=\"500\" stroke=\"#2a2a3e\" stroke-width=\"0.3\" stroke-dasharray=\"2,3\"/>\n<line x1=\"900\" y1=\"50\" x2=\"900\" y2=\"500\" stroke=\"#2a2a3e\" stroke-width=\"0.3\" stroke-dasharray=\"2,3\"/>\n<line x1=\"960\" y1=\"50\" x2=\"960\" y2=\"500\" stroke=\"#2a2a3e\" stroke-width=\"0.3\" stroke-dasharray=\"2,3\"/>\n<line x1=\"1020\" y1=\"50\" x2=\"1020\" y2=\"500\" stroke=\"#3a3a5e\" stroke-width=\"1.5\"/>\n<text x=\"56\" y=\"487\" text-anchor=\"end\" fill=\"#666688\" font-size=\"8\" font-weight=\"normal\">A2</text>\n<text x=\"56\" y=\"467\" text-anchor=\"end\" fill=\"#666688\" font-size=\"8\" font-weight=\"normal\">B2</text>\n<text x=\"56\" y=\"457\" text-anchor=\"end\" fill=\"#aaaacc\" font-size=\"10\" font-weight=\"bold\">C3</text>\n<text x=\"56\" y=\"437\" text-anchor=\"end\" fill=\"#666688\" font-size=\"8\" font-weight=\"normal\">D3</text>\n<text x=\"56\" y=\"417\" text-anchor=\"end\" fill=\"#666688\" font-size=\"8\" font-weight=\"normal\">E3</text>\n<text x=\"56\" y=\"407\" text-anchor=\"end\" fill=\"#666688\" font-size=\"8\" font-weight=\"normal\">F3</text>\n<text x=\"56\" y=\"387\" text-anchor=\"end\" fill=\"#666688\" font-size=\"8\" font-weight=\"normal\">G3</text>\n<text x=\"56\" y=\"367\" text-anchor=\"end\" fill=\"#666688\" font-size=\"8\" font-weight=\"normal\">A3</text>\n<text x=\"56\" y=\"347\" text-anchor=\"end\" fill=\"#666688\" font-size=\"8\" font-weight=\"normal\">B3</text>\n<text x=\"56\" y=\"337\" text-anchor=\"end\" fill=\"#aaaacc\" font-size=\"10\" font-weight=\"bold\">C4</text>\n<text x=\"56\" y=\"317\" text-anchor=\"end\" fill=\"#666688\" font-size=\"8\" font-weight=\"normal\">D4</text>\n<text x=\"56\" y=\"297\" text-anchor=\"end\" fill=\"#666688\" font-size=\"8\" font-weight=\"normal\">E4</text>\n<text x=\"56\" y=\"287\" text-anchor=\"end\" fill=\"#666688\" font-size=\"8\" font-weight=\"normal\">F4</text>\n<text x=\"56\" y=\"267\" text-anchor=\"end\" fill=\"#666688\" font-size=\"8\" font-weight=\"normal\">G4</text>\n<text x=\"56\" y=\"247\" text-anchor=\"end\" fill=\"#666688\" font-size=\"8\" font-weight=\"normal\">A4</text>\n<text x=\"56\" y=\"227\" text-anchor=\"end\" fill=\"#666688\" font-size=\"8\" font-weight=\"normal\">B4</text>\n<text x=\"56\" y=\"217\" text-anchor=\"end\" fill=\"#aaaacc\" font-size=\"10\" font-weight=\"bold\">C5</text>\n<text x=\"56\" y=\"197\" text-anchor=\"end\" fill=\"#666688\" font-size=\"8\" font-weight=\"normal\">D5</text>\n<text x=\"56\" y=\"177\" text-anchor=\"end\" fill=\"#666688\" font-size=\"8\" font-weight=\"normal\">E5</text>\n<text x=\"56\" y=\"167\" text-anchor=\"end\" fill=\"#666688\" font-size=\"8\" font-weight=\"normal\">F5</text>\n<text x=\"56\" y=\"147\" text-anchor=\"end\" fill=\"#666688\" font-size=\"8\" font-weight=\"normal\">G5</text>\n<text x=\"56\" y=\"127\" text-anchor=\"end\" fill=\"#666688\" font-size=\"8\" font-weight=\"normal\">A5</text>\n<text x=\"56\" y=\"107\" text-anchor=\"end\" fill=\"#666688\" font-size=\"8\" font-weight=\"normal\">B5</text>\n<text x=\"56\" y=\"97\" text-anchor=\"end\" fill=\"#aaaacc\" font-size=\"10\" font-weight=\"bold\">C6</text>\n<text x=\"56\" y=\"77\" text-anchor=\"end\" fill=\"#666688\" font-size=\"8\" font-weight=\"normal\">D6</text>\n<text x=\"56\" y=\"57\" text-anchor=\"end\" fill=\"#666688\" font-size=\"8\" font-weight=\"normal\">E6</text>\n<rect x=\"180\" y=\"131\" width=\"19\" height=\"8\" fill=\"#4a9eff\" stroke=\"#3580cc\" stroke-width=\"0.5\" rx=\"2\" ry=\"2\">\n  <title>RH: G#5 (m.85)</title>\n</rect>\n<rect x=\"200\" y=\"171\" width=\"14\" height=\"8\" fill=\"#4a9eff\" stroke=\"#3580cc\" stroke-width=\"0.5\" rx=\"2\" ry=\"2\">\n  <title>RH: E5 (m.85)</title>\n</rect>\n<rect x=\"95\" y=\"371\" width=\"14\" height=\"8\" fill=\"#ff6b8a\" stroke=\"#cc5570\" stroke-width=\"0.5\" rx=\"2\" ry=\"2\">\n  <title>LH: G#3 (m.85)</title>\n</rect>\n<rect x=\"155\" y=\"461\" width=\"14\" height=\"8\" fill=\"#ff6b8a\" stroke=\"#cc5570\" stroke-width=\"0.5\" rx=\"2\" ry=\"2\">\n  <title>LH: B2 (m.85)</title>\n</rect>\n<rect x=\"214.99999999999997\" y=\"461\" width=\"14\" height=\"8\" fill=\"#ff6b8a\" stroke=\"#cc5570\" stroke-width=\"0.5\" rx=\"2\" ry=\"2\">\n  <title>LH: B2 (m.85)</title>\n</rect>\n<rect x=\"229.99999999999997\" y=\"411\" width=\"14\" height=\"8\" fill=\"#ff6b8a\" stroke=\"#cc5570\" stroke-width=\"0.5\" rx=\"2\" ry=\"2\">\n  <title>LH: E3 (m.85)</title>\n</rect>\n<rect x=\"285\" y=\"441\" width=\"14\" height=\"8\" fill=\"#ff6b8a\" stroke=\"#cc5570\" stroke-width=\"0.5\" rx=\"2\" ry=\"2\">\n  <title>LH: C#3 (m.85)</title>\n</rect>\n<rect x=\"315\" y=\"411\" width=\"14\" height=\"8\" fill=\"#ff6b8a\" stroke=\"#cc5570\" stroke-width=\"0.5\" rx=\"2\" ry=\"2\">\n  <title>LH: E3 (m.85)</title>\n</rect>\n<rect x=\"300\" y=\"81\" width=\"14\" height=\"8\" fill=\"#4a9eff\" stroke=\"#3580cc\" stroke-width=\"0.5\" rx=\"2\" ry=\"2\">\n  <title>RH: C#6 (m.86)</title>\n</rect>\n<rect x=\"315\" y=\"111\" width=\"14\" height=\"8\" fill=\"#4a9eff\" stroke=\"#3580cc\" stroke-width=\"0.5\" rx=\"2\" ry=\"2\">\n  <title>RH: A#5 (m.86)</title>\n</rect>\n<rect x=\"360\" y=\"301\" width=\"29\" height=\"8\" fill=\"#4a9eff\" stroke=\"#3580cc\" stroke-width=\"0.5\" rx=\"2\" ry=\"2\">\n  <title>RH: D#4 (m.86)</title>\n</rect>\n<rect x=\"360\" y=\"351\" width=\"14\" height=\"8\" fill=\"#ff6b8a\" stroke=\"#cc5570\" stroke-width=\"0.5\" rx=\"2\" ry=\"2\">\n  <title>LH: A#3 (m.86)</title>\n</rect>\n<rect x=\"375\" y=\"441\" width=\"14\" height=\"8\" fill=\"#ff6b8a\" stroke=\"#cc5570\" stroke-width=\"0.5\" rx=\"2\" ry=\"2\">\n  <title>LH: C#3 (m.86)</title>\n</rect>\n<rect x=\"455\" y=\"371\" width=\"19\" height=\"8\" fill=\"#ff6b8a\" stroke=\"#cc5570\" stroke-width=\"0.5\" rx=\"2\" ry=\"2\">\n  <title>LH: G#3 (m.86)</title>\n</rect>\n<rect x=\"490\" y=\"411\" width=\"14\" height=\"8\" fill=\"#ff6b8a\" stroke=\"#cc5570\" stroke-width=\"0.5\" rx=\"2\" ry=\"2\">\n  <title>LH: E3 (m.86)</title>\n</rect>\n<rect x=\"505\" y=\"341\" width=\"14\" height=\"8\" fill=\"#ff6b8a\" stroke=\"#cc5570\" stroke-width=\"0.5\" rx=\"2\" ry=\"2\">\n  <title>LH: B3 (m.86)</title>\n</rect>\n<rect x=\"535\" y=\"411\" width=\"14\" height=\"8\" fill=\"#ff6b8a\" stroke=\"#cc5570\" stroke-width=\"0.5\" rx=\"2\" ry=\"2\">\n  <title>LH: E3 (m.86)</title>\n</rect>\n<rect x=\"540\" y=\"291\" width=\"59\" height=\"8\" fill=\"#4a9eff\" stroke=\"#3580cc\" stroke-width=\"0.5\" rx=\"2\" ry=\"2\">\n  <title>RH: E4 (m.87)</title>\n</rect>\n<rect x=\"630\" y=\"411\" width=\"59\" height=\"8\" fill=\"#ff6b8a\" stroke=\"#cc5570\" stroke-width=\"0.5\" rx=\"2\" ry=\"2\">\n  <title>LH: E3 (m.87)</title>\n</rect>\n<rect x=\"725\" y=\"371\" width=\"14\" height=\"8\" fill=\"#ff6b8a\" stroke=\"#cc5570\" stroke-width=\"0.5\" rx=\"2\" ry=\"2\">\n  <title>LH: G#3 (m.87)</title>\n</rect>\n<rect x=\"740\" y=\"341\" width=\"14\" height=\"8\" fill=\"#ff6b8a\" stroke=\"#cc5570\" stroke-width=\"0.5\" rx=\"2\" ry=\"2\">\n  <title>LH: B3 (m.87)</title>\n</rect>\n<rect x=\"780\" y=\"291\" width=\"89\" height=\"8\" fill=\"#4a9eff\" stroke=\"#3580cc\" stroke-width=\"0.5\" rx=\"2\" ry=\"2\">\n  <title>RH: E4 (m.88)</title>\n</rect>\n<rect x=\"840\" y=\"341\" width=\"14\" height=\"8\" fill=\"#ff6b8a\" stroke=\"#cc5570\" stroke-width=\"0.5\" rx=\"2\" ry=\"2\">\n  <title>LH: B3 (m.88)</title>\n</rect>\n<rect x=\"855\" y=\"371\" width=\"14\" height=\"8\" fill=\"#ff6b8a\" stroke=\"#cc5570\" stroke-width=\"0.5\" rx=\"2\" ry=\"2\">\n  <title>LH: G#3 (m.88)</title>\n</rect>\n<rect x=\"870\" y=\"371\" width=\"14\" height=\"8\" fill=\"#ff6b8a\" stroke=\"#cc5570\" stroke-width=\"0.5\" rx=\"2\" ry=\"2\">\n  <title>LH: G#3 (m.88)</title>\n</rect>\n<rect x=\"885\" y=\"341\" width=\"14\" height=\"8\" fill=\"#ff6b8a\" stroke=\"#cc5570\" stroke-width=\"0.5\" rx=\"2\" ry=\"2\">\n  <title>LH: B3 (m.88)</title>\n</rect>\n<rect x=\"900\" y=\"371\" width=\"14\" height=\"8\" fill=\"#ff6b8a\" stroke=\"#cc5570\" stroke-width=\"0.5\" rx=\"2\" ry=\"2\">\n  <title>LH: G#3 (m.88)</title>\n</rect>\n<rect x=\"915\" y=\"341\" width=\"14\" height=\"8\" fill=\"#ff6b8a\" stroke=\"#cc5570\" stroke-width=\"0.5\" rx=\"2\" ry=\"2\">\n  <title>LH: B3 (m.88)</title>\n</rect>\n<text x=\"180\" y=\"516\" text-anchor=\"middle\" fill=\"#8888aa\" font-size=\"10\">85</text>\n<text x=\"420\" y=\"516\" text-anchor=\"middle\" fill=\"#8888aa\" font-size=\"10\">86</text>\n<text x=\"660\" y=\"516\" text-anchor=\"middle\" fill=\"#8888aa\" font-size=\"10\">87</text>\n<text x=\"900\" y=\"516\" text-anchor=\"middle\" fill=\"#8888aa\" font-size=\"10\">88</text>\n<circle cx=\"64\" cy=\"528\" r=\"3\" fill=\"#ffaa33\"/>\n<circle cx=\"304\" cy=\"528\" r=\"3\" fill=\"#ffaa33\"/>\n<circle cx=\"544\" cy=\"528\" r=\"3\" fill=\"#ffaa33\"/>\n<circle cx=\"784\" cy=\"528\" r=\"3\" fill=\"#ffaa33\"/>\n<rect x=\"900\" y=\"508\" width=\"8\" height=\"8\" fill=\"#4a9eff\" rx=\"1\"/>\n<text x=\"912\" y=\"516\" fill=\"#8888aa\" font-size=\"9\">Right Hand</text>\n<rect x=\"970\" y=\"508\" width=\"8\" height=\"8\" fill=\"#ff6b8a\" rx=\"1\"/>\n<text x=\"982\" y=\"516\" fill=\"#8888aa\" font-size=\"9\">Left Hand</text>\n</svg>"
  },
  "annotation_target": {
    "measure_range": [
      85,
      88
    ],
    "structure": "Coda consequent — melody's final statement, peaceful Ab conclusion",
    "key_moments": [
      "m85 melody's last arc",
      "m87 final resolution approaching",
      "m88 Ab major final chord"
    ],
    "teaching_goals": [
      "the movement ends in complete peace",
      "the final Ab should ring and then fade"
    ],
    "style_tips": [
      "ppp — Beethoven's Adagio ends as quietly as it began",
      "let the pedal sustain the final chord"
    ],
    "teaching_notes": [
      {
        "measure": 88,
        "note": "The final Ab — peaceful, resonant, complete. Let it ring into silence.",
        "technique": [
          "full pedal on the final chord",
          "arms release gently after"
        ]
      }
    ]
  },
  "target_trace": {
    "task_family": "analyze-and-play-phrase",
    "objective": "Read mm. 85–88 of Pathetique Sonata, 2nd Movement (Adagio cantabile) (continuation of mm. 81–84), analyze the musical continuation, play in a loop.",
    "session": [
      {
        "turn": 1,
        "role": "user",
        "content": "Play measures 85–88 and describe the final phrases."
      },
      {
        "turn": 2,
        "role": "assistant",
        "content": "Let me view the piano roll for mm. 85–88.",
        "tool_calls": [
          {
            "tool": "view_piano_roll",
            "arguments": {
              "songId": "pathetique-mvt2",
              "startMeasure": 85,
              "endMeasure": 88
            }
          }
        ]
      },
      {
        "turn": 3,
        "role": "tool",
        "tool": "view_piano_roll",
        "content": {
          "svg_returned": true,
          "measures": 4,
          "rh_notes": 13,
          "lh_notes": 101
        }
      },
      {
        "turn": 4,
        "role": "assistant",
        "content": "Measures 85–88 bring the final phrases — the melody makes its last statement over the rocking arpeggios. Let me loop mm. 85–88.",
        "tool_calls": [
          {
            "tool": "play_song",
            "arguments": {
              "id": "pathetique-mvt2",
              "startMeasure": 85,
              "endMeasure": 88,
              "mode": "loop"
            }
          }
        ]
      },
      {
        "turn": 5,
        "role": "tool",
        "tool": "play_song",
        "content": {
          "playback_started": true,
          "mode": "loop"
        }
      },
      {
        "turn": 6,
        "role": "assistant",
        "content": "Pathetique mvt 2 mm. 85–88: final phrases, melody's last statement. Pairs with mm. 81–84."
      }
    ]
  },
  "eval_metadata": {
    "split": "train",
    "split_strategy": "stratified by (composer, composition_id) with MIDI byte-hash dedup",
    "leakage_check": "pending",
    "eval_eligibility": [
      "E1_tool_use",
      "E2_phrase_continuation",
      "E3_annotation_grounding"
    ],
    "phrase_continuation_eligible": true,
    "phrase_continuation_eligible_reason": "window_role='continuation_target' — gold continuation for prompt pathetique-mvt2:m081-084:piano:mcp-session:v1."
  }
}
