{
  "id": "clair-de-lune:m019-022:piano:mcp-session:v1",
  "schema_version": "jam-actions-v0/1.0.0",
  "provenance": {
    "source_url": "http://piano-midi.de/",
    "source_collected_at": "2026-05-16",
    "source_type": "transcribed-by-author",
    "composition_title": "Clair de Lune (Suite bergamasque, III)",
    "composer": "Claude Debussy",
    "composition_year": 1905,
    "composition_pd_status_us": "public_domain",
    "composition_pd_status_eu": "public_domain",
    "arrangement_creator": "Bernd Krueger",
    "arrangement_license": "CC-BY-SA",
    "arrangement_license_version": "3.0",
    "arrangement_evidence_url": "http://piano-midi.de/debuss.htm",
    "record_verdict": "public",
    "verdict_reason": "Clair de Lune (Suite bergamasque, III). Slice 2.5 URL verification. License confirmed: CC-BY-SA-3.0. Evidence URL: http://piano-midi.de/debuss.htm. Verdict: public — all site-level + per-song verification conditions passed.",
    "verifier": "auto-rule-engine+slice2.5-url-verifier",
    "verified_at": "2026-05-17",
    "training_use_permitted": true
  },
  "scope": {
    "song_id": "clair-de-lune",
    "phrase_window": "measures 19-22",
    "instrument": "piano",
    "key": "Db major",
    "tempo_bpm": 100,
    "time_signature": "9/8",
    "window_role": "continuation_target",
    "musical_phrase_label": "cantabile theme — consequent, emotional peak",
    "natural_phrase_boundary": true,
    "paired_prompt_record_id": "clair-de-lune:m015-018:piano:mcp-session:v1"
  },
  "observation": {
    "midi_sidecar": {
      "midi_sha256": "4dee23c00aed6742905a65f374f231d7a827010400146be7577b1df808a927d0",
      "ticks_per_beat": 480,
      "timed_events": [
        {
          "t_seconds": 48.6,
          "t_ticks": 38880,
          "dur_seconds": 1.8,
          "dur_ticks": 1440,
          "note": 32,
          "name": "G#1",
          "velocity": 35,
          "channel": 0,
          "hand": "left",
          "measure": 19,
          "beat": 0
        },
        {
          "t_seconds": 48.6,
          "t_ticks": 38880,
          "dur_seconds": 1.8,
          "dur_ticks": 1440,
          "note": 44,
          "name": "G#2",
          "velocity": 42,
          "channel": 0,
          "hand": "left",
          "measure": 19,
          "beat": 0
        },
        {
          "t_seconds": 49.05,
          "t_ticks": 39240,
          "dur_seconds": 0.45,
          "dur_ticks": 360,
          "note": 54,
          "name": "F#3",
          "velocity": 48,
          "channel": 0,
          "hand": "left",
          "measure": 19,
          "beat": 0.75
        },
        {
          "t_seconds": 49.05,
          "t_ticks": 39240,
          "dur_seconds": 0.45,
          "dur_ticks": 360,
          "note": 66,
          "name": "F#4",
          "velocity": 49,
          "channel": 0,
          "hand": "right",
          "measure": 19,
          "beat": 0.75
        },
        {
          "t_seconds": 49.05,
          "t_ticks": 39240,
          "dur_seconds": 0.45,
          "dur_ticks": 360,
          "note": 78,
          "name": "F#5",
          "velocity": 51,
          "channel": 0,
          "hand": "right",
          "measure": 19,
          "beat": 0.75
        },
        {
          "t_seconds": 49.5,
          "t_ticks": 39600,
          "dur_seconds": 0.45,
          "dur_ticks": 360,
          "note": 56,
          "name": "G#3",
          "velocity": 38,
          "channel": 0,
          "hand": "left",
          "measure": 19,
          "beat": 1.5
        },
        {
          "t_seconds": 49.5,
          "t_ticks": 39600,
          "dur_seconds": 0.9,
          "dur_ticks": 720,
          "note": 60,
          "name": "C4",
          "velocity": 33,
          "channel": 0,
          "hand": "right",
          "measure": 19,
          "beat": 1.5
        },
        {
          "t_seconds": 49.5,
          "t_ticks": 39600,
          "dur_seconds": 0.9,
          "dur_ticks": 720,
          "note": 63,
          "name": "D#4",
          "velocity": 39,
          "channel": 0,
          "hand": "right",
          "measure": 19,
          "beat": 1.5
        },
        {
          "t_seconds": 49.5,
          "t_ticks": 39600,
          "dur_seconds": 0.45,
          "dur_ticks": 360,
          "note": 68,
          "name": "G#4",
          "velocity": 45,
          "channel": 0,
          "hand": "right",
          "measure": 19,
          "beat": 1.5
        },
        {
          "t_seconds": 49.5,
          "t_ticks": 39600,
          "dur_seconds": 0.45,
          "dur_ticks": 360,
          "note": 75,
          "name": "D#5",
          "velocity": 45,
          "channel": 0,
          "hand": "right",
          "measure": 19,
          "beat": 1.5
        },
        {
          "t_seconds": 49.5,
          "t_ticks": 39600,
          "dur_seconds": 0.45,
          "dur_ticks": 360,
          "note": 80,
          "name": "G#5",
          "velocity": 47,
          "channel": 0,
          "hand": "right",
          "measure": 19,
          "beat": 1.5
        },
        {
          "t_seconds": 49.95,
          "t_ticks": 39960,
          "dur_seconds": 0.45,
          "dur_ticks": 360,
          "note": 60,
          "name": "C4",
          "velocity": 50,
          "channel": 0,
          "hand": "right",
          "measure": 19,
          "beat": 2.25
        },
        {
          "t_seconds": 49.95,
          "t_ticks": 39960,
          "dur_seconds": 0.45,
          "dur_ticks": 360,
          "note": 72,
          "name": "C5",
          "velocity": 49,
          "channel": 0,
          "hand": "right",
          "measure": 19,
          "beat": 2.25
        },
        {
          "t_seconds": 49.95,
          "t_ticks": 39960,
          "dur_seconds": 0.45,
          "dur_ticks": 360,
          "note": 84,
          "name": "C6",
          "velocity": 51,
          "channel": 0,
          "hand": "right",
          "measure": 19,
          "beat": 2.25
        },
        {
          "t_seconds": 50.4,
          "t_ticks": 40320,
          "dur_seconds": 0.45,
          "dur_ticks": 360,
          "note": 58,
          "name": "A#3",
          "velocity": 39,
          "channel": 0,
          "hand": "left",
          "measure": 19,
          "beat": 3
        },
        {
          "t_seconds": 50.4,
          "t_ticks": 40320,
          "dur_seconds": 0.9,
          "dur_ticks": 720,
          "note": 63,
          "name": "D#4",
          "velocity": 34,
          "channel": 0,
          "hand": "right",
          "measure": 19,
          "beat": 3
        },
        {
          "t_seconds": 50.4,
          "t_ticks": 40320,
          "dur_seconds": 0.9,
          "dur_ticks": 720,
          "note": 66,
          "name": "F#4",
          "velocity": 40,
          "channel": 0,
          "hand": "right",
          "measure": 19,
          "beat": 3
        },
        {
          "t_seconds": 50.4,
          "t_ticks": 40320,
          "dur_seconds": 0.45,
          "dur_ticks": 360,
          "note": 70,
          "name": "A#4",
          "velocity": 46,
          "channel": 0,
          "hand": "right",
          "measure": 19,
          "beat": 3
        },
        {
          "t_seconds": 50.4,
          "t_ticks": 40320,
          "dur_seconds": 0.45,
          "dur_ticks": 360,
          "note": 78,
          "name": "F#5",
          "velocity": 46,
          "channel": 0,
          "hand": "right",
          "measure": 19,
          "beat": 3
        },
        {
          "t_seconds": 50.4,
          "t_ticks": 40320,
          "dur_seconds": 0.45,
          "dur_ticks": 360,
          "note": 82,
          "name": "A#5",
          "velocity": 48,
          "channel": 0,
          "hand": "right",
          "measure": 19,
          "beat": 3
        },
        {
          "t_seconds": 50.85,
          "t_ticks": 40680,
          "dur_seconds": 0.45,
          "dur_ticks": 360,
          "note": 54,
          "name": "F#3",
          "velocity": 44,
          "channel": 0,
          "hand": "left",
          "measure": 19,
          "beat": 3.75
        },
        {
          "t_seconds": 50.85,
          "t_ticks": 40680,
          "dur_seconds": 0.45,
          "dur_ticks": 360,
          "note": 66,
          "name": "F#4",
          "velocity": 44,
          "channel": 0,
          "hand": "right",
          "measure": 19,
          "beat": 3.75
        },
        {
          "t_seconds": 50.85,
          "t_ticks": 40680,
          "dur_seconds": 0.45,
          "dur_ticks": 360,
          "note": 78,
          "name": "F#5",
          "velocity": 46,
          "channel": 0,
          "hand": "right",
          "measure": 19,
          "beat": 3.75
        },
        {
          "t_seconds": 51.3,
          "t_ticks": 41040,
          "dur_seconds": 1.8,
          "dur_ticks": 1440,
          "note": 33,
          "name": "A1",
          "velocity": 35,
          "channel": 0,
          "hand": "left",
          "measure": 20,
          "beat": 0
        },
        {
          "t_seconds": 51.3,
          "t_ticks": 41040,
          "dur_seconds": 1.8,
          "dur_ticks": 1440,
          "note": 45,
          "name": "A2",
          "velocity": 42,
          "channel": 0,
          "hand": "left",
          "measure": 20,
          "beat": 0
        },
        {
          "t_seconds": 51.6,
          "t_ticks": 41280,
          "dur_seconds": 0.3,
          "dur_ticks": 240,
          "note": 54,
          "name": "F#3",
          "velocity": 30,
          "channel": 0,
          "hand": "left",
          "measure": 20,
          "beat": 0.5
        },
        {
          "t_seconds": 51.6,
          "t_ticks": 41280,
          "dur_seconds": 0.3,
          "dur_ticks": 240,
          "note": 60,
          "name": "C4",
          "velocity": 30,
          "channel": 0,
          "hand": "right",
          "measure": 20,
          "beat": 0.5
        },
        {
          "t_seconds": 51.6,
          "t_ticks": 41280,
          "dur_seconds": 0.3,
          "dur_ticks": 240,
          "note": 63,
          "name": "D#4",
          "velocity": 30,
          "channel": 0,
          "hand": "right",
          "measure": 20,
          "beat": 0.5
        },
        {
          "t_seconds": 51.6,
          "t_ticks": 41280,
          "dur_seconds": 0.3,
          "dur_ticks": 240,
          "note": 66,
          "name": "F#4",
          "velocity": 36,
          "channel": 0,
          "hand": "right",
          "measure": 20,
          "beat": 0.5
        },
        {
          "t_seconds": 51.6,
          "t_ticks": 41280,
          "dur_seconds": 0.3,
          "dur_ticks": 240,
          "note": 72,
          "name": "C5",
          "velocity": 36,
          "channel": 0,
          "hand": "right",
          "measure": 20,
          "beat": 0.5
        },
        {
          "t_seconds": 51.6,
          "t_ticks": 41280,
          "dur_seconds": 0.3,
          "dur_ticks": 240,
          "note": 75,
          "name": "D#5",
          "velocity": 36,
          "channel": 0,
          "hand": "right",
          "measure": 20,
          "beat": 0.5
        },
        {
          "t_seconds": 51.6,
          "t_ticks": 41280,
          "dur_seconds": 0.3,
          "dur_ticks": 240,
          "note": 78,
          "name": "F#5",
          "velocity": 39,
          "channel": 0,
          "hand": "right",
          "measure": 20,
          "beat": 0.5
        },
        {
          "t_seconds": 51.9,
          "t_ticks": 41520,
          "dur_seconds": 0.2875,
          "dur_ticks": 230,
          "note": 54,
          "name": "F#3",
          "velocity": 30,
          "channel": 0,
          "hand": "left",
          "measure": 20,
          "beat": 1
        },
        {
          "t_seconds": 51.9,
          "t_ticks": 41520,
          "dur_seconds": 0.2875,
          "dur_ticks": 230,
          "note": 60,
          "name": "C4",
          "velocity": 30,
          "channel": 0,
          "hand": "right",
          "measure": 20,
          "beat": 1
        },
        {
          "t_seconds": 51.9,
          "t_ticks": 41520,
          "dur_seconds": 0.2875,
          "dur_ticks": 230,
          "note": 63,
          "name": "D#4",
          "velocity": 30,
          "channel": 0,
          "hand": "right",
          "measure": 20,
          "beat": 1
        },
        {
          "t_seconds": 51.9,
          "t_ticks": 41520,
          "dur_seconds": 0.2875,
          "dur_ticks": 230,
          "note": 66,
          "name": "F#4",
          "velocity": 36,
          "channel": 0,
          "hand": "right",
          "measure": 20,
          "beat": 1
        },
        {
          "t_seconds": 51.9,
          "t_ticks": 41520,
          "dur_seconds": 0.3,
          "dur_ticks": 240,
          "note": 72,
          "name": "C5",
          "velocity": 36,
          "channel": 0,
          "hand": "right",
          "measure": 20,
          "beat": 1
        },
        {
          "t_seconds": 51.9,
          "t_ticks": 41520,
          "dur_seconds": 0.2875,
          "dur_ticks": 230,
          "note": 75,
          "name": "D#5",
          "velocity": 36,
          "channel": 0,
          "hand": "right",
          "measure": 20,
          "beat": 1
        },
        {
          "t_seconds": 51.9,
          "t_ticks": 41520,
          "dur_seconds": 0.2875,
          "dur_ticks": 230,
          "note": 78,
          "name": "F#5",
          "velocity": 39,
          "channel": 0,
          "hand": "right",
          "measure": 20,
          "beat": 1
        },
        {
          "t_seconds": 52.2,
          "t_ticks": 41760,
          "dur_seconds": 0.3,
          "dur_ticks": 240,
          "note": 54,
          "name": "F#3",
          "velocity": 33,
          "channel": 0,
          "hand": "left",
          "measure": 20,
          "beat": 1.5
        },
        {
          "t_seconds": 52.2,
          "t_ticks": 41760,
          "dur_seconds": 0.3,
          "dur_ticks": 240,
          "note": 60,
          "name": "C4",
          "velocity": 33,
          "channel": 0,
          "hand": "right",
          "measure": 20,
          "beat": 1.5
        },
        {
          "t_seconds": 52.2,
          "t_ticks": 41760,
          "dur_seconds": 0.3,
          "dur_ticks": 240,
          "note": 63,
          "name": "D#4",
          "velocity": 33,
          "channel": 0,
          "hand": "right",
          "measure": 20,
          "beat": 1.5
        },
        {
          "t_seconds": 52.2,
          "t_ticks": 41760,
          "dur_seconds": 0.3,
          "dur_ticks": 240,
          "note": 66,
          "name": "F#4",
          "velocity": 39,
          "channel": 0,
          "hand": "right",
          "measure": 20,
          "beat": 1.5
        },
        {
          "t_seconds": 52.2,
          "t_ticks": 41760,
          "dur_seconds": 0.3,
          "dur_ticks": 240,
          "note": 72,
          "name": "C5",
          "velocity": 39,
          "channel": 0,
          "hand": "right",
          "measure": 20,
          "beat": 1.5
        },
        {
          "t_seconds": 52.2,
          "t_ticks": 41760,
          "dur_seconds": 0.3,
          "dur_ticks": 240,
          "note": 75,
          "name": "D#5",
          "velocity": 39,
          "channel": 0,
          "hand": "right",
          "measure": 20,
          "beat": 1.5
        },
        {
          "t_seconds": 52.2,
          "t_ticks": 41760,
          "dur_seconds": 0.3,
          "dur_ticks": 240,
          "note": 78,
          "name": "F#5",
          "velocity": 42,
          "channel": 0,
          "hand": "right",
          "measure": 20,
          "beat": 1.5
        },
        {
          "t_seconds": 52.5,
          "t_ticks": 42000,
          "dur_seconds": 0.275,
          "dur_ticks": 220,
          "note": 54,
          "name": "F#3",
          "velocity": 31,
          "channel": 0,
          "hand": "left",
          "measure": 20,
          "beat": 2
        },
        {
          "t_seconds": 52.5,
          "t_ticks": 42000,
          "dur_seconds": 0.275,
          "dur_ticks": 220,
          "note": 60,
          "name": "C4",
          "velocity": 31,
          "channel": 0,
          "hand": "right",
          "measure": 20,
          "beat": 2
        },
        {
          "t_seconds": 52.5,
          "t_ticks": 42000,
          "dur_seconds": 0.275,
          "dur_ticks": 220,
          "note": 63,
          "name": "D#4",
          "velocity": 31,
          "channel": 0,
          "hand": "right",
          "measure": 20,
          "beat": 2
        },
        {
          "t_seconds": 52.5,
          "t_ticks": 42000,
          "dur_seconds": 0.275,
          "dur_ticks": 220,
          "note": 66,
          "name": "F#4",
          "velocity": 37,
          "channel": 0,
          "hand": "right",
          "measure": 20,
          "beat": 2
        },
        {
          "t_seconds": 52.5,
          "t_ticks": 42000,
          "dur_seconds": 0.275,
          "dur_ticks": 220,
          "note": 72,
          "name": "C5",
          "velocity": 37,
          "channel": 0,
          "hand": "right",
          "measure": 20,
          "beat": 2
        },
        {
          "t_seconds": 52.5,
          "t_ticks": 42000,
          "dur_seconds": 0.275,
          "dur_ticks": 220,
          "note": 75,
          "name": "D#5",
          "velocity": 37,
          "channel": 0,
          "hand": "right",
          "measure": 20,
          "beat": 2
        },
        {
          "t_seconds": 52.5,
          "t_ticks": 42000,
          "dur_seconds": 0.275,
          "dur_ticks": 220,
          "note": 78,
          "name": "F#5",
          "velocity": 40,
          "channel": 0,
          "hand": "right",
          "measure": 20,
          "beat": 2
        },
        {
          "t_seconds": 52.8,
          "t_ticks": 42240,
          "dur_seconds": 0.3,
          "dur_ticks": 240,
          "note": 56,
          "name": "G#3",
          "velocity": 34,
          "channel": 0,
          "hand": "left",
          "measure": 20,
          "beat": 2.5
        },
        {
          "t_seconds": 52.8,
          "t_ticks": 42240,
          "dur_seconds": 0.3,
          "dur_ticks": 240,
          "note": 60,
          "name": "C4",
          "velocity": 34,
          "channel": 0,
          "hand": "right",
          "measure": 20,
          "beat": 2.5
        },
        {
          "t_seconds": 52.8,
          "t_ticks": 42240,
          "dur_seconds": 0.3,
          "dur_ticks": 240,
          "note": 63,
          "name": "D#4",
          "velocity": 34,
          "channel": 0,
          "hand": "right",
          "measure": 20,
          "beat": 2.5
        },
        {
          "t_seconds": 52.8,
          "t_ticks": 42240,
          "dur_seconds": 0.3,
          "dur_ticks": 240,
          "note": 68,
          "name": "G#4",
          "velocity": 40,
          "channel": 0,
          "hand": "right",
          "measure": 20,
          "beat": 2.5
        },
        {
          "t_seconds": 52.8,
          "t_ticks": 42240,
          "dur_seconds": 0.3,
          "dur_ticks": 240,
          "note": 72,
          "name": "C5",
          "velocity": 40,
          "channel": 0,
          "hand": "right",
          "measure": 20,
          "beat": 2.5
        },
        {
          "t_seconds": 52.8,
          "t_ticks": 42240,
          "dur_seconds": 0.3,
          "dur_ticks": 240,
          "note": 75,
          "name": "D#5",
          "velocity": 40,
          "channel": 0,
          "hand": "right",
          "measure": 20,
          "beat": 2.5
        },
        {
          "t_seconds": 52.8,
          "t_ticks": 42240,
          "dur_seconds": 0.3,
          "dur_ticks": 240,
          "note": 80,
          "name": "G#5",
          "velocity": 44,
          "channel": 0,
          "hand": "right",
          "measure": 20,
          "beat": 2.5
        },
        {
          "t_seconds": 53.1,
          "t_ticks": 42480,
          "dur_seconds": 0.9,
          "dur_ticks": 720,
          "note": 54,
          "name": "F#3",
          "velocity": 33,
          "channel": 0,
          "hand": "left",
          "measure": 20,
          "beat": 3
        },
        {
          "t_seconds": 53.1,
          "t_ticks": 42480,
          "dur_seconds": 0.9,
          "dur_ticks": 720,
          "note": 60,
          "name": "C4",
          "velocity": 33,
          "channel": 0,
          "hand": "right",
          "measure": 20,
          "beat": 3
        },
        {
          "t_seconds": 53.1,
          "t_ticks": 42480,
          "dur_seconds": 0.9,
          "dur_ticks": 720,
          "note": 63,
          "name": "D#4",
          "velocity": 33,
          "channel": 0,
          "hand": "right",
          "measure": 20,
          "beat": 3
        },
        {
          "t_seconds": 53.1,
          "t_ticks": 42480,
          "dur_seconds": 0.9,
          "dur_ticks": 720,
          "note": 66,
          "name": "F#4",
          "velocity": 39,
          "channel": 0,
          "hand": "right",
          "measure": 20,
          "beat": 3
        },
        {
          "t_seconds": 53.1,
          "t_ticks": 42480,
          "dur_seconds": 0.9,
          "dur_ticks": 720,
          "note": 72,
          "name": "C5",
          "velocity": 39,
          "channel": 0,
          "hand": "right",
          "measure": 20,
          "beat": 3
        },
        {
          "t_seconds": 53.1,
          "t_ticks": 42480,
          "dur_seconds": 0.9,
          "dur_ticks": 720,
          "note": 75,
          "name": "D#5",
          "velocity": 39,
          "channel": 0,
          "hand": "right",
          "measure": 20,
          "beat": 3
        },
        {
          "t_seconds": 53.1,
          "t_ticks": 42480,
          "dur_seconds": 0.9,
          "dur_ticks": 720,
          "note": 78,
          "name": "F#5",
          "velocity": 42,
          "channel": 0,
          "hand": "right",
          "measure": 20,
          "beat": 3
        },
        {
          "t_seconds": 54,
          "t_ticks": 43200,
          "dur_seconds": 1.8,
          "dur_ticks": 1440,
          "note": 34,
          "name": "A#1",
          "velocity": 39,
          "channel": 0,
          "hand": "left",
          "measure": 21,
          "beat": 0
        },
        {
          "t_seconds": 54,
          "t_ticks": 43200,
          "dur_seconds": 1.8,
          "dur_ticks": 1440,
          "note": 46,
          "name": "A#2",
          "velocity": 46,
          "channel": 0,
          "hand": "left",
          "measure": 21,
          "beat": 0
        },
        {
          "t_seconds": 54.45,
          "t_ticks": 43560,
          "dur_seconds": 0.45,
          "dur_ticks": 360,
          "note": 54,
          "name": "F#3",
          "velocity": 40,
          "channel": 0,
          "hand": "left",
          "measure": 21,
          "beat": 0.75
        },
        {
          "t_seconds": 54.45,
          "t_ticks": 43560,
          "dur_seconds": 0.9,
          "dur_ticks": 720,
          "note": 58,
          "name": "A#3",
          "velocity": 38,
          "channel": 0,
          "hand": "left",
          "measure": 21,
          "beat": 0.75
        },
        {
          "t_seconds": 54.45,
          "t_ticks": 43560,
          "dur_seconds": 0.9,
          "dur_ticks": 720,
          "note": 61,
          "name": "C#4",
          "velocity": 38,
          "channel": 0,
          "hand": "right",
          "measure": 21,
          "beat": 0.75
        },
        {
          "t_seconds": 54.45,
          "t_ticks": 43560,
          "dur_seconds": 0.45,
          "dur_ticks": 360,
          "note": 66,
          "name": "F#4",
          "velocity": 41,
          "channel": 0,
          "hand": "right",
          "measure": 21,
          "beat": 0.75
        },
        {
          "t_seconds": 54.45,
          "t_ticks": 43560,
          "dur_seconds": 0.9,
          "dur_ticks": 720,
          "note": 73,
          "name": "C#5",
          "velocity": 45,
          "channel": 0,
          "hand": "right",
          "measure": 21,
          "beat": 0.75
        },
        {
          "t_seconds": 54.45,
          "t_ticks": 43560,
          "dur_seconds": 0.45,
          "dur_ticks": 360,
          "note": 78,
          "name": "F#5",
          "velocity": 53,
          "channel": 0,
          "hand": "right",
          "measure": 21,
          "beat": 0.75
        },
        {
          "t_seconds": 54.9,
          "t_ticks": 43920,
          "dur_seconds": 0.45,
          "dur_ticks": 360,
          "note": 56,
          "name": "G#3",
          "velocity": 45,
          "channel": 0,
          "hand": "left",
          "measure": 21,
          "beat": 1.5
        },
        {
          "t_seconds": 54.9,
          "t_ticks": 43920,
          "dur_seconds": 0.45,
          "dur_ticks": 360,
          "note": 68,
          "name": "G#4",
          "velocity": 55,
          "channel": 0,
          "hand": "right",
          "measure": 21,
          "beat": 1.5
        },
        {
          "t_seconds": 54.9,
          "t_ticks": 43920,
          "dur_seconds": 0.45,
          "dur_ticks": 360,
          "note": 80,
          "name": "G#5",
          "velocity": 60,
          "channel": 0,
          "hand": "right",
          "measure": 21,
          "beat": 1.5
        },
        {
          "t_seconds": 55.35,
          "t_ticks": 44280,
          "dur_seconds": 0.45,
          "dur_ticks": 360,
          "note": 61,
          "name": "C#4",
          "velocity": 44,
          "channel": 0,
          "hand": "right",
          "measure": 21,
          "beat": 2.25
        },
        {
          "t_seconds": 55.35,
          "t_ticks": 44280,
          "dur_seconds": 0.45,
          "dur_ticks": 360,
          "note": 73,
          "name": "C#5",
          "velocity": 55,
          "channel": 0,
          "hand": "right",
          "measure": 21,
          "beat": 2.25
        },
        {
          "t_seconds": 55.35,
          "t_ticks": 44280,
          "dur_seconds": 0.45,
          "dur_ticks": 360,
          "note": 85,
          "name": "C#6",
          "velocity": 60,
          "channel": 0,
          "hand": "right",
          "measure": 21,
          "beat": 2.25
        },
        {
          "t_seconds": 55.8,
          "t_ticks": 44640,
          "dur_seconds": 0.45,
          "dur_ticks": 360,
          "note": 58,
          "name": "A#3",
          "velocity": 43,
          "channel": 0,
          "hand": "left",
          "measure": 21,
          "beat": 3
        },
        {
          "t_seconds": 55.8,
          "t_ticks": 44640,
          "dur_seconds": 0.9,
          "dur_ticks": 720,
          "note": 61,
          "name": "C#4",
          "velocity": 43,
          "channel": 0,
          "hand": "right",
          "measure": 21,
          "beat": 3
        },
        {
          "t_seconds": 55.8,
          "t_ticks": 44640,
          "dur_seconds": 0.9,
          "dur_ticks": 720,
          "note": 66,
          "name": "F#4",
          "velocity": 43,
          "channel": 0,
          "hand": "right",
          "measure": 21,
          "beat": 3
        },
        {
          "t_seconds": 55.8,
          "t_ticks": 44640,
          "dur_seconds": 0.45,
          "dur_ticks": 360,
          "note": 70,
          "name": "A#4",
          "velocity": 44,
          "channel": 0,
          "hand": "right",
          "measure": 21,
          "beat": 3
        },
        {
          "t_seconds": 55.8,
          "t_ticks": 44640,
          "dur_seconds": 0.9,
          "dur_ticks": 720,
          "note": 78,
          "name": "F#5",
          "velocity": 52,
          "channel": 0,
          "hand": "right",
          "measure": 21,
          "beat": 3
        },
        {
          "t_seconds": 55.8,
          "t_ticks": 44640,
          "dur_seconds": 0.45,
          "dur_ticks": 360,
          "note": 82,
          "name": "A#5",
          "velocity": 57,
          "channel": 0,
          "hand": "right",
          "measure": 21,
          "beat": 3
        },
        {
          "t_seconds": 56.25,
          "t_ticks": 45000,
          "dur_seconds": 0.45,
          "dur_ticks": 360,
          "note": 54,
          "name": "F#3",
          "velocity": 41,
          "channel": 0,
          "hand": "left",
          "measure": 21,
          "beat": 3.75
        },
        {
          "t_seconds": 56.25,
          "t_ticks": 45000,
          "dur_seconds": 0.45,
          "dur_ticks": 360,
          "note": 66,
          "name": "F#4",
          "velocity": 48,
          "channel": 0,
          "hand": "right",
          "measure": 21,
          "beat": 3.75
        },
        {
          "t_seconds": 56.25,
          "t_ticks": 45000,
          "dur_seconds": 0.45,
          "dur_ticks": 360,
          "note": 78,
          "name": "F#5",
          "velocity": 52,
          "channel": 0,
          "hand": "right",
          "measure": 21,
          "beat": 3.75
        },
        {
          "t_seconds": 56.7,
          "t_ticks": 45360,
          "dur_seconds": 1.8,
          "dur_ticks": 1440,
          "note": 36,
          "name": "C2",
          "velocity": 38,
          "channel": 0,
          "hand": "left",
          "measure": 22,
          "beat": 0
        },
        {
          "t_seconds": 56.7,
          "t_ticks": 45360,
          "dur_seconds": 1.8,
          "dur_ticks": 1440,
          "note": 48,
          "name": "C3",
          "velocity": 45,
          "channel": 0,
          "hand": "left",
          "measure": 22,
          "beat": 0
        },
        {
          "t_seconds": 57,
          "t_ticks": 45600,
          "dur_seconds": 0.3,
          "dur_ticks": 240,
          "note": 54,
          "name": "F#3",
          "velocity": 33,
          "channel": 0,
          "hand": "left",
          "measure": 22,
          "beat": 0.5
        },
        {
          "t_seconds": 57,
          "t_ticks": 45600,
          "dur_seconds": 0.3,
          "dur_ticks": 240,
          "note": 58,
          "name": "A#3",
          "velocity": 33,
          "channel": 0,
          "hand": "left",
          "measure": 22,
          "beat": 0.5
        },
        {
          "t_seconds": 57,
          "t_ticks": 45600,
          "dur_seconds": 0.3,
          "dur_ticks": 240,
          "note": 63,
          "name": "D#4",
          "velocity": 33,
          "channel": 0,
          "hand": "right",
          "measure": 22,
          "beat": 0.5
        },
        {
          "t_seconds": 57,
          "t_ticks": 45600,
          "dur_seconds": 0.3,
          "dur_ticks": 240,
          "note": 66,
          "name": "F#4",
          "velocity": 39,
          "channel": 0,
          "hand": "right",
          "measure": 22,
          "beat": 0.5
        },
        {
          "t_seconds": 57,
          "t_ticks": 45600,
          "dur_seconds": 0.3,
          "dur_ticks": 240,
          "note": 70,
          "name": "A#4",
          "velocity": 39,
          "channel": 0,
          "hand": "right",
          "measure": 22,
          "beat": 0.5
        },
        {
          "t_seconds": 57,
          "t_ticks": 45600,
          "dur_seconds": 0.3,
          "dur_ticks": 240,
          "note": 75,
          "name": "D#5",
          "velocity": 39,
          "channel": 0,
          "hand": "right",
          "measure": 22,
          "beat": 0.5
        },
        {
          "t_seconds": 57,
          "t_ticks": 45600,
          "dur_seconds": 0.3,
          "dur_ticks": 240,
          "note": 78,
          "name": "F#5",
          "velocity": 42,
          "channel": 0,
          "hand": "right",
          "measure": 22,
          "beat": 0.5
        },
        {
          "t_seconds": 57.3,
          "t_ticks": 45840,
          "dur_seconds": 0.2875,
          "dur_ticks": 230,
          "note": 54,
          "name": "F#3",
          "velocity": 33,
          "channel": 0,
          "hand": "left",
          "measure": 22,
          "beat": 1
        },
        {
          "t_seconds": 57.3,
          "t_ticks": 45840,
          "dur_seconds": 0.2875,
          "dur_ticks": 230,
          "note": 58,
          "name": "A#3",
          "velocity": 33,
          "channel": 0,
          "hand": "left",
          "measure": 22,
          "beat": 1
        },
        {
          "t_seconds": 57.3,
          "t_ticks": 45840,
          "dur_seconds": 0.2875,
          "dur_ticks": 230,
          "note": 63,
          "name": "D#4",
          "velocity": 33,
          "channel": 0,
          "hand": "right",
          "measure": 22,
          "beat": 1
        },
        {
          "t_seconds": 57.3,
          "t_ticks": 45840,
          "dur_seconds": 0.2875,
          "dur_ticks": 230,
          "note": 66,
          "name": "F#4",
          "velocity": 39,
          "channel": 0,
          "hand": "right",
          "measure": 22,
          "beat": 1
        },
        {
          "t_seconds": 57.3,
          "t_ticks": 45840,
          "dur_seconds": 0.3,
          "dur_ticks": 240,
          "note": 70,
          "name": "A#4",
          "velocity": 39,
          "channel": 0,
          "hand": "right",
          "measure": 22,
          "beat": 1
        },
        {
          "t_seconds": 57.3,
          "t_ticks": 45840,
          "dur_seconds": 0.2875,
          "dur_ticks": 230,
          "note": 75,
          "name": "D#5",
          "velocity": 39,
          "channel": 0,
          "hand": "right",
          "measure": 22,
          "beat": 1
        },
        {
          "t_seconds": 57.3,
          "t_ticks": 45840,
          "dur_seconds": 0.2875,
          "dur_ticks": 230,
          "note": 78,
          "name": "F#5",
          "velocity": 42,
          "channel": 0,
          "hand": "right",
          "measure": 22,
          "beat": 1
        },
        {
          "t_seconds": 57.6,
          "t_ticks": 46080,
          "dur_seconds": 0.3,
          "dur_ticks": 240,
          "note": 54,
          "name": "F#3",
          "velocity": 35,
          "channel": 0,
          "hand": "left",
          "measure": 22,
          "beat": 1.5
        },
        {
          "t_seconds": 57.6,
          "t_ticks": 46080,
          "dur_seconds": 0.3,
          "dur_ticks": 240,
          "note": 58,
          "name": "A#3",
          "velocity": 35,
          "channel": 0,
          "hand": "left",
          "measure": 22,
          "beat": 1.5
        },
        {
          "t_seconds": 57.6,
          "t_ticks": 46080,
          "dur_seconds": 0.3,
          "dur_ticks": 240,
          "note": 63,
          "name": "D#4",
          "velocity": 35,
          "channel": 0,
          "hand": "right",
          "measure": 22,
          "beat": 1.5
        },
        {
          "t_seconds": 57.6,
          "t_ticks": 46080,
          "dur_seconds": 0.3,
          "dur_ticks": 240,
          "note": 66,
          "name": "F#4",
          "velocity": 42,
          "channel": 0,
          "hand": "right",
          "measure": 22,
          "beat": 1.5
        },
        {
          "t_seconds": 57.6,
          "t_ticks": 46080,
          "dur_seconds": 0.3,
          "dur_ticks": 240,
          "note": 70,
          "name": "A#4",
          "velocity": 42,
          "channel": 0,
          "hand": "right",
          "measure": 22,
          "beat": 1.5
        },
        {
          "t_seconds": 57.6,
          "t_ticks": 46080,
          "dur_seconds": 0.3,
          "dur_ticks": 240,
          "note": 75,
          "name": "D#5",
          "velocity": 42,
          "channel": 0,
          "hand": "right",
          "measure": 22,
          "beat": 1.5
        },
        {
          "t_seconds": 57.6,
          "t_ticks": 46080,
          "dur_seconds": 0.3,
          "dur_ticks": 240,
          "note": 78,
          "name": "F#5",
          "velocity": 46,
          "channel": 0,
          "hand": "right",
          "measure": 22,
          "beat": 1.5
        },
        {
          "t_seconds": 57.9,
          "t_ticks": 46320,
          "dur_seconds": 0.275,
          "dur_ticks": 220,
          "note": 54,
          "name": "F#3",
          "velocity": 34,
          "channel": 0,
          "hand": "left",
          "measure": 22,
          "beat": 2
        },
        {
          "t_seconds": 57.9,
          "t_ticks": 46320,
          "dur_seconds": 0.275,
          "dur_ticks": 220,
          "note": 58,
          "name": "A#3",
          "velocity": 34,
          "channel": 0,
          "hand": "left",
          "measure": 22,
          "beat": 2
        },
        {
          "t_seconds": 57.9,
          "t_ticks": 46320,
          "dur_seconds": 0.275,
          "dur_ticks": 220,
          "note": 63,
          "name": "D#4",
          "velocity": 34,
          "channel": 0,
          "hand": "right",
          "measure": 22,
          "beat": 2
        },
        {
          "t_seconds": 57.9,
          "t_ticks": 46320,
          "dur_seconds": 0.275,
          "dur_ticks": 220,
          "note": 66,
          "name": "F#4",
          "velocity": 40,
          "channel": 0,
          "hand": "right",
          "measure": 22,
          "beat": 2
        },
        {
          "t_seconds": 57.9,
          "t_ticks": 46320,
          "dur_seconds": 0.275,
          "dur_ticks": 220,
          "note": 70,
          "name": "A#4",
          "velocity": 40,
          "channel": 0,
          "hand": "right",
          "measure": 22,
          "beat": 2
        },
        {
          "t_seconds": 57.9,
          "t_ticks": 46320,
          "dur_seconds": 0.275,
          "dur_ticks": 220,
          "note": 75,
          "name": "D#5",
          "velocity": 40,
          "channel": 0,
          "hand": "right",
          "measure": 22,
          "beat": 2
        },
        {
          "t_seconds": 57.9,
          "t_ticks": 46320,
          "dur_seconds": 0.275,
          "dur_ticks": 220,
          "note": 78,
          "name": "F#5",
          "velocity": 44,
          "channel": 0,
          "hand": "right",
          "measure": 22,
          "beat": 2
        },
        {
          "t_seconds": 58.2,
          "t_ticks": 46560,
          "dur_seconds": 0.3,
          "dur_ticks": 240,
          "note": 56,
          "name": "G#3",
          "velocity": 36,
          "channel": 0,
          "hand": "left",
          "measure": 22,
          "beat": 2.5
        },
        {
          "t_seconds": 58.2,
          "t_ticks": 46560,
          "dur_seconds": 0.3,
          "dur_ticks": 240,
          "note": 60,
          "name": "C4",
          "velocity": 36,
          "channel": 0,
          "hand": "right",
          "measure": 22,
          "beat": 2.5
        },
        {
          "t_seconds": 58.2,
          "t_ticks": 46560,
          "dur_seconds": 0.3,
          "dur_ticks": 240,
          "note": 65,
          "name": "F4",
          "velocity": 36,
          "channel": 0,
          "hand": "right",
          "measure": 22,
          "beat": 2.5
        },
        {
          "t_seconds": 58.2,
          "t_ticks": 46560,
          "dur_seconds": 0.3,
          "dur_ticks": 240,
          "note": 68,
          "name": "G#4",
          "velocity": 43,
          "channel": 0,
          "hand": "right",
          "measure": 22,
          "beat": 2.5
        },
        {
          "t_seconds": 58.2,
          "t_ticks": 46560,
          "dur_seconds": 0.3,
          "dur_ticks": 240,
          "note": 72,
          "name": "C5",
          "velocity": 43,
          "channel": 0,
          "hand": "right",
          "measure": 22,
          "beat": 2.5
        },
        {
          "t_seconds": 58.2,
          "t_ticks": 46560,
          "dur_seconds": 0.3,
          "dur_ticks": 240,
          "note": 77,
          "name": "F5",
          "velocity": 43,
          "channel": 0,
          "hand": "right",
          "measure": 22,
          "beat": 2.5
        },
        {
          "t_seconds": 58.2,
          "t_ticks": 46560,
          "dur_seconds": 0.3,
          "dur_ticks": 240,
          "note": 80,
          "name": "G#5",
          "velocity": 47,
          "channel": 0,
          "hand": "right",
          "measure": 22,
          "beat": 2.5
        },
        {
          "t_seconds": 58.5,
          "t_ticks": 46800,
          "dur_seconds": 0.9,
          "dur_ticks": 720,
          "note": 54,
          "name": "F#3",
          "velocity": 35,
          "channel": 0,
          "hand": "left",
          "measure": 22,
          "beat": 3
        },
        {
          "t_seconds": 58.5,
          "t_ticks": 46800,
          "dur_seconds": 0.9,
          "dur_ticks": 720,
          "note": 58,
          "name": "A#3",
          "velocity": 35,
          "channel": 0,
          "hand": "left",
          "measure": 22,
          "beat": 3
        },
        {
          "t_seconds": 58.5,
          "t_ticks": 46800,
          "dur_seconds": 0.9,
          "dur_ticks": 720,
          "note": 63,
          "name": "D#4",
          "velocity": 35,
          "channel": 0,
          "hand": "right",
          "measure": 22,
          "beat": 3
        },
        {
          "t_seconds": 58.5,
          "t_ticks": 46800,
          "dur_seconds": 0.9,
          "dur_ticks": 720,
          "note": 66,
          "name": "F#4",
          "velocity": 42,
          "channel": 0,
          "hand": "right",
          "measure": 22,
          "beat": 3
        },
        {
          "t_seconds": 58.5,
          "t_ticks": 46800,
          "dur_seconds": 0.9,
          "dur_ticks": 720,
          "note": 70,
          "name": "A#4",
          "velocity": 42,
          "channel": 0,
          "hand": "right",
          "measure": 22,
          "beat": 3
        },
        {
          "t_seconds": 58.5,
          "t_ticks": 46800,
          "dur_seconds": 0.9,
          "dur_ticks": 720,
          "note": 75,
          "name": "D#5",
          "velocity": 42,
          "channel": 0,
          "hand": "right",
          "measure": 22,
          "beat": 3
        },
        {
          "t_seconds": 58.5,
          "t_ticks": 46800,
          "dur_seconds": 0.9,
          "dur_ticks": 720,
          "note": 78,
          "name": "F#5",
          "velocity": 46,
          "channel": 0,
          "hand": "right",
          "measure": 22,
          "beat": 3
        }
      ]
    },
    "tokens_remi": [
      "Bar_19",
      "Position_0",
      "Pitch_32",
      "Velocity_32",
      "Duration_12",
      "Pitch_44",
      "Velocity_40",
      "Duration_12",
      "Position_16",
      "Pitch_54",
      "Velocity_48",
      "Duration_3",
      "Pitch_66",
      "Velocity_48",
      "Duration_3",
      "Pitch_78",
      "Velocity_48",
      "Duration_3",
      "Position_32",
      "Pitch_56",
      "Velocity_36",
      "Duration_3",
      "Pitch_60",
      "Velocity_32",
      "Duration_6",
      "Pitch_63",
      "Velocity_36",
      "Duration_6",
      "Pitch_68",
      "Velocity_44",
      "Duration_3",
      "Pitch_75",
      "Velocity_44",
      "Duration_3",
      "Pitch_80",
      "Velocity_44",
      "Duration_3",
      "Position_48",
      "Pitch_60",
      "Velocity_48",
      "Duration_3",
      "Pitch_72",
      "Velocity_48",
      "Duration_3",
      "Pitch_84",
      "Velocity_48",
      "Duration_3",
      "Position_64",
      "Pitch_58",
      "Velocity_36",
      "Duration_3",
      "Pitch_63",
      "Velocity_32",
      "Duration_6",
      "Pitch_66",
      "Velocity_40",
      "Duration_6",
      "Pitch_70",
      "Velocity_44",
      "Duration_3",
      "Pitch_78",
      "Velocity_44",
      "Duration_3",
      "Pitch_82",
      "Velocity_48",
      "Duration_3",
      "Position_80",
      "Pitch_54",
      "Velocity_44",
      "Duration_3",
      "Pitch_66",
      "Velocity_44",
      "Duration_3",
      "Pitch_78",
      "Velocity_44",
      "Duration_3",
      "Bar_20",
      "Position_0",
      "Pitch_33",
      "Velocity_32",
      "Duration_12",
      "Pitch_45",
      "Velocity_40",
      "Duration_12",
      "Position_11",
      "Pitch_54",
      "Velocity_28",
      "Duration_2",
      "Pitch_60",
      "Velocity_28",
      "Duration_2",
      "Pitch_63",
      "Velocity_28",
      "Duration_2",
      "Pitch_66",
      "Velocity_36",
      "Duration_2",
      "Pitch_72",
      "Velocity_36",
      "Duration_2",
      "Pitch_75",
      "Velocity_36",
      "Duration_2",
      "Pitch_78",
      "Velocity_36",
      "Duration_2",
      "Position_21",
      "Pitch_54",
      "Velocity_28",
      "Duration_2",
      "Pitch_60",
      "Velocity_28",
      "Duration_2",
      "Pitch_63",
      "Velocity_28",
      "Duration_2",
      "Pitch_66",
      "Velocity_36",
      "Duration_2",
      "Pitch_72",
      "Velocity_36",
      "Duration_2",
      "Pitch_75",
      "Velocity_36",
      "Duration_2",
      "Pitch_78",
      "Velocity_36",
      "Duration_2",
      "Position_32",
      "Pitch_54",
      "Velocity_32",
      "Duration_2",
      "Pitch_60",
      "Velocity_32",
      "Duration_2",
      "Pitch_63",
      "Velocity_32",
      "Duration_2",
      "Pitch_66",
      "Velocity_36",
      "Duration_2",
      "Pitch_72",
      "Velocity_36",
      "Duration_2",
      "Pitch_75",
      "Velocity_36",
      "Duration_2",
      "Pitch_78",
      "Velocity_40",
      "Duration_2",
      "Position_43",
      "Pitch_54",
      "Velocity_28",
      "Duration_2",
      "Pitch_60",
      "Velocity_28",
      "Duration_2",
      "Pitch_63",
      "Velocity_28",
      "Duration_2",
      "Pitch_66",
      "Velocity_36",
      "Duration_2",
      "Pitch_72",
      "Velocity_36",
      "Duration_2",
      "Pitch_75",
      "Velocity_36",
      "Duration_2",
      "Pitch_78",
      "Velocity_40",
      "Duration_2",
      "Position_53",
      "Pitch_56",
      "Velocity_32",
      "Duration_2",
      "Pitch_60",
      "Velocity_32",
      "Duration_2",
      "Pitch_63",
      "Velocity_32",
      "Duration_2",
      "Pitch_68",
      "Velocity_40",
      "Duration_2",
      "Pitch_72",
      "Velocity_40",
      "Duration_2",
      "Pitch_75",
      "Velocity_40",
      "Duration_2",
      "Pitch_80",
      "Velocity_44",
      "Duration_2",
      "Position_64",
      "Pitch_54",
      "Velocity_32",
      "Duration_6",
      "Pitch_60",
      "Velocity_32",
      "Duration_6",
      "Pitch_63",
      "Velocity_32",
      "Duration_6",
      "Pitch_66",
      "Velocity_36",
      "Duration_6",
      "Pitch_72",
      "Velocity_36",
      "Duration_6",
      "Pitch_75",
      "Velocity_36",
      "Duration_6",
      "Pitch_78",
      "Velocity_40",
      "Duration_6",
      "Bar_21",
      "Position_0",
      "Pitch_34",
      "Velocity_36",
      "Duration_12",
      "Pitch_46",
      "Velocity_44",
      "Duration_12",
      "Position_16",
      "Pitch_54",
      "Velocity_40",
      "Duration_3",
      "Pitch_58",
      "Velocity_36",
      "Duration_6",
      "Pitch_61",
      "Velocity_36",
      "Duration_6",
      "Pitch_66",
      "Velocity_40",
      "Duration_3",
      "Pitch_73",
      "Velocity_44",
      "Duration_6",
      "Pitch_78",
      "Velocity_52",
      "Duration_3",
      "Position_32",
      "Pitch_56",
      "Velocity_44",
      "Duration_3",
      "Pitch_68",
      "Velocity_52",
      "Duration_3",
      "Pitch_80",
      "Velocity_60",
      "Duration_3",
      "Position_48",
      "Pitch_61",
      "Velocity_44",
      "Duration_3",
      "Pitch_73",
      "Velocity_52",
      "Duration_3",
      "Pitch_85",
      "Velocity_60",
      "Duration_3",
      "Position_64",
      "Pitch_58",
      "Velocity_40",
      "Duration_3",
      "Pitch_61",
      "Velocity_40",
      "Duration_6",
      "Pitch_66",
      "Velocity_40",
      "Duration_6",
      "Pitch_70",
      "Velocity_44",
      "Duration_3",
      "Pitch_78",
      "Velocity_52",
      "Duration_6",
      "Pitch_82",
      "Velocity_56",
      "Duration_3",
      "Position_80",
      "Pitch_54",
      "Velocity_40",
      "Duration_3",
      "Pitch_66",
      "Velocity_48",
      "Duration_3",
      "Pitch_78",
      "Velocity_52",
      "Duration_3",
      "Bar_22",
      "Position_0",
      "Pitch_36",
      "Velocity_36",
      "Duration_12",
      "Pitch_48",
      "Velocity_44",
      "Duration_12",
      "Position_11",
      "Pitch_54",
      "Velocity_32",
      "Duration_2",
      "Pitch_58",
      "Velocity_32",
      "Duration_2",
      "Pitch_63",
      "Velocity_32",
      "Duration_2",
      "Pitch_66",
      "Velocity_36",
      "Duration_2",
      "Pitch_70",
      "Velocity_36",
      "Duration_2",
      "Pitch_75",
      "Velocity_36",
      "Duration_2",
      "Pitch_78",
      "Velocity_40",
      "Duration_2",
      "Position_21",
      "Pitch_54",
      "Velocity_32",
      "Duration_2",
      "Pitch_58",
      "Velocity_32",
      "Duration_2",
      "Pitch_63",
      "Velocity_32",
      "Duration_2",
      "Pitch_66",
      "Velocity_36",
      "Duration_2",
      "Pitch_70",
      "Velocity_36",
      "Duration_2",
      "Pitch_75",
      "Velocity_36",
      "Duration_2",
      "Pitch_78",
      "Velocity_40",
      "Duration_2",
      "Position_32",
      "Pitch_54",
      "Velocity_32",
      "Duration_2",
      "Pitch_58",
      "Velocity_32",
      "Duration_2",
      "Pitch_63",
      "Velocity_32",
      "Duration_2",
      "Pitch_66",
      "Velocity_40",
      "Duration_2",
      "Pitch_70",
      "Velocity_40",
      "Duration_2",
      "Pitch_75",
      "Velocity_40",
      "Duration_2",
      "Pitch_78",
      "Velocity_44",
      "Duration_2",
      "Position_43",
      "Pitch_54",
      "Velocity_32",
      "Duration_2",
      "Pitch_58",
      "Velocity_32",
      "Duration_2",
      "Pitch_63",
      "Velocity_32",
      "Duration_2",
      "Pitch_66",
      "Velocity_40",
      "Duration_2",
      "Pitch_70",
      "Velocity_40",
      "Duration_2",
      "Pitch_75",
      "Velocity_40",
      "Duration_2",
      "Pitch_78",
      "Velocity_44",
      "Duration_2",
      "Position_53",
      "Pitch_56",
      "Velocity_36",
      "Duration_2",
      "Pitch_60",
      "Velocity_36",
      "Duration_2",
      "Pitch_65",
      "Velocity_36",
      "Duration_2",
      "Pitch_68",
      "Velocity_40",
      "Duration_2",
      "Pitch_72",
      "Velocity_40",
      "Duration_2",
      "Pitch_77",
      "Velocity_40",
      "Duration_2",
      "Pitch_80",
      "Velocity_44",
      "Duration_2",
      "Position_64",
      "Pitch_54",
      "Velocity_32",
      "Duration_6",
      "Pitch_58",
      "Velocity_32",
      "Duration_6",
      "Pitch_63",
      "Velocity_32",
      "Duration_6",
      "Pitch_66",
      "Velocity_40",
      "Duration_6",
      "Pitch_70",
      "Velocity_40",
      "Duration_6",
      "Pitch_75",
      "Velocity_40",
      "Duration_6",
      "Pitch_78",
      "Velocity_44",
      "Duration_6"
    ],
    "tokens_abc": "X:1\nT:Clair de Lune (Suite bergamasque, III) (mm. 19–22)\nM:9/8\nL:1/16\nQ:1/4=100\nK:Db\n|z2_g2_a2c'2_b2_g2|z_g_g_g_g_a_g3|z2_g2_a2_d'2_b2_g2|z_g_g_g_g_a_g3|\n",
    "piano_roll_svg_path": "pianoroll/clair-de-lune-m019-022.svg",
    "piano_roll_svg_inline": "<svg xmlns=\"http://www.w3.org/2000/svg\" width=\"1150\" height=\"210\" viewBox=\"0 0 1150 210\">\n<style>\n  text { font-family: 'Consolas', 'SF Mono', 'Fira Code', monospace; }\n  .note-rh { fill: #4a9eff; stroke: #3580cc; stroke-width: 0.5; rx: 2; ry: 2; }\n  .note-lh { fill: #ff6b8a; stroke: #cc5570; stroke-width: 0.5; rx: 2; ry: 2; }\n  .note-rh:hover { opacity: 0.85; }\n  .note-lh:hover { opacity: 0.85; }\n</style>\n<rect width=\"1150\" height=\"210\" fill=\"#1a1a2e\"/>\n<text x=\"60\" y=\"26\" fill=\"#ddddee\" font-size=\"16\" font-weight=\"bold\">Clair de Lune (Suite bergamasque, III) — Claude Debussy</text>\n<text x=\"60\" y=\"42\" fill=\"#8888aa\" font-size=\"11\">Db major | 100 BPM | 9/8 | m.19–22</text>\n<rect x=\"60\" y=\"150\" width=\"1080\" height=\"10\" fill=\"#151526\" opacity=\"0.5\"/>\n<rect x=\"60\" y=\"120\" width=\"1080\" height=\"10\" fill=\"#151526\" opacity=\"0.5\"/>\n<rect x=\"60\" y=\"100\" width=\"1080\" height=\"10\" fill=\"#151526\" opacity=\"0.5\"/>\n<rect x=\"60\" y=\"80\" width=\"1080\" height=\"10\" fill=\"#151526\" opacity=\"0.5\"/>\n<rect x=\"60\" y=\"50\" width=\"1080\" height=\"10\" fill=\"#151526\" opacity=\"0.5\"/>\n<line x1=\"60\" y1=\"150\" x2=\"1140\" y2=\"150\" stroke=\"#2a2a3e\" stroke-width=\"0.3\"/>\n<line x1=\"60\" y1=\"140\" x2=\"1140\" y2=\"140\" stroke=\"#2a2a3e\" stroke-width=\"0.3\"/>\n<line x1=\"60\" y1=\"130\" x2=\"1140\" y2=\"130\" stroke=\"#2a2a3e\" stroke-width=\"0.3\"/>\n<line x1=\"60\" y1=\"120\" x2=\"1140\" y2=\"120\" stroke=\"#2a2a3e\" stroke-width=\"0.3\"/>\n<line x1=\"60\" y1=\"110\" x2=\"1140\" y2=\"110\" stroke=\"#2a2a3e\" stroke-width=\"0.3\"/>\n<line x1=\"60\" y1=\"100\" x2=\"1140\" y2=\"100\" stroke=\"#2a2a3e\" stroke-width=\"0.3\"/>\n<line x1=\"60\" y1=\"90\" x2=\"1140\" y2=\"90\" stroke=\"#2a2a3e\" stroke-width=\"0.3\"/>\n<line x1=\"60\" y1=\"80\" x2=\"1140\" y2=\"80\" stroke=\"#2a2a3e\" stroke-width=\"0.3\"/>\n<line x1=\"60\" y1=\"70\" x2=\"1140\" y2=\"70\" stroke=\"#2a2a3e\" stroke-width=\"0.3\"/>\n<line x1=\"60\" y1=\"60\" x2=\"1140\" y2=\"60\" stroke=\"#3a3a5e\" stroke-width=\"1\"/>\n<line x1=\"60\" y1=\"50\" x2=\"1140\" y2=\"50\" stroke=\"#2a2a3e\" stroke-width=\"0.3\"/>\n<line x1=\"60\" y1=\"50\" x2=\"60\" y2=\"160\" stroke=\"#3a3a5e\" stroke-width=\"1.5\"/>\n<line x1=\"90\" y1=\"50\" x2=\"90\" y2=\"160\" stroke=\"#2a2a3e\" stroke-width=\"0.3\" stroke-dasharray=\"2,3\"/>\n<line x1=\"120\" y1=\"50\" x2=\"120\" y2=\"160\" stroke=\"#2a2a3e\" stroke-width=\"0.3\" stroke-dasharray=\"2,3\"/>\n<line x1=\"150\" y1=\"50\" x2=\"150\" y2=\"160\" stroke=\"#2a2a3e\" stroke-width=\"0.3\" stroke-dasharray=\"2,3\"/>\n<line x1=\"180\" y1=\"50\" x2=\"180\" y2=\"160\" stroke=\"#2a2a3e\" stroke-width=\"0.3\" stroke-dasharray=\"2,3\"/>\n<line x1=\"210\" y1=\"50\" x2=\"210\" y2=\"160\" stroke=\"#2a2a3e\" stroke-width=\"0.3\" stroke-dasharray=\"2,3\"/>\n<line x1=\"240\" y1=\"50\" x2=\"240\" y2=\"160\" stroke=\"#2a2a3e\" stroke-width=\"0.3\" stroke-dasharray=\"2,3\"/>\n<line x1=\"270\" y1=\"50\" x2=\"270\" y2=\"160\" stroke=\"#2a2a3e\" stroke-width=\"0.3\" stroke-dasharray=\"2,3\"/>\n<line x1=\"300\" y1=\"50\" x2=\"300\" y2=\"160\" stroke=\"#2a2a3e\" stroke-width=\"0.3\" stroke-dasharray=\"2,3\"/>\n<line x1=\"330\" y1=\"50\" x2=\"330\" y2=\"160\" stroke=\"#3a3a5e\" stroke-width=\"1.5\"/>\n<line x1=\"360\" y1=\"50\" x2=\"360\" y2=\"160\" stroke=\"#2a2a3e\" stroke-width=\"0.3\" stroke-dasharray=\"2,3\"/>\n<line x1=\"390\" y1=\"50\" x2=\"390\" y2=\"160\" stroke=\"#2a2a3e\" stroke-width=\"0.3\" stroke-dasharray=\"2,3\"/>\n<line x1=\"420\" y1=\"50\" x2=\"420\" y2=\"160\" stroke=\"#2a2a3e\" stroke-width=\"0.3\" stroke-dasharray=\"2,3\"/>\n<line x1=\"450\" y1=\"50\" x2=\"450\" y2=\"160\" stroke=\"#2a2a3e\" stroke-width=\"0.3\" stroke-dasharray=\"2,3\"/>\n<line x1=\"480\" y1=\"50\" x2=\"480\" y2=\"160\" stroke=\"#2a2a3e\" stroke-width=\"0.3\" stroke-dasharray=\"2,3\"/>\n<line x1=\"510\" y1=\"50\" x2=\"510\" y2=\"160\" stroke=\"#2a2a3e\" stroke-width=\"0.3\" stroke-dasharray=\"2,3\"/>\n<line x1=\"540\" y1=\"50\" x2=\"540\" y2=\"160\" stroke=\"#2a2a3e\" stroke-width=\"0.3\" stroke-dasharray=\"2,3\"/>\n<line x1=\"570\" y1=\"50\" x2=\"570\" y2=\"160\" stroke=\"#2a2a3e\" stroke-width=\"0.3\" stroke-dasharray=\"2,3\"/>\n<line x1=\"600\" y1=\"50\" x2=\"600\" y2=\"160\" stroke=\"#3a3a5e\" stroke-width=\"1.5\"/>\n<line x1=\"630\" y1=\"50\" x2=\"630\" y2=\"160\" stroke=\"#2a2a3e\" stroke-width=\"0.3\" stroke-dasharray=\"2,3\"/>\n<line x1=\"660\" y1=\"50\" x2=\"660\" y2=\"160\" stroke=\"#2a2a3e\" stroke-width=\"0.3\" stroke-dasharray=\"2,3\"/>\n<line x1=\"690\" y1=\"50\" x2=\"690\" y2=\"160\" stroke=\"#2a2a3e\" stroke-width=\"0.3\" stroke-dasharray=\"2,3\"/>\n<line x1=\"720\" y1=\"50\" x2=\"720\" y2=\"160\" stroke=\"#2a2a3e\" stroke-width=\"0.3\" stroke-dasharray=\"2,3\"/>\n<line x1=\"750\" y1=\"50\" x2=\"750\" y2=\"160\" stroke=\"#2a2a3e\" stroke-width=\"0.3\" stroke-dasharray=\"2,3\"/>\n<line x1=\"780\" y1=\"50\" x2=\"780\" y2=\"160\" stroke=\"#2a2a3e\" stroke-width=\"0.3\" stroke-dasharray=\"2,3\"/>\n<line x1=\"810\" y1=\"50\" x2=\"810\" y2=\"160\" stroke=\"#2a2a3e\" stroke-width=\"0.3\" stroke-dasharray=\"2,3\"/>\n<line x1=\"840\" y1=\"50\" x2=\"840\" y2=\"160\" stroke=\"#2a2a3e\" stroke-width=\"0.3\" stroke-dasharray=\"2,3\"/>\n<line x1=\"870\" y1=\"50\" x2=\"870\" y2=\"160\" stroke=\"#3a3a5e\" stroke-width=\"1.5\"/>\n<line x1=\"900\" y1=\"50\" x2=\"900\" y2=\"160\" stroke=\"#2a2a3e\" stroke-width=\"0.3\" stroke-dasharray=\"2,3\"/>\n<line x1=\"930\" y1=\"50\" x2=\"930\" y2=\"160\" stroke=\"#2a2a3e\" stroke-width=\"0.3\" stroke-dasharray=\"2,3\"/>\n<line x1=\"960\" y1=\"50\" x2=\"960\" y2=\"160\" stroke=\"#2a2a3e\" stroke-width=\"0.3\" stroke-dasharray=\"2,3\"/>\n<line x1=\"990\" y1=\"50\" x2=\"990\" y2=\"160\" stroke=\"#2a2a3e\" stroke-width=\"0.3\" stroke-dasharray=\"2,3\"/>\n<line x1=\"1020\" y1=\"50\" x2=\"1020\" y2=\"160\" stroke=\"#2a2a3e\" stroke-width=\"0.3\" stroke-dasharray=\"2,3\"/>\n<line x1=\"1050\" y1=\"50\" x2=\"1050\" y2=\"160\" stroke=\"#2a2a3e\" stroke-width=\"0.3\" stroke-dasharray=\"2,3\"/>\n<line x1=\"1080\" y1=\"50\" x2=\"1080\" y2=\"160\" stroke=\"#2a2a3e\" stroke-width=\"0.3\" stroke-dasharray=\"2,3\"/>\n<line x1=\"1110\" y1=\"50\" x2=\"1110\" y2=\"160\" stroke=\"#2a2a3e\" stroke-width=\"0.3\" stroke-dasharray=\"2,3\"/>\n<line x1=\"1140\" y1=\"50\" x2=\"1140\" y2=\"160\" stroke=\"#3a3a5e\" stroke-width=\"1.5\"/>\n<text x=\"56\" y=\"147\" text-anchor=\"end\" fill=\"#666688\" font-size=\"8\" font-weight=\"normal\">E3</text>\n<text x=\"56\" y=\"137\" text-anchor=\"end\" fill=\"#666688\" font-size=\"8\" font-weight=\"normal\">F3</text>\n<text x=\"56\" y=\"117\" text-anchor=\"end\" fill=\"#666688\" font-size=\"8\" font-weight=\"normal\">G3</text>\n<text x=\"56\" y=\"97\" text-anchor=\"end\" fill=\"#666688\" font-size=\"8\" font-weight=\"normal\">A3</text>\n<text x=\"56\" y=\"77\" text-anchor=\"end\" fill=\"#666688\" font-size=\"8\" font-weight=\"normal\">B3</text>\n<text x=\"56\" y=\"67\" text-anchor=\"end\" fill=\"#aaaacc\" font-size=\"10\" font-weight=\"bold\">C4</text>\n<rect x=\"240\" y=\"121\" width=\"44\" height=\"8\" fill=\"#ff6b8a\" stroke=\"#cc5570\" stroke-width=\"0.5\" rx=\"2\" ry=\"2\">\n  <title>LH: F#3 (m.19)</title>\n</rect>\n<rect x=\"285\" y=\"101\" width=\"44\" height=\"8\" fill=\"#ff6b8a\" stroke=\"#cc5570\" stroke-width=\"0.5\" rx=\"2\" ry=\"2\">\n  <title>LH: G#3 (m.19)</title>\n</rect>\n<rect x=\"330\" y=\"81\" width=\"44\" height=\"8\" fill=\"#ff6b8a\" stroke=\"#cc5570\" stroke-width=\"0.5\" rx=\"2\" ry=\"2\">\n  <title>LH: A#3 (m.19)</title>\n</rect>\n<rect x=\"375\" y=\"121\" width=\"44\" height=\"8\" fill=\"#ff6b8a\" stroke=\"#cc5570\" stroke-width=\"0.5\" rx=\"2\" ry=\"2\">\n  <title>LH: F#3 (m.19)</title>\n</rect>\n<rect x=\"510\" y=\"121\" width=\"29\" height=\"8\" fill=\"#ff6b8a\" stroke=\"#cc5570\" stroke-width=\"0.5\" rx=\"2\" ry=\"2\">\n  <title>LH: F#3 (m.20)</title>\n</rect>\n<rect x=\"540\" y=\"121\" width=\"29\" height=\"8\" fill=\"#ff6b8a\" stroke=\"#cc5570\" stroke-width=\"0.5\" rx=\"2\" ry=\"2\">\n  <title>LH: F#3 (m.20)</title>\n</rect>\n<rect x=\"570\" y=\"121\" width=\"29\" height=\"8\" fill=\"#ff6b8a\" stroke=\"#cc5570\" stroke-width=\"0.5\" rx=\"2\" ry=\"2\">\n  <title>LH: F#3 (m.20)</title>\n</rect>\n<rect x=\"600\" y=\"121\" width=\"29\" height=\"8\" fill=\"#ff6b8a\" stroke=\"#cc5570\" stroke-width=\"0.5\" rx=\"2\" ry=\"2\">\n  <title>LH: F#3 (m.20)</title>\n</rect>\n<rect x=\"630\" y=\"101\" width=\"29\" height=\"8\" fill=\"#ff6b8a\" stroke=\"#cc5570\" stroke-width=\"0.5\" rx=\"2\" ry=\"2\">\n  <title>LH: G#3 (m.20)</title>\n</rect>\n<rect x=\"660\" y=\"121\" width=\"89\" height=\"8\" fill=\"#ff6b8a\" stroke=\"#cc5570\" stroke-width=\"0.5\" rx=\"2\" ry=\"2\">\n  <title>LH: F#3 (m.20)</title>\n</rect>\n<rect x=\"870\" y=\"101\" width=\"44\" height=\"8\" fill=\"#ff6b8a\" stroke=\"#cc5570\" stroke-width=\"0.5\" rx=\"2\" ry=\"2\">\n  <title>LH: G#3 (m.21)</title>\n</rect>\n<rect x=\"915\" y=\"81\" width=\"44\" height=\"8\" fill=\"#ff6b8a\" stroke=\"#cc5570\" stroke-width=\"0.5\" rx=\"2\" ry=\"2\">\n  <title>LH: A#3 (m.21)</title>\n</rect>\n<rect x=\"960\" y=\"121\" width=\"44\" height=\"8\" fill=\"#ff6b8a\" stroke=\"#cc5570\" stroke-width=\"0.5\" rx=\"2\" ry=\"2\">\n  <title>LH: F#3 (m.21)</title>\n</rect>\n<rect x=\"1170\" y=\"101\" width=\"29\" height=\"8\" fill=\"#ff6b8a\" stroke=\"#cc5570\" stroke-width=\"0.5\" rx=\"2\" ry=\"2\">\n  <title>LH: G#3 (m.22)</title>\n</rect>\n<text x=\"195\" y=\"176\" text-anchor=\"middle\" fill=\"#8888aa\" font-size=\"10\">19</text>\n<text x=\"465\" y=\"176\" text-anchor=\"middle\" fill=\"#8888aa\" font-size=\"10\">20</text>\n<text x=\"735\" y=\"176\" text-anchor=\"middle\" fill=\"#8888aa\" font-size=\"10\">21</text>\n<text x=\"1005\" y=\"176\" text-anchor=\"middle\" fill=\"#8888aa\" font-size=\"10\">22</text>\n<circle cx=\"64\" cy=\"188\" r=\"3\" fill=\"#ffaa33\"/>\n<circle cx=\"334\" cy=\"188\" r=\"3\" fill=\"#ffaa33\"/>\n<circle cx=\"604\" cy=\"188\" r=\"3\" fill=\"#ffaa33\"/>\n<circle cx=\"874\" cy=\"188\" r=\"3\" fill=\"#ffaa33\"/>\n<rect x=\"1020\" y=\"168\" width=\"8\" height=\"8\" fill=\"#4a9eff\" rx=\"1\"/>\n<text x=\"1032\" y=\"176\" fill=\"#8888aa\" font-size=\"9\">Right Hand</text>\n<rect x=\"1090\" y=\"168\" width=\"8\" height=\"8\" fill=\"#ff6b8a\" rx=\"1\"/>\n<text x=\"1102\" y=\"176\" fill=\"#8888aa\" font-size=\"9\">Left Hand</text>\n</svg>"
  },
  "annotation_target": {
    "measure_range": [
      19,
      22
    ],
    "structure": "Cantabile consequent — emotional summit, melody peaks, mf/f dynamics",
    "key_moments": [
      "m19 melody continues to climb",
      "m21 peak — highest note of phrase",
      "m22 beginning of descent"
    ],
    "teaching_goals": [
      "control the crescendo — don't rush to the peak",
      "the peak must ring, not pound"
    ],
    "style_tips": [
      "mf at peak — not ff. Debussy's restraint is part of the beauty.",
      "begin the descent with a natural decrescendo"
    ],
    "teaching_notes": [
      {
        "measure": 21,
        "note": "The melodic peak: arm weight, not force. Ring, not hammer.",
        "technique": [
          "arm weight at peak",
          "immediate decrescendo after"
        ]
      }
    ]
  },
  "target_trace": {
    "task_family": "analyze-and-play-phrase",
    "objective": "Read mm. 19–22 of Clair de Lune (Suite bergamasque, III) (continuation of mm. 15–18), analyze the musical continuation, play in a loop.",
    "session": [
      {
        "turn": 1,
        "role": "user",
        "content": "Play measures 19–22 and describe how this section reaches its emotional peak."
      },
      {
        "turn": 2,
        "role": "assistant",
        "content": "Let me view the piano roll for mm. 19–22.",
        "tool_calls": [
          {
            "tool": "view_piano_roll",
            "arguments": {
              "songId": "clair-de-lune",
              "startMeasure": 19,
              "endMeasure": 22
            }
          }
        ]
      },
      {
        "turn": 3,
        "role": "tool",
        "tool": "view_piano_roll",
        "content": {
          "svg_returned": true,
          "measures": 4,
          "rh_notes": 100,
          "lh_notes": 34
        }
      },
      {
        "turn": 4,
        "role": "assistant",
        "content": "Measures 19–22 continue and deepen the melody, reaching the emotional summit of the piece. The dynamics build to mf/f, and the melody's arc peaks before beginning its descent. The harmonic richness is maximum here. Let me loop mm. 19–22.",
        "tool_calls": [
          {
            "tool": "play_song",
            "arguments": {
              "id": "clair-de-lune",
              "startMeasure": 19,
              "endMeasure": 22,
              "mode": "loop"
            }
          }
        ]
      },
      {
        "turn": 5,
        "role": "tool",
        "tool": "play_song",
        "content": {
          "playback_started": true,
          "mode": "loop"
        }
      },
      {
        "turn": 6,
        "role": "assistant",
        "content": "Clair de Lune mm. 19–22: emotional summit, melody peaks, harmonic richness at maximum. Continuation from mm. 15–18. Teaching focus: controlled crescendo, dynamic shaping."
      }
    ]
  },
  "eval_metadata": {
    "split": "train",
    "split_strategy": "stratified by (composer, composition_id) with MIDI byte-hash dedup",
    "leakage_check": "pending",
    "eval_eligibility": [
      "E1_tool_use",
      "E2_phrase_continuation",
      "E3_annotation_grounding"
    ],
    "phrase_continuation_eligible": true,
    "phrase_continuation_eligible_reason": "window_role='continuation_target' — gold continuation for prompt clair-de-lune:m015-018:piano:mcp-session:v1."
  }
}
