<svg xmlns="http://www.w3.org/2000/svg" width="790" height="560" viewBox="0 0 790 560">
<style>
  text { font-family: 'Consolas', 'SF Mono', 'Fira Code', monospace; }
  .note-rh { fill: #4a9eff; stroke: #3580cc; stroke-width: 0.5; rx: 3; ry: 3; }
  .note-lh { fill: #ff6b8a; stroke: #cc5570; stroke-width: 0.5; rx: 3; ry: 3; }
  .note-rh:hover { opacity: 0.85; }
  .note-lh:hover { opacity: 0.85; }
</style>
<rect width="790" height="560" fill="#1a1a2e"/>
<text x="60" y="24" fill="#ddddee" font-size="16" font-weight="600" letter-spacing="0.2">Fur Elise (Bagatelle No. 25 in A minor) — Ludwig van Beethoven</text>
<rect x="60.0" y="31" width="57.4" height="15" rx="7" ry="7" fill="#242440" stroke="#3a3a5e" stroke-width="0.5"/>
<text x="88.7" y="42" text-anchor="middle" fill="#8888aa" font-size="10" letter-spacing="0.2">A minor</text>
<rect x="123.4" y="31" width="51.2" height="15" rx="7" ry="7" fill="#242440" stroke="#3a3a5e" stroke-width="0.5"/>
<text x="149.0" y="42" text-anchor="middle" fill="#8888aa" font-size="10" letter-spacing="0.2">69 BPM</text>
<rect x="180.6" y="31" width="32.6" height="15" rx="7" ry="7" fill="#242440" stroke="#3a3a5e" stroke-width="0.5"/>
<text x="196.9" y="42" text-anchor="middle" fill="#8888aa" font-size="10" letter-spacing="0.2">3/8</text>
<rect x="219.2" y="31" width="45.0" height="15" rx="7" ry="7" fill="#242440" stroke="#3a3a5e" stroke-width="0.5"/>
<text x="241.7" y="42" text-anchor="middle" fill="#8888aa" font-size="10" letter-spacing="0.2">m.1–8</text>
<rect x="150" y="50" width="90" height="430" fill="#ffffff" opacity="0.02"/>
<rect x="330" y="50" width="90" height="430" fill="#ffffff" opacity="0.02"/>
<rect x="510" y="50" width="90" height="430" fill="#ffffff" opacity="0.02"/>
<rect x="690" y="50" width="90" height="430" fill="#ffffff" opacity="0.02"/>
<rect x="60" y="470" width="720" height="10" fill="#151526" opacity="0.5"/>
<rect x="60" y="450" width="720" height="10" fill="#151526" opacity="0.5"/>
<rect x="60" y="420" width="720" height="10" fill="#151526" opacity="0.5"/>
<rect x="60" y="400" width="720" height="10" fill="#151526" opacity="0.5"/>
<rect x="60" y="380" width="720" height="10" fill="#151526" opacity="0.5"/>
<rect x="60" y="350" width="720" height="10" fill="#151526" opacity="0.5"/>
<rect x="60" y="330" width="720" height="10" fill="#151526" opacity="0.5"/>
<rect x="60" y="300" width="720" height="10" fill="#151526" opacity="0.5"/>
<rect x="60" y="280" width="720" height="10" fill="#151526" opacity="0.5"/>
<rect x="60" y="260" width="720" height="10" fill="#151526" opacity="0.5"/>
<rect x="60" y="230" width="720" height="10" fill="#151526" opacity="0.5"/>
<rect x="60" y="210" width="720" height="10" fill="#151526" opacity="0.5"/>
<rect x="60" y="180" width="720" height="10" fill="#151526" opacity="0.5"/>
<rect x="60" y="160" width="720" height="10" fill="#151526" opacity="0.5"/>
<rect x="60" y="140" width="720" height="10" fill="#151526" opacity="0.5"/>
<rect x="60" y="110" width="720" height="10" fill="#151526" opacity="0.5"/>
<rect x="60" y="90" width="720" height="10" fill="#151526" opacity="0.5"/>
<rect x="60" y="60" width="720" height="10" fill="#151526" opacity="0.5"/>
<line x1="60" y1="470" x2="780" y2="470" stroke="#2a2a3e" stroke-width="0.3" opacity="0.15"/>
<line x1="60" y1="460" x2="780" y2="460" stroke="#2a2a3e" stroke-width="0.3" opacity="0.15"/>
<line x1="60" y1="450" x2="780" y2="450" stroke="#2a2a3e" stroke-width="0.3" opacity="0.15"/>
<line x1="60" y1="440" x2="780" y2="440" stroke="#2a2a3e" stroke-width="0.3" opacity="0.15"/>
<line x1="60" y1="430" x2="780" y2="430" stroke="#2a2a3e" stroke-width="0.3" opacity="0.15"/>
<line x1="60" y1="420" x2="780" y2="420" stroke="#2a2a3e" stroke-width="0.3" opacity="0.15"/>
<line x1="60" y1="410" x2="780" y2="410" stroke="#2a2a3e" stroke-width="0.3" opacity="0.15"/>
<line x1="60" y1="400" x2="780" y2="400" stroke="#2a2a3e" stroke-width="0.3" opacity="0.15"/>
<line x1="60" y1="390" x2="780" y2="390" stroke="#2a2a3e" stroke-width="0.3" opacity="0.15"/>
<line x1="60" y1="380" x2="780" y2="380" stroke="#2a2a3e" stroke-width="0.3" opacity="0.15"/>
<line x1="60" y1="370" x2="780" y2="370" stroke="#2a2a3e" stroke-width="0.3" opacity="0.15"/>
<line x1="60" y1="360" x2="780" y2="360" stroke="#7a6a52" stroke-width="0.8" opacity="0.7"/>
<line x1="60" y1="350" x2="780" y2="350" stroke="#2a2a3e" stroke-width="0.3" opacity="0.15"/>
<line x1="60" y1="340" x2="780" y2="340" stroke="#2a2a3e" stroke-width="0.3" opacity="0.15"/>
<line x1="60" y1="330" x2="780" y2="330" stroke="#2a2a3e" stroke-width="0.3" opacity="0.15"/>
<line x1="60" y1="320" x2="780" y2="320" stroke="#2a2a3e" stroke-width="0.3" opacity="0.15"/>
<line x1="60" y1="310" x2="780" y2="310" stroke="#2a2a3e" stroke-width="0.3" opacity="0.15"/>
<line x1="60" y1="300" x2="780" y2="300" stroke="#2a2a3e" stroke-width="0.3" opacity="0.15"/>
<line x1="60" y1="290" x2="780" y2="290" stroke="#2a2a3e" stroke-width="0.3" opacity="0.15"/>
<line x1="60" y1="280" x2="780" y2="280" stroke="#2a2a3e" stroke-width="0.3" opacity="0.15"/>
<line x1="60" y1="270" x2="780" y2="270" stroke="#2a2a3e" stroke-width="0.3" opacity="0.15"/>
<line x1="60" y1="260" x2="780" y2="260" stroke="#2a2a3e" stroke-width="0.3" opacity="0.15"/>
<line x1="60" y1="250" x2="780" y2="250" stroke="#2a2a3e" stroke-width="0.3" opacity="0.15"/>
<line x1="60" y1="240" x2="780" y2="240" stroke="#7a6a52" stroke-width="0.8" opacity="0.7"/>
<line x1="60" y1="230" x2="780" y2="230" stroke="#2a2a3e" stroke-width="0.3" opacity="0.15"/>
<line x1="60" y1="220" x2="780" y2="220" stroke="#2a2a3e" stroke-width="0.3" opacity="0.15"/>
<line x1="60" y1="210" x2="780" y2="210" stroke="#2a2a3e" stroke-width="0.3" opacity="0.15"/>
<line x1="60" y1="200" x2="780" y2="200" stroke="#2a2a3e" stroke-width="0.3" opacity="0.15"/>
<line x1="60" y1="190" x2="780" y2="190" stroke="#2a2a3e" stroke-width="0.3" opacity="0.15"/>
<line x1="60" y1="180" x2="780" y2="180" stroke="#2a2a3e" stroke-width="0.3" opacity="0.15"/>
<line x1="60" y1="170" x2="780" y2="170" stroke="#2a2a3e" stroke-width="0.3" opacity="0.15"/>
<line x1="60" y1="160" x2="780" y2="160" stroke="#2a2a3e" stroke-width="0.3" opacity="0.15"/>
<line x1="60" y1="150" x2="780" y2="150" stroke="#2a2a3e" stroke-width="0.3" opacity="0.15"/>
<line x1="60" y1="140" x2="780" y2="140" stroke="#2a2a3e" stroke-width="0.3" opacity="0.15"/>
<line x1="60" y1="130" x2="780" y2="130" stroke="#2a2a3e" stroke-width="0.3" opacity="0.15"/>
<line x1="60" y1="120" x2="780" y2="120" stroke="#7a6a52" stroke-width="0.8" opacity="0.7"/>
<line x1="60" y1="110" x2="780" y2="110" stroke="#2a2a3e" stroke-width="0.3" opacity="0.15"/>
<line x1="60" y1="100" x2="780" y2="100" stroke="#2a2a3e" stroke-width="0.3" opacity="0.15"/>
<line x1="60" y1="90" x2="780" y2="90" stroke="#2a2a3e" stroke-width="0.3" opacity="0.15"/>
<line x1="60" y1="80" x2="780" y2="80" stroke="#2a2a3e" stroke-width="0.3" opacity="0.15"/>
<line x1="60" y1="70" x2="780" y2="70" stroke="#2a2a3e" stroke-width="0.3" opacity="0.15"/>
<line x1="60" y1="60" x2="780" y2="60" stroke="#2a2a3e" stroke-width="0.3" opacity="0.15"/>
<line x1="60" y1="50" x2="780" y2="50" stroke="#2a2a3e" stroke-width="0.3" opacity="0.15"/>
<line x1="60" y1="50" x2="60" y2="480" stroke="#3a3a5e" stroke-width="1.5"/>
<line x1="90" y1="50" x2="90" y2="480" stroke="#2a2a3e" stroke-width="0.3" stroke-dasharray="2,3"/>
<line x1="120" y1="50" x2="120" y2="480" stroke="#2a2a3e" stroke-width="0.3" stroke-dasharray="2,3"/>
<line x1="150" y1="50" x2="150" y2="480" stroke="#3a3a5e" stroke-width="1.5"/>
<line x1="180" y1="50" x2="180" y2="480" stroke="#2a2a3e" stroke-width="0.3" stroke-dasharray="2,3"/>
<line x1="210" y1="50" x2="210" y2="480" stroke="#2a2a3e" stroke-width="0.3" stroke-dasharray="2,3"/>
<line x1="240" y1="50" x2="240" y2="480" stroke="#3a3a5e" stroke-width="1.5"/>
<line x1="270" y1="50" x2="270" y2="480" stroke="#2a2a3e" stroke-width="0.3" stroke-dasharray="2,3"/>
<line x1="300" y1="50" x2="300" y2="480" stroke="#2a2a3e" stroke-width="0.3" stroke-dasharray="2,3"/>
<line x1="330" y1="50" x2="330" y2="480" stroke="#3a3a5e" stroke-width="1.5"/>
<line x1="360" y1="50" x2="360" y2="480" stroke="#2a2a3e" stroke-width="0.3" stroke-dasharray="2,3"/>
<line x1="390" y1="50" x2="390" y2="480" stroke="#2a2a3e" stroke-width="0.3" stroke-dasharray="2,3"/>
<line x1="420" y1="50" x2="420" y2="480" stroke="#3a3a5e" stroke-width="1.5"/>
<line x1="450" y1="50" x2="450" y2="480" stroke="#2a2a3e" stroke-width="0.3" stroke-dasharray="2,3"/>
<line x1="480" y1="50" x2="480" y2="480" stroke="#2a2a3e" stroke-width="0.3" stroke-dasharray="2,3"/>
<line x1="510" y1="50" x2="510" y2="480" stroke="#3a3a5e" stroke-width="1.5"/>
<line x1="540" y1="50" x2="540" y2="480" stroke="#2a2a3e" stroke-width="0.3" stroke-dasharray="2,3"/>
<line x1="570" y1="50" x2="570" y2="480" stroke="#2a2a3e" stroke-width="0.3" stroke-dasharray="2,3"/>
<line x1="600" y1="50" x2="600" y2="480" stroke="#3a3a5e" stroke-width="1.5"/>
<line x1="630" y1="50" x2="630" y2="480" stroke="#2a2a3e" stroke-width="0.3" stroke-dasharray="2,3"/>
<line x1="660" y1="50" x2="660" y2="480" stroke="#2a2a3e" stroke-width="0.3" stroke-dasharray="2,3"/>
<line x1="690" y1="50" x2="690" y2="480" stroke="#3a3a5e" stroke-width="1.5"/>
<line x1="720" y1="50" x2="720" y2="480" stroke="#2a2a3e" stroke-width="0.3" stroke-dasharray="2,3"/>
<line x1="750" y1="50" x2="750" y2="480" stroke="#2a2a3e" stroke-width="0.3" stroke-dasharray="2,3"/>
<line x1="780" y1="50" x2="780" y2="480" stroke="#3a3a5e" stroke-width="1.5"/>
<text x="56" y="467" text-anchor="end" fill="#666688" font-size="9" font-weight="normal">D2</text>
<text x="56" y="447" text-anchor="end" fill="#666688" font-size="9" font-weight="normal">E2</text>
<text x="56" y="437" text-anchor="end" fill="#666688" font-size="9" font-weight="normal">F2</text>
<text x="56" y="417" text-anchor="end" fill="#666688" font-size="9" font-weight="normal">G2</text>
<text x="56" y="397" text-anchor="end" fill="#666688" font-size="9" font-weight="normal">A2</text>
<text x="56" y="377" text-anchor="end" fill="#666688" font-size="9" font-weight="normal">B2</text>
<text x="56" y="367" text-anchor="end" fill="#aaaacc" font-size="10" font-weight="bold">C3</text>
<text x="56" y="347" text-anchor="end" fill="#666688" font-size="9" font-weight="normal">D3</text>
<text x="56" y="327" text-anchor="end" fill="#666688" font-size="9" font-weight="normal">E3</text>
<text x="56" y="317" text-anchor="end" fill="#666688" font-size="9" font-weight="normal">F3</text>
<text x="56" y="297" text-anchor="end" fill="#666688" font-size="9" font-weight="normal">G3</text>
<text x="56" y="277" text-anchor="end" fill="#666688" font-size="9" font-weight="normal">A3</text>
<text x="56" y="257" text-anchor="end" fill="#666688" font-size="9" font-weight="normal">B3</text>
<text x="56" y="247" text-anchor="end" fill="#aaaacc" font-size="10" font-weight="bold">C4</text>
<text x="56" y="227" text-anchor="end" fill="#666688" font-size="9" font-weight="normal">D4</text>
<text x="56" y="207" text-anchor="end" fill="#666688" font-size="9" font-weight="normal">E4</text>
<text x="56" y="197" text-anchor="end" fill="#666688" font-size="9" font-weight="normal">F4</text>
<text x="56" y="177" text-anchor="end" fill="#666688" font-size="9" font-weight="normal">G4</text>
<text x="56" y="157" text-anchor="end" fill="#666688" font-size="9" font-weight="normal">A4</text>
<text x="56" y="137" text-anchor="end" fill="#666688" font-size="9" font-weight="normal">B4</text>
<text x="56" y="127" text-anchor="end" fill="#aaaacc" font-size="10" font-weight="bold">C5</text>
<text x="56" y="107" text-anchor="end" fill="#666688" font-size="9" font-weight="normal">D5</text>
<text x="56" y="87" text-anchor="end" fill="#666688" font-size="9" font-weight="normal">E5</text>
<text x="56" y="77" text-anchor="end" fill="#666688" font-size="9" font-weight="normal">F5</text>
<text x="56" y="57" text-anchor="end" fill="#666688" font-size="9" font-weight="normal">G5</text>
<rect x="60" y="81" width="14" height="8" fill="#4a9eff" fill-opacity="1" stroke="#3580cc" stroke-width="0.5" rx="3" ry="3">
  <title>RH: E5 (m.1)</title>
</rect>
<rect x="60" y="82" width="2" height="6" rx="1" ry="1" fill="#aed3ff"/>
<rect x="75" y="91" width="14" height="8" fill="#4a9eff" fill-opacity="1" stroke="#3580cc" stroke-width="0.5" rx="3" ry="3">
  <title>RH: D#5 (m.1)</title>
</rect>
<rect x="75" y="92" width="2" height="6" rx="1" ry="1" fill="#aed3ff"/>
<rect x="150" y="81" width="14" height="8" fill="#4a9eff" fill-opacity="1" stroke="#3580cc" stroke-width="0.5" rx="3" ry="3">
  <title>RH: E5 (m.2)</title>
</rect>
<rect x="150" y="82" width="2" height="6" rx="1" ry="1" fill="#aed3ff"/>
<rect x="165" y="91" width="14" height="8" fill="#4a9eff" fill-opacity="1" stroke="#3580cc" stroke-width="0.5" rx="3" ry="3">
  <title>RH: D#5 (m.2)</title>
</rect>
<rect x="165" y="92" width="2" height="6" rx="1" ry="1" fill="#aed3ff"/>
<rect x="180" y="81" width="14" height="8" fill="#4a9eff" fill-opacity="1" stroke="#3580cc" stroke-width="0.5" rx="3" ry="3">
  <title>RH: E5 (m.2)</title>
</rect>
<rect x="180" y="82" width="2" height="6" rx="1" ry="1" fill="#aed3ff"/>
<rect x="195" y="131" width="14" height="8" fill="#4a9eff" fill-opacity="1" stroke="#3580cc" stroke-width="0.5" rx="3" ry="3">
  <title>RH: B4 (m.2)</title>
</rect>
<rect x="195" y="132" width="2" height="6" rx="1" ry="1" fill="#aed3ff"/>
<rect x="210" y="101" width="14" height="8" fill="#4a9eff" fill-opacity="1" stroke="#3580cc" stroke-width="0.5" rx="3" ry="3">
  <title>RH: D5 (m.2)</title>
</rect>
<rect x="210" y="102" width="2" height="6" rx="1" ry="1" fill="#aed3ff"/>
<rect x="225" y="121" width="14" height="8" fill="#4a9eff" fill-opacity="1" stroke="#3580cc" stroke-width="0.5" rx="3" ry="3">
  <title>RH: C5 (m.2)</title>
</rect>
<rect x="225" y="122" width="2" height="6" rx="1" ry="1" fill="#aed3ff"/>
<rect x="240" y="151" width="29" height="8" fill="#4a9eff" fill-opacity="1" stroke="#3580cc" stroke-width="0.5" rx="3" ry="3">
  <title>RH: A4 (m.3)</title>
</rect>
<rect x="240" y="152" width="2" height="6" rx="1" ry="1" fill="#aed3ff"/>
<rect x="270" y="241" width="14" height="8" fill="#4a9eff" fill-opacity="1" stroke="#3580cc" stroke-width="0.5" rx="3" ry="3">
  <title>RH: C4 (m.3)</title>
</rect>
<rect x="270" y="242" width="2" height="6" rx="1" ry="1" fill="#aed3ff"/>
<rect x="285" y="201" width="14" height="8" fill="#4a9eff" fill-opacity="1" stroke="#3580cc" stroke-width="0.5" rx="3" ry="3">
  <title>RH: E4 (m.3)</title>
</rect>
<rect x="285" y="202" width="2" height="6" rx="1" ry="1" fill="#aed3ff"/>
<rect x="300" y="151" width="14" height="8" fill="#4a9eff" fill-opacity="1" stroke="#3580cc" stroke-width="0.5" rx="3" ry="3">
  <title>RH: A4 (m.3)</title>
</rect>
<rect x="300" y="152" width="2" height="6" rx="1" ry="1" fill="#aed3ff"/>
<rect x="240" y="391" width="14" height="8" fill="#ff6b8a" fill-opacity="1" stroke="#cc5570" stroke-width="0.5" rx="3" ry="3">
  <title>LH: A2 (m.3)</title>
</rect>
<rect x="240" y="392" width="2" height="6" rx="1" ry="1" fill="#ffbcca"/>
<rect x="255" y="321" width="14" height="8" fill="#ff6b8a" fill-opacity="1" stroke="#cc5570" stroke-width="0.5" rx="3" ry="3">
  <title>LH: E3 (m.3)</title>
</rect>
<rect x="255" y="322" width="2" height="6" rx="1" ry="1" fill="#ffbcca"/>
<rect x="270" y="271" width="14" height="8" fill="#ff6b8a" fill-opacity="1" stroke="#cc5570" stroke-width="0.5" rx="3" ry="3">
  <title>LH: A3 (m.3)</title>
</rect>
<rect x="270" y="272" width="2" height="6" rx="1" ry="1" fill="#ffbcca"/>
<rect x="330" y="131" width="29" height="8" fill="#4a9eff" fill-opacity="1" stroke="#3580cc" stroke-width="0.5" rx="3" ry="3">
  <title>RH: B4 (m.4)</title>
</rect>
<rect x="330" y="132" width="2" height="6" rx="1" ry="1" fill="#aed3ff"/>
<rect x="360" y="201" width="14" height="8" fill="#4a9eff" fill-opacity="1" stroke="#3580cc" stroke-width="0.5" rx="3" ry="3">
  <title>RH: E4 (m.4)</title>
</rect>
<rect x="360" y="202" width="2" height="6" rx="1" ry="1" fill="#aed3ff"/>
<rect x="375" y="161" width="14" height="8" fill="#4a9eff" fill-opacity="1" stroke="#3580cc" stroke-width="0.5" rx="3" ry="3">
  <title>RH: G#4 (m.4)</title>
</rect>
<rect x="375" y="162" width="2" height="6" rx="1" ry="1" fill="#aed3ff"/>
<rect x="390" y="131" width="14" height="8" fill="#4a9eff" fill-opacity="1" stroke="#3580cc" stroke-width="0.5" rx="3" ry="3">
  <title>RH: B4 (m.4)</title>
</rect>
<rect x="390" y="132" width="2" height="6" rx="1" ry="1" fill="#aed3ff"/>
<rect x="330" y="441" width="14" height="8" fill="#ff6b8a" fill-opacity="1" stroke="#cc5570" stroke-width="0.5" rx="3" ry="3">
  <title>LH: E2 (m.4)</title>
</rect>
<rect x="330" y="442" width="2" height="6" rx="1" ry="1" fill="#ffbcca"/>
<rect x="345" y="321" width="14" height="8" fill="#ff6b8a" fill-opacity="1" stroke="#cc5570" stroke-width="0.5" rx="3" ry="3">
  <title>LH: E3 (m.4)</title>
</rect>
<rect x="345" y="322" width="2" height="6" rx="1" ry="1" fill="#ffbcca"/>
<rect x="360" y="281" width="14" height="8" fill="#ff6b8a" fill-opacity="1" stroke="#cc5570" stroke-width="0.5" rx="3" ry="3">
  <title>LH: G#3 (m.4)</title>
</rect>
<rect x="360" y="282" width="2" height="6" rx="1" ry="1" fill="#ffbcca"/>
<rect x="420" y="121" width="29" height="8" fill="#4a9eff" fill-opacity="1" stroke="#3580cc" stroke-width="0.5" rx="3" ry="3">
  <title>RH: C5 (m.5)</title>
</rect>
<rect x="420" y="122" width="2" height="6" rx="1" ry="1" fill="#aed3ff"/>
<rect x="450" y="201" width="14" height="8" fill="#4a9eff" fill-opacity="1" stroke="#3580cc" stroke-width="0.5" rx="3" ry="3">
  <title>RH: E4 (m.5)</title>
</rect>
<rect x="450" y="202" width="2" height="6" rx="1" ry="1" fill="#aed3ff"/>
<rect x="465" y="81" width="14" height="8" fill="#4a9eff" fill-opacity="1" stroke="#3580cc" stroke-width="0.5" rx="3" ry="3">
  <title>RH: E5 (m.5)</title>
</rect>
<rect x="465" y="82" width="2" height="6" rx="1" ry="1" fill="#aed3ff"/>
<rect x="480" y="91" width="14" height="8" fill="#4a9eff" fill-opacity="1" stroke="#3580cc" stroke-width="0.5" rx="3" ry="3">
  <title>RH: D#5 (m.5)</title>
</rect>
<rect x="480" y="92" width="2" height="6" rx="1" ry="1" fill="#aed3ff"/>
<rect x="420" y="391" width="14" height="8" fill="#ff6b8a" fill-opacity="1" stroke="#cc5570" stroke-width="0.5" rx="3" ry="3">
  <title>LH: A2 (m.5)</title>
</rect>
<rect x="420" y="392" width="2" height="6" rx="1" ry="1" fill="#ffbcca"/>
<rect x="435" y="321" width="14" height="8" fill="#ff6b8a" fill-opacity="1" stroke="#cc5570" stroke-width="0.5" rx="3" ry="3">
  <title>LH: E3 (m.5)</title>
</rect>
<rect x="435" y="322" width="2" height="6" rx="1" ry="1" fill="#ffbcca"/>
<rect x="450" y="271" width="14" height="8" fill="#ff6b8a" fill-opacity="1" stroke="#cc5570" stroke-width="0.5" rx="3" ry="3">
  <title>LH: A3 (m.5)</title>
</rect>
<rect x="450" y="272" width="2" height="6" rx="1" ry="1" fill="#ffbcca"/>
<rect x="510" y="81" width="14" height="8" fill="#4a9eff" fill-opacity="1" stroke="#3580cc" stroke-width="0.5" rx="3" ry="3">
  <title>RH: E5 (m.6)</title>
</rect>
<rect x="510" y="82" width="2" height="6" rx="1" ry="1" fill="#aed3ff"/>
<rect x="525" y="91" width="14" height="8" fill="#4a9eff" fill-opacity="1" stroke="#3580cc" stroke-width="0.5" rx="3" ry="3">
  <title>RH: D#5 (m.6)</title>
</rect>
<rect x="525" y="92" width="2" height="6" rx="1" ry="1" fill="#aed3ff"/>
<rect x="540" y="81" width="14" height="8" fill="#4a9eff" fill-opacity="1" stroke="#3580cc" stroke-width="0.5" rx="3" ry="3">
  <title>RH: E5 (m.6)</title>
</rect>
<rect x="540" y="82" width="2" height="6" rx="1" ry="1" fill="#aed3ff"/>
<rect x="555" y="131" width="14" height="8" fill="#4a9eff" fill-opacity="1" stroke="#3580cc" stroke-width="0.5" rx="3" ry="3">
  <title>RH: B4 (m.6)</title>
</rect>
<rect x="555" y="132" width="2" height="6" rx="1" ry="1" fill="#aed3ff"/>
<rect x="570" y="101" width="14" height="8" fill="#4a9eff" fill-opacity="1" stroke="#3580cc" stroke-width="0.5" rx="3" ry="3">
  <title>RH: D5 (m.6)</title>
</rect>
<rect x="570" y="102" width="2" height="6" rx="1" ry="1" fill="#aed3ff"/>
<rect x="585" y="121" width="14" height="8" fill="#4a9eff" fill-opacity="1" stroke="#3580cc" stroke-width="0.5" rx="3" ry="3">
  <title>RH: C5 (m.6)</title>
</rect>
<rect x="585" y="122" width="2" height="6" rx="1" ry="1" fill="#aed3ff"/>
<rect x="600" y="151" width="29" height="8" fill="#4a9eff" fill-opacity="1" stroke="#3580cc" stroke-width="0.5" rx="3" ry="3">
  <title>RH: A4 (m.7)</title>
</rect>
<rect x="600" y="152" width="2" height="6" rx="1" ry="1" fill="#aed3ff"/>
<rect x="630" y="241" width="14" height="8" fill="#4a9eff" fill-opacity="1" stroke="#3580cc" stroke-width="0.5" rx="3" ry="3">
  <title>RH: C4 (m.7)</title>
</rect>
<rect x="630" y="242" width="2" height="6" rx="1" ry="1" fill="#aed3ff"/>
<rect x="645" y="201" width="14" height="8" fill="#4a9eff" fill-opacity="1" stroke="#3580cc" stroke-width="0.5" rx="3" ry="3">
  <title>RH: E4 (m.7)</title>
</rect>
<rect x="645" y="202" width="2" height="6" rx="1" ry="1" fill="#aed3ff"/>
<rect x="660" y="151" width="14" height="8" fill="#4a9eff" fill-opacity="1" stroke="#3580cc" stroke-width="0.5" rx="3" ry="3">
  <title>RH: A4 (m.7)</title>
</rect>
<rect x="660" y="152" width="2" height="6" rx="1" ry="1" fill="#aed3ff"/>
<rect x="600" y="391" width="14" height="8" fill="#ff6b8a" fill-opacity="1" stroke="#cc5570" stroke-width="0.5" rx="3" ry="3">
  <title>LH: A2 (m.7)</title>
</rect>
<rect x="600" y="392" width="2" height="6" rx="1" ry="1" fill="#ffbcca"/>
<rect x="615" y="321" width="14" height="8" fill="#ff6b8a" fill-opacity="1" stroke="#cc5570" stroke-width="0.5" rx="3" ry="3">
  <title>LH: E3 (m.7)</title>
</rect>
<rect x="615" y="322" width="2" height="6" rx="1" ry="1" fill="#ffbcca"/>
<rect x="630" y="271" width="14" height="8" fill="#ff6b8a" fill-opacity="1" stroke="#cc5570" stroke-width="0.5" rx="3" ry="3">
  <title>LH: A3 (m.7)</title>
</rect>
<rect x="630" y="272" width="2" height="6" rx="1" ry="1" fill="#ffbcca"/>
<rect x="690" y="131" width="29" height="8" fill="#4a9eff" fill-opacity="1" stroke="#3580cc" stroke-width="0.5" rx="3" ry="3">
  <title>RH: B4 (m.8)</title>
</rect>
<rect x="690" y="132" width="2" height="6" rx="1" ry="1" fill="#aed3ff"/>
<rect x="720" y="201" width="14" height="8" fill="#4a9eff" fill-opacity="1" stroke="#3580cc" stroke-width="0.5" rx="3" ry="3">
  <title>RH: E4 (m.8)</title>
</rect>
<rect x="720" y="202" width="2" height="6" rx="1" ry="1" fill="#aed3ff"/>
<rect x="735" y="121" width="14" height="8" fill="#4a9eff" fill-opacity="1" stroke="#3580cc" stroke-width="0.5" rx="3" ry="3">
  <title>RH: C5 (m.8)</title>
</rect>
<rect x="735" y="122" width="2" height="6" rx="1" ry="1" fill="#aed3ff"/>
<rect x="750" y="131" width="14" height="8" fill="#4a9eff" fill-opacity="1" stroke="#3580cc" stroke-width="0.5" rx="3" ry="3">
  <title>RH: B4 (m.8)</title>
</rect>
<rect x="750" y="132" width="2" height="6" rx="1" ry="1" fill="#aed3ff"/>
<rect x="690" y="441" width="14" height="8" fill="#ff6b8a" fill-opacity="1" stroke="#cc5570" stroke-width="0.5" rx="3" ry="3">
  <title>LH: E2 (m.8)</title>
</rect>
<rect x="690" y="442" width="2" height="6" rx="1" ry="1" fill="#ffbcca"/>
<rect x="705" y="321" width="14" height="8" fill="#ff6b8a" fill-opacity="1" stroke="#cc5570" stroke-width="0.5" rx="3" ry="3">
  <title>LH: E3 (m.8)</title>
</rect>
<rect x="705" y="322" width="2" height="6" rx="1" ry="1" fill="#ffbcca"/>
<rect x="720" y="281" width="14" height="8" fill="#ff6b8a" fill-opacity="1" stroke="#cc5570" stroke-width="0.5" rx="3" ry="3">
  <title>LH: G#3 (m.8)</title>
</rect>
<rect x="720" y="282" width="2" height="6" rx="1" ry="1" fill="#ffbcca"/>
<text x="105" y="496" text-anchor="middle" fill="#8888aa" font-size="10">1</text>
<text x="195" y="496" text-anchor="middle" fill="#8888aa" font-size="10">2</text>
<text x="285" y="496" text-anchor="middle" fill="#8888aa" font-size="10">3</text>
<text x="375" y="496" text-anchor="middle" fill="#8888aa" font-size="10">4</text>
<text x="465" y="496" text-anchor="middle" fill="#8888aa" font-size="10">5</text>
<text x="555" y="496" text-anchor="middle" fill="#8888aa" font-size="10">6</text>
<text x="645" y="496" text-anchor="middle" fill="#8888aa" font-size="10">7</text>
<text x="735" y="496" text-anchor="middle" fill="#8888aa" font-size="10">8</text>
<circle cx="64" cy="508" r="3" fill="#ffaa33"/>
<circle cx="154" cy="508" r="3" fill="#ffaa33"/>
<circle cx="244" cy="508" r="3" fill="#ffaa33"/>
<circle cx="334" cy="508" r="3" fill="#ffaa33"/>
<circle cx="424" cy="508" r="3" fill="#ffaa33"/>
<circle cx="514" cy="508" r="3" fill="#ffaa33"/>
<circle cx="604" cy="508" r="3" fill="#ffaa33"/>
<circle cx="694" cy="508" r="3" fill="#ffaa33"/>
<rect x="536.3" y="526" width="82.8" height="16" rx="8" ry="8" fill="#242440" stroke="#3a3a5e" stroke-width="0.5"/>
<circle cx="547.3" cy="534" r="3" fill="#4a9eff"/>
<text x="555.3" y="537" fill="#8888aa" font-size="9">Right Hand</text>
<rect x="625.1" y="526" width="77.2" height="16" rx="8" ry="8" fill="#242440" stroke="#3a3a5e" stroke-width="0.5"/>
<circle cx="636.1" cy="534" r="3" fill="#ff6b8a"/>
<text x="644.1" y="537" fill="#8888aa" font-size="9">Left Hand</text>
<rect x="708.4" y="526" width="71.6" height="16" rx="8" ry="8" fill="#242440" stroke="#3a3a5e" stroke-width="0.5"/>
<circle cx="719.4" cy="534" r="3" fill="#ffaa33"/>
<text x="727.4" y="537" fill="#8888aa" font-size="9">Downbeat</text>
</svg>