<svg xmlns="http://www.w3.org/2000/svg" width="880" height="400" viewBox="0 0 880 400"><rect width="880" height="400" rx="16" fill="#1a1a2e"></rect><rect x="0.5" y="0.5" width="879" height="399" rx="15.5" fill="none" stroke="#26263e"></rect><text x="48" y="54" font-family="&#39;Space Grotesk&#39;,-apple-system,&#39;Segoe UI&#39;,sans-serif" font-size="23" font-weight="600" fill="#ffffff">The learning loop</text><text x="48" y="81" font-family="&#39;Space Grotesk&#39;,-apple-system,&#39;Segoe UI&#39;,sans-serif" font-size="14" fill="#8888aa">Five senses for a model that has none.</text><rect x="48" y="140" width="160" height="96" rx="14" fill="#242440" stroke="#3a3a5e"></rect><text x="66" y="165" font-family="ui-monospace,&#39;SF Mono&#39;,Consolas,monospace" font-size="11" fill="#666688">01</text><text x="66" y="190" font-family="&#39;Space Grotesk&#39;,-apple-system,&#39;Segoe UI&#39;,sans-serif" font-size="21" font-weight="600" fill="#ffffff">Read</text><text x="66" y="213" font-family="&#39;Space Grotesk&#39;,-apple-system,&#39;Segoe UI&#39;,sans-serif" font-size="12.5" fill="#8888aa">MIDI + annotations</text><rect x="256" y="140" width="160" height="96" rx="14" fill="#242440" stroke="#3a3a5e"></rect><text x="274" y="165" font-family="ui-monospace,&#39;SF Mono&#39;,Consolas,monospace" font-size="11" fill="#666688">02</text><text x="274" y="190" font-family="&#39;Space Grotesk&#39;,-apple-system,&#39;Segoe UI&#39;,sans-serif" font-size="21" font-weight="600" fill="#ffffff">Play</text><text x="274" y="213" font-family="&#39;Space Grotesk&#39;,-apple-system,&#39;Segoe UI&#39;,sans-serif" font-size="12.5" fill="#8888aa">six sound engines</text><rect x="464" y="140" width="160" height="96" rx="14" fill="#242440" stroke="#3a3a5e"></rect><text x="482" y="165" font-family="ui-monospace,&#39;SF Mono&#39;,Consolas,monospace" font-size="11" fill="#666688">03</text><text x="482" y="190" font-family="&#39;Space Grotesk&#39;,-apple-system,&#39;Segoe UI&#39;,sans-serif" font-size="21" font-weight="600" fill="#ffffff">See</text><text x="482" y="213" font-family="&#39;Space Grotesk&#39;,-apple-system,&#39;Segoe UI&#39;,sans-serif" font-size="12.5" fill="#8888aa">piano roll · guitar tab</text><rect x="672" y="140" width="160" height="96" rx="14" fill="#242440" stroke="#3a3a5e"></rect><text x="690" y="165" font-family="ui-monospace,&#39;SF Mono&#39;,Consolas,monospace" font-size="11" fill="#666688">04</text><text x="690" y="190" font-family="&#39;Space Grotesk&#39;,-apple-system,&#39;Segoe UI&#39;,sans-serif" font-size="21" font-weight="600" fill="#ffffff">Reflect</text><text x="690" y="213" font-family="&#39;Space Grotesk&#39;,-apple-system,&#39;Segoe UI&#39;,sans-serif" font-size="12.5" fill="#8888aa">practice journal</text><line x1="212" y1="188" x2="242" y2="188" stroke="#4a9eff" stroke-width="2"></line><path d="M 252 188 l -9 -5.5 v 11 z" fill="#4a9eff"></path><line x1="420" y1="188" x2="450" y2="188" stroke="#4a9eff" stroke-width="2"></line><path d="M 460 188 l -9 -5.5 v 11 z" fill="#4a9eff"></path><line x1="628" y1="188" x2="658" y2="188" stroke="#4a9eff" stroke-width="2"></line><path d="M 668 188 l -9 -5.5 v 11 z" fill="#4a9eff"></path><path d="M 752 240 C 752 336, 128 336, 128 252" stroke="#ff6b8a" stroke-width="2" fill="none"></path><path d="M 128 242 l -5.5 9 h 11 z" fill="#ff6b8a"></path><text x="440" y="330" font-family="&#39;Space Grotesk&#39;,-apple-system,&#39;Segoe UI&#39;,sans-serif" font-size="13" fill="#ffbcca" text-anchor="middle">the journal persists — next session picks up here</text></svg>