<svg xmlns="http://www.w3.org/2000/svg" width="550" height="520" viewBox="0 0 550 520">
<style>
  text { font-family: 'Consolas', 'SF Mono', 'Fira Code', monospace; }
  .note-rh { fill: #4a9eff; stroke: #3580cc; stroke-width: 0.5; rx: 3; ry: 3; }
  .note-lh { fill: #ff6b8a; stroke: #cc5570; stroke-width: 0.5; rx: 3; ry: 3; }
  .note-rh:hover { opacity: 0.85; }
  .note-lh:hover { opacity: 0.85; }
</style>
<rect width="550" height="520" fill="#1a1a2e"/>
<text x="60" y="24" fill="#ddddee" font-size="16" font-weight="600" letter-spacing="0.2">Prelude in C Major, BWV 846 (Well-Tempered Clav…<title>Prelude in C Major, BWV 846 (Well-Tempered Clavier) — Johann Sebastian Bach</title></text>
<rect x="60.0" y="31" width="57.4" height="15" rx="7" ry="7" fill="#242440" stroke="#3a3a5e" stroke-width="0.5"/>
<text x="88.7" y="42" text-anchor="middle" fill="#8888aa" font-size="10" letter-spacing="0.2">C major</text>
<rect x="123.4" y="31" width="51.2" height="15" rx="7" ry="7" fill="#242440" stroke="#3a3a5e" stroke-width="0.5"/>
<text x="149.0" y="42" text-anchor="middle" fill="#8888aa" font-size="10" letter-spacing="0.2">74 BPM</text>
<rect x="180.6" y="31" width="32.6" height="15" rx="7" ry="7" fill="#242440" stroke="#3a3a5e" stroke-width="0.5"/>
<text x="196.9" y="42" text-anchor="middle" fill="#8888aa" font-size="10" letter-spacing="0.2">4/4</text>
<rect x="219.2" y="31" width="57.4" height="15" rx="7" ry="7" fill="#242440" stroke="#3a3a5e" stroke-width="0.5"/>
<text x="247.9" y="42" text-anchor="middle" fill="#8888aa" font-size="10" letter-spacing="0.2">m.61–62</text>
<rect x="300" y="50" width="240" height="390" fill="#ffffff" opacity="0.02"/>
<rect x="60" y="430" width="480" height="10" fill="#151526" opacity="0.5"/>
<rect x="60" y="410" width="480" height="10" fill="#151526" opacity="0.5"/>
<rect x="60" y="380" width="480" height="10" fill="#151526" opacity="0.5"/>
<rect x="60" y="360" width="480" height="10" fill="#151526" opacity="0.5"/>
<rect x="60" y="340" width="480" height="10" fill="#151526" opacity="0.5"/>
<rect x="60" y="310" width="480" height="10" fill="#151526" opacity="0.5"/>
<rect x="60" y="290" width="480" height="10" fill="#151526" opacity="0.5"/>
<rect x="60" y="260" width="480" height="10" fill="#151526" opacity="0.5"/>
<rect x="60" y="240" width="480" height="10" fill="#151526" opacity="0.5"/>
<rect x="60" y="220" width="480" height="10" fill="#151526" opacity="0.5"/>
<rect x="60" y="190" width="480" height="10" fill="#151526" opacity="0.5"/>
<rect x="60" y="170" width="480" height="10" fill="#151526" opacity="0.5"/>
<rect x="60" y="140" width="480" height="10" fill="#151526" opacity="0.5"/>
<rect x="60" y="120" width="480" height="10" fill="#151526" opacity="0.5"/>
<rect x="60" y="100" width="480" height="10" fill="#151526" opacity="0.5"/>
<rect x="60" y="70" width="480" height="10" fill="#151526" opacity="0.5"/>
<rect x="60" y="50" width="480" height="10" fill="#151526" opacity="0.5"/>
<line x1="60" y1="430" x2="540" y2="430" stroke="#2a2a3e" stroke-width="0.3" opacity="0.15"/>
<line x1="60" y1="420" x2="540" y2="420" stroke="#2a2a3e" stroke-width="0.3" opacity="0.15"/>
<line x1="60" y1="410" x2="540" y2="410" stroke="#2a2a3e" stroke-width="0.3" opacity="0.15"/>
<line x1="60" y1="400" x2="540" y2="400" stroke="#2a2a3e" stroke-width="0.3" opacity="0.15"/>
<line x1="60" y1="390" x2="540" y2="390" stroke="#2a2a3e" stroke-width="0.3" opacity="0.15"/>
<line x1="60" y1="380" x2="540" y2="380" stroke="#2a2a3e" stroke-width="0.3" opacity="0.15"/>
<line x1="60" y1="370" x2="540" y2="370" stroke="#2a2a3e" stroke-width="0.3" opacity="0.15"/>
<line x1="60" y1="360" x2="540" y2="360" stroke="#2a2a3e" stroke-width="0.3" opacity="0.15"/>
<line x1="60" y1="350" x2="540" y2="350" stroke="#2a2a3e" stroke-width="0.3" opacity="0.15"/>
<line x1="60" y1="340" x2="540" y2="340" stroke="#2a2a3e" stroke-width="0.3" opacity="0.15"/>
<line x1="60" y1="330" x2="540" y2="330" stroke="#2a2a3e" stroke-width="0.3" opacity="0.15"/>
<line x1="60" y1="320" x2="540" y2="320" stroke="#7a6a52" stroke-width="0.8" opacity="0.7"/>
<line x1="60" y1="310" x2="540" y2="310" stroke="#2a2a3e" stroke-width="0.3" opacity="0.15"/>
<line x1="60" y1="300" x2="540" y2="300" stroke="#2a2a3e" stroke-width="0.3" opacity="0.15"/>
<line x1="60" y1="290" x2="540" y2="290" stroke="#2a2a3e" stroke-width="0.3" opacity="0.15"/>
<line x1="60" y1="280" x2="540" y2="280" stroke="#2a2a3e" stroke-width="0.3" opacity="0.15"/>
<line x1="60" y1="270" x2="540" y2="270" stroke="#2a2a3e" stroke-width="0.3" opacity="0.15"/>
<line x1="60" y1="260" x2="540" y2="260" stroke="#2a2a3e" stroke-width="0.3" opacity="0.15"/>
<line x1="60" y1="250" x2="540" y2="250" stroke="#2a2a3e" stroke-width="0.3" opacity="0.15"/>
<line x1="60" y1="240" x2="540" y2="240" stroke="#2a2a3e" stroke-width="0.3" opacity="0.15"/>
<line x1="60" y1="230" x2="540" y2="230" stroke="#2a2a3e" stroke-width="0.3" opacity="0.15"/>
<line x1="60" y1="220" x2="540" y2="220" stroke="#2a2a3e" stroke-width="0.3" opacity="0.15"/>
<line x1="60" y1="210" x2="540" y2="210" stroke="#2a2a3e" stroke-width="0.3" opacity="0.15"/>
<line x1="60" y1="200" x2="540" y2="200" stroke="#7a6a52" stroke-width="0.8" opacity="0.7"/>
<line x1="60" y1="190" x2="540" y2="190" stroke="#2a2a3e" stroke-width="0.3" opacity="0.15"/>
<line x1="60" y1="180" x2="540" y2="180" stroke="#2a2a3e" stroke-width="0.3" opacity="0.15"/>
<line x1="60" y1="170" x2="540" y2="170" stroke="#2a2a3e" stroke-width="0.3" opacity="0.15"/>
<line x1="60" y1="160" x2="540" y2="160" stroke="#2a2a3e" stroke-width="0.3" opacity="0.15"/>
<line x1="60" y1="150" x2="540" y2="150" stroke="#2a2a3e" stroke-width="0.3" opacity="0.15"/>
<line x1="60" y1="140" x2="540" y2="140" stroke="#2a2a3e" stroke-width="0.3" opacity="0.15"/>
<line x1="60" y1="130" x2="540" y2="130" stroke="#2a2a3e" stroke-width="0.3" opacity="0.15"/>
<line x1="60" y1="120" x2="540" y2="120" stroke="#2a2a3e" stroke-width="0.3" opacity="0.15"/>
<line x1="60" y1="110" x2="540" y2="110" stroke="#2a2a3e" stroke-width="0.3" opacity="0.15"/>
<line x1="60" y1="100" x2="540" y2="100" stroke="#2a2a3e" stroke-width="0.3" opacity="0.15"/>
<line x1="60" y1="90" x2="540" y2="90" stroke="#2a2a3e" stroke-width="0.3" opacity="0.15"/>
<line x1="60" y1="80" x2="540" y2="80" stroke="#7a6a52" stroke-width="0.8" opacity="0.7"/>
<line x1="60" y1="70" x2="540" y2="70" stroke="#2a2a3e" stroke-width="0.3" opacity="0.15"/>
<line x1="60" y1="60" x2="540" y2="60" stroke="#2a2a3e" stroke-width="0.3" opacity="0.15"/>
<line x1="60" y1="50" x2="540" y2="50" stroke="#2a2a3e" stroke-width="0.3" opacity="0.15"/>
<line x1="60" y1="50" x2="60" y2="440" stroke="#3a3a5e" stroke-width="1.5"/>
<line x1="120" y1="50" x2="120" y2="440" stroke="#2a2a3e" stroke-width="0.3" stroke-dasharray="2,3"/>
<line x1="180" y1="50" x2="180" y2="440" stroke="#2a2a3e" stroke-width="0.3" stroke-dasharray="2,3"/>
<line x1="240" y1="50" x2="240" y2="440" stroke="#2a2a3e" stroke-width="0.3" stroke-dasharray="2,3"/>
<line x1="300" y1="50" x2="300" y2="440" stroke="#3a3a5e" stroke-width="1.5"/>
<line x1="360" y1="50" x2="360" y2="440" stroke="#2a2a3e" stroke-width="0.3" stroke-dasharray="2,3"/>
<line x1="420" y1="50" x2="420" y2="440" stroke="#2a2a3e" stroke-width="0.3" stroke-dasharray="2,3"/>
<line x1="480" y1="50" x2="480" y2="440" stroke="#2a2a3e" stroke-width="0.3" stroke-dasharray="2,3"/>
<line x1="540" y1="50" x2="540" y2="440" stroke="#3a3a5e" stroke-width="1.5"/>
<text x="56" y="427" text-anchor="end" fill="#666688" font-size="9" font-weight="normal">D3</text>
<text x="56" y="407" text-anchor="end" fill="#666688" font-size="9" font-weight="normal">E3</text>
<text x="56" y="397" text-anchor="end" fill="#666688" font-size="9" font-weight="normal">F3</text>
<text x="56" y="377" text-anchor="end" fill="#666688" font-size="9" font-weight="normal">G3</text>
<text x="56" y="357" text-anchor="end" fill="#666688" font-size="9" font-weight="normal">A3</text>
<text x="56" y="337" text-anchor="end" fill="#666688" font-size="9" font-weight="normal">B3</text>
<text x="56" y="327" text-anchor="end" fill="#aaaacc" font-size="10" font-weight="bold">C4</text>
<text x="56" y="307" text-anchor="end" fill="#666688" font-size="9" font-weight="normal">D4</text>
<text x="56" y="287" text-anchor="end" fill="#666688" font-size="9" font-weight="normal">E4</text>
<text x="56" y="277" text-anchor="end" fill="#666688" font-size="9" font-weight="normal">F4</text>
<text x="56" y="257" text-anchor="end" fill="#666688" font-size="9" font-weight="normal">G4</text>
<text x="56" y="237" text-anchor="end" fill="#666688" font-size="9" font-weight="normal">A4</text>
<text x="56" y="217" text-anchor="end" fill="#666688" font-size="9" font-weight="normal">B4</text>
<text x="56" y="207" text-anchor="end" fill="#aaaacc" font-size="10" font-weight="bold">C5</text>
<text x="56" y="187" text-anchor="end" fill="#666688" font-size="9" font-weight="normal">D5</text>
<text x="56" y="167" text-anchor="end" fill="#666688" font-size="9" font-weight="normal">E5</text>
<text x="56" y="157" text-anchor="end" fill="#666688" font-size="9" font-weight="normal">F5</text>
<text x="56" y="137" text-anchor="end" fill="#666688" font-size="9" font-weight="normal">G5</text>
<text x="56" y="117" text-anchor="end" fill="#666688" font-size="9" font-weight="normal">A5</text>
<text x="56" y="97" text-anchor="end" fill="#666688" font-size="9" font-weight="normal">B5</text>
<text x="56" y="87" text-anchor="end" fill="#aaaacc" font-size="10" font-weight="bold">C6</text>
<text x="56" y="67" text-anchor="end" fill="#666688" font-size="9" font-weight="normal">D6</text>
<rect x="60" y="231" width="119" height="8" fill="#4a9eff" fill-opacity="1" stroke="#3580cc" stroke-width="0.5" rx="3" ry="3">
  <title>RH: A4 (m.61)</title>
</rect>
<rect x="60" y="232" width="2" height="6" rx="1" ry="1" fill="#aed3ff"/>
<rect x="60" y="201" width="119" height="8" fill="#4a9eff" fill-opacity="1" stroke="#3580cc" stroke-width="0.5" rx="3" ry="3">
  <title>RH: C5 (m.61)</title>
</rect>
<rect x="60" y="202" width="2" height="6" rx="1" ry="1" fill="#aed3ff"/>
<rect x="180" y="221" width="14" height="8" fill="#4a9eff" fill-opacity="1" stroke="#3580cc" stroke-width="0.5" rx="3" ry="3">
  <title>RH: A#4 (m.61)</title>
</rect>
<rect x="180" y="222" width="2" height="6" rx="1" ry="1" fill="#aed3ff"/>
<rect x="195" y="231" width="14" height="8" fill="#4a9eff" fill-opacity="1" stroke="#3580cc" stroke-width="0.5" rx="3" ry="3">
  <title>RH: A4 (m.61)</title>
</rect>
<rect x="195" y="232" width="2" height="6" rx="1" ry="1" fill="#aed3ff"/>
<rect x="210" y="251" width="14" height="8" fill="#4a9eff" fill-opacity="1" stroke="#3580cc" stroke-width="0.5" rx="3" ry="3">
  <title>RH: G4 (m.61)</title>
</rect>
<rect x="210" y="252" width="2" height="6" rx="1" ry="1" fill="#aed3ff"/>
<rect x="225" y="271" width="14" height="8" fill="#4a9eff" fill-opacity="1" stroke="#3580cc" stroke-width="0.5" rx="3" ry="3">
  <title>RH: F4 (m.61)</title>
</rect>
<rect x="225" y="272" width="2" height="6" rx="1" ry="1" fill="#aed3ff"/>
<rect x="240" y="251" width="14" height="8" fill="#4a9eff" fill-opacity="1" stroke="#3580cc" stroke-width="0.5" rx="3" ry="3">
  <title>RH: G4 (m.61)</title>
</rect>
<rect x="240" y="252" width="2" height="6" rx="1" ry="1" fill="#aed3ff"/>
<rect x="255" y="321" width="14" height="8" fill="#4a9eff" fill-opacity="1" stroke="#3580cc" stroke-width="0.5" rx="3" ry="3">
  <title>RH: C4 (m.61)</title>
</rect>
<rect x="255" y="322" width="2" height="6" rx="1" ry="1" fill="#aed3ff"/>
<rect x="255" y="271" width="14" height="8" fill="#4a9eff" fill-opacity="1" stroke="#3580cc" stroke-width="0.5" rx="3" ry="3">
  <title>RH: F4 (m.61)</title>
</rect>
<rect x="255" y="272" width="2" height="6" rx="1" ry="1" fill="#aed3ff"/>
<rect x="270" y="281" width="14" height="8" fill="#4a9eff" fill-opacity="1" stroke="#3580cc" stroke-width="0.5" rx="3" ry="3">
  <title>RH: E4 (m.61)</title>
</rect>
<rect x="270" y="282" width="2" height="6" rx="1" ry="1" fill="#aed3ff"/>
<rect x="285" y="301" width="119" height="8" fill="#4a9eff" fill-opacity="1" stroke="#3580cc" stroke-width="0.5" rx="3" ry="3">
  <title>RH: D4 (m.61)</title>
</rect>
<rect x="285" y="302" width="2" height="6" rx="1" ry="1" fill="#aed3ff"/>
<rect x="405" y="251" width="14" height="8" fill="#4a9eff" fill-opacity="1" stroke="#3580cc" stroke-width="0.5" rx="3" ry="3">
  <title>RH: G4 (m.61)</title>
</rect>
<rect x="405" y="252" width="2" height="6" rx="1" ry="1" fill="#aed3ff"/>
<rect x="420" y="231" width="14" height="8" fill="#4a9eff" fill-opacity="1" stroke="#3580cc" stroke-width="0.5" rx="3" ry="3">
  <title>RH: A4 (m.61)</title>
</rect>
<rect x="420" y="232" width="2" height="6" rx="1" ry="1" fill="#aed3ff"/>
<rect x="435" y="211" width="14" height="8" fill="#4a9eff" fill-opacity="1" stroke="#3580cc" stroke-width="0.5" rx="3" ry="3">
  <title>RH: B4 (m.61)</title>
</rect>
<rect x="435" y="212" width="2" height="6" rx="1" ry="1" fill="#aed3ff"/>
<rect x="450" y="201" width="14" height="8" fill="#4a9eff" fill-opacity="1" stroke="#3580cc" stroke-width="0.5" rx="3" ry="3">
  <title>RH: C5 (m.61)</title>
</rect>
<rect x="450" y="202" width="2" height="6" rx="1" ry="1" fill="#aed3ff"/>
<rect x="465" y="181" width="14" height="8" fill="#4a9eff" fill-opacity="1" stroke="#3580cc" stroke-width="0.5" rx="3" ry="3">
  <title>RH: D5 (m.61)</title>
</rect>
<rect x="465" y="182" width="2" height="6" rx="1" ry="1" fill="#aed3ff"/>
<rect x="480" y="161" width="14" height="8" fill="#4a9eff" fill-opacity="1" stroke="#3580cc" stroke-width="0.5" rx="3" ry="3">
  <title>RH: E5 (m.61)</title>
</rect>
<rect x="480" y="162" width="2" height="6" rx="1" ry="1" fill="#aed3ff"/>
<rect x="495" y="151" width="39" height="8" fill="#4a9eff" fill-opacity="1" stroke="#3580cc" stroke-width="0.5" rx="3" ry="3">
  <title>RH: F5 (m.61)</title>
</rect>
<rect x="495" y="152" width="2" height="6" rx="1" ry="1" fill="#aed3ff"/>
<rect x="535" y="251" width="14" height="8" fill="#4a9eff" fill-opacity="1" stroke="#3580cc" stroke-width="0.5" rx="3" ry="3">
  <title>RH: G4 (m.61)</title>
</rect>
<rect x="535" y="252" width="2" height="6" rx="1" ry="1" fill="#aed3ff"/>
<rect x="60" y="351" width="14" height="8" fill="#ff6b8a" fill-opacity="1" stroke="#cc5570" stroke-width="0.5" rx="3" ry="3">
  <title>LH: A3 (m.61)</title>
</rect>
<rect x="60" y="352" width="2" height="6" rx="1" ry="1" fill="#ffbcca"/>
<rect x="75" y="401" width="14" height="8" fill="#ff6b8a" fill-opacity="1" stroke="#cc5570" stroke-width="0.5" rx="3" ry="3">
  <title>LH: E3 (m.61)</title>
</rect>
<rect x="75" y="402" width="2" height="6" rx="1" ry="1" fill="#ffbcca"/>
<rect x="90" y="391" width="14" height="8" fill="#ff6b8a" fill-opacity="1" stroke="#cc5570" stroke-width="0.5" rx="3" ry="3">
  <title>LH: F3 (m.61)</title>
</rect>
<rect x="90" y="392" width="2" height="6" rx="1" ry="1" fill="#ffbcca"/>
<rect x="105" y="371" width="14" height="8" fill="#ff6b8a" fill-opacity="1" stroke="#cc5570" stroke-width="0.5" rx="3" ry="3">
  <title>LH: G3 (m.61)</title>
</rect>
<rect x="105" y="372" width="2" height="6" rx="1" ry="1" fill="#ffbcca"/>
<rect x="120" y="351" width="14" height="8" fill="#ff6b8a" fill-opacity="1" stroke="#cc5570" stroke-width="0.5" rx="3" ry="3">
  <title>LH: A3 (m.61)</title>
</rect>
<rect x="120" y="352" width="2" height="6" rx="1" ry="1" fill="#ffbcca"/>
<rect x="135" y="331" width="14" height="8" fill="#ff6b8a" fill-opacity="1" stroke="#cc5570" stroke-width="0.5" rx="3" ry="3">
  <title>LH: B3 (m.61)</title>
</rect>
<rect x="135" y="332" width="2" height="6" rx="1" ry="1" fill="#ffbcca"/>
<rect x="150" y="351" width="14" height="8" fill="#ff6b8a" fill-opacity="1" stroke="#cc5570" stroke-width="0.5" rx="3" ry="3">
  <title>LH: A3 (m.61)</title>
</rect>
<rect x="150" y="352" width="2" height="6" rx="1" ry="1" fill="#ffbcca"/>
<rect x="165" y="331" width="119" height="8" fill="#ff6b8a" fill-opacity="1" stroke="#cc5570" stroke-width="0.5" rx="3" ry="3">
  <title>LH: B3 (m.61)</title>
</rect>
<rect x="165" y="332" width="2" height="6" rx="1" ry="1" fill="#ffbcca"/>
<rect x="300" y="321" width="239" height="8" fill="#4a9eff" fill-opacity="1" stroke="#3580cc" stroke-width="0.5" rx="3" ry="3">
  <title>RH: C4 (m.62)</title>
</rect>
<rect x="300" y="322" width="2" height="6" rx="1" ry="1" fill="#aed3ff"/>
<rect x="300" y="231" width="239" height="8" fill="#4a9eff" fill-opacity="1" stroke="#3580cc" stroke-width="0.5" rx="3" ry="3">
  <title>RH: A4 (m.62)</title>
</rect>
<rect x="300" y="232" width="2" height="6" rx="1" ry="1" fill="#aed3ff"/>
<rect x="540" y="201" width="14" height="8" fill="#4a9eff" fill-opacity="1" stroke="#3580cc" stroke-width="0.5" rx="3" ry="3">
  <title>RH: C5 (m.62)</title>
</rect>
<rect x="540" y="202" width="2" height="6" rx="1" ry="1" fill="#aed3ff"/>
<rect x="555" y="181" width="14" height="8" fill="#4a9eff" fill-opacity="1" stroke="#3580cc" stroke-width="0.5" rx="3" ry="3">
  <title>RH: D5 (m.62)</title>
</rect>
<rect x="555" y="182" width="2" height="6" rx="1" ry="1" fill="#aed3ff"/>
<rect x="570" y="161" width="14" height="8" fill="#4a9eff" fill-opacity="1" stroke="#3580cc" stroke-width="0.5" rx="3" ry="3">
  <title>RH: E5 (m.62)</title>
</rect>
<rect x="570" y="162" width="2" height="6" rx="1" ry="1" fill="#aed3ff"/>
<rect x="585" y="151" width="14" height="8" fill="#4a9eff" fill-opacity="1" stroke="#3580cc" stroke-width="0.5" rx="3" ry="3">
  <title>RH: F5 (m.62)</title>
</rect>
<rect x="585" y="152" width="2" height="6" rx="1" ry="1" fill="#aed3ff"/>
<rect x="600" y="131" width="14" height="8" fill="#4a9eff" fill-opacity="1" stroke="#3580cc" stroke-width="0.5" rx="3" ry="3">
  <title>RH: G5 (m.62)</title>
</rect>
<rect x="600" y="132" width="2" height="6" rx="1" ry="1" fill="#aed3ff"/>
<rect x="615" y="111" width="44" height="8" fill="#4a9eff" fill-opacity="1" stroke="#3580cc" stroke-width="0.5" rx="3" ry="3">
  <title>RH: A5 (m.62)</title>
</rect>
<rect x="615" y="112" width="2" height="6" rx="1" ry="1" fill="#aed3ff"/>
<rect x="660" y="151" width="14" height="8" fill="#4a9eff" fill-opacity="1" stroke="#3580cc" stroke-width="0.5" rx="3" ry="3">
  <title>RH: F5 (m.62)</title>
</rect>
<rect x="660" y="152" width="2" height="6" rx="1" ry="1" fill="#aed3ff"/>
<rect x="675" y="181" width="29" height="8" fill="#4a9eff" fill-opacity="1" stroke="#3580cc" stroke-width="0.5" rx="3" ry="3">
  <title>RH: D5 (m.62)</title>
</rect>
<rect x="675" y="182" width="2" height="6" rx="1" ry="1" fill="#aed3ff"/>
<rect x="705" y="91" width="14" height="8" fill="#4a9eff" fill-opacity="1" stroke="#3580cc" stroke-width="0.5" rx="3" ry="3">
  <title>RH: B5 (m.62)</title>
</rect>
<rect x="705" y="92" width="2" height="6" rx="1" ry="1" fill="#aed3ff"/>
<rect x="720" y="161" width="119" height="8" fill="#4a9eff" fill-opacity="1" stroke="#3580cc" stroke-width="0.5" rx="3" ry="3">
  <title>RH: E5 (m.62)</title>
</rect>
<rect x="720" y="162" width="2" height="6" rx="1" ry="1" fill="#aed3ff"/>
<rect x="720" y="131" width="119" height="8" fill="#4a9eff" fill-opacity="1" stroke="#3580cc" stroke-width="0.5" rx="3" ry="3">
  <title>RH: G5 (m.62)</title>
</rect>
<rect x="720" y="132" width="2" height="6" rx="1" ry="1" fill="#aed3ff"/>
<rect x="720" y="81" width="119" height="8" fill="#4a9eff" fill-opacity="1" stroke="#3580cc" stroke-width="0.5" rx="3" ry="3">
  <title>RH: C6 (m.62)</title>
</rect>
<rect x="720" y="82" width="2" height="6" rx="1" ry="1" fill="#aed3ff"/>
<text x="180" y="456" text-anchor="middle" fill="#8888aa" font-size="10">61</text>
<text x="420" y="456" text-anchor="middle" fill="#8888aa" font-size="10">62</text>
<circle cx="64" cy="468" r="3" fill="#ffaa33"/>
<circle cx="304" cy="468" r="3" fill="#ffaa33"/>
<rect x="296.3" y="486" width="82.8" height="16" rx="8" ry="8" fill="#242440" stroke="#3a3a5e" stroke-width="0.5"/>
<circle cx="307.3" cy="494" r="3" fill="#4a9eff"/>
<text x="315.3" y="497" fill="#8888aa" font-size="9">Right Hand</text>
<rect x="385.1" y="486" width="77.2" height="16" rx="8" ry="8" fill="#242440" stroke="#3a3a5e" stroke-width="0.5"/>
<circle cx="396.1" cy="494" r="3" fill="#ff6b8a"/>
<text x="404.1" y="497" fill="#8888aa" font-size="9">Left Hand</text>
<rect x="468.4" y="486" width="71.6" height="16" rx="8" ry="8" fill="#242440" stroke="#3a3a5e" stroke-width="0.5"/>
<circle cx="479.4" cy="494" r="3" fill="#ffaa33"/>
<text x="487.4" y="497" fill="#8888aa" font-size="9">Downbeat</text>
</svg>