<svg xmlns="http://www.w3.org/2000/svg" width="1030" height="560" viewBox="0 0 1030 560">
<style>
  text { font-family: 'Consolas', 'SF Mono', 'Fira Code', monospace; }
  .note-rh { fill: #4a9eff; stroke: #3580cc; stroke-width: 0.5; rx: 2; ry: 2; }
  .note-lh { fill: #ff6b8a; stroke: #cc5570; stroke-width: 0.5; rx: 2; ry: 2; }
  .note-rh:hover { opacity: 0.85; }
  .note-lh:hover { opacity: 0.85; }
</style>
<rect width="1030" height="560" fill="#1a1a2e"/>
<text x="60" y="26" fill="#ddddee" font-size="16" font-weight="bold">Nocturne in Eb Major, Op. 9 No. 2 — Frederic Chopin</text>
<text x="60" y="42" fill="#8888aa" font-size="11">Eb major | 120 BPM | 4/4 | m.65–68</text>
<rect x="60" y="490" width="960" height="10" fill="#151526" opacity="0.5"/>
<rect x="60" y="460" width="960" height="10" fill="#151526" opacity="0.5"/>
<rect x="60" y="440" width="960" height="10" fill="#151526" opacity="0.5"/>
<rect x="60" y="410" width="960" height="10" fill="#151526" opacity="0.5"/>
<rect x="60" y="390" width="960" height="10" fill="#151526" opacity="0.5"/>
<rect x="60" y="370" width="960" height="10" fill="#151526" opacity="0.5"/>
<rect x="60" y="340" width="960" height="10" fill="#151526" opacity="0.5"/>
<rect x="60" y="320" width="960" height="10" fill="#151526" opacity="0.5"/>
<rect x="60" y="290" width="960" height="10" fill="#151526" opacity="0.5"/>
<rect x="60" y="270" width="960" height="10" fill="#151526" opacity="0.5"/>
<rect x="60" y="250" width="960" height="10" fill="#151526" opacity="0.5"/>
<rect x="60" y="220" width="960" height="10" fill="#151526" opacity="0.5"/>
<rect x="60" y="200" width="960" height="10" fill="#151526" opacity="0.5"/>
<rect x="60" y="170" width="960" height="10" fill="#151526" opacity="0.5"/>
<rect x="60" y="150" width="960" height="10" fill="#151526" opacity="0.5"/>
<rect x="60" y="130" width="960" height="10" fill="#151526" opacity="0.5"/>
<rect x="60" y="100" width="960" height="10" fill="#151526" opacity="0.5"/>
<rect x="60" y="80" width="960" height="10" fill="#151526" opacity="0.5"/>
<rect x="60" y="50" width="960" height="10" fill="#151526" opacity="0.5"/>
<line x1="60" y1="500" x2="1020" y2="500" stroke="#2a2a3e" stroke-width="0.3"/>
<line x1="60" y1="490" x2="1020" y2="490" stroke="#2a2a3e" stroke-width="0.3"/>
<line x1="60" y1="480" x2="1020" y2="480" stroke="#2a2a3e" stroke-width="0.3"/>
<line x1="60" y1="470" x2="1020" y2="470" stroke="#3a3a5e" stroke-width="1"/>
<line x1="60" y1="460" x2="1020" y2="460" stroke="#2a2a3e" stroke-width="0.3"/>
<line x1="60" y1="450" x2="1020" y2="450" stroke="#2a2a3e" stroke-width="0.3"/>
<line x1="60" y1="440" x2="1020" y2="440" stroke="#2a2a3e" stroke-width="0.3"/>
<line x1="60" y1="430" x2="1020" y2="430" stroke="#2a2a3e" stroke-width="0.3"/>
<line x1="60" y1="420" x2="1020" y2="420" stroke="#2a2a3e" stroke-width="0.3"/>
<line x1="60" y1="410" x2="1020" y2="410" stroke="#2a2a3e" stroke-width="0.3"/>
<line x1="60" y1="400" x2="1020" y2="400" stroke="#2a2a3e" stroke-width="0.3"/>
<line x1="60" y1="390" x2="1020" y2="390" stroke="#2a2a3e" stroke-width="0.3"/>
<line x1="60" y1="380" x2="1020" y2="380" stroke="#2a2a3e" stroke-width="0.3"/>
<line x1="60" y1="370" x2="1020" y2="370" stroke="#2a2a3e" stroke-width="0.3"/>
<line x1="60" y1="360" x2="1020" y2="360" stroke="#2a2a3e" stroke-width="0.3"/>
<line x1="60" y1="350" x2="1020" y2="350" stroke="#3a3a5e" stroke-width="1"/>
<line x1="60" y1="340" x2="1020" y2="340" stroke="#2a2a3e" stroke-width="0.3"/>
<line x1="60" y1="330" x2="1020" y2="330" stroke="#2a2a3e" stroke-width="0.3"/>
<line x1="60" y1="320" x2="1020" y2="320" stroke="#2a2a3e" stroke-width="0.3"/>
<line x1="60" y1="310" x2="1020" y2="310" stroke="#2a2a3e" stroke-width="0.3"/>
<line x1="60" y1="300" x2="1020" y2="300" stroke="#2a2a3e" stroke-width="0.3"/>
<line x1="60" y1="290" x2="1020" y2="290" stroke="#2a2a3e" stroke-width="0.3"/>
<line x1="60" y1="280" x2="1020" y2="280" stroke="#2a2a3e" stroke-width="0.3"/>
<line x1="60" y1="270" x2="1020" y2="270" stroke="#2a2a3e" stroke-width="0.3"/>
<line x1="60" y1="260" x2="1020" y2="260" stroke="#2a2a3e" stroke-width="0.3"/>
<line x1="60" y1="250" x2="1020" y2="250" stroke="#2a2a3e" stroke-width="0.3"/>
<line x1="60" y1="240" x2="1020" y2="240" stroke="#2a2a3e" stroke-width="0.3"/>
<line x1="60" y1="230" x2="1020" y2="230" stroke="#3a3a5e" stroke-width="1"/>
<line x1="60" y1="220" x2="1020" y2="220" stroke="#2a2a3e" stroke-width="0.3"/>
<line x1="60" y1="210" x2="1020" y2="210" stroke="#2a2a3e" stroke-width="0.3"/>
<line x1="60" y1="200" x2="1020" y2="200" stroke="#2a2a3e" stroke-width="0.3"/>
<line x1="60" y1="190" x2="1020" y2="190" stroke="#2a2a3e" stroke-width="0.3"/>
<line x1="60" y1="180" x2="1020" y2="180" stroke="#2a2a3e" stroke-width="0.3"/>
<line x1="60" y1="170" x2="1020" y2="170" stroke="#2a2a3e" stroke-width="0.3"/>
<line x1="60" y1="160" x2="1020" y2="160" stroke="#2a2a3e" stroke-width="0.3"/>
<line x1="60" y1="150" x2="1020" y2="150" stroke="#2a2a3e" stroke-width="0.3"/>
<line x1="60" y1="140" x2="1020" y2="140" stroke="#2a2a3e" stroke-width="0.3"/>
<line x1="60" y1="130" x2="1020" y2="130" stroke="#2a2a3e" stroke-width="0.3"/>
<line x1="60" y1="120" x2="1020" y2="120" stroke="#2a2a3e" stroke-width="0.3"/>
<line x1="60" y1="110" x2="1020" y2="110" stroke="#3a3a5e" stroke-width="1"/>
<line x1="60" y1="100" x2="1020" y2="100" stroke="#2a2a3e" stroke-width="0.3"/>
<line x1="60" y1="90" x2="1020" y2="90" stroke="#2a2a3e" stroke-width="0.3"/>
<line x1="60" y1="80" x2="1020" y2="80" stroke="#2a2a3e" stroke-width="0.3"/>
<line x1="60" y1="70" x2="1020" y2="70" stroke="#2a2a3e" stroke-width="0.3"/>
<line x1="60" y1="60" x2="1020" y2="60" stroke="#2a2a3e" stroke-width="0.3"/>
<line x1="60" y1="50" x2="1020" y2="50" stroke="#2a2a3e" stroke-width="0.3"/>
<line x1="60" y1="50" x2="60" y2="510" stroke="#3a3a5e" stroke-width="1.5"/>
<line x1="120" y1="50" x2="120" y2="510" stroke="#2a2a3e" stroke-width="0.3" stroke-dasharray="2,3"/>
<line x1="180" y1="50" x2="180" y2="510" stroke="#2a2a3e" stroke-width="0.3" stroke-dasharray="2,3"/>
<line x1="240" y1="50" x2="240" y2="510" stroke="#2a2a3e" stroke-width="0.3" stroke-dasharray="2,3"/>
<line x1="300" y1="50" x2="300" y2="510" stroke="#3a3a5e" stroke-width="1.5"/>
<line x1="360" y1="50" x2="360" y2="510" stroke="#2a2a3e" stroke-width="0.3" stroke-dasharray="2,3"/>
<line x1="420" y1="50" x2="420" y2="510" stroke="#2a2a3e" stroke-width="0.3" stroke-dasharray="2,3"/>
<line x1="480" y1="50" x2="480" y2="510" stroke="#2a2a3e" stroke-width="0.3" stroke-dasharray="2,3"/>
<line x1="540" y1="50" x2="540" y2="510" stroke="#3a3a5e" stroke-width="1.5"/>
<line x1="600" y1="50" x2="600" y2="510" stroke="#2a2a3e" stroke-width="0.3" stroke-dasharray="2,3"/>
<line x1="660" y1="50" x2="660" y2="510" stroke="#2a2a3e" stroke-width="0.3" stroke-dasharray="2,3"/>
<line x1="720" y1="50" x2="720" y2="510" stroke="#2a2a3e" stroke-width="0.3" stroke-dasharray="2,3"/>
<line x1="780" y1="50" x2="780" y2="510" stroke="#3a3a5e" stroke-width="1.5"/>
<line x1="840" y1="50" x2="840" y2="510" stroke="#2a2a3e" stroke-width="0.3" stroke-dasharray="2,3"/>
<line x1="900" y1="50" x2="900" y2="510" stroke="#2a2a3e" stroke-width="0.3" stroke-dasharray="2,3"/>
<line x1="960" y1="50" x2="960" y2="510" stroke="#2a2a3e" stroke-width="0.3" stroke-dasharray="2,3"/>
<line x1="1020" y1="50" x2="1020" y2="510" stroke="#3a3a5e" stroke-width="1.5"/>
<text x="56" y="507" text-anchor="end" fill="#666688" font-size="8" font-weight="normal">A1</text>
<text x="56" y="487" text-anchor="end" fill="#666688" font-size="8" font-weight="normal">B1</text>
<text x="56" y="477" text-anchor="end" fill="#aaaacc" font-size="10" font-weight="bold">C2</text>
<text x="56" y="457" text-anchor="end" fill="#666688" font-size="8" font-weight="normal">D2</text>
<text x="56" y="437" text-anchor="end" fill="#666688" font-size="8" font-weight="normal">E2</text>
<text x="56" y="427" text-anchor="end" fill="#666688" font-size="8" font-weight="normal">F2</text>
<text x="56" y="407" text-anchor="end" fill="#666688" font-size="8" font-weight="normal">G2</text>
<text x="56" y="387" text-anchor="end" fill="#666688" font-size="8" font-weight="normal">A2</text>
<text x="56" y="367" text-anchor="end" fill="#666688" font-size="8" font-weight="normal">B2</text>
<text x="56" y="357" text-anchor="end" fill="#aaaacc" font-size="10" font-weight="bold">C3</text>
<text x="56" y="337" text-anchor="end" fill="#666688" font-size="8" font-weight="normal">D3</text>
<text x="56" y="317" text-anchor="end" fill="#666688" font-size="8" font-weight="normal">E3</text>
<text x="56" y="307" text-anchor="end" fill="#666688" font-size="8" font-weight="normal">F3</text>
<text x="56" y="287" text-anchor="end" fill="#666688" font-size="8" font-weight="normal">G3</text>
<text x="56" y="267" text-anchor="end" fill="#666688" font-size="8" font-weight="normal">A3</text>
<text x="56" y="247" text-anchor="end" fill="#666688" font-size="8" font-weight="normal">B3</text>
<text x="56" y="237" text-anchor="end" fill="#aaaacc" font-size="10" font-weight="bold">C4</text>
<text x="56" y="217" text-anchor="end" fill="#666688" font-size="8" font-weight="normal">D4</text>
<text x="56" y="197" text-anchor="end" fill="#666688" font-size="8" font-weight="normal">E4</text>
<text x="56" y="187" text-anchor="end" fill="#666688" font-size="8" font-weight="normal">F4</text>
<text x="56" y="167" text-anchor="end" fill="#666688" font-size="8" font-weight="normal">G4</text>
<text x="56" y="147" text-anchor="end" fill="#666688" font-size="8" font-weight="normal">A4</text>
<text x="56" y="127" text-anchor="end" fill="#666688" font-size="8" font-weight="normal">B4</text>
<text x="56" y="117" text-anchor="end" fill="#aaaacc" font-size="10" font-weight="bold">C5</text>
<text x="56" y="97" text-anchor="end" fill="#666688" font-size="8" font-weight="normal">D5</text>
<text x="56" y="77" text-anchor="end" fill="#666688" font-size="8" font-weight="normal">E5</text>
<text x="56" y="67" text-anchor="end" fill="#666688" font-size="8" font-weight="normal">F5</text>
<rect x="60" y="141" width="14" height="8" fill="#4a9eff" stroke="#3580cc" stroke-width="0.5" rx="2" ry="2">
  <title>RH: A4 (m.65)</title>
</rect>
<rect x="214.99999999999997" y="211" width="19" height="8" fill="#4a9eff" stroke="#3580cc" stroke-width="0.5" rx="2" ry="2">
  <title>RH: D4 (m.65)</title>
</rect>
<rect x="235" y="131" width="14" height="8" fill="#4a9eff" stroke="#3580cc" stroke-width="0.5" rx="2" ry="2">
  <title>RH: A#4 (m.65)</title>
</rect>
<rect x="250" y="211" width="14" height="8" fill="#4a9eff" stroke="#3580cc" stroke-width="0.5" rx="2" ry="2">
  <title>RH: D4 (m.65)</title>
</rect>
<rect x="60" y="401" width="29" height="8" fill="#ff6b8a" stroke="#cc5570" stroke-width="0.5" rx="2" ry="2">
  <title>LH: G2 (m.65)</title>
</rect>
<rect x="90" y="281" width="19" height="8" fill="#ff6b8a" stroke="#cc5570" stroke-width="0.5" rx="2" ry="2">
  <title>LH: G3 (m.65)</title>
</rect>
<rect x="110" y="251" width="29" height="8" fill="#ff6b8a" stroke="#cc5570" stroke-width="0.5" rx="2" ry="2">
  <title>LH: A#3 (m.65)</title>
</rect>
<rect x="300" y="81" width="119" height="8" fill="#4a9eff" stroke="#3580cc" stroke-width="0.5" rx="2" ry="2">
  <title>RH: D#5 (m.66)</title>
</rect>
<rect x="420" y="161" width="89" height="8" fill="#4a9eff" stroke="#3580cc" stroke-width="0.5" rx="2" ry="2">
  <title>RH: G4 (m.66)</title>
</rect>
<rect x="510" y="201" width="29" height="8" fill="#4a9eff" stroke="#3580cc" stroke-width="0.5" rx="2" ry="2">
  <title>RH: D#4 (m.66)</title>
</rect>
<rect x="560" y="231" width="19" height="8" fill="#4a9eff" stroke="#3580cc" stroke-width="0.5" rx="2" ry="2">
  <title>RH: C4 (m.66)</title>
</rect>
<rect x="300" y="471" width="29" height="8" fill="#ff6b8a" stroke="#cc5570" stroke-width="0.5" rx="2" ry="2">
  <title>LH: C2 (m.66)</title>
</rect>
<rect x="330" y="281" width="19" height="8" fill="#ff6b8a" stroke="#cc5570" stroke-width="0.5" rx="2" ry="2">
  <title>LH: G3 (m.66)</title>
</rect>
<rect x="680" y="201" width="14" height="8" fill="#4a9eff" stroke="#3580cc" stroke-width="0.5" rx="2" ry="2">
  <title>RH: D#4 (m.67)</title>
</rect>
<rect x="755" y="231" width="29" height="8" fill="#4a9eff" stroke="#3580cc" stroke-width="0.5" rx="2" ry="2">
  <title>RH: C4 (m.67)</title>
</rect>
<rect x="540" y="421" width="29" height="8" fill="#ff6b8a" stroke="#cc5570" stroke-width="0.5" rx="2" ry="2">
  <title>LH: F2 (m.67)</title>
</rect>
<rect x="570" y="301" width="119" height="8" fill="#ff6b8a" stroke="#cc5570" stroke-width="0.5" rx="2" ry="2">
  <title>LH: F3 (m.67)</title>
</rect>
<rect x="690" y="251" width="44" height="8" fill="#ff6b8a" stroke="#cc5570" stroke-width="0.5" rx="2" ry="2">
  <title>LH: A#3 (m.67)</title>
</rect>
<rect x="735" y="261" width="59" height="8" fill="#ff6b8a" stroke="#cc5570" stroke-width="0.5" rx="2" ry="2">
  <title>LH: A3 (m.67)</title>
</rect>
<rect x="900" y="191" width="44" height="8" fill="#4a9eff" stroke="#3580cc" stroke-width="0.5" rx="2" ry="2">
  <title>RH: E4 (m.68)</title>
</rect>
<rect x="780" y="271" width="59" height="8" fill="#ff6b8a" stroke="#cc5570" stroke-width="0.5" rx="2" ry="2">
  <title>LH: G#3 (m.68)</title>
</rect>
<rect x="840" y="281" width="59" height="8" fill="#ff6b8a" stroke="#cc5570" stroke-width="0.5" rx="2" ry="2">
  <title>LH: G3 (m.68)</title>
</rect>
<rect x="900" y="301" width="59" height="8" fill="#ff6b8a" stroke="#cc5570" stroke-width="0.5" rx="2" ry="2">
  <title>LH: F3 (m.68)</title>
</rect>
<text x="180" y="526" text-anchor="middle" fill="#8888aa" font-size="10">65</text>
<text x="420" y="526" text-anchor="middle" fill="#8888aa" font-size="10">66</text>
<text x="660" y="526" text-anchor="middle" fill="#8888aa" font-size="10">67</text>
<text x="900" y="526" text-anchor="middle" fill="#8888aa" font-size="10">68</text>
<circle cx="64" cy="538" r="3" fill="#ffaa33"/>
<circle cx="304" cy="538" r="3" fill="#ffaa33"/>
<circle cx="544" cy="538" r="3" fill="#ffaa33"/>
<circle cx="784" cy="538" r="3" fill="#ffaa33"/>
<rect x="900" y="518" width="8" height="8" fill="#4a9eff" rx="1"/>
<text x="912" y="526" fill="#8888aa" font-size="9">Right Hand</text>
<rect x="970" y="518" width="8" height="8" fill="#ff6b8a" rx="1"/>
<text x="982" y="526" fill="#8888aa" font-size="9">Left Hand</text>
</svg>