<svg xmlns="http://www.w3.org/2000/svg" width="1030" height="380" viewBox="0 0 1030 380">
<style>
  text { font-family: 'Consolas', 'SF Mono', 'Fira Code', monospace; }
  .note-rh { fill: #4a9eff; stroke: #3580cc; stroke-width: 0.5; rx: 2; ry: 2; }
  .note-lh { fill: #ff6b8a; stroke: #cc5570; stroke-width: 0.5; rx: 2; ry: 2; }
  .note-rh:hover { opacity: 0.85; }
  .note-lh:hover { opacity: 0.85; }
</style>
<rect width="1030" height="380" fill="#1a1a2e"/>
<text x="60" y="26" fill="#ddddee" font-size="16" font-weight="bold">Prelude in E Minor, Op. 28 No. 4 — Frederic Chopin</text>
<text x="60" y="42" fill="#8888aa" font-size="11">E minor | 120 BPM | 4/4 | m.17–20</text>
<rect x="60" y="300" width="960" height="10" fill="#151526" opacity="0.5"/>
<rect x="60" y="280" width="960" height="10" fill="#151526" opacity="0.5"/>
<rect x="60" y="250" width="960" height="10" fill="#151526" opacity="0.5"/>
<rect x="60" y="230" width="960" height="10" fill="#151526" opacity="0.5"/>
<rect x="60" y="210" width="960" height="10" fill="#151526" opacity="0.5"/>
<rect x="60" y="180" width="960" height="10" fill="#151526" opacity="0.5"/>
<rect x="60" y="160" width="960" height="10" fill="#151526" opacity="0.5"/>
<rect x="60" y="130" width="960" height="10" fill="#151526" opacity="0.5"/>
<rect x="60" y="110" width="960" height="10" fill="#151526" opacity="0.5"/>
<rect x="60" y="90" width="960" height="10" fill="#151526" opacity="0.5"/>
<rect x="60" y="60" width="960" height="10" fill="#151526" opacity="0.5"/>
<line x1="60" y1="320" x2="1020" y2="320" stroke="#2a2a3e" stroke-width="0.3"/>
<line x1="60" y1="310" x2="1020" y2="310" stroke="#3a3a5e" stroke-width="1"/>
<line x1="60" y1="300" x2="1020" y2="300" stroke="#2a2a3e" stroke-width="0.3"/>
<line x1="60" y1="290" x2="1020" y2="290" stroke="#2a2a3e" stroke-width="0.3"/>
<line x1="60" y1="280" x2="1020" y2="280" stroke="#2a2a3e" stroke-width="0.3"/>
<line x1="60" y1="270" x2="1020" y2="270" stroke="#2a2a3e" stroke-width="0.3"/>
<line x1="60" y1="260" x2="1020" y2="260" stroke="#2a2a3e" stroke-width="0.3"/>
<line x1="60" y1="250" x2="1020" y2="250" stroke="#2a2a3e" stroke-width="0.3"/>
<line x1="60" y1="240" x2="1020" y2="240" stroke="#2a2a3e" stroke-width="0.3"/>
<line x1="60" y1="230" x2="1020" y2="230" stroke="#2a2a3e" stroke-width="0.3"/>
<line x1="60" y1="220" x2="1020" y2="220" stroke="#2a2a3e" stroke-width="0.3"/>
<line x1="60" y1="210" x2="1020" y2="210" stroke="#2a2a3e" stroke-width="0.3"/>
<line x1="60" y1="200" x2="1020" y2="200" stroke="#2a2a3e" stroke-width="0.3"/>
<line x1="60" y1="190" x2="1020" y2="190" stroke="#3a3a5e" stroke-width="1"/>
<line x1="60" y1="180" x2="1020" y2="180" stroke="#2a2a3e" stroke-width="0.3"/>
<line x1="60" y1="170" x2="1020" y2="170" stroke="#2a2a3e" stroke-width="0.3"/>
<line x1="60" y1="160" x2="1020" y2="160" stroke="#2a2a3e" stroke-width="0.3"/>
<line x1="60" y1="150" x2="1020" y2="150" stroke="#2a2a3e" stroke-width="0.3"/>
<line x1="60" y1="140" x2="1020" y2="140" stroke="#2a2a3e" stroke-width="0.3"/>
<line x1="60" y1="130" x2="1020" y2="130" stroke="#2a2a3e" stroke-width="0.3"/>
<line x1="60" y1="120" x2="1020" y2="120" stroke="#2a2a3e" stroke-width="0.3"/>
<line x1="60" y1="110" x2="1020" y2="110" stroke="#2a2a3e" stroke-width="0.3"/>
<line x1="60" y1="100" x2="1020" y2="100" stroke="#2a2a3e" stroke-width="0.3"/>
<line x1="60" y1="90" x2="1020" y2="90" stroke="#2a2a3e" stroke-width="0.3"/>
<line x1="60" y1="80" x2="1020" y2="80" stroke="#2a2a3e" stroke-width="0.3"/>
<line x1="60" y1="70" x2="1020" y2="70" stroke="#3a3a5e" stroke-width="1"/>
<line x1="60" y1="60" x2="1020" y2="60" stroke="#2a2a3e" stroke-width="0.3"/>
<line x1="60" y1="50" x2="1020" y2="50" stroke="#2a2a3e" stroke-width="0.3"/>
<line x1="60" y1="50" x2="60" y2="330" stroke="#3a3a5e" stroke-width="1.5"/>
<line x1="120" y1="50" x2="120" y2="330" stroke="#2a2a3e" stroke-width="0.3" stroke-dasharray="2,3"/>
<line x1="180" y1="50" x2="180" y2="330" stroke="#2a2a3e" stroke-width="0.3" stroke-dasharray="2,3"/>
<line x1="240" y1="50" x2="240" y2="330" stroke="#2a2a3e" stroke-width="0.3" stroke-dasharray="2,3"/>
<line x1="300" y1="50" x2="300" y2="330" stroke="#3a3a5e" stroke-width="1.5"/>
<line x1="360" y1="50" x2="360" y2="330" stroke="#2a2a3e" stroke-width="0.3" stroke-dasharray="2,3"/>
<line x1="420" y1="50" x2="420" y2="330" stroke="#2a2a3e" stroke-width="0.3" stroke-dasharray="2,3"/>
<line x1="480" y1="50" x2="480" y2="330" stroke="#2a2a3e" stroke-width="0.3" stroke-dasharray="2,3"/>
<line x1="540" y1="50" x2="540" y2="330" stroke="#3a3a5e" stroke-width="1.5"/>
<line x1="600" y1="50" x2="600" y2="330" stroke="#2a2a3e" stroke-width="0.3" stroke-dasharray="2,3"/>
<line x1="660" y1="50" x2="660" y2="330" stroke="#2a2a3e" stroke-width="0.3" stroke-dasharray="2,3"/>
<line x1="720" y1="50" x2="720" y2="330" stroke="#2a2a3e" stroke-width="0.3" stroke-dasharray="2,3"/>
<line x1="780" y1="50" x2="780" y2="330" stroke="#3a3a5e" stroke-width="1.5"/>
<line x1="840" y1="50" x2="840" y2="330" stroke="#2a2a3e" stroke-width="0.3" stroke-dasharray="2,3"/>
<line x1="900" y1="50" x2="900" y2="330" stroke="#2a2a3e" stroke-width="0.3" stroke-dasharray="2,3"/>
<line x1="960" y1="50" x2="960" y2="330" stroke="#2a2a3e" stroke-width="0.3" stroke-dasharray="2,3"/>
<line x1="1020" y1="50" x2="1020" y2="330" stroke="#3a3a5e" stroke-width="1.5"/>
<text x="56" y="327" text-anchor="end" fill="#666688" font-size="8" font-weight="normal">B2</text>
<text x="56" y="317" text-anchor="end" fill="#aaaacc" font-size="10" font-weight="bold">C3</text>
<text x="56" y="297" text-anchor="end" fill="#666688" font-size="8" font-weight="normal">D3</text>
<text x="56" y="277" text-anchor="end" fill="#666688" font-size="8" font-weight="normal">E3</text>
<text x="56" y="267" text-anchor="end" fill="#666688" font-size="8" font-weight="normal">F3</text>
<text x="56" y="247" text-anchor="end" fill="#666688" font-size="8" font-weight="normal">G3</text>
<text x="56" y="227" text-anchor="end" fill="#666688" font-size="8" font-weight="normal">A3</text>
<text x="56" y="207" text-anchor="end" fill="#666688" font-size="8" font-weight="normal">B3</text>
<text x="56" y="197" text-anchor="end" fill="#aaaacc" font-size="10" font-weight="bold">C4</text>
<text x="56" y="177" text-anchor="end" fill="#666688" font-size="8" font-weight="normal">D4</text>
<text x="56" y="157" text-anchor="end" fill="#666688" font-size="8" font-weight="normal">E4</text>
<text x="56" y="147" text-anchor="end" fill="#666688" font-size="8" font-weight="normal">F4</text>
<text x="56" y="127" text-anchor="end" fill="#666688" font-size="8" font-weight="normal">G4</text>
<text x="56" y="107" text-anchor="end" fill="#666688" font-size="8" font-weight="normal">A4</text>
<text x="56" y="87" text-anchor="end" fill="#666688" font-size="8" font-weight="normal">B4</text>
<text x="56" y="77" text-anchor="end" fill="#aaaacc" font-size="10" font-weight="bold">C5</text>
<text x="56" y="57" text-anchor="end" fill="#666688" font-size="8" font-weight="normal">D5</text>
<rect x="60" y="101" width="239" height="8" fill="#4a9eff" stroke="#3580cc" stroke-width="0.5" rx="2" ry="2">
  <title>RH: A4 (m.17)</title>
</rect>
<rect x="300" y="191" width="39" height="8" fill="#4a9eff" stroke="#3580cc" stroke-width="0.5" rx="2" ry="2">
  <title>RH: C4 (m.17)</title>
</rect>
<rect x="340" y="191" width="29" height="8" fill="#4a9eff" stroke="#3580cc" stroke-width="0.5" rx="2" ry="2">
  <title>RH: C4 (m.17)</title>
</rect>
<rect x="370" y="191" width="29" height="8" fill="#4a9eff" stroke="#3580cc" stroke-width="0.5" rx="2" ry="2">
  <title>RH: C4 (m.17)</title>
</rect>
<rect x="105" y="251" width="39" height="8" fill="#ff6b8a" stroke="#cc5570" stroke-width="0.5" rx="2" ry="2">
  <title>LH: F#3 (m.17)</title>
</rect>
<rect x="145" y="291" width="29" height="8" fill="#ff6b8a" stroke="#cc5570" stroke-width="0.5" rx="2" ry="2">
  <title>LH: D3 (m.17)</title>
</rect>
<rect x="300" y="191" width="39" height="8" fill="#4a9eff" stroke="#3580cc" stroke-width="0.5" rx="2" ry="2">
  <title>RH: C4 (m.18)</title>
</rect>
<rect x="340" y="191" width="29" height="8" fill="#4a9eff" stroke="#3580cc" stroke-width="0.5" rx="2" ry="2">
  <title>RH: C4 (m.18)</title>
</rect>
<rect x="370" y="191" width="19" height="8" fill="#4a9eff" stroke="#3580cc" stroke-width="0.5" rx="2" ry="2">
  <title>RH: C4 (m.18)</title>
</rect>
<rect x="390" y="81" width="119" height="8" fill="#4a9eff" stroke="#3580cc" stroke-width="0.5" rx="2" ry="2">
  <title>RH: B4 (m.18)</title>
</rect>
<rect x="510" y="191" width="29" height="8" fill="#4a9eff" stroke="#3580cc" stroke-width="0.5" rx="2" ry="2">
  <title>RH: C4 (m.18)</title>
</rect>
<rect x="300" y="251" width="39" height="8" fill="#ff6b8a" stroke="#cc5570" stroke-width="0.5" rx="2" ry="2">
  <title>LH: F#3 (m.18)</title>
</rect>
<rect x="340" y="291" width="29" height="8" fill="#ff6b8a" stroke="#cc5570" stroke-width="0.5" rx="2" ry="2">
  <title>LH: D3 (m.18)</title>
</rect>
<rect x="410" y="251" width="29" height="8" fill="#ff6b8a" stroke="#cc5570" stroke-width="0.5" rx="2" ry="2">
  <title>LH: F#3 (m.18)</title>
</rect>
<rect x="440" y="291" width="29" height="8" fill="#ff6b8a" stroke="#cc5570" stroke-width="0.5" rx="2" ry="2">
  <title>LH: D3 (m.18)</title>
</rect>
<rect x="470" y="251" width="39" height="8" fill="#ff6b8a" stroke="#cc5570" stroke-width="0.5" rx="2" ry="2">
  <title>LH: F#3 (m.18)</title>
</rect>
<rect x="510" y="291" width="29" height="8" fill="#ff6b8a" stroke="#cc5570" stroke-width="0.5" rx="2" ry="2">
  <title>LH: D3 (m.18)</title>
</rect>
<rect x="540" y="191" width="29" height="8" fill="#4a9eff" stroke="#3580cc" stroke-width="0.5" rx="2" ry="2">
  <title>RH: C4 (m.19)</title>
</rect>
<rect x="570" y="101" width="29" height="8" fill="#4a9eff" stroke="#3580cc" stroke-width="0.5" rx="2" ry="2">
  <title>RH: A4 (m.19)</title>
</rect>
<rect x="840" y="191" width="29" height="8" fill="#4a9eff" stroke="#3580cc" stroke-width="0.5" rx="2" ry="2">
  <title>RH: C4 (m.19)</title>
</rect>
<rect x="540" y="251" width="39" height="8" fill="#ff6b8a" stroke="#cc5570" stroke-width="0.5" rx="2" ry="2">
  <title>LH: F#3 (m.19)</title>
</rect>
<rect x="580" y="291" width="29" height="8" fill="#ff6b8a" stroke="#cc5570" stroke-width="0.5" rx="2" ry="2">
  <title>LH: D3 (m.19)</title>
</rect>
<rect x="655" y="261" width="39" height="8" fill="#ff6b8a" stroke="#cc5570" stroke-width="0.5" rx="2" ry="2">
  <title>LH: F3 (m.19)</title>
</rect>
<rect x="695" y="291" width="29" height="8" fill="#ff6b8a" stroke="#cc5570" stroke-width="0.5" rx="2" ry="2">
  <title>LH: D3 (m.19)</title>
</rect>
<rect x="780" y="191" width="29" height="8" fill="#4a9eff" stroke="#3580cc" stroke-width="0.5" rx="2" ry="2">
  <title>RH: C4 (m.20)</title>
</rect>
<rect x="810" y="191" width="39" height="8" fill="#4a9eff" stroke="#3580cc" stroke-width="0.5" rx="2" ry="2">
  <title>RH: C4 (m.20)</title>
</rect>
<rect x="780" y="261" width="29" height="8" fill="#ff6b8a" stroke="#cc5570" stroke-width="0.5" rx="2" ry="2">
  <title>LH: F3 (m.20)</title>
</rect>
<rect x="810" y="291" width="29" height="8" fill="#ff6b8a" stroke="#cc5570" stroke-width="0.5" rx="2" ry="2">
  <title>LH: D3 (m.20)</title>
</rect>
<rect x="840" y="261" width="39" height="8" fill="#ff6b8a" stroke="#cc5570" stroke-width="0.5" rx="2" ry="2">
  <title>LH: F3 (m.20)</title>
</rect>
<rect x="880" y="291" width="29" height="8" fill="#ff6b8a" stroke="#cc5570" stroke-width="0.5" rx="2" ry="2">
  <title>LH: D3 (m.20)</title>
</rect>
<rect x="910" y="201" width="44" height="8" fill="#ff6b8a" stroke="#cc5570" stroke-width="0.5" rx="2" ry="2">
  <title>LH: B3 (m.20)</title>
</rect>
<rect x="1035" y="291" width="29" height="8" fill="#ff6b8a" stroke="#cc5570" stroke-width="0.5" rx="2" ry="2">
  <title>LH: D3 (m.20)</title>
</rect>
<text x="180" y="346" text-anchor="middle" fill="#8888aa" font-size="10">17</text>
<text x="420" y="346" text-anchor="middle" fill="#8888aa" font-size="10">18</text>
<text x="660" y="346" text-anchor="middle" fill="#8888aa" font-size="10">19</text>
<text x="900" y="346" text-anchor="middle" fill="#8888aa" font-size="10">20</text>
<circle cx="64" cy="358" r="3" fill="#ffaa33"/>
<circle cx="304" cy="358" r="3" fill="#ffaa33"/>
<circle cx="544" cy="358" r="3" fill="#ffaa33"/>
<circle cx="784" cy="358" r="3" fill="#ffaa33"/>
<rect x="900" y="338" width="8" height="8" fill="#4a9eff" rx="1"/>
<text x="912" y="346" fill="#8888aa" font-size="9">Right Hand</text>
<rect x="970" y="338" width="8" height="8" fill="#ff6b8a" rx="1"/>
<text x="982" y="346" fill="#8888aa" font-size="9">Left Hand</text>
</svg>