<svg xmlns="http://www.w3.org/2000/svg" width="1150" height="600" viewBox="0 0 1150 600">
<style>
  text { font-family: 'Consolas', 'SF Mono', 'Fira Code', monospace; }
  .note-rh { fill: #4a9eff; stroke: #3580cc; stroke-width: 0.5; rx: 2; ry: 2; }
  .note-lh { fill: #ff6b8a; stroke: #cc5570; stroke-width: 0.5; rx: 2; ry: 2; }
  .note-rh:hover { opacity: 0.85; }
  .note-lh:hover { opacity: 0.85; }
</style>
<rect width="1150" height="600" fill="#1a1a2e"/>
<text x="60" y="26" fill="#ddddee" font-size="16" font-weight="bold">Clair de Lune (Suite bergamasque, III) — Claude Debussy</text>
<text x="60" y="42" fill="#8888aa" font-size="11">Db major | 100 BPM | 9/8 | m.55–58</text>
<rect x="60" y="530" width="1080" height="10" fill="#151526" opacity="0.5"/>
<rect x="60" y="510" width="1080" height="10" fill="#151526" opacity="0.5"/>
<rect x="60" y="490" width="1080" height="10" fill="#151526" opacity="0.5"/>
<rect x="60" y="460" width="1080" height="10" fill="#151526" opacity="0.5"/>
<rect x="60" y="440" width="1080" height="10" fill="#151526" opacity="0.5"/>
<rect x="60" y="410" width="1080" height="10" fill="#151526" opacity="0.5"/>
<rect x="60" y="390" width="1080" height="10" fill="#151526" opacity="0.5"/>
<rect x="60" y="370" width="1080" height="10" fill="#151526" opacity="0.5"/>
<rect x="60" y="340" width="1080" height="10" fill="#151526" opacity="0.5"/>
<rect x="60" y="320" width="1080" height="10" fill="#151526" opacity="0.5"/>
<rect x="60" y="290" width="1080" height="10" fill="#151526" opacity="0.5"/>
<rect x="60" y="270" width="1080" height="10" fill="#151526" opacity="0.5"/>
<rect x="60" y="250" width="1080" height="10" fill="#151526" opacity="0.5"/>
<rect x="60" y="220" width="1080" height="10" fill="#151526" opacity="0.5"/>
<rect x="60" y="200" width="1080" height="10" fill="#151526" opacity="0.5"/>
<rect x="60" y="170" width="1080" height="10" fill="#151526" opacity="0.5"/>
<rect x="60" y="150" width="1080" height="10" fill="#151526" opacity="0.5"/>
<rect x="60" y="130" width="1080" height="10" fill="#151526" opacity="0.5"/>
<rect x="60" y="100" width="1080" height="10" fill="#151526" opacity="0.5"/>
<rect x="60" y="80" width="1080" height="10" fill="#151526" opacity="0.5"/>
<rect x="60" y="50" width="1080" height="10" fill="#151526" opacity="0.5"/>
<line x1="60" y1="540" x2="1140" y2="540" stroke="#2a2a3e" stroke-width="0.3"/>
<line x1="60" y1="530" x2="1140" y2="530" stroke="#2a2a3e" stroke-width="0.3"/>
<line x1="60" y1="520" x2="1140" y2="520" stroke="#2a2a3e" stroke-width="0.3"/>
<line x1="60" y1="510" x2="1140" y2="510" stroke="#2a2a3e" stroke-width="0.3"/>
<line x1="60" y1="500" x2="1140" y2="500" stroke="#2a2a3e" stroke-width="0.3"/>
<line x1="60" y1="490" x2="1140" y2="490" stroke="#2a2a3e" stroke-width="0.3"/>
<line x1="60" y1="480" x2="1140" y2="480" stroke="#2a2a3e" stroke-width="0.3"/>
<line x1="60" y1="470" x2="1140" y2="470" stroke="#3a3a5e" stroke-width="1"/>
<line x1="60" y1="460" x2="1140" y2="460" stroke="#2a2a3e" stroke-width="0.3"/>
<line x1="60" y1="450" x2="1140" y2="450" stroke="#2a2a3e" stroke-width="0.3"/>
<line x1="60" y1="440" x2="1140" y2="440" stroke="#2a2a3e" stroke-width="0.3"/>
<line x1="60" y1="430" x2="1140" y2="430" stroke="#2a2a3e" stroke-width="0.3"/>
<line x1="60" y1="420" x2="1140" y2="420" stroke="#2a2a3e" stroke-width="0.3"/>
<line x1="60" y1="410" x2="1140" y2="410" stroke="#2a2a3e" stroke-width="0.3"/>
<line x1="60" y1="400" x2="1140" y2="400" stroke="#2a2a3e" stroke-width="0.3"/>
<line x1="60" y1="390" x2="1140" y2="390" stroke="#2a2a3e" stroke-width="0.3"/>
<line x1="60" y1="380" x2="1140" y2="380" stroke="#2a2a3e" stroke-width="0.3"/>
<line x1="60" y1="370" x2="1140" y2="370" stroke="#2a2a3e" stroke-width="0.3"/>
<line x1="60" y1="360" x2="1140" y2="360" stroke="#2a2a3e" stroke-width="0.3"/>
<line x1="60" y1="350" x2="1140" y2="350" stroke="#3a3a5e" stroke-width="1"/>
<line x1="60" y1="340" x2="1140" y2="340" stroke="#2a2a3e" stroke-width="0.3"/>
<line x1="60" y1="330" x2="1140" y2="330" stroke="#2a2a3e" stroke-width="0.3"/>
<line x1="60" y1="320" x2="1140" y2="320" stroke="#2a2a3e" stroke-width="0.3"/>
<line x1="60" y1="310" x2="1140" y2="310" stroke="#2a2a3e" stroke-width="0.3"/>
<line x1="60" y1="300" x2="1140" y2="300" stroke="#2a2a3e" stroke-width="0.3"/>
<line x1="60" y1="290" x2="1140" y2="290" stroke="#2a2a3e" stroke-width="0.3"/>
<line x1="60" y1="280" x2="1140" y2="280" stroke="#2a2a3e" stroke-width="0.3"/>
<line x1="60" y1="270" x2="1140" y2="270" stroke="#2a2a3e" stroke-width="0.3"/>
<line x1="60" y1="260" x2="1140" y2="260" stroke="#2a2a3e" stroke-width="0.3"/>
<line x1="60" y1="250" x2="1140" y2="250" stroke="#2a2a3e" stroke-width="0.3"/>
<line x1="60" y1="240" x2="1140" y2="240" stroke="#2a2a3e" stroke-width="0.3"/>
<line x1="60" y1="230" x2="1140" y2="230" stroke="#3a3a5e" stroke-width="1"/>
<line x1="60" y1="220" x2="1140" y2="220" stroke="#2a2a3e" stroke-width="0.3"/>
<line x1="60" y1="210" x2="1140" y2="210" stroke="#2a2a3e" stroke-width="0.3"/>
<line x1="60" y1="200" x2="1140" y2="200" stroke="#2a2a3e" stroke-width="0.3"/>
<line x1="60" y1="190" x2="1140" y2="190" stroke="#2a2a3e" stroke-width="0.3"/>
<line x1="60" y1="180" x2="1140" y2="180" stroke="#2a2a3e" stroke-width="0.3"/>
<line x1="60" y1="170" x2="1140" y2="170" stroke="#2a2a3e" stroke-width="0.3"/>
<line x1="60" y1="160" x2="1140" y2="160" stroke="#2a2a3e" stroke-width="0.3"/>
<line x1="60" y1="150" x2="1140" y2="150" stroke="#2a2a3e" stroke-width="0.3"/>
<line x1="60" y1="140" x2="1140" y2="140" stroke="#2a2a3e" stroke-width="0.3"/>
<line x1="60" y1="130" x2="1140" y2="130" stroke="#2a2a3e" stroke-width="0.3"/>
<line x1="60" y1="120" x2="1140" y2="120" stroke="#2a2a3e" stroke-width="0.3"/>
<line x1="60" y1="110" x2="1140" y2="110" stroke="#3a3a5e" stroke-width="1"/>
<line x1="60" y1="100" x2="1140" y2="100" stroke="#2a2a3e" stroke-width="0.3"/>
<line x1="60" y1="90" x2="1140" y2="90" stroke="#2a2a3e" stroke-width="0.3"/>
<line x1="60" y1="80" x2="1140" y2="80" stroke="#2a2a3e" stroke-width="0.3"/>
<line x1="60" y1="70" x2="1140" y2="70" stroke="#2a2a3e" stroke-width="0.3"/>
<line x1="60" y1="60" x2="1140" y2="60" stroke="#2a2a3e" stroke-width="0.3"/>
<line x1="60" y1="50" x2="1140" y2="50" stroke="#2a2a3e" stroke-width="0.3"/>
<line x1="60" y1="50" x2="60" y2="550" stroke="#3a3a5e" stroke-width="1.5"/>
<line x1="90" y1="50" x2="90" y2="550" stroke="#2a2a3e" stroke-width="0.3" stroke-dasharray="2,3"/>
<line x1="120" y1="50" x2="120" y2="550" stroke="#2a2a3e" stroke-width="0.3" stroke-dasharray="2,3"/>
<line x1="150" y1="50" x2="150" y2="550" stroke="#2a2a3e" stroke-width="0.3" stroke-dasharray="2,3"/>
<line x1="180" y1="50" x2="180" y2="550" stroke="#2a2a3e" stroke-width="0.3" stroke-dasharray="2,3"/>
<line x1="210" y1="50" x2="210" y2="550" stroke="#2a2a3e" stroke-width="0.3" stroke-dasharray="2,3"/>
<line x1="240" y1="50" x2="240" y2="550" stroke="#2a2a3e" stroke-width="0.3" stroke-dasharray="2,3"/>
<line x1="270" y1="50" x2="270" y2="550" stroke="#2a2a3e" stroke-width="0.3" stroke-dasharray="2,3"/>
<line x1="300" y1="50" x2="300" y2="550" stroke="#2a2a3e" stroke-width="0.3" stroke-dasharray="2,3"/>
<line x1="330" y1="50" x2="330" y2="550" stroke="#3a3a5e" stroke-width="1.5"/>
<line x1="360" y1="50" x2="360" y2="550" stroke="#2a2a3e" stroke-width="0.3" stroke-dasharray="2,3"/>
<line x1="390" y1="50" x2="390" y2="550" stroke="#2a2a3e" stroke-width="0.3" stroke-dasharray="2,3"/>
<line x1="420" y1="50" x2="420" y2="550" stroke="#2a2a3e" stroke-width="0.3" stroke-dasharray="2,3"/>
<line x1="450" y1="50" x2="450" y2="550" stroke="#2a2a3e" stroke-width="0.3" stroke-dasharray="2,3"/>
<line x1="480" y1="50" x2="480" y2="550" stroke="#2a2a3e" stroke-width="0.3" stroke-dasharray="2,3"/>
<line x1="510" y1="50" x2="510" y2="550" stroke="#2a2a3e" stroke-width="0.3" stroke-dasharray="2,3"/>
<line x1="540" y1="50" x2="540" y2="550" stroke="#2a2a3e" stroke-width="0.3" stroke-dasharray="2,3"/>
<line x1="570" y1="50" x2="570" y2="550" stroke="#2a2a3e" stroke-width="0.3" stroke-dasharray="2,3"/>
<line x1="600" y1="50" x2="600" y2="550" stroke="#3a3a5e" stroke-width="1.5"/>
<line x1="630" y1="50" x2="630" y2="550" stroke="#2a2a3e" stroke-width="0.3" stroke-dasharray="2,3"/>
<line x1="660" y1="50" x2="660" y2="550" stroke="#2a2a3e" stroke-width="0.3" stroke-dasharray="2,3"/>
<line x1="690" y1="50" x2="690" y2="550" stroke="#2a2a3e" stroke-width="0.3" stroke-dasharray="2,3"/>
<line x1="720" y1="50" x2="720" y2="550" stroke="#2a2a3e" stroke-width="0.3" stroke-dasharray="2,3"/>
<line x1="750" y1="50" x2="750" y2="550" stroke="#2a2a3e" stroke-width="0.3" stroke-dasharray="2,3"/>
<line x1="780" y1="50" x2="780" y2="550" stroke="#2a2a3e" stroke-width="0.3" stroke-dasharray="2,3"/>
<line x1="810" y1="50" x2="810" y2="550" stroke="#2a2a3e" stroke-width="0.3" stroke-dasharray="2,3"/>
<line x1="840" y1="50" x2="840" y2="550" stroke="#2a2a3e" stroke-width="0.3" stroke-dasharray="2,3"/>
<line x1="870" y1="50" x2="870" y2="550" stroke="#3a3a5e" stroke-width="1.5"/>
<line x1="900" y1="50" x2="900" y2="550" stroke="#2a2a3e" stroke-width="0.3" stroke-dasharray="2,3"/>
<line x1="930" y1="50" x2="930" y2="550" stroke="#2a2a3e" stroke-width="0.3" stroke-dasharray="2,3"/>
<line x1="960" y1="50" x2="960" y2="550" stroke="#2a2a3e" stroke-width="0.3" stroke-dasharray="2,3"/>
<line x1="990" y1="50" x2="990" y2="550" stroke="#2a2a3e" stroke-width="0.3" stroke-dasharray="2,3"/>
<line x1="1020" y1="50" x2="1020" y2="550" stroke="#2a2a3e" stroke-width="0.3" stroke-dasharray="2,3"/>
<line x1="1050" y1="50" x2="1050" y2="550" stroke="#2a2a3e" stroke-width="0.3" stroke-dasharray="2,3"/>
<line x1="1080" y1="50" x2="1080" y2="550" stroke="#2a2a3e" stroke-width="0.3" stroke-dasharray="2,3"/>
<line x1="1110" y1="50" x2="1110" y2="550" stroke="#2a2a3e" stroke-width="0.3" stroke-dasharray="2,3"/>
<line x1="1140" y1="50" x2="1140" y2="550" stroke="#3a3a5e" stroke-width="1.5"/>
<text x="56" y="547" text-anchor="end" fill="#666688" font-size="8" font-weight="normal">F2</text>
<text x="56" y="527" text-anchor="end" fill="#666688" font-size="8" font-weight="normal">G2</text>
<text x="56" y="507" text-anchor="end" fill="#666688" font-size="8" font-weight="normal">A2</text>
<text x="56" y="487" text-anchor="end" fill="#666688" font-size="8" font-weight="normal">B2</text>
<text x="56" y="477" text-anchor="end" fill="#aaaacc" font-size="10" font-weight="bold">C3</text>
<text x="56" y="457" text-anchor="end" fill="#666688" font-size="8" font-weight="normal">D3</text>
<text x="56" y="437" text-anchor="end" fill="#666688" font-size="8" font-weight="normal">E3</text>
<text x="56" y="427" text-anchor="end" fill="#666688" font-size="8" font-weight="normal">F3</text>
<text x="56" y="407" text-anchor="end" fill="#666688" font-size="8" font-weight="normal">G3</text>
<text x="56" y="387" text-anchor="end" fill="#666688" font-size="8" font-weight="normal">A3</text>
<text x="56" y="367" text-anchor="end" fill="#666688" font-size="8" font-weight="normal">B3</text>
<text x="56" y="357" text-anchor="end" fill="#aaaacc" font-size="10" font-weight="bold">C4</text>
<text x="56" y="337" text-anchor="end" fill="#666688" font-size="8" font-weight="normal">D4</text>
<text x="56" y="317" text-anchor="end" fill="#666688" font-size="8" font-weight="normal">E4</text>
<text x="56" y="307" text-anchor="end" fill="#666688" font-size="8" font-weight="normal">F4</text>
<text x="56" y="287" text-anchor="end" fill="#666688" font-size="8" font-weight="normal">G4</text>
<text x="56" y="267" text-anchor="end" fill="#666688" font-size="8" font-weight="normal">A4</text>
<text x="56" y="247" text-anchor="end" fill="#666688" font-size="8" font-weight="normal">B4</text>
<text x="56" y="237" text-anchor="end" fill="#aaaacc" font-size="10" font-weight="bold">C5</text>
<text x="56" y="217" text-anchor="end" fill="#666688" font-size="8" font-weight="normal">D5</text>
<text x="56" y="197" text-anchor="end" fill="#666688" font-size="8" font-weight="normal">E5</text>
<text x="56" y="187" text-anchor="end" fill="#666688" font-size="8" font-weight="normal">F5</text>
<text x="56" y="167" text-anchor="end" fill="#666688" font-size="8" font-weight="normal">G5</text>
<text x="56" y="147" text-anchor="end" fill="#666688" font-size="8" font-weight="normal">A5</text>
<text x="56" y="127" text-anchor="end" fill="#666688" font-size="8" font-weight="normal">B5</text>
<text x="56" y="117" text-anchor="end" fill="#aaaacc" font-size="10" font-weight="bold">C6</text>
<text x="56" y="97" text-anchor="end" fill="#666688" font-size="8" font-weight="normal">D6</text>
<text x="56" y="77" text-anchor="end" fill="#666688" font-size="8" font-weight="normal">E6</text>
<text x="56" y="67" text-anchor="end" fill="#666688" font-size="8" font-weight="normal">F6</text>
<rect x="60" y="341" width="179" height="8" fill="#4a9eff" stroke="#3580cc" stroke-width="0.5" rx="2" ry="2">
  <title>RH: C#4 (m.55)</title>
</rect>
<rect x="240" y="321" width="14" height="8" fill="#4a9eff" stroke="#3580cc" stroke-width="0.5" rx="2" ry="2">
  <title>RH: D#4 (m.55)</title>
</rect>
<rect x="285" y="251" width="14" height="8" fill="#4a9eff" stroke="#3580cc" stroke-width="0.5" rx="2" ry="2">
  <title>RH: A#4 (m.55)</title>
</rect>
<rect x="330" y="201" width="14" height="8" fill="#4a9eff" stroke="#3580cc" stroke-width="0.5" rx="2" ry="2">
  <title>RH: D#5 (m.55)</title>
</rect>
<rect x="435" y="81" width="29" height="8" fill="#4a9eff" stroke="#3580cc" stroke-width="0.5" rx="2" ry="2">
  <title>RH: D#6 (m.55)</title>
</rect>
<rect x="585" y="321" width="119" height="8" fill="#4a9eff" stroke="#3580cc" stroke-width="0.5" rx="2" ry="2">
  <title>RH: D#4 (m.55)</title>
</rect>
<rect x="705" y="301" width="119" height="8" fill="#4a9eff" stroke="#3580cc" stroke-width="0.5" rx="2" ry="2">
  <title>RH: F4 (m.55)</title>
</rect>
<rect x="825" y="271" width="89" height="8" fill="#4a9eff" stroke="#3580cc" stroke-width="0.5" rx="2" ry="2">
  <title>RH: G#4 (m.55)</title>
</rect>
<rect x="1035" y="131" width="29" height="8" fill="#4a9eff" stroke="#3580cc" stroke-width="0.5" rx="2" ry="2">
  <title>RH: A#5 (m.55)</title>
</rect>
<rect x="1065" y="151" width="59" height="8" fill="#4a9eff" stroke="#3580cc" stroke-width="0.5" rx="2" ry="2">
  <title>RH: G#5 (m.55)</title>
</rect>
<rect x="360" y="351" width="14" height="8" fill="#4a9eff" stroke="#3580cc" stroke-width="0.5" rx="2" ry="2">
  <title>RH: C4 (m.56)</title>
</rect>
<rect x="405" y="291" width="14" height="8" fill="#4a9eff" stroke="#3580cc" stroke-width="0.5" rx="2" ry="2">
  <title>RH: F#4 (m.56)</title>
</rect>
<rect x="330" y="471" width="179" height="8" fill="#ff6b8a" stroke="#cc5570" stroke-width="0.5" rx="2" ry="2">
  <title>LH: C3 (m.56)</title>
</rect>
<rect x="510" y="411" width="14" height="8" fill="#ff6b8a" stroke="#cc5570" stroke-width="0.5" rx="2" ry="2">
  <title>LH: F#3 (m.56)</title>
</rect>
<rect x="525" y="371" width="14" height="8" fill="#ff6b8a" stroke="#cc5570" stroke-width="0.5" rx="2" ry="2">
  <title>LH: A#3 (m.56)</title>
</rect>
<rect x="540" y="421" width="89" height="8" fill="#ff6b8a" stroke="#cc5570" stroke-width="0.5" rx="2" ry="2">
  <title>LH: F3 (m.56)</title>
</rect>
<rect x="630" y="301" width="14" height="8" fill="#4a9eff" stroke="#3580cc" stroke-width="0.5" rx="2" ry="2">
  <title>RH: F4 (m.57)</title>
</rect>
<rect x="675" y="251" width="14" height="8" fill="#4a9eff" stroke="#3580cc" stroke-width="0.5" rx="2" ry="2">
  <title>RH: A#4 (m.57)</title>
</rect>
<rect x="780" y="131" width="29" height="8" fill="#4a9eff" stroke="#3580cc" stroke-width="0.5" rx="2" ry="2">
  <title>RH: A#5 (m.57)</title>
</rect>
<rect x="810" y="181" width="29" height="8" fill="#4a9eff" stroke="#3580cc" stroke-width="0.5" rx="2" ry="2">
  <title>RH: F5 (m.57)</title>
</rect>
<rect x="840" y="341" width="89" height="8" fill="#4a9eff" stroke="#3580cc" stroke-width="0.5" rx="2" ry="2">
  <title>RH: C#4 (m.57)</title>
</rect>
<rect x="1020" y="181" width="29" height="8" fill="#4a9eff" stroke="#3580cc" stroke-width="0.5" rx="2" ry="2">
  <title>RH: F5 (m.57)</title>
</rect>
<rect x="1050" y="201" width="59" height="8" fill="#4a9eff" stroke="#3580cc" stroke-width="0.5" rx="2" ry="2">
  <title>RH: D#5 (m.57)</title>
</rect>
<rect x="600" y="391" width="179" height="8" fill="#ff6b8a" stroke="#cc5570" stroke-width="0.5" rx="2" ry="2">
  <title>LH: G#3 (m.57)</title>
</rect>
<rect x="780" y="371" width="14" height="8" fill="#ff6b8a" stroke="#cc5570" stroke-width="0.5" rx="2" ry="2">
  <title>LH: A#3 (m.57)</title>
</rect>
<rect x="795" y="411" width="119" height="8" fill="#ff6b8a" stroke="#cc5570" stroke-width="0.5" rx="2" ry="2">
  <title>LH: F#3 (m.57)</title>
</rect>
<rect x="915" y="371" width="119" height="8" fill="#ff6b8a" stroke="#cc5570" stroke-width="0.5" rx="2" ry="2">
  <title>LH: A#3 (m.57)</title>
</rect>
<rect x="900" y="341" width="14" height="8" fill="#4a9eff" stroke="#3580cc" stroke-width="0.5" rx="2" ry="2">
  <title>RH: C#4 (m.58)</title>
</rect>
<rect x="945" y="271" width="14" height="8" fill="#4a9eff" stroke="#3580cc" stroke-width="0.5" rx="2" ry="2">
  <title>RH: G#4 (m.58)</title>
</rect>
<rect x="870" y="421" width="179" height="8" fill="#ff6b8a" stroke="#cc5570" stroke-width="0.5" rx="2" ry="2">
  <title>LH: F3 (m.58)</title>
</rect>
<rect x="1050" y="391" width="14" height="8" fill="#ff6b8a" stroke="#cc5570" stroke-width="0.5" rx="2" ry="2">
  <title>LH: G#3 (m.58)</title>
</rect>
<rect x="1065" y="371" width="14" height="8" fill="#ff6b8a" stroke="#cc5570" stroke-width="0.5" rx="2" ry="2">
  <title>LH: A#3 (m.58)</title>
</rect>
<rect x="1170" y="511" width="239" height="8" fill="#ff6b8a" stroke="#cc5570" stroke-width="0.5" rx="2" ry="2">
  <title>LH: G#2 (m.58)</title>
</rect>
<text x="195" y="566" text-anchor="middle" fill="#8888aa" font-size="10">55</text>
<text x="465" y="566" text-anchor="middle" fill="#8888aa" font-size="10">56</text>
<text x="735" y="566" text-anchor="middle" fill="#8888aa" font-size="10">57</text>
<text x="1005" y="566" text-anchor="middle" fill="#8888aa" font-size="10">58</text>
<circle cx="64" cy="578" r="3" fill="#ffaa33"/>
<circle cx="334" cy="578" r="3" fill="#ffaa33"/>
<circle cx="604" cy="578" r="3" fill="#ffaa33"/>
<circle cx="874" cy="578" r="3" fill="#ffaa33"/>
<rect x="1020" y="558" width="8" height="8" fill="#4a9eff" rx="1"/>
<text x="1032" y="566" fill="#8888aa" font-size="9">Right Hand</text>
<rect x="1090" y="558" width="8" height="8" fill="#ff6b8a" rx="1"/>
<text x="1102" y="566" fill="#8888aa" font-size="9">Left Hand</text>
</svg>