<svg xmlns="http://www.w3.org/2000/svg" width="1150" height="210" viewBox="0 0 1150 210">
<style>
  text { font-family: 'Consolas', 'SF Mono', 'Fira Code', monospace; }
  .note-rh { fill: #4a9eff; stroke: #3580cc; stroke-width: 0.5; rx: 2; ry: 2; }
  .note-lh { fill: #ff6b8a; stroke: #cc5570; stroke-width: 0.5; rx: 2; ry: 2; }
  .note-rh:hover { opacity: 0.85; }
  .note-lh:hover { opacity: 0.85; }
</style>
<rect width="1150" height="210" fill="#1a1a2e"/>
<text x="60" y="26" fill="#ddddee" font-size="16" font-weight="bold">Clair de Lune (Suite bergamasque, III) — Claude Debussy</text>
<text x="60" y="42" fill="#8888aa" font-size="11">Db major | 100 BPM | 9/8 | m.1–4</text>
<rect x="60" y="150" width="1080" height="10" fill="#151526" opacity="0.5"/>
<rect x="60" y="120" width="1080" height="10" fill="#151526" opacity="0.5"/>
<rect x="60" y="100" width="1080" height="10" fill="#151526" opacity="0.5"/>
<rect x="60" y="70" width="1080" height="10" fill="#151526" opacity="0.5"/>
<rect x="60" y="50" width="1080" height="10" fill="#151526" opacity="0.5"/>
<line x1="60" y1="150" x2="1140" y2="150" stroke="#2a2a3e" stroke-width="0.3"/>
<line x1="60" y1="140" x2="1140" y2="140" stroke="#2a2a3e" stroke-width="0.3"/>
<line x1="60" y1="130" x2="1140" y2="130" stroke="#3a3a5e" stroke-width="1"/>
<line x1="60" y1="120" x2="1140" y2="120" stroke="#2a2a3e" stroke-width="0.3"/>
<line x1="60" y1="110" x2="1140" y2="110" stroke="#2a2a3e" stroke-width="0.3"/>
<line x1="60" y1="100" x2="1140" y2="100" stroke="#2a2a3e" stroke-width="0.3"/>
<line x1="60" y1="90" x2="1140" y2="90" stroke="#2a2a3e" stroke-width="0.3"/>
<line x1="60" y1="80" x2="1140" y2="80" stroke="#2a2a3e" stroke-width="0.3"/>
<line x1="60" y1="70" x2="1140" y2="70" stroke="#2a2a3e" stroke-width="0.3"/>
<line x1="60" y1="60" x2="1140" y2="60" stroke="#2a2a3e" stroke-width="0.3"/>
<line x1="60" y1="50" x2="1140" y2="50" stroke="#2a2a3e" stroke-width="0.3"/>
<line x1="60" y1="50" x2="60" y2="160" stroke="#3a3a5e" stroke-width="1.5"/>
<line x1="90" y1="50" x2="90" y2="160" stroke="#2a2a3e" stroke-width="0.3" stroke-dasharray="2,3"/>
<line x1="120" y1="50" x2="120" y2="160" stroke="#2a2a3e" stroke-width="0.3" stroke-dasharray="2,3"/>
<line x1="150" y1="50" x2="150" y2="160" stroke="#2a2a3e" stroke-width="0.3" stroke-dasharray="2,3"/>
<line x1="180" y1="50" x2="180" y2="160" stroke="#2a2a3e" stroke-width="0.3" stroke-dasharray="2,3"/>
<line x1="210" y1="50" x2="210" y2="160" stroke="#2a2a3e" stroke-width="0.3" stroke-dasharray="2,3"/>
<line x1="240" y1="50" x2="240" y2="160" stroke="#2a2a3e" stroke-width="0.3" stroke-dasharray="2,3"/>
<line x1="270" y1="50" x2="270" y2="160" stroke="#2a2a3e" stroke-width="0.3" stroke-dasharray="2,3"/>
<line x1="300" y1="50" x2="300" y2="160" stroke="#2a2a3e" stroke-width="0.3" stroke-dasharray="2,3"/>
<line x1="330" y1="50" x2="330" y2="160" stroke="#3a3a5e" stroke-width="1.5"/>
<line x1="360" y1="50" x2="360" y2="160" stroke="#2a2a3e" stroke-width="0.3" stroke-dasharray="2,3"/>
<line x1="390" y1="50" x2="390" y2="160" stroke="#2a2a3e" stroke-width="0.3" stroke-dasharray="2,3"/>
<line x1="420" y1="50" x2="420" y2="160" stroke="#2a2a3e" stroke-width="0.3" stroke-dasharray="2,3"/>
<line x1="450" y1="50" x2="450" y2="160" stroke="#2a2a3e" stroke-width="0.3" stroke-dasharray="2,3"/>
<line x1="480" y1="50" x2="480" y2="160" stroke="#2a2a3e" stroke-width="0.3" stroke-dasharray="2,3"/>
<line x1="510" y1="50" x2="510" y2="160" stroke="#2a2a3e" stroke-width="0.3" stroke-dasharray="2,3"/>
<line x1="540" y1="50" x2="540" y2="160" stroke="#2a2a3e" stroke-width="0.3" stroke-dasharray="2,3"/>
<line x1="570" y1="50" x2="570" y2="160" stroke="#2a2a3e" stroke-width="0.3" stroke-dasharray="2,3"/>
<line x1="600" y1="50" x2="600" y2="160" stroke="#3a3a5e" stroke-width="1.5"/>
<line x1="630" y1="50" x2="630" y2="160" stroke="#2a2a3e" stroke-width="0.3" stroke-dasharray="2,3"/>
<line x1="660" y1="50" x2="660" y2="160" stroke="#2a2a3e" stroke-width="0.3" stroke-dasharray="2,3"/>
<line x1="690" y1="50" x2="690" y2="160" stroke="#2a2a3e" stroke-width="0.3" stroke-dasharray="2,3"/>
<line x1="720" y1="50" x2="720" y2="160" stroke="#2a2a3e" stroke-width="0.3" stroke-dasharray="2,3"/>
<line x1="750" y1="50" x2="750" y2="160" stroke="#2a2a3e" stroke-width="0.3" stroke-dasharray="2,3"/>
<line x1="780" y1="50" x2="780" y2="160" stroke="#2a2a3e" stroke-width="0.3" stroke-dasharray="2,3"/>
<line x1="810" y1="50" x2="810" y2="160" stroke="#2a2a3e" stroke-width="0.3" stroke-dasharray="2,3"/>
<line x1="840" y1="50" x2="840" y2="160" stroke="#2a2a3e" stroke-width="0.3" stroke-dasharray="2,3"/>
<line x1="870" y1="50" x2="870" y2="160" stroke="#3a3a5e" stroke-width="1.5"/>
<line x1="900" y1="50" x2="900" y2="160" stroke="#2a2a3e" stroke-width="0.3" stroke-dasharray="2,3"/>
<line x1="930" y1="50" x2="930" y2="160" stroke="#2a2a3e" stroke-width="0.3" stroke-dasharray="2,3"/>
<line x1="960" y1="50" x2="960" y2="160" stroke="#2a2a3e" stroke-width="0.3" stroke-dasharray="2,3"/>
<line x1="990" y1="50" x2="990" y2="160" stroke="#2a2a3e" stroke-width="0.3" stroke-dasharray="2,3"/>
<line x1="1020" y1="50" x2="1020" y2="160" stroke="#2a2a3e" stroke-width="0.3" stroke-dasharray="2,3"/>
<line x1="1050" y1="50" x2="1050" y2="160" stroke="#2a2a3e" stroke-width="0.3" stroke-dasharray="2,3"/>
<line x1="1080" y1="50" x2="1080" y2="160" stroke="#2a2a3e" stroke-width="0.3" stroke-dasharray="2,3"/>
<line x1="1110" y1="50" x2="1110" y2="160" stroke="#2a2a3e" stroke-width="0.3" stroke-dasharray="2,3"/>
<line x1="1140" y1="50" x2="1140" y2="160" stroke="#3a3a5e" stroke-width="1.5"/>
<text x="56" y="147" text-anchor="end" fill="#666688" font-size="8" font-weight="normal">B4</text>
<text x="56" y="137" text-anchor="end" fill="#aaaacc" font-size="10" font-weight="bold">C5</text>
<text x="56" y="117" text-anchor="end" fill="#666688" font-size="8" font-weight="normal">D5</text>
<text x="56" y="97" text-anchor="end" fill="#666688" font-size="8" font-weight="normal">E5</text>
<text x="56" y="87" text-anchor="end" fill="#666688" font-size="8" font-weight="normal">F5</text>
<text x="56" y="67" text-anchor="end" fill="#666688" font-size="8" font-weight="normal">G5</text>
<rect x="1140" y="81" width="89" height="8" fill="#4a9eff" stroke="#3580cc" stroke-width="0.5" rx="2" ry="2">
  <title>RH: F5 (m.3)</title>
</rect>
<rect x="1230" y="121" width="79" height="8" fill="#4a9eff" stroke="#3580cc" stroke-width="0.5" rx="2" ry="2">
  <title>RH: C#5 (m.3)</title>
</rect>
<text x="195" y="176" text-anchor="middle" fill="#8888aa" font-size="10">1</text>
<text x="465" y="176" text-anchor="middle" fill="#8888aa" font-size="10">2</text>
<text x="735" y="176" text-anchor="middle" fill="#8888aa" font-size="10">3</text>
<text x="1005" y="176" text-anchor="middle" fill="#8888aa" font-size="10">4</text>
<circle cx="64" cy="188" r="3" fill="#ffaa33"/>
<circle cx="334" cy="188" r="3" fill="#ffaa33"/>
<circle cx="604" cy="188" r="3" fill="#ffaa33"/>
<circle cx="874" cy="188" r="3" fill="#ffaa33"/>
<rect x="1020" y="168" width="8" height="8" fill="#4a9eff" rx="1"/>
<text x="1032" y="176" fill="#8888aa" font-size="9">Right Hand</text>
<rect x="1090" y="168" width="8" height="8" fill="#ff6b8a" rx="1"/>
<text x="1102" y="176" fill="#8888aa" font-size="9">Left Hand</text>
</svg>