<svg xmlns="http://www.w3.org/2000/svg" width="430" height="230" viewBox="0 0 430 230">
<style>
  text { font-family: 'Consolas', 'SF Mono', 'Fira Code', monospace; }
  .note-rh { fill: #4a9eff; stroke: #3580cc; stroke-width: 0.5; rx: 2; ry: 2; }
  .note-lh { fill: #ff6b8a; stroke: #cc5570; stroke-width: 0.5; rx: 2; ry: 2; }
  .note-rh:hover { opacity: 0.85; }
  .note-lh:hover { opacity: 0.85; }
</style>
<rect width="430" height="230" fill="#1a1a2e"/>
<text x="60" y="26" fill="#ddddee" font-size="16" font-weight="bold">Fur Elise (Bagatelle No. 25 in A minor) — Ludwig van Beethoven</text>
<text x="60" y="42" fill="#8888aa" font-size="11">A minor | 69 BPM | 3/8 | m.57–60</text>
<rect x="60" y="170" width="360" height="10" fill="#151526" opacity="0.5"/>
<rect x="60" y="150" width="360" height="10" fill="#151526" opacity="0.5"/>
<rect x="60" y="120" width="360" height="10" fill="#151526" opacity="0.5"/>
<rect x="60" y="100" width="360" height="10" fill="#151526" opacity="0.5"/>
<rect x="60" y="70" width="360" height="10" fill="#151526" opacity="0.5"/>
<rect x="60" y="50" width="360" height="10" fill="#151526" opacity="0.5"/>
<line x1="60" y1="170" x2="420" y2="170" stroke="#2a2a3e" stroke-width="0.3"/>
<line x1="60" y1="160" x2="420" y2="160" stroke="#2a2a3e" stroke-width="0.3"/>
<line x1="60" y1="150" x2="420" y2="150" stroke="#2a2a3e" stroke-width="0.3"/>
<line x1="60" y1="140" x2="420" y2="140" stroke="#2a2a3e" stroke-width="0.3"/>
<line x1="60" y1="130" x2="420" y2="130" stroke="#3a3a5e" stroke-width="1"/>
<line x1="60" y1="120" x2="420" y2="120" stroke="#2a2a3e" stroke-width="0.3"/>
<line x1="60" y1="110" x2="420" y2="110" stroke="#2a2a3e" stroke-width="0.3"/>
<line x1="60" y1="100" x2="420" y2="100" stroke="#2a2a3e" stroke-width="0.3"/>
<line x1="60" y1="90" x2="420" y2="90" stroke="#2a2a3e" stroke-width="0.3"/>
<line x1="60" y1="80" x2="420" y2="80" stroke="#2a2a3e" stroke-width="0.3"/>
<line x1="60" y1="70" x2="420" y2="70" stroke="#2a2a3e" stroke-width="0.3"/>
<line x1="60" y1="60" x2="420" y2="60" stroke="#2a2a3e" stroke-width="0.3"/>
<line x1="60" y1="50" x2="420" y2="50" stroke="#2a2a3e" stroke-width="0.3"/>
<line x1="60" y1="50" x2="60" y2="180" stroke="#3a3a5e" stroke-width="1.5"/>
<line x1="90" y1="50" x2="90" y2="180" stroke="#2a2a3e" stroke-width="0.3" stroke-dasharray="2,3"/>
<line x1="120" y1="50" x2="120" y2="180" stroke="#2a2a3e" stroke-width="0.3" stroke-dasharray="2,3"/>
<line x1="150" y1="50" x2="150" y2="180" stroke="#3a3a5e" stroke-width="1.5"/>
<line x1="180" y1="50" x2="180" y2="180" stroke="#2a2a3e" stroke-width="0.3" stroke-dasharray="2,3"/>
<line x1="210" y1="50" x2="210" y2="180" stroke="#2a2a3e" stroke-width="0.3" stroke-dasharray="2,3"/>
<line x1="240" y1="50" x2="240" y2="180" stroke="#3a3a5e" stroke-width="1.5"/>
<line x1="270" y1="50" x2="270" y2="180" stroke="#2a2a3e" stroke-width="0.3" stroke-dasharray="2,3"/>
<line x1="300" y1="50" x2="300" y2="180" stroke="#2a2a3e" stroke-width="0.3" stroke-dasharray="2,3"/>
<line x1="330" y1="50" x2="330" y2="180" stroke="#3a3a5e" stroke-width="1.5"/>
<line x1="360" y1="50" x2="360" y2="180" stroke="#2a2a3e" stroke-width="0.3" stroke-dasharray="2,3"/>
<line x1="390" y1="50" x2="390" y2="180" stroke="#2a2a3e" stroke-width="0.3" stroke-dasharray="2,3"/>
<line x1="420" y1="50" x2="420" y2="180" stroke="#3a3a5e" stroke-width="1.5"/>
<text x="56" y="167" text-anchor="end" fill="#666688" font-size="8" font-weight="normal">A4</text>
<text x="56" y="147" text-anchor="end" fill="#666688" font-size="8" font-weight="normal">B4</text>
<text x="56" y="137" text-anchor="end" fill="#aaaacc" font-size="10" font-weight="bold">C5</text>
<text x="56" y="117" text-anchor="end" fill="#666688" font-size="8" font-weight="normal">D5</text>
<text x="56" y="97" text-anchor="end" fill="#666688" font-size="8" font-weight="normal">E5</text>
<text x="56" y="87" text-anchor="end" fill="#666688" font-size="8" font-weight="normal">F5</text>
<text x="56" y="67" text-anchor="end" fill="#666688" font-size="8" font-weight="normal">G5</text>
<rect x="60" y="91" width="14" height="8" fill="#4a9eff" stroke="#3580cc" stroke-width="0.5" rx="2" ry="2">
  <title>RH: E5 (m.57)</title>
</rect>
<rect x="75" y="81" width="14" height="8" fill="#4a9eff" stroke="#3580cc" stroke-width="0.5" rx="2" ry="2">
  <title>RH: F5 (m.57)</title>
</rect>
<rect x="90" y="91" width="14" height="8" fill="#4a9eff" stroke="#3580cc" stroke-width="0.5" rx="2" ry="2">
  <title>RH: E5 (m.57)</title>
</rect>
<rect x="105" y="101" width="14" height="8" fill="#4a9eff" stroke="#3580cc" stroke-width="0.5" rx="2" ry="2">
  <title>RH: D#5 (m.57)</title>
</rect>
<rect x="120" y="91" width="14" height="8" fill="#4a9eff" stroke="#3580cc" stroke-width="0.5" rx="2" ry="2">
  <title>RH: E5 (m.57)</title>
</rect>
<rect x="135" y="141" width="14" height="8" fill="#4a9eff" stroke="#3580cc" stroke-width="0.5" rx="2" ry="2">
  <title>RH: B4 (m.57)</title>
</rect>
<rect x="150" y="91" width="14" height="8" fill="#4a9eff" stroke="#3580cc" stroke-width="0.5" rx="2" ry="2">
  <title>RH: E5 (m.57)</title>
</rect>
<rect x="165" y="101" width="14" height="8" fill="#4a9eff" stroke="#3580cc" stroke-width="0.5" rx="2" ry="2">
  <title>RH: D#5 (m.57)</title>
</rect>
<rect x="180" y="91" width="14" height="8" fill="#4a9eff" stroke="#3580cc" stroke-width="0.5" rx="2" ry="2">
  <title>RH: E5 (m.57)</title>
</rect>
<rect x="195" y="141" width="14" height="8" fill="#4a9eff" stroke="#3580cc" stroke-width="0.5" rx="2" ry="2">
  <title>RH: B4 (m.57)</title>
</rect>
<rect x="210" y="91" width="14" height="8" fill="#4a9eff" stroke="#3580cc" stroke-width="0.5" rx="2" ry="2">
  <title>RH: E5 (m.57)</title>
</rect>
<rect x="225" y="101" width="14" height="8" fill="#4a9eff" stroke="#3580cc" stroke-width="0.5" rx="2" ry="2">
  <title>RH: D#5 (m.57)</title>
</rect>
<rect x="150" y="91" width="44" height="8" fill="#4a9eff" stroke="#3580cc" stroke-width="0.5" rx="2" ry="2">
  <title>RH: E5 (m.58)</title>
</rect>
<rect x="195" y="141" width="14" height="8" fill="#4a9eff" stroke="#3580cc" stroke-width="0.5" rx="2" ry="2">
  <title>RH: B4 (m.58)</title>
</rect>
<rect x="210" y="91" width="14" height="8" fill="#4a9eff" stroke="#3580cc" stroke-width="0.5" rx="2" ry="2">
  <title>RH: E5 (m.58)</title>
</rect>
<rect x="225" y="101" width="14" height="8" fill="#4a9eff" stroke="#3580cc" stroke-width="0.5" rx="2" ry="2">
  <title>RH: D#5 (m.58)</title>
</rect>
<rect x="240" y="91" width="44" height="8" fill="#4a9eff" stroke="#3580cc" stroke-width="0.5" rx="2" ry="2">
  <title>RH: E5 (m.59)</title>
</rect>
<rect x="285" y="141" width="14" height="8" fill="#4a9eff" stroke="#3580cc" stroke-width="0.5" rx="2" ry="2">
  <title>RH: B4 (m.59)</title>
</rect>
<rect x="300" y="91" width="14" height="8" fill="#4a9eff" stroke="#3580cc" stroke-width="0.5" rx="2" ry="2">
  <title>RH: E5 (m.59)</title>
</rect>
<rect x="315" y="101" width="14" height="8" fill="#4a9eff" stroke="#3580cc" stroke-width="0.5" rx="2" ry="2">
  <title>RH: D#5 (m.59)</title>
</rect>
<rect x="330" y="91" width="14" height="8" fill="#4a9eff" stroke="#3580cc" stroke-width="0.5" rx="2" ry="2">
  <title>RH: E5 (m.60)</title>
</rect>
<rect x="345" y="101" width="14" height="8" fill="#4a9eff" stroke="#3580cc" stroke-width="0.5" rx="2" ry="2">
  <title>RH: D#5 (m.60)</title>
</rect>
<rect x="360" y="91" width="14" height="8" fill="#4a9eff" stroke="#3580cc" stroke-width="0.5" rx="2" ry="2">
  <title>RH: E5 (m.60)</title>
</rect>
<rect x="375" y="101" width="14" height="8" fill="#4a9eff" stroke="#3580cc" stroke-width="0.5" rx="2" ry="2">
  <title>RH: D#5 (m.60)</title>
</rect>
<rect x="390" y="91" width="14" height="8" fill="#4a9eff" stroke="#3580cc" stroke-width="0.5" rx="2" ry="2">
  <title>RH: E5 (m.60)</title>
</rect>
<rect x="405" y="101" width="14" height="8" fill="#4a9eff" stroke="#3580cc" stroke-width="0.5" rx="2" ry="2">
  <title>RH: D#5 (m.60)</title>
</rect>
<text x="105" y="196" text-anchor="middle" fill="#8888aa" font-size="10">57</text>
<text x="195" y="196" text-anchor="middle" fill="#8888aa" font-size="10">58</text>
<text x="285" y="196" text-anchor="middle" fill="#8888aa" font-size="10">59</text>
<text x="375" y="196" text-anchor="middle" fill="#8888aa" font-size="10">60</text>
<circle cx="64" cy="208" r="3" fill="#ffaa33"/>
<circle cx="154" cy="208" r="3" fill="#ffaa33"/>
<circle cx="244" cy="208" r="3" fill="#ffaa33"/>
<circle cx="334" cy="208" r="3" fill="#ffaa33"/>
<rect x="300" y="188" width="8" height="8" fill="#4a9eff" rx="1"/>
<text x="312" y="196" fill="#8888aa" font-size="9">Right Hand</text>
<rect x="370" y="188" width="8" height="8" fill="#ff6b8a" rx="1"/>
<text x="382" y="196" fill="#8888aa" font-size="9">Left Hand</text>
</svg>