<svg xmlns="http://www.w3.org/2000/svg" width="790" height="600" viewBox="0 0 790 600">
<style>
  text { font-family: 'Consolas', 'SF Mono', 'Fira Code', monospace; }
  .note-rh { fill: #4a9eff; stroke: #3580cc; stroke-width: 0.5; rx: 2; ry: 2; }
  .note-lh { fill: #ff6b8a; stroke: #cc5570; stroke-width: 0.5; rx: 2; ry: 2; }
  .note-rh:hover { opacity: 0.85; }
  .note-lh:hover { opacity: 0.85; }
</style>
<rect width="790" height="600" fill="#1a1a2e"/>
<text x="60" y="26" fill="#ddddee" font-size="16" font-weight="bold">Gymnopedie No. 1 — Erik Satie</text>
<text x="60" y="42" fill="#8888aa" font-size="11">D major | 89 BPM | 3/4 | m.55–58</text>
<rect x="60" y="540" width="720" height="10" fill="#151526" opacity="0.5"/>
<rect x="60" y="520" width="720" height="10" fill="#151526" opacity="0.5"/>
<rect x="60" y="490" width="720" height="10" fill="#151526" opacity="0.5"/>
<rect x="60" y="470" width="720" height="10" fill="#151526" opacity="0.5"/>
<rect x="60" y="440" width="720" height="10" fill="#151526" opacity="0.5"/>
<rect x="60" y="420" width="720" height="10" fill="#151526" opacity="0.5"/>
<rect x="60" y="400" width="720" height="10" fill="#151526" opacity="0.5"/>
<rect x="60" y="370" width="720" height="10" fill="#151526" opacity="0.5"/>
<rect x="60" y="350" width="720" height="10" fill="#151526" opacity="0.5"/>
<rect x="60" y="320" width="720" height="10" fill="#151526" opacity="0.5"/>
<rect x="60" y="300" width="720" height="10" fill="#151526" opacity="0.5"/>
<rect x="60" y="280" width="720" height="10" fill="#151526" opacity="0.5"/>
<rect x="60" y="250" width="720" height="10" fill="#151526" opacity="0.5"/>
<rect x="60" y="230" width="720" height="10" fill="#151526" opacity="0.5"/>
<rect x="60" y="200" width="720" height="10" fill="#151526" opacity="0.5"/>
<rect x="60" y="180" width="720" height="10" fill="#151526" opacity="0.5"/>
<rect x="60" y="160" width="720" height="10" fill="#151526" opacity="0.5"/>
<rect x="60" y="130" width="720" height="10" fill="#151526" opacity="0.5"/>
<rect x="60" y="110" width="720" height="10" fill="#151526" opacity="0.5"/>
<rect x="60" y="80" width="720" height="10" fill="#151526" opacity="0.5"/>
<rect x="60" y="60" width="720" height="10" fill="#151526" opacity="0.5"/>
<line x1="60" y1="540" x2="780" y2="540" stroke="#2a2a3e" stroke-width="0.3"/>
<line x1="60" y1="530" x2="780" y2="530" stroke="#2a2a3e" stroke-width="0.3"/>
<line x1="60" y1="520" x2="780" y2="520" stroke="#2a2a3e" stroke-width="0.3"/>
<line x1="60" y1="510" x2="780" y2="510" stroke="#2a2a3e" stroke-width="0.3"/>
<line x1="60" y1="500" x2="780" y2="500" stroke="#3a3a5e" stroke-width="1"/>
<line x1="60" y1="490" x2="780" y2="490" stroke="#2a2a3e" stroke-width="0.3"/>
<line x1="60" y1="480" x2="780" y2="480" stroke="#2a2a3e" stroke-width="0.3"/>
<line x1="60" y1="470" x2="780" y2="470" stroke="#2a2a3e" stroke-width="0.3"/>
<line x1="60" y1="460" x2="780" y2="460" stroke="#2a2a3e" stroke-width="0.3"/>
<line x1="60" y1="450" x2="780" y2="450" stroke="#2a2a3e" stroke-width="0.3"/>
<line x1="60" y1="440" x2="780" y2="440" stroke="#2a2a3e" stroke-width="0.3"/>
<line x1="60" y1="430" x2="780" y2="430" stroke="#2a2a3e" stroke-width="0.3"/>
<line x1="60" y1="420" x2="780" y2="420" stroke="#2a2a3e" stroke-width="0.3"/>
<line x1="60" y1="410" x2="780" y2="410" stroke="#2a2a3e" stroke-width="0.3"/>
<line x1="60" y1="400" x2="780" y2="400" stroke="#2a2a3e" stroke-width="0.3"/>
<line x1="60" y1="390" x2="780" y2="390" stroke="#2a2a3e" stroke-width="0.3"/>
<line x1="60" y1="380" x2="780" y2="380" stroke="#3a3a5e" stroke-width="1"/>
<line x1="60" y1="370" x2="780" y2="370" stroke="#2a2a3e" stroke-width="0.3"/>
<line x1="60" y1="360" x2="780" y2="360" stroke="#2a2a3e" stroke-width="0.3"/>
<line x1="60" y1="350" x2="780" y2="350" stroke="#2a2a3e" stroke-width="0.3"/>
<line x1="60" y1="340" x2="780" y2="340" stroke="#2a2a3e" stroke-width="0.3"/>
<line x1="60" y1="330" x2="780" y2="330" stroke="#2a2a3e" stroke-width="0.3"/>
<line x1="60" y1="320" x2="780" y2="320" stroke="#2a2a3e" stroke-width="0.3"/>
<line x1="60" y1="310" x2="780" y2="310" stroke="#2a2a3e" stroke-width="0.3"/>
<line x1="60" y1="300" x2="780" y2="300" stroke="#2a2a3e" stroke-width="0.3"/>
<line x1="60" y1="290" x2="780" y2="290" stroke="#2a2a3e" stroke-width="0.3"/>
<line x1="60" y1="280" x2="780" y2="280" stroke="#2a2a3e" stroke-width="0.3"/>
<line x1="60" y1="270" x2="780" y2="270" stroke="#2a2a3e" stroke-width="0.3"/>
<line x1="60" y1="260" x2="780" y2="260" stroke="#3a3a5e" stroke-width="1"/>
<line x1="60" y1="250" x2="780" y2="250" stroke="#2a2a3e" stroke-width="0.3"/>
<line x1="60" y1="240" x2="780" y2="240" stroke="#2a2a3e" stroke-width="0.3"/>
<line x1="60" y1="230" x2="780" y2="230" stroke="#2a2a3e" stroke-width="0.3"/>
<line x1="60" y1="220" x2="780" y2="220" stroke="#2a2a3e" stroke-width="0.3"/>
<line x1="60" y1="210" x2="780" y2="210" stroke="#2a2a3e" stroke-width="0.3"/>
<line x1="60" y1="200" x2="780" y2="200" stroke="#2a2a3e" stroke-width="0.3"/>
<line x1="60" y1="190" x2="780" y2="190" stroke="#2a2a3e" stroke-width="0.3"/>
<line x1="60" y1="180" x2="780" y2="180" stroke="#2a2a3e" stroke-width="0.3"/>
<line x1="60" y1="170" x2="780" y2="170" stroke="#2a2a3e" stroke-width="0.3"/>
<line x1="60" y1="160" x2="780" y2="160" stroke="#2a2a3e" stroke-width="0.3"/>
<line x1="60" y1="150" x2="780" y2="150" stroke="#2a2a3e" stroke-width="0.3"/>
<line x1="60" y1="140" x2="780" y2="140" stroke="#3a3a5e" stroke-width="1"/>
<line x1="60" y1="130" x2="780" y2="130" stroke="#2a2a3e" stroke-width="0.3"/>
<line x1="60" y1="120" x2="780" y2="120" stroke="#2a2a3e" stroke-width="0.3"/>
<line x1="60" y1="110" x2="780" y2="110" stroke="#2a2a3e" stroke-width="0.3"/>
<line x1="60" y1="100" x2="780" y2="100" stroke="#2a2a3e" stroke-width="0.3"/>
<line x1="60" y1="90" x2="780" y2="90" stroke="#2a2a3e" stroke-width="0.3"/>
<line x1="60" y1="80" x2="780" y2="80" stroke="#2a2a3e" stroke-width="0.3"/>
<line x1="60" y1="70" x2="780" y2="70" stroke="#2a2a3e" stroke-width="0.3"/>
<line x1="60" y1="60" x2="780" y2="60" stroke="#2a2a3e" stroke-width="0.3"/>
<line x1="60" y1="50" x2="780" y2="50" stroke="#2a2a3e" stroke-width="0.3"/>
<line x1="60" y1="50" x2="60" y2="550" stroke="#3a3a5e" stroke-width="1.5"/>
<line x1="120" y1="50" x2="120" y2="550" stroke="#2a2a3e" stroke-width="0.3" stroke-dasharray="2,3"/>
<line x1="180" y1="50" x2="180" y2="550" stroke="#2a2a3e" stroke-width="0.3" stroke-dasharray="2,3"/>
<line x1="240" y1="50" x2="240" y2="550" stroke="#3a3a5e" stroke-width="1.5"/>
<line x1="300" y1="50" x2="300" y2="550" stroke="#2a2a3e" stroke-width="0.3" stroke-dasharray="2,3"/>
<line x1="360" y1="50" x2="360" y2="550" stroke="#2a2a3e" stroke-width="0.3" stroke-dasharray="2,3"/>
<line x1="420" y1="50" x2="420" y2="550" stroke="#3a3a5e" stroke-width="1.5"/>
<line x1="480" y1="50" x2="480" y2="550" stroke="#2a2a3e" stroke-width="0.3" stroke-dasharray="2,3"/>
<line x1="540" y1="50" x2="540" y2="550" stroke="#2a2a3e" stroke-width="0.3" stroke-dasharray="2,3"/>
<line x1="600" y1="50" x2="600" y2="550" stroke="#3a3a5e" stroke-width="1.5"/>
<line x1="660" y1="50" x2="660" y2="550" stroke="#2a2a3e" stroke-width="0.3" stroke-dasharray="2,3"/>
<line x1="720" y1="50" x2="720" y2="550" stroke="#2a2a3e" stroke-width="0.3" stroke-dasharray="2,3"/>
<line x1="780" y1="50" x2="780" y2="550" stroke="#3a3a5e" stroke-width="1.5"/>
<text x="56" y="537" text-anchor="end" fill="#666688" font-size="8" font-weight="normal">A1</text>
<text x="56" y="517" text-anchor="end" fill="#666688" font-size="8" font-weight="normal">B1</text>
<text x="56" y="507" text-anchor="end" fill="#aaaacc" font-size="10" font-weight="bold">C2</text>
<text x="56" y="487" text-anchor="end" fill="#666688" font-size="8" font-weight="normal">D2</text>
<text x="56" y="467" text-anchor="end" fill="#666688" font-size="8" font-weight="normal">E2</text>
<text x="56" y="457" text-anchor="end" fill="#666688" font-size="8" font-weight="normal">F2</text>
<text x="56" y="437" text-anchor="end" fill="#666688" font-size="8" font-weight="normal">G2</text>
<text x="56" y="417" text-anchor="end" fill="#666688" font-size="8" font-weight="normal">A2</text>
<text x="56" y="397" text-anchor="end" fill="#666688" font-size="8" font-weight="normal">B2</text>
<text x="56" y="387" text-anchor="end" fill="#aaaacc" font-size="10" font-weight="bold">C3</text>
<text x="56" y="367" text-anchor="end" fill="#666688" font-size="8" font-weight="normal">D3</text>
<text x="56" y="347" text-anchor="end" fill="#666688" font-size="8" font-weight="normal">E3</text>
<text x="56" y="337" text-anchor="end" fill="#666688" font-size="8" font-weight="normal">F3</text>
<text x="56" y="317" text-anchor="end" fill="#666688" font-size="8" font-weight="normal">G3</text>
<text x="56" y="297" text-anchor="end" fill="#666688" font-size="8" font-weight="normal">A3</text>
<text x="56" y="277" text-anchor="end" fill="#666688" font-size="8" font-weight="normal">B3</text>
<text x="56" y="267" text-anchor="end" fill="#aaaacc" font-size="10" font-weight="bold">C4</text>
<text x="56" y="247" text-anchor="end" fill="#666688" font-size="8" font-weight="normal">D4</text>
<text x="56" y="227" text-anchor="end" fill="#666688" font-size="8" font-weight="normal">E4</text>
<text x="56" y="217" text-anchor="end" fill="#666688" font-size="8" font-weight="normal">F4</text>
<text x="56" y="197" text-anchor="end" fill="#666688" font-size="8" font-weight="normal">G4</text>
<text x="56" y="177" text-anchor="end" fill="#666688" font-size="8" font-weight="normal">A4</text>
<text x="56" y="157" text-anchor="end" fill="#666688" font-size="8" font-weight="normal">B4</text>
<text x="56" y="147" text-anchor="end" fill="#aaaacc" font-size="10" font-weight="bold">C5</text>
<text x="56" y="127" text-anchor="end" fill="#666688" font-size="8" font-weight="normal">D5</text>
<text x="56" y="107" text-anchor="end" fill="#666688" font-size="8" font-weight="normal">E5</text>
<text x="56" y="97" text-anchor="end" fill="#666688" font-size="8" font-weight="normal">F5</text>
<text x="56" y="77" text-anchor="end" fill="#666688" font-size="8" font-weight="normal">G5</text>
<text x="56" y="57" text-anchor="end" fill="#666688" font-size="8" font-weight="normal">A5</text>
<rect x="60" y="171" width="179" height="8" fill="#4a9eff" stroke="#3580cc" stroke-width="0.5" rx="2" ry="2">
  <title>RH: A4 (m.55)</title>
</rect>
<rect x="60" y="481" width="179" height="8" fill="#ff6b8a" stroke="#cc5570" stroke-width="0.5" rx="2" ry="2">
  <title>LH: D2 (m.55)</title>
</rect>
<rect x="240" y="291" width="119" height="8" fill="#ff6b8a" stroke="#cc5570" stroke-width="0.5" rx="2" ry="2">
  <title>LH: A3 (m.55)</title>
</rect>
<rect x="240" y="131" width="179" height="8" fill="#4a9eff" stroke="#3580cc" stroke-width="0.5" rx="2" ry="2">
  <title>RH: C#5 (m.56)</title>
</rect>
<rect x="240" y="441" width="179" height="8" fill="#ff6b8a" stroke="#cc5570" stroke-width="0.5" rx="2" ry="2">
  <title>LH: F#2 (m.56)</title>
</rect>
<rect x="420" y="291" width="119" height="8" fill="#ff6b8a" stroke="#cc5570" stroke-width="0.5" rx="2" ry="2">
  <title>LH: A3 (m.56)</title>
</rect>
<rect x="420" y="81" width="179" height="8" fill="#4a9eff" stroke="#3580cc" stroke-width="0.5" rx="2" ry="2">
  <title>RH: F#5 (m.57)</title>
</rect>
<rect x="420" y="511" width="179" height="8" fill="#ff6b8a" stroke="#cc5570" stroke-width="0.5" rx="2" ry="2">
  <title>LH: B1 (m.57)</title>
</rect>
<rect x="600" y="271" width="119" height="8" fill="#ff6b8a" stroke="#cc5570" stroke-width="0.5" rx="2" ry="2">
  <title>LH: B3 (m.57)</title>
</rect>
<rect x="600" y="221" width="239" height="8" fill="#4a9eff" stroke="#3580cc" stroke-width="0.5" rx="2" ry="2">
  <title>RH: E4 (m.58)</title>
</rect>
<rect x="600" y="461" width="179" height="8" fill="#ff6b8a" stroke="#cc5570" stroke-width="0.5" rx="2" ry="2">
  <title>LH: E2 (m.58)</title>
</rect>
<text x="150" y="566" text-anchor="middle" fill="#8888aa" font-size="10">55</text>
<text x="330" y="566" text-anchor="middle" fill="#8888aa" font-size="10">56</text>
<text x="510" y="566" text-anchor="middle" fill="#8888aa" font-size="10">57</text>
<text x="690" y="566" text-anchor="middle" fill="#8888aa" font-size="10">58</text>
<circle cx="64" cy="578" r="3" fill="#ffaa33"/>
<circle cx="244" cy="578" r="3" fill="#ffaa33"/>
<circle cx="424" cy="578" r="3" fill="#ffaa33"/>
<circle cx="604" cy="578" r="3" fill="#ffaa33"/>
<rect x="660" y="558" width="8" height="8" fill="#4a9eff" rx="1"/>
<text x="672" y="566" fill="#8888aa" font-size="9">Right Hand</text>
<rect x="730" y="558" width="8" height="8" fill="#ff6b8a" rx="1"/>
<text x="742" y="566" fill="#8888aa" font-size="9">Left Hand</text>
</svg>